<?xml version="1.0" encoding="utf-8"?>
<svg xmlns="http://www.w3.org/2000/svg" xmlns:xlink="http://www.w3.org/1999/xlink" width="600" height="400" viewBox="0 0 2400 1600">
<defs>
  <clipPath id="clip640">
    <rect x="0" y="0" width="2400" height="1600"/>
  </clipPath>
</defs>
<path clip-path="url(#clip640)" d="M0 1600 L2400 1600 L2400 8.88178e-14 L0 8.88178e-14  Z" fill="#ffffff" fill-rule="evenodd" fill-opacity="1"/>
<defs>
  <clipPath id="clip641">
    <rect x="480" y="0" width="1681" height="1600"/>
  </clipPath>
</defs>
<path clip-path="url(#clip640)" d="M256.209 1423.18 L2352.76 1423.18 L2352.76 47.2441 L256.209 47.2441  Z" fill="#ffffff" fill-rule="evenodd" fill-opacity="1"/>
<defs>
  <clipPath id="clip642">
    <rect x="256" y="47" width="2098" height="1377"/>
  </clipPath>
</defs>
<polyline clip-path="url(#clip642)" style="stroke:#000000; stroke-linecap:round; stroke-linejoin:round; stroke-width:2; stroke-opacity:0.1; fill:none" points="256.209,1423.18 256.209,47.2441 "/>
<polyline clip-path="url(#clip642)" style="stroke:#000000; stroke-linecap:round; stroke-linejoin:round; stroke-width:2; stroke-opacity:0.1; fill:none" points="675.518,1423.18 675.518,47.2441 "/>
<polyline clip-path="url(#clip642)" style="stroke:#000000; stroke-linecap:round; stroke-linejoin:round; stroke-width:2; stroke-opacity:0.1; fill:none" points="1094.83,1423.18 1094.83,47.2441 "/>
<polyline clip-path="url(#clip642)" style="stroke:#000000; stroke-linecap:round; stroke-linejoin:round; stroke-width:2; stroke-opacity:0.1; fill:none" points="1514.14,1423.18 1514.14,47.2441 "/>
<polyline clip-path="url(#clip642)" style="stroke:#000000; stroke-linecap:round; stroke-linejoin:round; stroke-width:2; stroke-opacity:0.1; fill:none" points="1933.45,1423.18 1933.45,47.2441 "/>
<polyline clip-path="url(#clip642)" style="stroke:#000000; stroke-linecap:round; stroke-linejoin:round; stroke-width:2; stroke-opacity:0.1; fill:none" points="2352.76,1423.18 2352.76,47.2441 "/>
<polyline clip-path="url(#clip640)" style="stroke:#000000; stroke-linecap:round; stroke-linejoin:round; stroke-width:4; stroke-opacity:1; fill:none" points="256.209,1423.18 2352.76,1423.18 "/>
<polyline clip-path="url(#clip640)" style="stroke:#000000; stroke-linecap:round; stroke-linejoin:round; stroke-width:4; stroke-opacity:1; fill:none" points="256.209,1423.18 256.209,1404.28 "/>
<polyline clip-path="url(#clip640)" style="stroke:#000000; stroke-linecap:round; stroke-linejoin:round; stroke-width:4; stroke-opacity:1; fill:none" points="675.518,1423.18 675.518,1404.28 "/>
<polyline clip-path="url(#clip640)" style="stroke:#000000; stroke-linecap:round; stroke-linejoin:round; stroke-width:4; stroke-opacity:1; fill:none" points="1094.83,1423.18 1094.83,1404.28 "/>
<polyline clip-path="url(#clip640)" style="stroke:#000000; stroke-linecap:round; stroke-linejoin:round; stroke-width:4; stroke-opacity:1; fill:none" points="1514.14,1423.18 1514.14,1404.28 "/>
<polyline clip-path="url(#clip640)" style="stroke:#000000; stroke-linecap:round; stroke-linejoin:round; stroke-width:4; stroke-opacity:1; fill:none" points="1933.45,1423.18 1933.45,1404.28 "/>
<polyline clip-path="url(#clip640)" style="stroke:#000000; stroke-linecap:round; stroke-linejoin:round; stroke-width:4; stroke-opacity:1; fill:none" points="2352.76,1423.18 2352.76,1404.28 "/>
<path clip-path="url(#clip640)" d="M234.091 1454.1 Q230.48 1454.1 228.651 1457.66 Q226.845 1461.2 226.845 1468.33 Q226.845 1475.44 228.651 1479.01 Q230.48 1482.55 234.091 1482.55 Q237.725 1482.55 239.531 1479.01 Q241.359 1475.44 241.359 1468.33 Q241.359 1461.2 239.531 1457.66 Q237.725 1454.1 234.091 1454.1 M234.091 1450.39 Q239.901 1450.39 242.956 1455 Q246.035 1459.58 246.035 1468.33 Q246.035 1477.06 242.956 1481.67 Q239.901 1486.25 234.091 1486.25 Q228.281 1486.25 225.202 1481.67 Q222.146 1477.06 222.146 1468.33 Q222.146 1459.58 225.202 1455 Q228.281 1450.39 234.091 1450.39 Z" fill="#000000" fill-rule="nonzero" fill-opacity="1" /><path clip-path="url(#clip640)" d="M254.253 1479.7 L259.137 1479.7 L259.137 1485.58 L254.253 1485.58 L254.253 1479.7 Z" fill="#000000" fill-rule="nonzero" fill-opacity="1" /><path clip-path="url(#clip640)" d="M269.368 1451.02 L287.725 1451.02 L287.725 1454.96 L273.651 1454.96 L273.651 1463.43 Q274.669 1463.08 275.688 1462.92 Q276.706 1462.73 277.725 1462.73 Q283.512 1462.73 286.891 1465.9 Q290.271 1469.08 290.271 1474.49 Q290.271 1480.07 286.799 1483.17 Q283.327 1486.25 277.007 1486.25 Q274.831 1486.25 272.563 1485.88 Q270.317 1485.51 267.91 1484.77 L267.91 1480.07 Q269.993 1481.2 272.216 1481.76 Q274.438 1482.32 276.915 1482.32 Q280.919 1482.32 283.257 1480.21 Q285.595 1478.1 285.595 1474.49 Q285.595 1470.88 283.257 1468.77 Q280.919 1466.67 276.915 1466.67 Q275.04 1466.67 273.165 1467.08 Q271.313 1467.5 269.368 1468.38 L269.368 1451.02 Z" fill="#000000" fill-rule="nonzero" fill-opacity="1" /><path clip-path="url(#clip640)" d="M652.821 1454.1 Q649.21 1454.1 647.382 1457.66 Q645.576 1461.2 645.576 1468.33 Q645.576 1475.44 647.382 1479.01 Q649.21 1482.55 652.821 1482.55 Q656.456 1482.55 658.261 1479.01 Q660.09 1475.44 660.09 1468.33 Q660.09 1461.2 658.261 1457.66 Q656.456 1454.1 652.821 1454.1 M652.821 1450.39 Q658.632 1450.39 661.687 1455 Q664.766 1459.58 664.766 1468.33 Q664.766 1477.06 661.687 1481.67 Q658.632 1486.25 652.821 1486.25 Q647.011 1486.25 643.933 1481.67 Q640.877 1477.06 640.877 1468.33 Q640.877 1459.58 643.933 1455 Q647.011 1450.39 652.821 1450.39 Z" fill="#000000" fill-rule="nonzero" fill-opacity="1" /><path clip-path="url(#clip640)" d="M672.983 1479.7 L677.868 1479.7 L677.868 1485.58 L672.983 1485.58 L672.983 1479.7 Z" fill="#000000" fill-rule="nonzero" fill-opacity="1" /><path clip-path="url(#clip640)" d="M698.631 1466.44 Q695.483 1466.44 693.631 1468.59 Q691.803 1470.74 691.803 1474.49 Q691.803 1478.22 693.631 1480.39 Q695.483 1482.55 698.631 1482.55 Q701.78 1482.55 703.608 1480.39 Q705.46 1478.22 705.46 1474.49 Q705.46 1470.74 703.608 1468.59 Q701.78 1466.44 698.631 1466.44 M707.914 1451.78 L707.914 1456.04 Q706.155 1455.21 704.349 1454.77 Q702.567 1454.33 700.807 1454.33 Q696.178 1454.33 693.724 1457.45 Q691.293 1460.58 690.946 1466.9 Q692.312 1464.89 694.372 1463.82 Q696.432 1462.73 698.909 1462.73 Q704.117 1462.73 707.127 1465.9 Q710.159 1469.05 710.159 1474.49 Q710.159 1479.82 707.011 1483.03 Q703.863 1486.25 698.631 1486.25 Q692.636 1486.25 689.465 1481.67 Q686.294 1477.06 686.294 1468.33 Q686.294 1460.14 690.182 1455.28 Q694.071 1450.39 700.622 1450.39 Q702.381 1450.39 704.164 1450.74 Q705.969 1451.09 707.914 1451.78 Z" fill="#000000" fill-rule="nonzero" fill-opacity="1" /><path clip-path="url(#clip640)" d="M1072.66 1454.1 Q1069.05 1454.1 1067.22 1457.66 Q1065.42 1461.2 1065.42 1468.33 Q1065.42 1475.44 1067.22 1479.01 Q1069.05 1482.55 1072.66 1482.55 Q1076.3 1482.55 1078.1 1479.01 Q1079.93 1475.44 1079.93 1468.33 Q1079.93 1461.2 1078.1 1457.66 Q1076.3 1454.1 1072.66 1454.1 M1072.66 1450.39 Q1078.47 1450.39 1081.53 1455 Q1084.61 1459.58 1084.61 1468.33 Q1084.61 1477.06 1081.53 1481.67 Q1078.47 1486.25 1072.66 1486.25 Q1066.85 1486.25 1063.77 1481.67 Q1060.72 1477.06 1060.72 1468.33 Q1060.72 1459.58 1063.77 1455 Q1066.85 1450.39 1072.66 1450.39 Z" fill="#000000" fill-rule="nonzero" fill-opacity="1" /><path clip-path="url(#clip640)" d="M1092.83 1479.7 L1097.71 1479.7 L1097.71 1485.58 L1092.83 1485.58 L1092.83 1479.7 Z" fill="#000000" fill-rule="nonzero" fill-opacity="1" /><path clip-path="url(#clip640)" d="M1106.71 1451.02 L1128.94 1451.02 L1128.94 1453.01 L1116.39 1485.58 L1111.51 1485.58 L1123.31 1454.96 L1106.71 1454.96 L1106.71 1451.02 Z" fill="#000000" fill-rule="nonzero" fill-opacity="1" /><path clip-path="url(#clip640)" d="M1491.57 1454.1 Q1487.96 1454.1 1486.13 1457.66 Q1484.32 1461.2 1484.32 1468.33 Q1484.32 1475.44 1486.13 1479.01 Q1487.96 1482.55 1491.57 1482.55 Q1495.2 1482.55 1497.01 1479.01 Q1498.84 1475.44 1498.84 1468.33 Q1498.84 1461.2 1497.01 1457.66 Q1495.2 1454.1 1491.57 1454.1 M1491.57 1450.39 Q1497.38 1450.39 1500.43 1455 Q1503.51 1459.58 1503.51 1468.33 Q1503.51 1477.06 1500.43 1481.67 Q1497.38 1486.25 1491.57 1486.25 Q1485.76 1486.25 1482.68 1481.67 Q1479.62 1477.06 1479.62 1468.33 Q1479.62 1459.58 1482.68 1455 Q1485.76 1450.39 1491.57 1450.39 Z" fill="#000000" fill-rule="nonzero" fill-opacity="1" /><path clip-path="url(#clip640)" d="M1511.73 1479.7 L1516.61 1479.7 L1516.61 1485.58 L1511.73 1485.58 L1511.73 1479.7 Z" fill="#000000" fill-rule="nonzero" fill-opacity="1" /><path clip-path="url(#clip640)" d="M1536.8 1469.17 Q1533.47 1469.17 1531.54 1470.95 Q1529.65 1472.73 1529.65 1475.86 Q1529.65 1478.98 1531.54 1480.77 Q1533.47 1482.55 1536.8 1482.55 Q1540.13 1482.55 1542.05 1480.77 Q1543.97 1478.96 1543.97 1475.86 Q1543.97 1472.73 1542.05 1470.95 Q1540.16 1469.17 1536.8 1469.17 M1532.12 1467.18 Q1529.11 1466.44 1527.42 1464.38 Q1525.76 1462.32 1525.76 1459.35 Q1525.76 1455.21 1528.7 1452.8 Q1531.66 1450.39 1536.8 1450.39 Q1541.96 1450.39 1544.9 1452.8 Q1547.84 1455.21 1547.84 1459.35 Q1547.84 1462.32 1546.15 1464.38 Q1544.48 1466.44 1541.5 1467.18 Q1544.88 1467.96 1546.75 1470.26 Q1548.65 1472.55 1548.65 1475.86 Q1548.65 1480.88 1545.57 1483.57 Q1542.52 1486.25 1536.8 1486.25 Q1531.08 1486.25 1528 1483.57 Q1524.95 1480.88 1524.95 1475.86 Q1524.95 1472.55 1526.85 1470.26 Q1528.74 1467.96 1532.12 1467.18 M1530.41 1459.79 Q1530.41 1462.48 1532.08 1463.98 Q1533.77 1465.49 1536.8 1465.49 Q1539.81 1465.49 1541.5 1463.98 Q1543.21 1462.48 1543.21 1459.79 Q1543.21 1457.11 1541.5 1455.6 Q1539.81 1454.1 1536.8 1454.1 Q1533.77 1454.1 1532.08 1455.6 Q1530.41 1457.11 1530.41 1459.79 Z" fill="#000000" fill-rule="nonzero" fill-opacity="1" /><path clip-path="url(#clip640)" d="M1910.92 1454.1 Q1907.31 1454.1 1905.48 1457.66 Q1903.68 1461.2 1903.68 1468.33 Q1903.68 1475.44 1905.48 1479.01 Q1907.31 1482.55 1910.92 1482.55 Q1914.56 1482.55 1916.36 1479.01 Q1918.19 1475.44 1918.19 1468.33 Q1918.19 1461.2 1916.36 1457.66 Q1914.56 1454.1 1910.92 1454.1 M1910.92 1450.39 Q1916.73 1450.39 1919.79 1455 Q1922.87 1459.58 1922.87 1468.33 Q1922.87 1477.06 1919.79 1481.67 Q1916.73 1486.25 1910.92 1486.25 Q1905.11 1486.25 1902.03 1481.67 Q1898.98 1477.06 1898.98 1468.33 Q1898.98 1459.58 1902.03 1455 Q1905.11 1450.39 1910.92 1450.39 Z" fill="#000000" fill-rule="nonzero" fill-opacity="1" /><path clip-path="url(#clip640)" d="M1931.09 1479.7 L1935.97 1479.7 L1935.97 1485.58 L1931.09 1485.58 L1931.09 1479.7 Z" fill="#000000" fill-rule="nonzero" fill-opacity="1" /><path clip-path="url(#clip640)" d="M1946.29 1484.86 L1946.29 1480.6 Q1948.05 1481.44 1949.86 1481.88 Q1951.66 1482.32 1953.4 1482.32 Q1958.03 1482.32 1960.46 1479.21 Q1962.91 1476.09 1963.26 1469.75 Q1961.92 1471.74 1959.86 1472.8 Q1957.8 1473.87 1955.3 1473.87 Q1950.11 1473.87 1947.08 1470.74 Q1944.07 1467.59 1944.07 1462.15 Q1944.07 1456.83 1947.22 1453.61 Q1950.37 1450.39 1955.6 1450.39 Q1961.59 1450.39 1964.74 1455 Q1967.91 1459.58 1967.91 1468.33 Q1967.91 1476.51 1964.02 1481.39 Q1960.16 1486.25 1953.61 1486.25 Q1951.85 1486.25 1950.04 1485.9 Q1948.24 1485.56 1946.29 1484.86 M1955.6 1470.21 Q1958.75 1470.21 1960.58 1468.06 Q1962.43 1465.9 1962.43 1462.15 Q1962.43 1458.43 1960.58 1456.27 Q1958.75 1454.1 1955.6 1454.1 Q1952.45 1454.1 1950.6 1456.27 Q1948.77 1458.43 1948.77 1462.15 Q1948.77 1465.9 1950.6 1468.06 Q1952.45 1470.21 1955.6 1470.21 Z" fill="#000000" fill-rule="nonzero" fill-opacity="1" /><path clip-path="url(#clip640)" d="M2319.91 1481.64 L2327.55 1481.64 L2327.55 1455.28 L2319.24 1456.95 L2319.24 1452.69 L2327.5 1451.02 L2332.18 1451.02 L2332.18 1481.64 L2339.82 1481.64 L2339.82 1485.58 L2319.91 1485.58 L2319.91 1481.64 Z" fill="#000000" fill-rule="nonzero" fill-opacity="1" /><path clip-path="url(#clip640)" d="M2349.26 1479.7 L2354.14 1479.7 L2354.14 1485.58 L2349.26 1485.58 L2349.26 1479.7 Z" fill="#000000" fill-rule="nonzero" fill-opacity="1" /><path clip-path="url(#clip640)" d="M2374.33 1454.1 Q2370.72 1454.1 2368.89 1457.66 Q2367.08 1461.2 2367.08 1468.33 Q2367.08 1475.44 2368.89 1479.01 Q2370.72 1482.55 2374.33 1482.55 Q2377.96 1482.55 2379.77 1479.01 Q2381.6 1475.44 2381.6 1468.33 Q2381.6 1461.2 2379.77 1457.66 Q2377.96 1454.1 2374.33 1454.1 M2374.33 1450.39 Q2380.14 1450.39 2383.2 1455 Q2386.27 1459.58 2386.27 1468.33 Q2386.27 1477.06 2383.2 1481.67 Q2380.14 1486.25 2374.33 1486.25 Q2368.52 1486.25 2365.44 1481.67 Q2362.39 1477.06 2362.39 1468.33 Q2362.39 1459.58 2365.44 1455 Q2368.52 1450.39 2374.33 1450.39 Z" fill="#000000" fill-rule="nonzero" fill-opacity="1" /><path clip-path="url(#clip640)" d="M1307.86 1550.12 Q1300.76 1550.12 1298.02 1551.75 Q1295.28 1553.37 1295.28 1557.29 Q1295.28 1560.4 1297.32 1562.25 Q1299.39 1564.07 1302.92 1564.07 Q1307.79 1564.07 1310.72 1560.63 Q1313.68 1557.16 1313.68 1551.43 L1313.68 1550.12 L1307.86 1550.12 M1319.54 1547.71 L1319.54 1568.04 L1313.68 1568.04 L1313.68 1562.63 Q1311.68 1565.88 1308.68 1567.44 Q1305.69 1568.97 1301.36 1568.97 Q1295.89 1568.97 1292.64 1565.91 Q1289.43 1562.82 1289.43 1557.67 Q1289.43 1551.65 1293.44 1548.6 Q1297.48 1545.54 1305.47 1545.54 L1313.68 1545.54 L1313.68 1544.97 Q1313.68 1540.93 1311.01 1538.73 Q1308.37 1536.5 1303.56 1536.5 Q1300.5 1536.5 1297.61 1537.23 Q1294.71 1537.97 1292.04 1539.43 L1292.04 1534.02 Q1295.25 1532.78 1298.28 1532.17 Q1301.3 1531.54 1304.16 1531.54 Q1311.9 1531.54 1315.72 1535.55 Q1319.54 1539.56 1319.54 1547.71 Z" fill="#000000" fill-rule="nonzero" fill-opacity="1" /><polyline clip-path="url(#clip642)" style="stroke:#000000; stroke-linecap:round; stroke-linejoin:round; stroke-width:2; stroke-opacity:0.1; fill:none" points="256.209,1423.18 2352.76,1423.18 "/>
<polyline clip-path="url(#clip642)" style="stroke:#000000; stroke-linecap:round; stroke-linejoin:round; stroke-width:2; stroke-opacity:0.1; fill:none" points="256.209,1220.84 2352.76,1220.84 "/>
<polyline clip-path="url(#clip642)" style="stroke:#000000; stroke-linecap:round; stroke-linejoin:round; stroke-width:2; stroke-opacity:0.1; fill:none" points="256.209,1018.49 2352.76,1018.49 "/>
<polyline clip-path="url(#clip642)" style="stroke:#000000; stroke-linecap:round; stroke-linejoin:round; stroke-width:2; stroke-opacity:0.1; fill:none" points="256.209,816.149 2352.76,816.149 "/>
<polyline clip-path="url(#clip642)" style="stroke:#000000; stroke-linecap:round; stroke-linejoin:round; stroke-width:2; stroke-opacity:0.1; fill:none" points="256.209,613.806 2352.76,613.806 "/>
<polyline clip-path="url(#clip642)" style="stroke:#000000; stroke-linecap:round; stroke-linejoin:round; stroke-width:2; stroke-opacity:0.1; fill:none" points="256.209,411.462 2352.76,411.462 "/>
<polyline clip-path="url(#clip642)" style="stroke:#000000; stroke-linecap:round; stroke-linejoin:round; stroke-width:2; stroke-opacity:0.1; fill:none" points="256.209,209.119 2352.76,209.119 "/>
<polyline clip-path="url(#clip640)" style="stroke:#000000; stroke-linecap:round; stroke-linejoin:round; stroke-width:4; stroke-opacity:1; fill:none" points="256.209,1423.18 256.209,47.2441 "/>
<polyline clip-path="url(#clip640)" style="stroke:#000000; stroke-linecap:round; stroke-linejoin:round; stroke-width:4; stroke-opacity:1; fill:none" points="256.209,1423.18 275.106,1423.18 "/>
<polyline clip-path="url(#clip640)" style="stroke:#000000; stroke-linecap:round; stroke-linejoin:round; stroke-width:4; stroke-opacity:1; fill:none" points="256.209,1220.84 275.106,1220.84 "/>
<polyline clip-path="url(#clip640)" style="stroke:#000000; stroke-linecap:round; stroke-linejoin:round; stroke-width:4; stroke-opacity:1; fill:none" points="256.209,1018.49 275.106,1018.49 "/>
<polyline clip-path="url(#clip640)" style="stroke:#000000; stroke-linecap:round; stroke-linejoin:round; stroke-width:4; stroke-opacity:1; fill:none" points="256.209,816.149 275.106,816.149 "/>
<polyline clip-path="url(#clip640)" style="stroke:#000000; stroke-linecap:round; stroke-linejoin:round; stroke-width:4; stroke-opacity:1; fill:none" points="256.209,613.806 275.106,613.806 "/>
<polyline clip-path="url(#clip640)" style="stroke:#000000; stroke-linecap:round; stroke-linejoin:round; stroke-width:4; stroke-opacity:1; fill:none" points="256.209,411.462 275.106,411.462 "/>
<polyline clip-path="url(#clip640)" style="stroke:#000000; stroke-linecap:round; stroke-linejoin:round; stroke-width:4; stroke-opacity:1; fill:none" points="256.209,209.119 275.106,209.119 "/>
<path clip-path="url(#clip640)" d="M114.26 1423.63 L143.936 1423.63 L143.936 1427.57 L114.26 1427.57 L114.26 1423.63 Z" fill="#000000" fill-rule="nonzero" fill-opacity="1" /><path clip-path="url(#clip640)" d="M164.028 1408.98 Q160.417 1408.98 158.589 1412.54 Q156.783 1416.08 156.783 1423.21 Q156.783 1430.32 158.589 1433.89 Q160.417 1437.43 164.028 1437.43 Q167.663 1437.43 169.468 1433.89 Q171.297 1430.32 171.297 1423.21 Q171.297 1416.08 169.468 1412.54 Q167.663 1408.98 164.028 1408.98 M164.028 1405.27 Q169.839 1405.27 172.894 1409.88 Q175.973 1414.46 175.973 1423.21 Q175.973 1431.94 172.894 1436.55 Q169.839 1441.13 164.028 1441.13 Q158.218 1441.13 155.14 1436.55 Q152.084 1431.94 152.084 1423.21 Q152.084 1414.46 155.14 1409.88 Q158.218 1405.27 164.028 1405.27 Z" fill="#000000" fill-rule="nonzero" fill-opacity="1" /><path clip-path="url(#clip640)" d="M184.19 1434.58 L189.075 1434.58 L189.075 1440.46 L184.19 1440.46 L184.19 1434.58 Z" fill="#000000" fill-rule="nonzero" fill-opacity="1" /><path clip-path="url(#clip640)" d="M199.306 1405.9 L217.662 1405.9 L217.662 1409.84 L203.588 1409.84 L203.588 1418.31 Q204.607 1417.96 205.625 1417.8 Q206.644 1417.61 207.662 1417.61 Q213.449 1417.61 216.829 1420.78 Q220.209 1423.96 220.209 1429.37 Q220.209 1434.95 216.736 1438.05 Q213.264 1441.13 206.945 1441.13 Q204.769 1441.13 202.5 1440.76 Q200.255 1440.39 197.848 1439.65 L197.848 1434.95 Q199.931 1436.08 202.153 1436.64 Q204.375 1437.2 206.852 1437.2 Q210.857 1437.2 213.195 1435.09 Q215.533 1432.98 215.533 1429.37 Q215.533 1425.76 213.195 1423.65 Q210.857 1421.55 206.852 1421.55 Q204.977 1421.55 203.102 1421.96 Q201.25 1422.38 199.306 1423.26 L199.306 1405.9 Z" fill="#000000" fill-rule="nonzero" fill-opacity="1" /><path clip-path="url(#clip640)" d="M163.033 1206.64 Q159.422 1206.64 157.593 1210.2 Q155.788 1213.74 155.788 1220.87 Q155.788 1227.98 157.593 1231.54 Q159.422 1235.08 163.033 1235.08 Q166.667 1235.08 168.473 1231.54 Q170.302 1227.98 170.302 1220.87 Q170.302 1213.74 168.473 1210.2 Q166.667 1206.64 163.033 1206.64 M163.033 1202.93 Q168.843 1202.93 171.899 1207.54 Q174.977 1212.12 174.977 1220.87 Q174.977 1229.6 171.899 1234.2 Q168.843 1238.79 163.033 1238.79 Q157.223 1238.79 154.144 1234.2 Q151.089 1229.6 151.089 1220.87 Q151.089 1212.12 154.144 1207.54 Q157.223 1202.93 163.033 1202.93 Z" fill="#000000" fill-rule="nonzero" fill-opacity="1" /><path clip-path="url(#clip640)" d="M183.195 1232.24 L188.079 1232.24 L188.079 1238.12 L183.195 1238.12 L183.195 1232.24 Z" fill="#000000" fill-rule="nonzero" fill-opacity="1" /><path clip-path="url(#clip640)" d="M208.264 1206.64 Q204.653 1206.64 202.824 1210.2 Q201.019 1213.74 201.019 1220.87 Q201.019 1227.98 202.824 1231.54 Q204.653 1235.08 208.264 1235.08 Q211.899 1235.08 213.704 1231.54 Q215.533 1227.98 215.533 1220.87 Q215.533 1213.74 213.704 1210.2 Q211.899 1206.64 208.264 1206.64 M208.264 1202.93 Q214.074 1202.93 217.13 1207.54 Q220.209 1212.12 220.209 1220.87 Q220.209 1229.6 217.13 1234.2 Q214.074 1238.79 208.264 1238.79 Q202.454 1238.79 199.375 1234.2 Q196.32 1229.6 196.32 1220.87 Q196.32 1212.12 199.375 1207.54 Q202.454 1202.93 208.264 1202.93 Z" fill="#000000" fill-rule="nonzero" fill-opacity="1" /><path clip-path="url(#clip640)" d="M164.028 1004.29 Q160.417 1004.29 158.589 1007.86 Q156.783 1011.4 156.783 1018.53 Q156.783 1025.63 158.589 1029.2 Q160.417 1032.74 164.028 1032.74 Q167.663 1032.74 169.468 1029.2 Q171.297 1025.63 171.297 1018.53 Q171.297 1011.4 169.468 1007.86 Q167.663 1004.29 164.028 1004.29 M164.028 1000.59 Q169.839 1000.59 172.894 1005.19 Q175.973 1009.78 175.973 1018.53 Q175.973 1027.25 172.894 1031.86 Q169.839 1036.44 164.028 1036.44 Q158.218 1036.44 155.14 1031.86 Q152.084 1027.25 152.084 1018.53 Q152.084 1009.78 155.14 1005.19 Q158.218 1000.59 164.028 1000.59 Z" fill="#000000" fill-rule="nonzero" fill-opacity="1" /><path clip-path="url(#clip640)" d="M184.19 1029.89 L189.075 1029.89 L189.075 1035.77 L184.19 1035.77 L184.19 1029.89 Z" fill="#000000" fill-rule="nonzero" fill-opacity="1" /><path clip-path="url(#clip640)" d="M199.306 1001.21 L217.662 1001.21 L217.662 1005.15 L203.588 1005.15 L203.588 1013.62 Q204.607 1013.27 205.625 1013.11 Q206.644 1012.93 207.662 1012.93 Q213.449 1012.93 216.829 1016.1 Q220.209 1019.27 220.209 1024.68 Q220.209 1030.26 216.736 1033.37 Q213.264 1036.44 206.945 1036.44 Q204.769 1036.44 202.5 1036.07 Q200.255 1035.7 197.848 1034.96 L197.848 1030.26 Q199.931 1031.4 202.153 1031.95 Q204.375 1032.51 206.852 1032.51 Q210.857 1032.51 213.195 1030.4 Q215.533 1028.3 215.533 1024.68 Q215.533 1021.07 213.195 1018.97 Q210.857 1016.86 206.852 1016.86 Q204.977 1016.86 203.102 1017.28 Q201.25 1017.69 199.306 1018.57 L199.306 1001.21 Z" fill="#000000" fill-rule="nonzero" fill-opacity="1" /><path clip-path="url(#clip640)" d="M153.843 829.494 L161.482 829.494 L161.482 803.129 L153.172 804.795 L153.172 800.536 L161.436 798.869 L166.112 798.869 L166.112 829.494 L173.751 829.494 L173.751 833.429 L153.843 833.429 L153.843 829.494 Z" fill="#000000" fill-rule="nonzero" fill-opacity="1" /><path clip-path="url(#clip640)" d="M183.195 827.55 L188.079 827.55 L188.079 833.429 L183.195 833.429 L183.195 827.55 Z" fill="#000000" fill-rule="nonzero" fill-opacity="1" /><path clip-path="url(#clip640)" d="M208.264 801.948 Q204.653 801.948 202.824 805.513 Q201.019 809.054 201.019 816.184 Q201.019 823.291 202.824 826.855 Q204.653 830.397 208.264 830.397 Q211.899 830.397 213.704 826.855 Q215.533 823.291 215.533 816.184 Q215.533 809.054 213.704 805.513 Q211.899 801.948 208.264 801.948 M208.264 798.244 Q214.074 798.244 217.13 802.851 Q220.209 807.434 220.209 816.184 Q220.209 824.911 217.13 829.517 Q214.074 834.101 208.264 834.101 Q202.454 834.101 199.375 829.517 Q196.32 824.911 196.32 816.184 Q196.32 807.434 199.375 802.851 Q202.454 798.244 208.264 798.244 Z" fill="#000000" fill-rule="nonzero" fill-opacity="1" /><path clip-path="url(#clip640)" d="M154.839 627.151 L162.477 627.151 L162.477 600.785 L154.167 602.452 L154.167 598.193 L162.431 596.526 L167.107 596.526 L167.107 627.151 L174.746 627.151 L174.746 631.086 L154.839 631.086 L154.839 627.151 Z" fill="#000000" fill-rule="nonzero" fill-opacity="1" /><path clip-path="url(#clip640)" d="M184.19 625.206 L189.075 625.206 L189.075 631.086 L184.19 631.086 L184.19 625.206 Z" fill="#000000" fill-rule="nonzero" fill-opacity="1" /><path clip-path="url(#clip640)" d="M199.306 596.526 L217.662 596.526 L217.662 600.461 L203.588 600.461 L203.588 608.933 Q204.607 608.586 205.625 608.424 Q206.644 608.239 207.662 608.239 Q213.449 608.239 216.829 611.41 Q220.209 614.581 220.209 619.998 Q220.209 625.577 216.736 628.678 Q213.264 631.757 206.945 631.757 Q204.769 631.757 202.5 631.387 Q200.255 631.016 197.848 630.276 L197.848 625.577 Q199.931 626.711 202.153 627.266 Q204.375 627.822 206.852 627.822 Q210.857 627.822 213.195 625.716 Q215.533 623.609 215.533 619.998 Q215.533 616.387 213.195 614.28 Q210.857 612.174 206.852 612.174 Q204.977 612.174 203.102 612.591 Q201.25 613.007 199.306 613.887 L199.306 596.526 Z" fill="#000000" fill-rule="nonzero" fill-opacity="1" /><path clip-path="url(#clip640)" d="M157.061 424.807 L173.38 424.807 L173.38 428.742 L151.436 428.742 L151.436 424.807 Q154.098 422.053 158.681 417.423 Q163.288 412.77 164.468 411.428 Q166.714 408.905 167.593 407.168 Q168.496 405.409 168.496 403.719 Q168.496 400.965 166.552 399.229 Q164.63 397.493 161.528 397.493 Q159.329 397.493 156.876 398.256 Q154.445 399.02 151.667 400.571 L151.667 395.849 Q154.491 394.715 156.945 394.136 Q159.399 393.557 161.436 393.557 Q166.806 393.557 170.001 396.243 Q173.195 398.928 173.195 403.418 Q173.195 405.548 172.385 407.469 Q171.598 409.367 169.491 411.96 Q168.913 412.631 165.811 415.849 Q162.709 419.043 157.061 424.807 Z" fill="#000000" fill-rule="nonzero" fill-opacity="1" /><path clip-path="url(#clip640)" d="M183.195 422.863 L188.079 422.863 L188.079 428.742 L183.195 428.742 L183.195 422.863 Z" fill="#000000" fill-rule="nonzero" fill-opacity="1" /><path clip-path="url(#clip640)" d="M208.264 397.261 Q204.653 397.261 202.824 400.826 Q201.019 404.368 201.019 411.497 Q201.019 418.604 202.824 422.168 Q204.653 425.71 208.264 425.71 Q211.899 425.71 213.704 422.168 Q215.533 418.604 215.533 411.497 Q215.533 404.368 213.704 400.826 Q211.899 397.261 208.264 397.261 M208.264 393.557 Q214.074 393.557 217.13 398.164 Q220.209 402.747 220.209 411.497 Q220.209 420.224 217.13 424.83 Q214.074 429.414 208.264 429.414 Q202.454 429.414 199.375 424.83 Q196.32 420.224 196.32 411.497 Q196.32 402.747 199.375 398.164 Q202.454 393.557 208.264 393.557 Z" fill="#000000" fill-rule="nonzero" fill-opacity="1" /><path clip-path="url(#clip640)" d="M158.056 222.464 L174.376 222.464 L174.376 226.399 L152.431 226.399 L152.431 222.464 Q155.093 219.709 159.677 215.08 Q164.283 210.427 165.464 209.084 Q167.709 206.561 168.589 204.825 Q169.491 203.066 169.491 201.376 Q169.491 198.621 167.547 196.885 Q165.626 195.149 162.524 195.149 Q160.325 195.149 157.871 195.913 Q155.44 196.677 152.663 198.228 L152.663 193.506 Q155.487 192.371 157.94 191.793 Q160.394 191.214 162.431 191.214 Q167.802 191.214 170.996 193.899 Q174.19 196.584 174.19 201.075 Q174.19 203.205 173.38 205.126 Q172.593 207.024 170.487 209.617 Q169.908 210.288 166.806 213.505 Q163.704 216.7 158.056 222.464 Z" fill="#000000" fill-rule="nonzero" fill-opacity="1" /><path clip-path="url(#clip640)" d="M184.19 220.519 L189.075 220.519 L189.075 226.399 L184.19 226.399 L184.19 220.519 Z" fill="#000000" fill-rule="nonzero" fill-opacity="1" /><path clip-path="url(#clip640)" d="M199.306 191.839 L217.662 191.839 L217.662 195.774 L203.588 195.774 L203.588 204.246 Q204.607 203.899 205.625 203.737 Q206.644 203.552 207.662 203.552 Q213.449 203.552 216.829 206.723 Q220.209 209.894 220.209 215.311 Q220.209 220.89 216.736 223.991 Q213.264 227.07 206.945 227.07 Q204.769 227.07 202.5 226.7 Q200.255 226.329 197.848 225.589 L197.848 220.89 Q199.931 222.024 202.153 222.579 Q204.375 223.135 206.852 223.135 Q210.857 223.135 213.195 221.029 Q215.533 218.922 215.533 215.311 Q215.533 211.7 213.195 209.593 Q210.857 207.487 206.852 207.487 Q204.977 207.487 203.102 207.904 Q201.25 208.32 199.306 209.2 L199.306 191.839 Z" fill="#000000" fill-rule="nonzero" fill-opacity="1" /><path clip-path="url(#clip640)" d="M34.0217 721.351 Q33.6079 722.528 33.2896 723.706 Q32.4621 726.857 32.4621 730.231 Q32.4621 736.055 35.6131 739.302 Q38.5413 742.326 43.9204 742.899 L43.9204 721.351 L48.5037 721.351 L48.5037 742.899 Q53.8827 742.326 56.8109 739.302 Q59.9619 736.055 59.9619 730.231 Q59.9619 726.157 59.1344 723.706 L58.3387 721.351 L63.654 721.351 L64.227 723.865 Q64.9272 727.175 64.9272 730.581 Q64.9272 739.111 59.9619 744.076 Q54.9967 749.073 46.212 749.073 Q37.4273 749.073 32.4621 744.076 Q27.4968 739.111 27.4968 730.581 Q27.4968 727.366 28.1971 723.865 Q28.4517 722.592 28.8336 721.351 L34.0217 721.351 Z" fill="#000000" fill-rule="nonzero" fill-opacity="1" /><path clip-path="url(#clip642)" d="M256.209 1423.18 L256.209 1423.18 L675.518 1423.18 L1094.83 1423.18 L1514.14 1423.18 L1933.45 1423.18 L2352.76 1423.18 L2352.76 1423.18 L2352.76 1423.18 L2352.76 1423.18 L2352.76 1342.24 L2352.76 1342.24 L2352.76 1297.76 L2275.57 1261.31 L2099.36 1180.37 L1933.45 1144.37 L1872.14 1099.43 L1871.13 1018.49 L1818.47 937.555 L1514.14 865.985 L1491.47 856.618 L1403.22 775.681 L1399.78 694.743 L1374.04 613.806 L1321.98 532.868 L1234.27 451.931 L1098.51 370.994 L1094.83 366.928 L1072.95 290.056 L1072.75 209.119 L1072.39 128.181 L1071.93 47.2441 L675.518 47.2441 L675.518 47.2441 L256.209 47.2441 L256.209 47.2441 L256.209 47.2441 L256.209 47.2441 L256.209 128.181 L256.209 209.119 L256.209 290.056 L256.209 370.994 L256.209 451.931 L256.209 532.868 L256.209 613.806 L256.209 694.743 L256.209 775.681 L256.209 856.618 L256.209 937.555 L256.209 1018.49 L256.209 1099.43 L256.209 1180.37 L256.209 1261.31 L256.209 1342.24 L256.209 1423.18 L256.209 1423.18 L256.209 1423.18  Z" fill="#008000" fill-rule="evenodd" fill-opacity="1"/>
<path clip-path="url(#clip642)" d="M256.209 1423.18 L256.209 1423.18 L675.518 1423.18 L1094.83 1423.18 L1514.14 1423.18 L1933.45 1423.18 L2352.76 1423.18 L2352.76 1423.18 L2352.76 1423.18 L2352.76 1423.18 L2352.76 1342.24 L2352.76 1342.24 L2352.76 1342.05 L2181.8 1261.31 L1933.45 1192.76 L1885.72 1180.37 L1777.97 1099.43 L1764.97 1018.49 L1645.83 937.555 L1514.14 906.586 L1393.22 856.618 L1314.24 775.681 L1307.61 694.743 L1261.1 613.806 L1171.82 532.868 L1094.83 485.459 L1059.13 451.931 L998.008 370.994 L970.457 290.056 L968.357 209.119 L966.175 128.181 L964.245 47.2441 L675.518 47.2441 L675.518 47.2441 L256.209 47.2441 L256.209 47.2441 L256.209 47.2441 L256.209 47.2441 L256.209 128.181 L256.209 209.119 L256.209 290.056 L256.209 370.994 L256.209 451.931 L256.209 532.868 L256.209 613.806 L256.209 694.743 L256.209 775.681 L256.209 856.618 L256.209 937.555 L256.209 1018.49 L256.209 1099.43 L256.209 1180.37 L256.209 1261.31 L256.209 1342.24 L256.209 1423.18 L256.209 1423.18 L256.209 1423.18  Z" fill="#fea400" fill-rule="evenodd" fill-opacity="1"/>
<path clip-path="url(#clip642)" d="M256.209 1423.18 L256.209 1423.18 L675.518 1423.18 L1094.83 1423.18 L1514.14 1423.18 L1933.45 1423.18 L2352.76 1423.18 L2352.76 1423.18 L2352.76 1423.18 L2352.76 1423.18 L2352.76 1423.18 L2352.76 1368.59 L2233.79 1342.24 L2087.61 1261.31 L1933.45 1218.75 L1785.58 1180.37 L1683.38 1099.43 L1658.35 1018.49 L1514.14 949.775 L1485.56 937.555 L1294.55 856.618 L1224.87 775.681 L1215.04 694.743 L1147.67 613.806 L1094.83 574.337 L1044.82 532.868 L960.265 451.931 L899.658 370.994 L867.521 290.056 L863.513 209.119 L859.5 128.181 L856.095 47.2441 L675.518 47.2441 L675.518 47.2441 L256.209 47.2441 L256.209 47.2441 L256.209 47.2441 L256.209 47.2441 L256.209 128.181 L256.209 209.119 L256.209 290.056 L256.209 370.994 L256.209 451.931 L256.209 532.868 L256.209 613.806 L256.209 694.743 L256.209 775.681 L256.209 856.618 L256.209 937.555 L256.209 1018.49 L256.209 1099.43 L256.209 1180.37 L256.209 1261.31 L256.209 1342.24 L256.209 1423.18 L256.209 1423.18 L256.209 1423.18  Z" fill="#ff0000" fill-rule="evenodd" fill-opacity="1"/>
<polyline clip-path="url(#clip642)" style="stroke:#000000; stroke-linecap:round; stroke-linejoin:round; stroke-width:4; stroke-opacity:1; fill:none" points="256.209,1423.18 256.209,1423.18 675.518,1423.18 1094.83,1423.18 1514.14,1423.18 1933.45,1423.18 2352.76,1423.18 2352.76,1342.24 2352.76,1297.76 2275.57,1261.31 2099.36,1180.37 1933.45,1144.37 1872.14,1099.43 1871.13,1018.49 1818.47,937.555 1514.14,865.985 1491.47,856.618 1403.22,775.681 1399.78,694.743 1374.04,613.806 1321.98,532.868 1234.27,451.931 1098.51,370.994 1094.83,366.928 1072.95,290.056 1072.75,209.119 1072.39,128.181 1071.93,47.2441 675.518,47.2441 256.209,47.2441 256.209,128.181 256.209,209.119 256.209,290.056 256.209,370.994 256.209,451.931 256.209,532.868 256.209,613.806 256.209,694.743 256.209,775.681 256.209,856.618 256.209,937.555 256.209,1018.49 256.209,1099.43 256.209,1180.37 256.209,1261.31 256.209,1342.24 256.209,1423.18 "/>
<polyline clip-path="url(#clip642)" style="stroke:#000000; stroke-linecap:round; stroke-linejoin:round; stroke-width:4; stroke-opacity:1; fill:none" points="256.209,1423.18 256.209,1423.18 675.518,1423.18 1094.83,1423.18 1514.14,1423.18 1933.45,1423.18 2352.76,1423.18 2352.76,1342.24 2352.76,1342.05 2181.8,1261.31 1933.45,1192.76 1885.72,1180.37 1777.97,1099.43 1764.97,1018.49 1645.83,937.555 1514.14,906.586 1393.22,856.618 1314.24,775.681 1307.61,694.743 1261.1,613.806 1171.82,532.868 1094.83,485.459 1059.13,451.931 998.008,370.994 970.457,290.056 968.357,209.119 966.175,128.181 964.245,47.2441 675.518,47.2441 256.209,47.2441 256.209,128.181 256.209,209.119 256.209,290.056 256.209,370.994 256.209,451.931 256.209,532.868 256.209,613.806 256.209,694.743 256.209,775.681 256.209,856.618 256.209,937.555 256.209,1018.49 256.209,1099.43 256.209,1180.37 256.209,1261.31 256.209,1342.24 256.209,1423.18 "/>
<polyline clip-path="url(#clip642)" style="stroke:#000000; stroke-linecap:round; stroke-linejoin:round; stroke-width:4; stroke-opacity:1; fill:none" points="256.209,1423.18 256.209,1423.18 675.518,1423.18 1094.83,1423.18 1514.14,1423.18 1933.45,1423.18 2352.76,1423.18 2352.76,1368.59 2233.79,1342.24 2087.61,1261.31 1933.45,1218.75 1785.58,1180.37 1683.38,1099.43 1658.35,1018.49 1514.14,949.775 1485.56,937.555 1294.55,856.618 1224.87,775.681 1215.04,694.743 1147.67,613.806 1094.83,574.337 1044.82,532.868 960.265,451.931 899.658,370.994 867.521,290.056 863.513,209.119 859.5,128.181 856.095,47.2441 675.518,47.2441 256.209,47.2441 256.209,128.181 256.209,209.119 256.209,290.056 256.209,370.994 256.209,451.931 256.209,532.868 256.209,613.806 256.209,694.743 256.209,775.681 256.209,856.618 256.209,937.555 256.209,1018.49 256.209,1099.43 256.209,1180.37 256.209,1261.31 256.209,1342.24 256.209,1423.18 "/>
<path clip-path="url(#clip642)" d="M1414.46 748.166 L1399.42 791.43 L1353.6 792.39 L1390.14 820.102 L1376.83 863.942 L1414.46 837.766 L1452.1 863.942 L1438.78 820.102 L1475.33 792.39 L1429.5 791.43 L1414.46 748.166 Z" fill="#00ffff" fill-rule="evenodd" fill-opacity="1" stroke="#000000" stroke-opacity="1" stroke-width="3.2"/>
<polyline clip-path="url(#clip642)" style="stroke:#000000; stroke-linecap:round; stroke-linejoin:round; stroke-width:16; stroke-opacity:1; fill:none" points="-1840.34,-802.599 -1797.98,-802.599 -1755.63,-802.599 -1713.28,-802.599 -1670.92,-802.599 -1628.57,-802.599 -1586.21,-802.599 -1543.86,-802.599 -1501.5,-802.599 -1459.15,-802.599 -1416.79,-802.599 -1374.44,-802.599 -1332.08,-802.599 -1289.73,-802.599 -1247.38,-802.599 -1205.02,-802.599 -1162.67,-802.599 -1120.31,-802.599 -1077.96,-802.599 -1035.6,-802.599 -993.249,-802.599 -950.894,-802.599 -908.54,-802.599 -866.185,-802.599 -823.831,-802.599 -781.476,-802.599 -739.122,-802.599 -696.767,-802.599 -654.413,-802.599 -612.058,-802.599 -569.704,-802.599 -527.349,-802.599 -484.995,-802.599 -442.64,-802.599 -400.286,-802.599 -357.931,-802.599 -315.577,-802.599 -273.222,-802.599 -230.868,-802.599 -188.513,-802.599 -146.159,-802.599 -103.804,-802.599 -61.45,-802.599 -19.0955,-802.599 23.259,-802.599 65.6135,-802.599 107.968,-802.599 150.322,-802.599 192.677,-802.599 235.031,-802.599 277.386,-802.599 319.74,-802.599 362.095,-802.599 404.449,-802.599 446.804,-802.599 489.158,-802.599 531.513,-802.599 573.867,-802.599 616.222,-802.599 658.576,-802.599 700.931,-802.599 743.285,-802.599 785.64,-802.599 827.994,21.0825 870.349,92.6181 912.703,164.154 955.058,221.382 997.412,292.918 1039.77,350.146 1082.12,407.375 1124.48,450.296 1166.83,507.524 1209.18,550.446 1251.54,607.674 1293.89,650.596 1336.25,693.517 1378.6,722.131 1420.96,765.053 1463.31,793.667 1505.67,836.588 1548.02,865.202 1590.38,893.817 1632.73,922.431 1675.08,951.045 1717.44,979.659 1759.79,993.966 1802.15,1022.58 1844.5,1036.89 1886.86,1065.5 1929.21,1079.81 1971.57,1094.12 2013.92,1122.73 2056.27,1137.04 2098.63,1151.34 2140.98,1165.65 2183.34,1179.96 2225.69,1179.96 2268.05,1194.27 2310.4,1208.57 2352.76,1208.57 "/>
<polyline clip-path="url(#clip642)" style="stroke:#0000ff; stroke-linecap:round; stroke-linejoin:round; stroke-width:8; stroke-opacity:1; fill:none" points="256.209,1220.84 2352.76,1220.84 "/>
<path clip-path="url(#clip640)" d="M1961.48 248.629 L2282.87 248.629 L2282.87 93.1086 L1961.48 93.1086  Z" fill="#ffffff" fill-rule="evenodd" fill-opacity="1"/>
<polyline clip-path="url(#clip640)" style="stroke:#000000; stroke-linecap:round; stroke-linejoin:round; stroke-width:4; stroke-opacity:1; fill:none" points="1961.48,248.629 2282.87,248.629 2282.87,93.1086 1961.48,93.1086 1961.48,248.629 "/>
<polyline clip-path="url(#clip640)" style="stroke:#000000; stroke-linecap:round; stroke-linejoin:round; stroke-width:16; stroke-opacity:1; fill:none" points="1984.78,144.949 2124.55,144.949 "/>
<path clip-path="url(#clip640)" d="M2147.84 127.669 L2152.52 127.669 L2152.52 158.293 L2169.35 158.293 L2169.35 162.229 L2147.84 162.229 L2147.84 127.669 Z" fill="#000000" fill-rule="nonzero" fill-opacity="1" /><path clip-path="url(#clip640)" d="M2174.07 136.303 L2178.33 136.303 L2178.33 162.229 L2174.07 162.229 L2174.07 136.303 M2174.07 126.21 L2178.33 126.21 L2178.33 131.604 L2174.07 131.604 L2174.07 126.21 Z" fill="#000000" fill-rule="nonzero" fill-opacity="1" /><path clip-path="url(#clip640)" d="M2207.42 141.28 Q2209.02 138.409 2211.24 137.044 Q2213.47 135.678 2216.47 135.678 Q2220.53 135.678 2222.72 138.525 Q2224.92 141.349 2224.92 146.581 L2224.92 162.229 L2220.64 162.229 L2220.64 146.719 Q2220.64 142.993 2219.32 141.187 Q2218 139.382 2215.29 139.382 Q2211.98 139.382 2210.06 141.581 Q2208.14 143.78 2208.14 147.576 L2208.14 162.229 L2203.86 162.229 L2203.86 146.719 Q2203.86 142.969 2202.54 141.187 Q2201.22 139.382 2198.47 139.382 Q2195.2 139.382 2193.28 141.604 Q2191.36 143.803 2191.36 147.576 L2191.36 162.229 L2187.08 162.229 L2187.08 136.303 L2191.36 136.303 L2191.36 140.331 Q2192.82 137.946 2194.85 136.812 Q2196.89 135.678 2199.69 135.678 Q2202.52 135.678 2204.48 137.113 Q2206.47 138.548 2207.42 141.28 Z" fill="#000000" fill-rule="nonzero" fill-opacity="1" /><path clip-path="url(#clip640)" d="M2233.42 136.303 L2237.68 136.303 L2237.68 162.229 L2233.42 162.229 L2233.42 136.303 M2233.42 126.21 L2237.68 126.21 L2237.68 131.604 L2233.42 131.604 L2233.42 126.21 Z" fill="#000000" fill-rule="nonzero" fill-opacity="1" /><path clip-path="url(#clip640)" d="M2250.8 128.942 L2250.8 136.303 L2259.58 136.303 L2259.58 139.613 L2250.8 139.613 L2250.8 153.687 Q2250.8 156.858 2251.66 157.761 Q2252.54 158.664 2255.2 158.664 L2259.58 158.664 L2259.58 162.229 L2255.2 162.229 Q2250.27 162.229 2248.4 160.4 Q2246.52 158.548 2246.52 153.687 L2246.52 139.613 L2243.4 139.613 L2243.4 136.303 L2246.52 136.303 L2246.52 128.942 L2250.8 128.942 Z" fill="#000000" fill-rule="nonzero" fill-opacity="1" /><polyline clip-path="url(#clip640)" style="stroke:#0000ff; stroke-linecap:round; stroke-linejoin:round; stroke-width:8; stroke-opacity:1; fill:none" points="1984.78,196.789 2124.55,196.789 "/>
<path clip-path="url(#clip640)" d="M2147.84 179.509 L2152.52 179.509 L2152.52 194.115 L2168.03 179.509 L2174.04 179.509 L2156.89 195.62 L2175.27 214.069 L2169.11 214.069 L2152.52 197.425 L2152.52 214.069 L2147.84 214.069 L2147.84 179.509 Z" fill="#000000" fill-rule="nonzero" fill-opacity="1" /><path clip-path="url(#clip640)" d="M2198.56 200.041 L2198.56 202.124 L2178.97 202.124 Q2179.25 206.522 2181.61 208.837 Q2184 211.129 2188.23 211.129 Q2190.69 211.129 2192.98 210.527 Q2195.29 209.925 2197.56 208.721 L2197.56 212.749 Q2195.27 213.721 2192.86 214.231 Q2190.46 214.74 2187.98 214.74 Q2181.78 214.74 2178.14 211.129 Q2174.53 207.518 2174.53 201.36 Q2174.53 194.995 2177.96 191.268 Q2181.41 187.518 2187.24 187.518 Q2192.47 187.518 2195.5 190.897 Q2198.56 194.254 2198.56 200.041 M2194.3 198.791 Q2194.25 195.296 2192.33 193.212 Q2190.43 191.129 2187.28 191.129 Q2183.72 191.129 2181.57 193.143 Q2179.44 195.157 2179.11 198.814 L2194.3 198.791 Z" fill="#000000" fill-rule="nonzero" fill-opacity="1" /><path clip-path="url(#clip640)" d="M2220.57 192.124 Q2219.85 191.708 2219 191.522 Q2218.16 191.314 2217.15 191.314 Q2213.53 191.314 2211.59 193.675 Q2209.67 196.013 2209.67 200.411 L2209.67 214.069 L2205.39 214.069 L2205.39 188.143 L2209.67 188.143 L2209.67 192.171 Q2211.01 189.809 2213.16 188.675 Q2215.32 187.518 2218.4 187.518 Q2218.84 187.518 2219.37 187.587 Q2219.9 187.634 2220.55 187.749 L2220.57 192.124 Z" fill="#000000" fill-rule="nonzero" fill-opacity="1" /><path clip-path="url(#clip640)" d="M2239.23 192.124 Q2238.51 191.708 2237.65 191.522 Q2236.82 191.314 2235.8 191.314 Q2232.19 191.314 2230.25 193.675 Q2228.33 196.013 2228.33 200.411 L2228.33 214.069 L2224.04 214.069 L2224.04 188.143 L2228.33 188.143 L2228.33 192.171 Q2229.67 189.809 2231.82 188.675 Q2233.97 187.518 2237.05 187.518 Q2237.49 187.518 2238.03 187.587 Q2238.56 187.634 2239.21 187.749 L2239.23 192.124 Z" fill="#000000" fill-rule="nonzero" fill-opacity="1" /></svg>
