<?xml version="1.0" standalone="no"?>
<!DOCTYPE svg PUBLIC "-//W3C//DTD SVG 1.1//EN"
  "http://www.w3.org/Graphics/SVG/1.1/DTD/svg11.dtd">
<svg width="566.92px" height="340.15px" version="1.1"
    xmlns="http://www.w3.org/2000/svg"
    xmlns:xlink="http://www.w3.org/1999/xlink">
<desc>Veusz output document</desc>
<defs>
<clipPath id="c0">
<path d="m0,0l566.92,0l0,340.15l-566.92,0l0,-340.15"/>
</clipPath>
<clipPath id="c1">
<path d="m105.66,38.61l37.79,0l0,20.7l-37.79,0l0,-20.7"/>
</clipPath>
<clipPath id="c2">
<path d="m105.66,59.32l37.79,0l0,20.7l-37.79,0l0,-20.7"/>
</clipPath>
<clipPath id="c3">
<path d="m64.25,7.55l495.11,0l0,268.34l-495.11,0l0,-268.34"/>
</clipPath>
</defs>
<g stroke-linejoin="bevel" stroke-linecap="square" stroke="#000000" fill-rule="evenodd">
<g clip-path="url(#c0)">
<g fill="#ffffff" stroke-width="0.66">
<path d="m64.25,7.55l495.11,0l0,268.34l-495.11,0l0,-268.34"/>
</g>
<g fill="#ffffff" stroke="none" stroke-width="0.1">
<path d="m84.95,28.26l139.24,0l0,62.11l-139.24,0l0,-62.11" id="p0"/>
</g>
<g fill="none" stroke-width="0.66">
<use xlink:href="#p0"/>
</g>
</g>
<g clip-path="url(#c1)">
<g fill="none" stroke="#ff0000" stroke-linecap="butt" stroke-width="0.66">
<path d="M124.56,48.97l0,0"/>
</g>
<g fill="none" stroke="#0000ff" stroke-width="2">
<path d="M105.66,48.97l37.79,0"/>
</g>
</g>
<g fill="none" stroke-width="0.1">
<path d="m167.05,50.85c-1.19,-0.42,-1.79,-1.07,-1.79,-1.93c0,-0.68,0.31,-1.22,0.95,-1.63c0.63,-0.4,1.42,-0.61,2.36,-0.61c0.85,0,1.54,0.14,2.04,0.42c0.5,0.28,0.75,0.62,0.75,1.01c0,0.2,-0.07,0.38,-0.23,0.54c-0.15,0.15,-0.34,0.23,-0.54,0.23c-0.34,0,-0.62,-0.23,-0.84,-0.71c-0.3,-0.65,-0.76,-0.98,-1.36,-0.98c-0.48,0,-0.87,0.15,-1.18,0.47c-0.31,0.31,-0.46,0.75,-0.46,1.32c0,1.11,0.57,1.67,1.72,1.67c0.12,0,0.26,-0.01,0.42,-0.03c0.27,-0.03,0.48,-0.05,0.63,-0.05c0.37,0,0.55,0.1,0.55,0.31c0,0.23,-0.18,0.35,-0.56,0.35c-0.13,0,-0.33,-0.02,-0.6,-0.06c-0.2,-0.03,-0.35,-0.05,-0.46,-0.05c-1.21,0,-1.82,0.62,-1.82,1.86c0,0.6,0.16,1.08,0.48,1.45c0.32,0.36,0.77,0.55,1.35,0.55c0.72,0,1.2,-0.37,1.44,-1.12c0.12,-0.39,0.25,-0.66,0.4,-0.82c0.14,-0.15,0.34,-0.22,0.59,-0.22c0.2,0,0.39,0.07,0.56,0.22c0.16,0.14,0.25,0.33,0.25,0.57c0,0.55,-0.31,1.01,-0.93,1.37c-0.62,0.36,-1.37,0.54,-2.25,0.54c-0.96,0,-1.82,-0.23,-2.57,-0.69c-0.75,-0.46,-1.12,-1.08,-1.12,-1.85c0,-0.96,0.74,-1.68,2.23,-2.13" fill="#000000" stroke="none" fill-opacity="1"/>
<path d="m177.92,51.16l0,0.78l10.22,0l0,-0.78l-10.22,0m0.24,-2.73c0.82,-0.89,1.23,-1.12,1.96,-1.12c0.61,0,1.32,0.24,2.71,0.93c1.45,0.72,1.85,0.86,2.61,0.86c1.08,0,1.77,-0.43,2.82,-1.77l-0.37,-0.31c-0.82,0.87,-1.19,1.08,-1.92,1.08c-0.63,0,-1.19,-0.18,-3.04,-1.06c-1.14,-0.56,-1.66,-0.71,-2.3,-0.71c-1.04,0,-1.73,0.43,-2.86,1.77l0.39,0.33" fill="#000000" stroke="none" fill-opacity="1"/>
<path d="m196.23,44.11l3.01,-1.47l0.3,0l0,10.45c0,0.69,0.02,1.12,0.08,1.29c0.05,0.17,0.17,0.3,0.36,0.39c0.18,0.09,0.55,0.14,1.11,0.15l0,0.33l-4.65,0l0,-0.33c0.58,-0.01,0.96,-0.06,1.13,-0.15c0.17,-0.08,0.28,-0.2,0.35,-0.35c0.06,-0.14,0.1,-0.59,0.1,-1.33l0,-6.68c0,-0.9,-0.03,-1.47,-0.09,-1.73c-0.04,-0.19,-0.12,-0.33,-0.23,-0.42c-0.11,-0.09,-0.24,-0.13,-0.4,-0.13c-0.22,0,-0.53,0.09,-0.94,0.28l-0.13,-0.28" fill="#000000" stroke="none" fill-opacity="1"/>
</g>
<g clip-path="url(#c2)">
<g fill="none" stroke="#377eb8" stroke-linecap="butt" stroke-width="0.66">
<path d="M124.56,69.67l0,0"/>
</g>
<g fill="none" stroke="#008000" stroke-dasharray="8,4" stroke-width="2">
<path d="M105.66,69.67l37.79,0"/>
</g>
</g>
<g fill="none" stroke-width="0.1">
<path d="m167.05,71.55c-1.19,-0.42,-1.79,-1.07,-1.79,-1.93c0,-0.68,0.31,-1.22,0.95,-1.63c0.63,-0.4,1.42,-0.61,2.36,-0.61c0.85,0,1.54,0.14,2.04,0.42c0.5,0.28,0.75,0.62,0.75,1.01c0,0.2,-0.07,0.38,-0.23,0.54c-0.15,0.15,-0.34,0.23,-0.54,0.23c-0.34,0,-0.62,-0.23,-0.84,-0.71c-0.3,-0.65,-0.76,-0.98,-1.36,-0.98c-0.48,0,-0.87,0.15,-1.18,0.47c-0.31,0.31,-0.46,0.75,-0.46,1.32c0,1.11,0.57,1.67,1.72,1.67c0.12,0,0.26,-0.01,0.42,-0.03c0.27,-0.03,0.48,-0.05,0.63,-0.05c0.37,0,0.55,0.1,0.55,0.31c0,0.23,-0.18,0.35,-0.56,0.35c-0.13,0,-0.33,-0.02,-0.6,-0.06c-0.2,-0.03,-0.35,-0.05,-0.46,-0.05c-1.21,0,-1.82,0.62,-1.82,1.86c0,0.6,0.16,1.08,0.48,1.45c0.32,0.36,0.77,0.55,1.35,0.55c0.72,0,1.2,-0.37,1.44,-1.12c0.12,-0.39,0.25,-0.66,0.4,-0.82c0.14,-0.15,0.34,-0.22,0.59,-0.22c0.2,0,0.39,0.07,0.56,0.22c0.16,0.14,0.25,0.33,0.25,0.57c0,0.55,-0.31,1.01,-0.93,1.37c-0.62,0.36,-1.37,0.54,-2.25,0.54c-0.96,0,-1.82,-0.23,-2.57,-0.69c-0.75,-0.46,-1.12,-1.08,-1.12,-1.85c0,-0.96,0.74,-1.68,2.23,-2.13m9.97,-3.63l9.85,0l0,0.74l-9.85,0l0,-0.74m0,2.97l9.85,0l0,0.74l-9.85,0l0,-0.74m15.55,-1.03c0,-1.41,0.21,-2.62,0.63,-3.64c0.42,-1.01,0.99,-1.77,1.69,-2.27c0.54,-0.39,1.11,-0.59,1.69,-0.59c0.94,0,1.8,0.48,2.55,1.45c0.94,1.19,1.41,2.82,1.41,4.87c0,1.43,-0.2,2.65,-0.62,3.66c-0.41,1,-0.94,1.73,-1.58,2.18c-0.64,0.45,-1.26,0.68,-1.85,0.68c-1.18,0,-2.16,-0.69,-2.94,-2.09c-0.66,-1.17,-0.99,-2.59,-0.99,-4.24m1.78,0.22c0,1.7,0.21,3.09,0.63,4.17c0.34,0.9,0.86,1.36,1.55,1.36c0.32,0,0.66,-0.14,1.02,-0.44c0.35,-0.29,0.62,-0.78,0.8,-1.48c0.28,-1.04,0.42,-2.52,0.42,-4.42c0,-1.41,-0.14,-2.59,-0.43,-3.53c-0.21,-0.7,-0.5,-1.19,-0.84,-1.48c-0.24,-0.2,-0.55,-0.3,-0.9,-0.3c-0.41,0,-0.78,0.18,-1.1,0.55c-0.43,0.5,-0.73,1.29,-0.89,2.38c-0.15,1.08,-0.23,2.15,-0.23,3.2" fill="#000000" stroke="none" fill-opacity="1"/>
</g>
<g clip-path="url(#c0)">
<g fill="#000000" stroke-dasharray="5.33,2.66" stroke-linecap="butt" stroke-width="1.33">
<g transform="translate(64.25,175.27)">
<path d="M0,0l1156.97,0"/>
</g>
</g>
</g>
<g clip-path="url(#c3)">
<g fill="none" stroke="#ff0000" stroke-width="1.33">
<polyline fill="none" points="73.73,180.11 77.05,180.11 77.05,200.52 80.38,200.52 83.65,200.52 83.65,178.95 86.91,178.95 90.13,178.95 90.13,169.37 93.35,169.37 96.52,169.37 96.52,162.25 99.69,162.25 102.81,162.25 102.81,171.36 105.93,171.36 109,171.36 109,155.44 112.07,155.44 115.1,155.44 115.1,156.39 118.13,156.39 121.12,156.39 121.12,166.88 124.1,166.88 127.04,166.88 127.04,164.5 129.98,164.5 132.88,164.5 132.88,162.04 135.78,162.04 138.64,162.04 138.64,159.7 141.5,159.7 144.32,159.7 144.32,154.57 147.14,154.57 149.93,154.57 149.93,153.43 152.71,153.43 155.45,153.43 155.45,156.17 158.2,156.17 160.91,156.17 160.91,138.33 163.62,138.33 166.29,138.33 166.29,168.62 168.97,168.62 171.74,168.62 171.74,139.75 174.51,139.75 177.37,139.75 177.37,158.53 180.23,158.53 183.06,158.53 183.06,151.78 185.88,151.78 188.67,151.78 188.67,147.25 191.45,147.25 194.2,147.25 194.2,152.78 196.95,152.78 199.66,152.78 199.66,155.92 202.37,155.92 205.05,155.92 205.05,143.99 207.73,143.99 210.37,143.99 210.37,143.22 213.01,143.22 215.62,143.22 215.62,159.01 218.23,159.01 220.8,159.01 220.8,131.64 223.38,131.64 225.92,131.64 225.92,130.24 228.47,130.24 230.98,130.24 230.98,117.44 233.49,117.44 235.98,117.44 235.98,139.98 238.46,139.98 240.91,139.98 240.91,117.69 243.37,117.69 245.79,117.69 245.79,129.87 248.22,129.87 250.61,129.87 250.61,131.75 253.01,131.75 255.38,131.75 255.38,161.17 257.74,161.17 260.09,161.17 260.09,146.56 262.43,146.56 264.74,146.56 264.74,124.51 267.06,124.51 269.35,124.51 269.35,135.79 271.64,135.79 274,135.79 274,135.36 276.37,135.36 278.81,135.36 278.81,147.79 281.25,147.79 283.66,147.79 283.66,129.82 286.07,129.82 288.46,129.82 288.46,100.1 290.84,100.1 293.2,100.1 293.2,131.87 295.56,131.87 297.88,131.87 297.88,136.29 300.21,136.29 302.52,136.29 302.52,115.35 304.82,115.35 307.1,115.35 307.1,92.15 309.38,92.15 311.63,92.15 311.63,116.97 313.89,116.97 316.12,116.97 316.12,123.06 318.34,123.06 320.55,123.06 320.55,115.01 322.75,115.01 324.94,115.01 324.94,85.84 327.12,85.84 329.28,85.84 329.28,102.16 331.43,102.16 333.57,102.16 333.57,110.13 335.71,110.13 337.82,110.13 337.82,87.03 339.94,87.03 342.03,87.03 342.03,117.52 344.12,117.52 346.19,117.52 346.19,96.75 348.27,96.75 350.32,96.75 350.32,158.46 352.37,158.46 354.4,158.46 354.4,106.68 356.43,106.68 358.44,106.68 358.44,94.22 360.45,94.22 362.44,94.22 362.44,127.8 364.43,127.8 366.49,127.8 366.49,112.13 368.54,112.13 370.66,112.13 370.66,114.29 372.77,114.29 374.87,114.29 374.87,79.66 376.96,79.66 379.03,79.66 379.03,35.29 381.1,35.29 383.15,35.29 383.15,81.88 385.21,81.88 387.24,81.88 387.24,34.27 389.27,34.27 391.28,34.27 391.28,111.87 393.29,111.87 395.28,111.87 395.28,74.77 397.27,74.77 399.25,74.77 399.25,97.34 401.22,97.34 403.17,97.34 403.17,111.75 405.13,111.75 407.06,111.75 407.06,77.99 409,77.99 410.92,77.99 410.92,128.89 412.83,128.89 414.73,128.89 414.73,134.83 416.63,134.83 418.52,134.83 418.52,132.66 420.4,132.66 422.26,132.66 422.26,120.28 424.13,120.28 425.98,120.28 425.98,171.44 427.83,171.44 429.66,171.44 429.66,212.46 431.49,212.46 433.31,212.46 433.31,163.01 435.12,163.01 436.92,163.01 436.92,169.58 438.72,169.58 440.51,169.58 440.51,193.99 442.29,193.99 444.13,193.99 444.13,161.55 445.97,161.55 447.85,161.55 447.85,162.38 449.74,162.38 451.61,162.38 451.61,194.76 453.48,194.76 455.34,194.76 455.34,222.86 457.19,222.86 459.03,222.86 459.03,180.15 460.86,180.15 462.68,180.15 462.68,176.94 464.5,176.94 466.31,176.94 466.31,120.12 468.11,120.12 469.9,120.12 469.9,197.21 471.69,197.21 473.47,197.21 473.47,172.17 475.24,172.17 477,172.17 477,161.72 478.76,161.72 480.5,161.72 480.5,166.1 482.24,166.1 483.97,166.1 483.97,216.16 485.7,216.16 487.42,216.16 487.42,133.53 489.13,133.53 490.83,133.53 490.83,170.67 492.53,170.67 494.22,170.67 494.22,209.3 495.9,209.3 497.58,209.3 497.58,181.47 499.25,181.47 500.91,181.47 500.91,174.7 502.57,174.7 504.21,174.7 504.21,160.35 505.86,160.35 507.49,160.35 507.49,177.82 509.13,177.82 510.75,177.82 510.75,119.31 512.37,119.31 514.03,119.31 514.03,178.84 515.69,178.84 517.4,178.84 517.4,199.06 519.11,199.06 520.8,199.06 520.8,182.58 522.5,182.58 524.18,182.58 524.18,145.7 525.86,145.7 527.52,145.7 527.52,147.5 529.19,147.5 530.84,147.5 530.84,217.15 532.5,217.15 534.14,217.15 534.14,222.77 535.77,222.77 537.4,222.77 537.4,153.47 539.03,153.47 540.7,153.47 540.7,189.41 542.36,189.41 544.02,189.41 544.02,178.65 545.67,178.65 547.31,178.65 547.31,126.53 548.95,126.53 550.63,126.53 550.63,179.69 552.31,179.69 553.93,179.69 553.93,205.82 555.54,205.82"/>
</g>
<g fill="none" stroke="#ff0000" stroke-linecap="butt" stroke-width="0.66">
<path d="M73.73,190.22l0,-20.2M80.38,210.63l0,-20.2M86.91,189.39l0,-20.89M93.35,180.07l0,-21.4M99.69,173.17l0,-21.83M105.93,182.36l0,-21.98M112.07,166.71l0,-22.53M118.13,167.8l0,-22.83M124.1,178.36l0,-22.96M129.98,176.15l0,-23.28M135.78,173.84l0,-23.58M141.5,171.64l0,-23.88M147.14,166.69l0,-24.24M152.71,165.69l0,-24.53M158.2,168.56l0,-24.77M163.62,151.03l0,-25.39M168.97,181.2l0,-25.15M174.51,152.13l0,-24.76M180.23,170.91l0,-24.75M185.88,164.37l0,-25.17M191.45,160.03l0,-25.55M196.95,165.67l0,-25.77M202.37,168.94l0,-26.03M207.73,157.27l0,-26.55M213.01,156.67l0,-26.89M218.23,172.47l0,-26.92M223.38,145.53l0,-27.77M228.47,144.3l0,-28.12M233.49,131.79l0,-28.7M238.46,154.29l0,-28.61M243.37,132.39l0,-29.38M248.22,144.61l0,-29.47M253.01,146.63l0,-29.75M257.74,175.91l0,-29.47M262.43,161.61l0,-30.11M267.06,139.96l0,-30.89M271.64,151.29l0,-30.99M276.37,150.37l0,-30.02M281.25,162.87l0,-30.15M286.07,145.29l0,-30.93M290.84,116.07l0,-31.95M295.56,147.71l0,-31.67M300.21,152.27l0,-31.95M304.82,131.74l0,-32.76M309.38,108.97l0,-33.62M313.89,133.7l0,-33.47M318.34,139.94l0,-33.75M322.75,132.19l0,-34.37M327.12,103.58l0,-35.46M331.43,119.91l0,-35.51M335.71,128.02l0,-35.76M339.94,105.42l0,-36.78M344.12,135.77l0,-36.5M348.27,115.48l0,-37.46M352.37,176.63l0,-36.34M356.43,125.71l0,-38.06M360.45,113.55l0,-38.66M364.43,146.69l0,-37.77M368.54,130.27l0,-36.27M372.77,132.39l0,-36.2M376.96,98.69l0,-38.05M381.1,55.61l0,-40.64M385.21,102.2l0,-40.63M389.27,55.63l0,-42.73M393.29,132.56l0,-41.38M397.27,96.32l0,-43.09M401.22,118.95l0,-43.21M405.13,133.54l0,-43.56M409,100.61l0,-45.24M412.83,151.12l0,-44.45M416.63,157.34l0,-45.01M420.4,155.6l0,-45.87M424.13,143.81l0,-47.06M427.83,194.57l0,-46.26M431.49,235.34l0,-45.75M435.12,187.2l0,-48.37M438.72,194.09l0,-49M442.29,218.47l0,-48.96M445.97,186.14l0,-49.17M449.74,187.43l0,-50.08M453.48,219.72l0,-49.91M457.19,247.76l0,-49.79M460.86,206.4l0,-52.49M464.5,203.75l0,-53.61M468.11,148.52l0,-56.8M471.69,224.6l0,-54.77M475.24,200.63l0,-56.91M478.76,191.03l0,-58.6M482.24,195.9l0,-59.61M485.7,245.42l0,-58.52M489.13,165.13l0,-63.21M492.53,202.08l0,-62.81M495.9,240.42l0,-62.23M499.25,213.87l0,-64.79M502.57,207.9l0,-66.38M505.86,194.62l0,-68.54M509.13,212.3l0,-68.95M512.37,155.91l0,-73.19M515.69,213.41l0,-69.14M519.11,233.85l0,-69.58M522.5,218.53l0,-71.89M525.86,183.31l0,-75.22M529.19,185.82l0,-76.64M532.5,254.38l0,-74.45M535.77,260.75l0,-75.96M539.03,194.47l0,-82.01M542.36,229.03l0,-79.25M545.67,221.08l0,-84.84M548.95,170.09l0,-87.11M552.31,222.8l0,-86.21M555.54,250.68l0,-89.72"/>
</g>
<g fill="none" stroke="#008000" stroke-dasharray="8,4" stroke-width="2">
<polyline fill="none" points="73.73,172.4 80.38,172.17 86.91,171.93 93.35,171.67 99.69,171.4 105.93,171.12 112.07,170.82 118.13,170.51 124.1,170.19 129.98,169.84 135.78,169.48 141.5,169.11 147.14,168.71 152.71,168.3 158.2,167.87 163.62,167.43 168.97,166.96 174.51,166.45 180.23,165.89 185.88,165.31 191.45,164.71 196.95,164.07 202.37,163.42 207.73,162.74 213.01,162.03 218.23,161.29 223.38,160.52 228.47,159.71 233.49,158.87 238.46,157.99 243.37,157.08 248.22,156.13 253.01,155.14 257.74,154.1 262.43,153.01 267.06,151.86 271.64,150.67 276.37,149.35 281.25,147.9 286.07,146.35 290.84,144.71 295.56,142.95 300.21,141.07 304.82,139.02 309.38,136.73 313.89,134.14 318.34,131.11 322.75,127.49 327.12,123.22 331.43,118.79 335.71,115.03 339.94,112.25 344.12,110.06 348.27,108.12 352.37,106.3 356.43,104.65 360.45,103.46 364.43,103.45 368.54,104.83 372.77,104.86 376.96,100.82 381.1,94.93 385.21,90.32 389.27,86.95 393.29,84.05 397.27,81.32 401.22,78.87 405.13,77.62 409,80.64 412.83,93.88 416.63,119.53 420.4,147.39 424.13,165.16 427.83,172.4 431.49,174.58 435.12,175.13 438.72,175.25 442.29,175.27 445.97,175.27 449.74,175.27 453.48,175.27 457.19,175.27 460.86,175.27 464.5,175.27 468.11,175.27 471.69,175.27 475.24,175.27 478.76,175.27 482.24,175.27 485.7,175.27 489.13,175.27 492.53,175.27 495.9,175.27 499.25,175.27 502.57,175.27 505.86,175.27 509.13,175.27 512.37,175.27 515.69,175.27 519.11,175.27 522.5,175.27 525.86,175.27 529.19,175.27 532.5,175.27 535.77,175.27 539.03,175.27 542.36,175.27 545.67,175.27 548.95,175.27 552.31,175.27 555.54,175.27"/>
</g>
<g fill="none" stroke="#0000ff" stroke-width="2">
<polyline fill="none" points="73.73,169.12 80.38,168.68 86.91,168.21 93.35,167.71 99.69,167.18 105.93,166.62 112.07,166.02 118.13,165.39 124.1,164.72 129.98,164 135.78,163.23 141.5,162.39 147.14,161.48 152.71,160.47 158.2,159.34 163.62,158.07 168.97,156.74 174.51,155.45 180.23,154.27 185.88,153.16 191.45,152.07 196.95,150.95 202.37,149.81 207.73,148.64 213.01,147.44 218.23,146.21 223.38,144.94 228.47,143.65 233.49,142.33 238.46,140.98 243.37,139.61 248.22,138.22 253.01,136.8 257.74,135.35 262.43,133.88 267.06,132.39 271.64,130.88 276.37,129.29 281.25,127.6 286.07,125.89 290.84,124.17 295.56,122.45 300.21,120.74 304.82,119.02 309.38,117.3 313.89,115.56 318.34,113.8 322.75,112.04 327.12,110.29 331.43,108.55 335.71,106.82 339.94,105.11 344.12,103.42 348.27,101.77 352.37,100.2 356.43,98.82 360.45,97.94 364.43,98.36 368.54,100.28 372.77,100.79 376.96,97.03 381.1,91.4 385.21,87.19 389.27,84.34 393.29,82 397.27,79.87 401.22,78.09 405.13,77.62 409,81.66 412.83,96.07 416.63,122.28 420.4,149.48 424.13,166.15 427.83,172.72 431.49,174.67 435.12,175.15 438.72,175.25 442.29,175.27 445.97,175.27 449.74,175.27 453.48,175.27 457.19,175.27 460.86,175.27 464.5,175.27 468.11,175.27 471.69,175.27 475.24,175.27 478.76,175.27 482.24,175.27 485.7,175.27 489.13,175.27 492.53,175.27 495.9,175.27 499.25,175.27 502.57,175.27 505.86,175.27 509.13,175.27 512.37,175.27 515.69,175.27 519.11,175.27 522.5,175.27 525.86,175.27 529.19,175.27 532.5,175.27 535.77,175.27 539.03,175.27 542.36,175.27 545.67,175.27 548.95,175.27 552.31,175.27 555.54,175.27"/>
</g>
</g>
<g clip-path="url(#c0)">
<g fill="none" stroke-linecap="butt" stroke-width="0.66">
<path d="M64.25,275.9l0,-268.34"/>
<path d="M64.25,269.19l4,0M64.25,255.77l4,0M64.25,242.36l4,0M64.25,228.94l4,0M64.25,215.52l4,0M64.25,202.11l4,0M64.25,188.69l4,0M64.25,175.27l4,0M64.25,161.85l4,0M64.25,148.44l4,0M64.25,135.02l4,0M64.25,121.6l4,0M64.25,108.18l4,0M64.25,94.77l4,0M64.25,81.35l4,0M64.25,67.93l4,0M64.25,54.51l4,0M64.25,41.1l4,0M64.25,27.68l4,0M64.25,14.26l4,0"/>
<path d="M64.25,242.36l8,0M64.25,175.27l8,0M64.25,108.18l8,0M64.25,41.1l8,0"/>
</g>
<g fill="none" stroke-width="0.1">
<g transform="matrix(0 -1 1 0 22.32 190.02)">
<path d="m0.31,0l0,-0.33l0.46,0c0.52,0,0.89,-0.16,1.11,-0.5c0.13,-0.2,0.2,-0.65,0.2,-1.35l0,-7.99c0,-0.77,-0.08,-1.25,-0.25,-1.45c-0.23,-0.26,-0.59,-0.4,-1.05,-0.4l-0.46,0l0,-0.33l5.04,0c1.85,0,3.25,0.21,4.22,0.63c0.96,0.42,1.74,1.12,2.32,2.1c0.58,0.98,0.88,2.11,0.88,3.39c0,1.72,-0.52,3.16,-1.57,4.31c-1.17,1.29,-2.96,1.93,-5.36,1.93l-5.53,0m3.53,-0.89c0.77,0.17,1.42,0.25,1.94,0.25c1.41,0,2.58,-0.49,3.51,-1.48c0.93,-0.99,1.39,-2.33,1.39,-4.03c0,-1.71,-0.46,-3.05,-1.39,-4.04c-0.93,-0.98,-2.12,-1.47,-3.58,-1.47c-0.54,0,-1.17,0.08,-1.87,0.26l0,10.52m14.97,-0.31c-0.85,0.66,-1.39,1.04,-1.61,1.15c-0.32,0.15,-0.67,0.22,-1.05,0.22c-0.57,0,-1.05,-0.19,-1.42,-0.59c-0.37,-0.39,-0.56,-0.91,-0.56,-1.56c0,-0.4,0.09,-0.76,0.27,-1.05c0.24,-0.41,0.68,-0.8,1.3,-1.16c0.61,-0.36,1.64,-0.8,3.08,-1.33l0,-0.32c0,-0.83,-0.13,-1.4,-0.39,-1.71c-0.26,-0.31,-0.64,-0.46,-1.15,-0.46c-0.38,0,-0.68,0.1,-0.91,0.31c-0.23,0.2,-0.34,0.44,-0.34,0.71l0.01,0.52c0,0.28,-0.07,0.49,-0.21,0.64c-0.14,0.15,-0.33,0.22,-0.56,0.22c-0.22,0,-0.4,-0.07,-0.55,-0.23c-0.14,-0.15,-0.21,-0.37,-0.21,-0.64c0,-0.52,0.26,-1,0.8,-1.44c0.53,-0.43,1.28,-0.65,2.25,-0.65c0.74,0,1.35,0.12,1.82,0.37c0.35,0.18,0.62,0.48,0.79,0.88c0.1,0.26,0.16,0.79,0.16,1.6l0,2.83c0,0.79,0.01,1.28,0.04,1.46c0.03,0.17,0.08,0.29,0.15,0.36c0.07,0.06,0.15,0.09,0.24,0.09c0.09,0,0.18,-0.02,0.25,-0.06c0.12,-0.07,0.37,-0.3,0.73,-0.66l0,0.51c-0.68,0.91,-1.33,1.36,-1.95,1.36c-0.29,0,-0.53,-0.1,-0.71,-0.31c-0.17,-0.2,-0.26,-0.56,-0.27,-1.05m0,-0.59l0,-3.18c-0.91,0.36,-1.51,0.62,-1.78,0.77c-0.48,0.26,-0.82,0.54,-1.03,0.84c-0.2,0.29,-0.31,0.61,-0.31,0.95c0,0.43,0.13,0.8,0.39,1.09c0.26,0.28,0.56,0.43,0.9,0.43c0.46,0,1.07,-0.3,1.82,-0.91m5.98,-9.31l0,2.74l1.95,0l0,0.63l-1.95,0l0,5.42c0,0.54,0.07,0.9,0.23,1.09c0.15,0.18,0.35,0.28,0.59,0.28c0.2,0,0.39,-0.06,0.58,-0.18c0.18,-0.12,0.33,-0.3,0.43,-0.55l0.35,0c-0.21,0.59,-0.51,1.04,-0.9,1.34c-0.38,0.3,-0.79,0.45,-1.2,0.45c-0.28,0,-0.55,-0.07,-0.82,-0.23c-0.26,-0.15,-0.46,-0.37,-0.59,-0.66c-0.12,-0.28,-0.19,-0.73,-0.19,-1.33l0,-5.62l-1.32,0l0,-0.3c0.33,-0.13,0.67,-0.36,1.02,-0.68c0.35,-0.31,0.66,-0.69,0.93,-1.13c0.14,-0.23,0.33,-0.65,0.58,-1.26l0.28,0m7.5,9.9c-0.85,0.66,-1.39,1.04,-1.61,1.15c-0.32,0.15,-0.67,0.22,-1.05,0.22c-0.57,0,-1.05,-0.19,-1.42,-0.59c-0.37,-0.39,-0.56,-0.91,-0.56,-1.56c0,-0.4,0.09,-0.76,0.27,-1.05c0.24,-0.41,0.68,-0.8,1.3,-1.16c0.61,-0.36,1.64,-0.8,3.08,-1.33l0,-0.32c0,-0.83,-0.13,-1.4,-0.39,-1.71c-0.26,-0.31,-0.64,-0.46,-1.15,-0.46c-0.38,0,-0.68,0.1,-0.91,0.31c-0.23,0.2,-0.34,0.44,-0.34,0.71l0.01,0.52c0,0.28,-0.07,0.49,-0.21,0.64c-0.14,0.15,-0.33,0.22,-0.56,0.22c-0.22,0,-0.4,-0.07,-0.55,-0.23c-0.14,-0.15,-0.21,-0.37,-0.21,-0.64c0,-0.52,0.26,-1,0.8,-1.44c0.53,-0.43,1.28,-0.65,2.25,-0.65c0.74,0,1.35,0.12,1.82,0.37c0.35,0.18,0.62,0.48,0.79,0.88c0.1,0.26,0.16,0.79,0.16,1.6l0,2.83c0,0.79,0.01,1.28,0.04,1.46c0.03,0.17,0.08,0.29,0.15,0.36c0.07,0.06,0.15,0.09,0.24,0.09c0.09,0,0.18,-0.02,0.25,-0.06c0.12,-0.07,0.37,-0.3,0.73,-0.66l0,0.51c-0.68,0.91,-1.33,1.36,-1.95,1.36c-0.29,0,-0.53,-0.1,-0.71,-0.31c-0.17,-0.2,-0.26,-0.56,-0.27,-1.05m0,-0.59l0,-3.18c-0.91,0.36,-1.51,0.62,-1.78,0.77c-0.48,0.26,-0.82,0.54,-1.03,0.84c-0.2,0.29,-0.31,0.61,-0.31,0.95c0,0.43,0.13,0.8,0.39,1.09c0.26,0.28,0.56,0.43,0.9,0.43c0.46,0,1.07,-0.3,1.82,-0.91m12.89,-11.18l-4.48,13.23l-0.73,0l4.48,-13.23l0.73,0m7.69,6.15c0.6,-0.6,0.96,-0.95,1.07,-1.05c0.27,-0.23,0.56,-0.41,0.88,-0.53c0.31,-0.12,0.63,-0.19,0.94,-0.19c0.52,0,0.97,0.15,1.35,0.45c0.37,0.3,0.63,0.74,0.75,1.32c0.62,-0.73,1.15,-1.2,1.58,-1.43c0.43,-0.22,0.87,-0.34,1.33,-0.34c0.44,0,0.83,0.11,1.18,0.34c0.34,0.22,0.61,0.6,0.81,1.11c0.13,0.35,0.2,0.9,0.2,1.66l0,3.59c0,0.52,0.03,0.88,0.11,1.07c0.06,0.13,0.17,0.24,0.33,0.34c0.16,0.09,0.43,0.14,0.8,0.14l0,0.32l-4.12,0l0,-0.32l0.17,0c0.35,0,0.63,-0.07,0.84,-0.21c0.14,-0.09,0.24,-0.25,0.3,-0.46c0.02,-0.1,0.03,-0.39,0.03,-0.88l0,-3.59c0,-0.68,-0.08,-1.16,-0.24,-1.44c-0.23,-0.38,-0.61,-0.58,-1.14,-0.58c-0.32,0,-0.64,0.08,-0.97,0.24c-0.32,0.16,-0.71,0.46,-1.18,0.89l-0.01,0.1l0.01,0.39l0,3.99c0,0.57,0.03,0.92,0.09,1.06c0.06,0.14,0.18,0.25,0.36,0.35c0.17,0.09,0.47,0.14,0.9,0.14l0,0.32l-4.22,0l0,-0.32c0.46,0,0.78,-0.05,0.95,-0.16c0.17,-0.1,0.29,-0.27,0.36,-0.49c0.03,-0.1,0.04,-0.4,0.04,-0.9l0,-3.59c0,-0.68,-0.1,-1.17,-0.3,-1.47c-0.26,-0.38,-0.64,-0.58,-1.12,-0.58c-0.32,0,-0.65,0.08,-0.97,0.26c-0.5,0.26,-0.89,0.56,-1.16,0.9l0,4.48c0,0.54,0.03,0.9,0.11,1.06c0.07,0.16,0.18,0.28,0.33,0.36c0.14,0.08,0.45,0.12,0.9,0.12l0,0.32l-4.13,0l0,-0.32c0.38,0,0.65,-0.04,0.8,-0.12c0.15,-0.08,0.26,-0.21,0.34,-0.39c0.07,-0.17,0.11,-0.52,0.11,-1.04l0,-3.19c0,-0.91,-0.02,-1.51,-0.08,-1.78c-0.04,-0.2,-0.1,-0.33,-0.2,-0.41c-0.09,-0.07,-0.21,-0.11,-0.37,-0.11c-0.17,0,-0.37,0.04,-0.61,0.13l-0.13,-0.32l2.52,-1.02l0.39,0l0,1.78m16.15,-1.78c1.26,0,2.28,0.48,3.04,1.44c0.65,0.82,0.97,1.76,0.97,2.83c0,0.74,-0.17,1.5,-0.53,2.27c-0.35,0.76,-0.85,1.34,-1.48,1.73c-0.63,0.38,-1.33,0.58,-2.1,0.58c-1.26,0,-2.26,-0.5,-3,-1.5c-0.62,-0.84,-0.94,-1.79,-0.94,-2.84c0,-0.76,0.19,-1.52,0.57,-2.28c0.38,-0.75,0.88,-1.31,1.5,-1.68c0.62,-0.36,1.27,-0.54,1.97,-0.54m-0.28,0.59c-0.32,0,-0.64,0.09,-0.97,0.28c-0.32,0.19,-0.58,0.52,-0.78,1c-0.2,0.48,-0.3,1.09,-0.3,1.85c0,1.21,0.24,2.26,0.72,3.15c0.48,0.88,1.12,1.32,1.91,1.32c0.59,0,1.07,-0.24,1.46,-0.73c0.38,-0.48,0.57,-1.32,0.57,-2.51c0,-1.48,-0.31,-2.65,-0.95,-3.5c-0.43,-0.58,-0.98,-0.87,-1.65,-0.87m11.45,7.07c-0.4,0.42,-0.8,0.73,-1.19,0.91c-0.38,0.18,-0.8,0.27,-1.26,0.27c-0.91,0,-1.71,-0.38,-2.39,-1.14c-0.68,-0.76,-1.02,-1.74,-1.02,-2.94c0,-1.19,0.37,-2.29,1.13,-3.29c0.75,-0.99,1.72,-1.49,2.91,-1.49c0.73,0,1.34,0.23,1.82,0.7l0,-1.54c0,-0.95,-0.02,-1.54,-0.06,-1.76c-0.04,-0.21,-0.11,-0.36,-0.21,-0.44c-0.09,-0.07,-0.21,-0.11,-0.36,-0.11c-0.15,0,-0.36,0.04,-0.63,0.14l-0.11,-0.31l2.49,-1.02l0.41,0l0,9.66c0,0.98,0.02,1.57,0.06,1.79c0.04,0.21,0.11,0.36,0.21,0.45c0.1,0.08,0.21,0.12,0.35,0.12c0.16,0,0.38,-0.05,0.65,-0.15l0.1,0.31l-2.48,1.03l-0.42,0l0,-1.19m0,-0.63l0,-4.3c-0.03,-0.41,-0.14,-0.79,-0.32,-1.13c-0.18,-0.34,-0.42,-0.59,-0.72,-0.77c-0.3,-0.17,-0.59,-0.26,-0.88,-0.26c-0.53,0,-1.01,0.24,-1.43,0.72c-0.55,0.63,-0.83,1.55,-0.83,2.77c0,1.22,0.26,2.17,0.8,2.82c0.53,0.65,1.13,0.98,1.78,0.98c0.55,0,1.08,-0.27,1.6,-0.83m4.84,-3.63c0,1.24,0.29,2.21,0.9,2.92c0.6,0.7,1.32,1.05,2.14,1.05c0.54,0,1.02,-0.15,1.42,-0.45c0.4,-0.3,0.74,-0.81,1.01,-1.54l0.28,0.18c-0.12,0.83,-0.49,1.59,-1.11,2.27c-0.61,0.68,-1.38,1.02,-2.31,1.02c-1,0,-1.86,-0.39,-2.57,-1.17c-0.71,-0.78,-1.07,-1.83,-1.07,-3.15c0,-1.43,0.36,-2.54,1.1,-3.34c0.73,-0.8,1.65,-1.2,2.76,-1.2c0.93,0,1.7,0.3,2.31,0.92c0.6,0.61,0.9,1.44,0.9,2.47l-5.77,0m0,-0.52l3.87,0c-0.03,-0.53,-0.09,-0.91,-0.19,-1.13c-0.15,-0.34,-0.37,-0.6,-0.68,-0.8c-0.3,-0.19,-0.61,-0.29,-0.94,-0.29c-0.5,0,-0.95,0.19,-1.35,0.58c-0.39,0.39,-0.63,0.93,-0.69,1.63m9.76,-7.24l0,11.09c0,0.52,0.03,0.87,0.11,1.04c0.07,0.17,0.19,0.29,0.35,0.38c0.15,0.08,0.45,0.13,0.88,0.13l0,0.32l-4.09,0l0,-0.32c0.38,0,0.64,-0.03,0.78,-0.11c0.14,-0.07,0.24,-0.21,0.32,-0.39c0.07,-0.18,0.11,-0.53,0.11,-1.05l0,-7.59c0,-0.94,-0.02,-1.52,-0.06,-1.73c-0.04,-0.21,-0.11,-0.36,-0.2,-0.44c-0.09,-0.07,-0.21,-0.11,-0.36,-0.11c-0.15,0,-0.35,0.04,-0.6,0.14l-0.15,-0.31l2.49,-1.02l0.41,0" fill="#000000" stroke="none" fill-opacity="1"/>
</g>
<path d="m36.71,242.67c0,-1.41,0.21,-2.62,0.63,-3.64c0.42,-1.01,0.99,-1.77,1.69,-2.27c0.54,-0.39,1.11,-0.59,1.69,-0.59c0.94,0,1.8,0.48,2.55,1.45c0.94,1.19,1.41,2.82,1.41,4.87c0,1.43,-0.2,2.65,-0.62,3.66c-0.41,1,-0.94,1.73,-1.58,2.18c-0.64,0.45,-1.26,0.68,-1.85,0.68c-1.18,0,-2.16,-0.69,-2.94,-2.09c-0.66,-1.17,-0.99,-2.59,-0.99,-4.24m1.78,0.22c0,1.7,0.21,3.09,0.63,4.17c0.34,0.9,0.86,1.36,1.55,1.36c0.32,0,0.66,-0.14,1.02,-0.44c0.35,-0.29,0.62,-0.78,0.8,-1.48c0.28,-1.04,0.42,-2.52,0.42,-4.42c0,-1.41,-0.14,-2.59,-0.43,-3.53c-0.21,-0.7,-0.5,-1.19,-0.84,-1.48c-0.24,-0.2,-0.55,-0.3,-0.9,-0.3c-0.41,0,-0.78,0.18,-1.1,0.55c-0.43,0.5,-0.73,1.29,-0.89,2.38c-0.15,1.08,-0.23,2.15,-0.23,3.2m9.22,4.11c0.28,0,0.52,0.09,0.72,0.29c0.19,0.19,0.29,0.43,0.29,0.71c0,0.28,-0.09,0.51,-0.29,0.71c-0.19,0.19,-0.43,0.29,-0.71,0.29c-0.28,0,-0.51,-0.09,-0.71,-0.29c-0.19,-0.19,-0.29,-0.43,-0.29,-0.71c0,-0.28,0.09,-0.52,0.29,-0.72c0.19,-0.19,0.43,-0.29,0.71,-0.29m3.32,2.02l0,-0.33c0.79,-0.01,1.52,-0.19,2.2,-0.55c0.68,-0.35,1.34,-0.97,1.97,-1.86c0.63,-0.88,1.07,-1.86,1.32,-2.93c-0.95,0.61,-1.82,0.92,-2.59,0.92c-0.87,0,-1.61,-0.33,-2.23,-1c-0.62,-0.67,-0.93,-1.56,-0.93,-2.67c0,-1.08,0.31,-2.04,0.93,-2.89c0.74,-1.02,1.72,-1.54,2.93,-1.54c1.01,0,1.88,0.42,2.61,1.26c0.88,1.04,1.33,2.32,1.33,3.85c0,1.37,-0.33,2.65,-1.01,3.84c-0.67,1.19,-1.61,2.17,-2.82,2.96c-0.98,0.64,-2.04,0.96,-3.2,0.96l-0.52,0m5.66,-6.36c0.1,-0.79,0.16,-1.42,0.16,-1.89c0,-0.59,-0.1,-1.22,-0.3,-1.91c-0.2,-0.68,-0.48,-1.2,-0.85,-1.57c-0.36,-0.36,-0.78,-0.54,-1.25,-0.54c-0.54,0,-1.01,0.24,-1.42,0.73c-0.4,0.48,-0.61,1.21,-0.61,2.17c0,1.28,0.27,2.28,0.81,3.01c0.39,0.52,0.88,0.78,1.46,0.78c0.28,0,0.61,-0.06,0.99,-0.2c0.38,-0.13,0.72,-0.32,1.01,-0.56" fill="#000000" stroke="none" fill-opacity="1"/>
<path d="m52.25,170.53l3.01,-1.47l0.3,0l0,10.45c0,0.69,0.02,1.12,0.08,1.29c0.05,0.17,0.17,0.3,0.36,0.39c0.18,0.09,0.55,0.14,1.11,0.15l0,0.33l-4.65,0l0,-0.33c0.58,-0.01,0.96,-0.06,1.13,-0.15c0.17,-0.08,0.28,-0.2,0.35,-0.35c0.06,-0.14,0.1,-0.59,0.1,-1.33l0,-6.68c0,-0.9,-0.03,-1.47,-0.09,-1.73c-0.04,-0.19,-0.12,-0.33,-0.23,-0.42c-0.11,-0.09,-0.24,-0.13,-0.4,-0.13c-0.22,0,-0.53,0.09,-0.94,0.28l-0.13,-0.28" fill="#000000" stroke="none" fill-opacity="1"/>
<path d="m38.23,103.44l3.01,-1.47l0.3,0l0,10.45c0,0.69,0.02,1.12,0.08,1.29c0.05,0.17,0.17,0.3,0.36,0.39c0.18,0.09,0.55,0.14,1.11,0.15l0,0.33l-4.65,0l0,-0.33c0.58,-0.01,0.96,-0.06,1.13,-0.15c0.17,-0.08,0.28,-0.2,0.35,-0.35c0.06,-0.14,0.1,-0.59,0.1,-1.33l0,-6.68c0,-0.9,-0.03,-1.47,-0.09,-1.73c-0.04,-0.19,-0.12,-0.33,-0.23,-0.42c-0.11,-0.09,-0.24,-0.13,-0.4,-0.13c-0.22,0,-0.53,0.09,-0.94,0.28l-0.13,-0.28m9.49,9.39c0.28,0,0.52,0.09,0.72,0.29c0.19,0.19,0.29,0.43,0.29,0.71c0,0.28,-0.09,0.51,-0.29,0.71c-0.19,0.19,-0.43,0.29,-0.71,0.29c-0.28,0,-0.51,-0.09,-0.71,-0.29c-0.19,-0.19,-0.29,-0.43,-0.29,-0.71c0,-0.28,0.09,-0.52,0.29,-0.72c0.19,-0.19,0.43,-0.29,0.71,-0.29m4.52,-9.39l3.01,-1.47l0.3,0l0,10.45c0,0.69,0.02,1.12,0.08,1.29c0.05,0.17,0.17,0.3,0.36,0.39c0.18,0.09,0.55,0.14,1.11,0.15l0,0.33l-4.65,0l0,-0.33c0.58,-0.01,0.96,-0.06,1.13,-0.15c0.17,-0.08,0.28,-0.2,0.35,-0.35c0.06,-0.14,0.1,-0.59,0.1,-1.33l0,-6.68c0,-0.9,-0.03,-1.47,-0.09,-1.73c-0.04,-0.19,-0.12,-0.33,-0.23,-0.42c-0.11,-0.09,-0.24,-0.13,-0.4,-0.13c-0.22,0,-0.53,0.09,-0.94,0.28l-0.13,-0.28" fill="#000000" stroke="none" fill-opacity="1"/>
<path d="m38.23,36.36l3.01,-1.47l0.3,0l0,10.45c0,0.69,0.02,1.12,0.08,1.29c0.05,0.17,0.17,0.3,0.36,0.39c0.18,0.09,0.55,0.14,1.11,0.15l0,0.33l-4.65,0l0,-0.33c0.58,-0.01,0.96,-0.06,1.13,-0.15c0.17,-0.08,0.28,-0.2,0.35,-0.35c0.06,-0.14,0.1,-0.59,0.1,-1.33l0,-6.68c0,-0.9,-0.03,-1.47,-0.09,-1.73c-0.04,-0.19,-0.12,-0.33,-0.23,-0.42c-0.11,-0.09,-0.24,-0.13,-0.4,-0.13c-0.22,0,-0.53,0.09,-0.94,0.28l-0.13,-0.28m9.49,9.39c0.28,0,0.52,0.09,0.72,0.29c0.19,0.19,0.29,0.43,0.29,0.71c0,0.28,-0.09,0.51,-0.29,0.71c-0.19,0.19,-0.43,0.29,-0.71,0.29c-0.28,0,-0.51,-0.09,-0.71,-0.29c-0.19,-0.19,-0.29,-0.43,-0.29,-0.71c0,-0.28,0.09,-0.52,0.29,-0.72c0.19,-0.19,0.43,-0.29,0.71,-0.29m10.91,-0.61l-0.86,2.38l-7.3,0l0,-0.33c2.14,-1.96,3.66,-3.56,4.53,-4.8c0.87,-1.24,1.31,-2.37,1.31,-3.4c0,-0.78,-0.24,-1.43,-0.72,-1.93c-0.48,-0.5,-1.05,-0.75,-1.72,-0.75c-0.6,0,-1.15,0.17,-1.63,0.53c-0.48,0.35,-0.84,0.87,-1.07,1.56l-0.33,0c0.15,-1.12,0.54,-1.99,1.17,-2.59c0.63,-0.6,1.41,-0.9,2.36,-0.9c1,0,1.84,0.32,2.51,0.96c0.67,0.64,1,1.4,1,2.28c0,0.62,-0.14,1.25,-0.43,1.88c-0.45,0.98,-1.18,2.03,-2.19,3.13c-1.51,1.65,-2.46,2.65,-2.83,2.99l3.23,0c0.65,0,1.11,-0.02,1.38,-0.07c0.26,-0.04,0.5,-0.14,0.71,-0.29c0.21,-0.14,0.39,-0.36,0.55,-0.63l0.33,0" fill="#000000" stroke="none" fill-opacity="1"/>
</g>
<g fill="none" stroke-linecap="butt" stroke-width="0.66">
<path d="M559.37,275.9l0,-268.34"/>
<path d="M559.37,269.19l-4,0M559.37,255.77l-4,0M559.37,242.36l-4,0M559.37,228.94l-4,0M559.37,215.52l-4,0M559.37,202.11l-4,0M559.37,188.69l-4,0M559.37,175.27l-4,0M559.37,161.85l-4,0M559.37,148.44l-4,0M559.37,135.02l-4,0M559.37,121.6l-4,0M559.37,108.18l-4,0M559.37,94.77l-4,0M559.37,81.35l-4,0M559.37,67.93l-4,0M559.37,54.51l-4,0M559.37,41.1l-4,0M559.37,27.68l-4,0M559.37,14.26l-4,0"/>
<path d="M559.37,242.36l-8,0M559.37,175.27l-8,0M559.37,108.18l-8,0M559.37,41.1l-8,0"/>
<path d="M64.25,275.9l495.11,0"/>
<path d="M64.25,275.9l0,-4M182.55,275.9l0,-4M274.32,275.9l0,-4M349.29,275.9l0,-4M412.69,275.9l0,-4M467.6,275.9l0,-4M516.04,275.9l0,-4"/>
<path d="M64.25,275.9l0,-8M182.55,275.9l0,-8M274.32,275.9l0,-8M349.29,275.9l0,-8M412.69,275.9l0,-8M467.6,275.9l0,-8M516.04,275.9l0,-8M559.37,275.9l0,-8"/>
</g>
<g fill="none" stroke-width="0.1">
<path d="m264.57,312.03l0,4.89l2.72,0c0.7,0,1.17,-0.1,1.41,-0.31c0.31,-0.28,0.49,-0.77,0.52,-1.47l0.33,0l0,4.3l-0.33,0c-0.08,-0.6,-0.17,-0.98,-0.25,-1.15c-0.1,-0.21,-0.28,-0.38,-0.53,-0.5c-0.24,-0.12,-0.63,-0.18,-1.15,-0.18l-2.72,0l0,4.08c0,0.54,0.02,0.88,0.07,0.99c0.04,0.11,0.13,0.21,0.25,0.28c0.12,0.07,0.35,0.1,0.69,0.1l2.1,0c0.7,0,1.2,-0.04,1.52,-0.14c0.31,-0.09,0.62,-0.28,0.91,-0.57c0.37,-0.37,0.76,-0.94,1.15,-1.7l0.36,0l-1.06,3.1l-9.54,0l0,-0.33l0.43,0c0.29,0,0.56,-0.07,0.83,-0.21c0.19,-0.09,0.32,-0.24,0.39,-0.43c0.07,-0.19,0.1,-0.59,0.1,-1.19l0,-8.04c0,-0.78,-0.07,-1.26,-0.23,-1.45c-0.21,-0.24,-0.58,-0.36,-1.09,-0.36l-0.43,0l0,-0.33l9.54,0l0.13,2.71l-0.35,0c-0.12,-0.65,-0.26,-1.09,-0.42,-1.34c-0.15,-0.24,-0.38,-0.42,-0.68,-0.55c-0.24,-0.09,-0.67,-0.13,-1.28,-0.13l-3.39,0m10.53,4.86c0.98,-1.18,1.91,-1.77,2.8,-1.77c0.45,0,0.84,0.11,1.17,0.34c0.32,0.22,0.59,0.6,0.78,1.12c0.13,0.36,0.2,0.92,0.2,1.68l0,3.57c0,0.52,0.04,0.88,0.12,1.07c0.06,0.15,0.17,0.27,0.32,0.35c0.14,0.08,0.42,0.12,0.82,0.12l0,0.32l-4.13,0l0,-0.32l0.17,0c0.38,0,0.66,-0.05,0.81,-0.17c0.15,-0.11,0.26,-0.29,0.32,-0.52c0.02,-0.09,0.03,-0.37,0.03,-0.85l0,-3.42c0,-0.76,-0.09,-1.31,-0.29,-1.65c-0.19,-0.34,-0.53,-0.51,-0.99,-0.51c-0.72,0,-1.44,0.39,-2.16,1.18l0,4.41c0,0.56,0.03,0.91,0.1,1.05c0.08,0.17,0.2,0.3,0.35,0.38c0.14,0.08,0.45,0.12,0.9,0.12l0,0.32l-4.13,0l0,-0.32l0.18,0c0.42,0,0.71,-0.1,0.86,-0.32c0.14,-0.21,0.22,-0.62,0.22,-1.23l0,-3.1c0,-1,-0.02,-1.61,-0.06,-1.83c-0.04,-0.21,-0.11,-0.36,-0.21,-0.44c-0.09,-0.07,-0.22,-0.11,-0.37,-0.11c-0.17,0,-0.37,0.04,-0.61,0.13l-0.13,-0.32l2.52,-1.02l0.39,0l0,1.77m8.31,1.62c0,1.24,0.29,2.21,0.9,2.92c0.6,0.7,1.32,1.05,2.14,1.05c0.54,0,1.02,-0.15,1.42,-0.45c0.4,-0.3,0.74,-0.81,1.01,-1.54l0.28,0.18c-0.12,0.83,-0.49,1.59,-1.11,2.27c-0.61,0.68,-1.38,1.02,-2.31,1.02c-1,0,-1.86,-0.39,-2.57,-1.17c-0.71,-0.78,-1.07,-1.83,-1.07,-3.15c0,-1.43,0.36,-2.54,1.1,-3.34c0.73,-0.8,1.65,-1.2,2.76,-1.2c0.93,0,1.7,0.3,2.31,0.92c0.6,0.61,0.9,1.44,0.9,2.47l-5.77,0m0,-0.52l3.87,0c-0.03,-0.53,-0.09,-0.91,-0.19,-1.13c-0.15,-0.34,-0.37,-0.6,-0.68,-0.8c-0.3,-0.19,-0.61,-0.29,-0.94,-0.29c-0.5,0,-0.95,0.19,-1.35,0.58c-0.39,0.39,-0.63,0.93,-0.69,1.63m9.33,-2.86l0,1.88c0.7,-1.25,1.41,-1.88,2.15,-1.88c0.33,0,0.61,0.1,0.83,0.3c0.21,0.2,0.32,0.43,0.32,0.7c0,0.23,-0.07,0.43,-0.23,0.6c-0.15,0.16,-0.34,0.24,-0.56,0.24c-0.21,0,-0.45,-0.1,-0.71,-0.31c-0.26,-0.21,-0.46,-0.31,-0.58,-0.31c-0.1,0,-0.22,0.06,-0.35,0.18c-0.27,0.24,-0.55,0.66,-0.84,1.23l0,4c0,0.46,0.05,0.81,0.17,1.05c0.07,0.16,0.21,0.3,0.42,0.41c0.2,0.1,0.49,0.16,0.86,0.16l0,0.32l-4.28,0l0,-0.32c0.42,0,0.74,-0.06,0.94,-0.2c0.15,-0.09,0.25,-0.25,0.31,-0.46c0.03,-0.1,0.04,-0.39,0.04,-0.88l0,-3.24c0,-0.97,-0.01,-1.55,-0.05,-1.73c-0.03,-0.18,-0.11,-0.32,-0.21,-0.4c-0.1,-0.08,-0.23,-0.12,-0.39,-0.12c-0.18,0,-0.4,0.04,-0.63,0.13l-0.09,-0.32l2.52,-1.02l0.38,0m6.01,5.56c-0.51,-0.24,-0.9,-0.59,-1.17,-1.04c-0.27,-0.44,-0.41,-0.94,-0.41,-1.48c0,-0.82,0.31,-1.54,0.93,-2.13c0.62,-0.59,1.42,-0.89,2.39,-0.89c0.79,0,1.48,0.19,2.07,0.58l1.77,0c0.26,0,0.41,0,0.45,0.02c0.04,0.01,0.07,0.04,0.09,0.07c0.03,0.05,0.05,0.15,0.05,0.29c0,0.15,-0.01,0.26,-0.04,0.32c-0.01,0.03,-0.05,0.05,-0.09,0.07c-0.04,0.01,-0.19,0.02,-0.46,0.02l-1.08,0c0.34,0.43,0.51,0.99,0.51,1.68c0,0.77,-0.29,1.44,-0.89,1.99c-0.59,0.55,-1.39,0.83,-2.4,0.83c-0.41,0,-0.83,-0.06,-1.26,-0.18c-0.26,0.23,-0.44,0.43,-0.54,0.6c-0.09,0.17,-0.14,0.32,-0.14,0.44c0,0.1,0.05,0.2,0.15,0.3c0.1,0.09,0.29,0.16,0.58,0.21c0.17,0.02,0.59,0.04,1.27,0.06c1.25,0.03,2.06,0.07,2.43,0.12c0.56,0.07,1.01,0.28,1.35,0.63c0.33,0.34,0.5,0.76,0.5,1.26c0,0.68,-0.32,1.33,-0.96,1.93c-0.94,0.88,-2.18,1.33,-3.71,1.33c-1.17,0,-2.16,-0.26,-2.97,-0.79c-0.45,-0.3,-0.68,-0.62,-0.68,-0.94c0,-0.14,0.03,-0.29,0.1,-0.43c0.1,-0.22,0.31,-0.53,0.63,-0.94c0.04,-0.05,0.35,-0.38,0.93,-0.98c-0.31,-0.18,-0.54,-0.35,-0.67,-0.5c-0.13,-0.14,-0.19,-0.31,-0.19,-0.5c0,-0.21,0.08,-0.46,0.26,-0.74c0.17,-0.28,0.57,-0.69,1.2,-1.21m1.58,-5.12c-0.45,0,-0.82,0.17,-1.13,0.53c-0.3,0.35,-0.45,0.91,-0.45,1.65c0,0.96,0.2,1.7,0.62,2.23c0.31,0.4,0.71,0.6,1.2,0.6c0.46,0,0.84,-0.17,1.14,-0.52c0.29,-0.34,0.44,-0.89,0.44,-1.63c0,-0.96,-0.21,-1.72,-0.63,-2.27c-0.31,-0.4,-0.7,-0.6,-1.19,-0.6m-1.68,8.17c-0.28,0.31,-0.5,0.59,-0.64,0.86c-0.14,0.26,-0.21,0.51,-0.21,0.73c0,0.29,0.17,0.54,0.52,0.76c0.6,0.37,1.48,0.56,2.63,0.56c1.09,0,1.9,-0.19,2.42,-0.57c0.52,-0.38,0.78,-0.79,0.78,-1.23c0,-0.31,-0.15,-0.54,-0.46,-0.67c-0.31,-0.13,-0.94,-0.21,-1.88,-0.23c-1.36,-0.03,-2.42,-0.1,-3.15,-0.21m6.72,-8.36l3.89,0l0,0.33l-0.19,0c-0.27,0,-0.47,0.05,-0.61,0.17c-0.13,0.11,-0.2,0.26,-0.2,0.44c0,0.23,0.1,0.56,0.3,0.98l2.03,4.21l1.87,-4.62c0.1,-0.24,0.15,-0.49,0.15,-0.73c0,-0.1,-0.02,-0.19,-0.06,-0.24c-0.04,-0.06,-0.12,-0.12,-0.22,-0.15c-0.1,-0.03,-0.28,-0.05,-0.54,-0.05l0,-0.33l2.72,0l0,0.33c-0.22,0.02,-0.39,0.07,-0.52,0.14c-0.12,0.07,-0.25,0.21,-0.4,0.41c-0.05,0.08,-0.15,0.31,-0.31,0.7l-3.4,8.34c-0.32,0.8,-0.75,1.42,-1.29,1.83c-0.53,0.41,-1.04,0.62,-1.53,0.62c-0.35,0,-0.65,-0.1,-0.88,-0.31c-0.23,-0.2,-0.34,-0.44,-0.34,-0.71c0,-0.25,0.08,-0.46,0.25,-0.61c0.16,-0.15,0.39,-0.23,0.68,-0.23c0.2,0,0.47,0.06,0.82,0.2c0.24,0.09,0.39,0.13,0.45,0.13c0.18,0,0.38,-0.09,0.59,-0.28c0.21,-0.18,0.43,-0.55,0.65,-1.09l0.59,-1.45l-3,-6.3c-0.09,-0.18,-0.23,-0.42,-0.43,-0.7c-0.15,-0.21,-0.27,-0.35,-0.37,-0.42c-0.14,-0.09,-0.36,-0.18,-0.67,-0.25l0,-0.33m19.72,12.02l0,0.33c-0.91,-0.46,-1.68,-1,-2.3,-1.62c-0.87,-0.88,-1.55,-1.92,-2.02,-3.12c-0.47,-1.19,-0.71,-2.44,-0.71,-3.73c0,-1.88,0.46,-3.6,1.39,-5.16c0.93,-1.55,2.14,-2.66,3.64,-3.33l0,0.38c-0.74,0.41,-1.36,0.98,-1.84,1.69c-0.48,0.71,-0.84,1.62,-1.07,2.73c-0.23,1.1,-0.35,2.25,-0.35,3.45c0,1.3,0.1,2.48,0.3,3.55c0.15,0.84,0.35,1.51,0.57,2.02c0.22,0.5,0.52,0.99,0.9,1.46c0.38,0.46,0.87,0.91,1.49,1.34m3.47,-16.64l0,8.32l2.12,-1.94c0.45,-0.41,0.71,-0.67,0.78,-0.78c0.04,-0.07,0.07,-0.14,0.07,-0.21c0,-0.12,-0.05,-0.22,-0.15,-0.31c-0.1,-0.08,-0.26,-0.13,-0.49,-0.15l0,-0.29l3.63,0l0,0.29c-0.49,0.01,-0.91,0.08,-1.24,0.22c-0.33,0.14,-0.69,0.38,-1.09,0.74l-2.14,1.98l2.14,2.71c0.59,0.74,0.99,1.22,1.2,1.42c0.29,0.28,0.54,0.47,0.76,0.55c0.15,0.06,0.41,0.09,0.79,0.09l0,0.32l-4.06,0l0,-0.32c0.23,0,0.38,-0.04,0.47,-0.1c0.08,-0.06,0.12,-0.15,0.12,-0.26c0,-0.14,-0.12,-0.36,-0.36,-0.67l-2.56,-3.27l0,2.77c0,0.54,0.03,0.89,0.11,1.06c0.07,0.17,0.18,0.29,0.32,0.36c0.14,0.07,0.44,0.11,0.91,0.11l0,0.32l-4.25,0l0,-0.32c0.42,0,0.74,-0.05,0.95,-0.15c0.12,-0.06,0.22,-0.17,0.29,-0.31c0.09,-0.2,0.13,-0.54,0.13,-1.04l0,-7.61c0,-0.96,-0.02,-1.55,-0.06,-1.77c-0.04,-0.21,-0.11,-0.36,-0.21,-0.44c-0.09,-0.08,-0.22,-0.12,-0.38,-0.12c-0.12,0,-0.31,0.05,-0.57,0.15l-0.15,-0.31l2.48,-1.02l0.42,0m8.28,7.77c0,1.24,0.29,2.21,0.9,2.92c0.6,0.7,1.32,1.05,2.14,1.05c0.54,0,1.02,-0.15,1.42,-0.45c0.4,-0.3,0.74,-0.81,1.01,-1.54l0.28,0.18c-0.12,0.83,-0.49,1.59,-1.11,2.27c-0.61,0.68,-1.38,1.02,-2.31,1.02c-1,0,-1.86,-0.39,-2.57,-1.17c-0.71,-0.78,-1.07,-1.83,-1.07,-3.15c0,-1.43,0.36,-2.54,1.1,-3.34c0.73,-0.8,1.65,-1.2,2.76,-1.2c0.93,0,1.7,0.3,2.31,0.92c0.6,0.61,0.9,1.44,0.9,2.47l-5.77,0m0,-0.52l3.87,0c-0.03,-0.53,-0.09,-0.91,-0.19,-1.13c-0.15,-0.34,-0.37,-0.6,-0.68,-0.8c-0.3,-0.19,-0.61,-0.29,-0.94,-0.29c-0.5,0,-0.95,0.19,-1.35,0.58c-0.39,0.39,-0.63,0.93,-0.69,1.63m19.58,-6.63l0,0.33c-0.43,0.07,-0.77,0.21,-0.99,0.42c-0.32,0.29,-0.6,0.75,-0.85,1.36l-4.31,10.53l-0.33,0l-4.63,-10.67c-0.23,-0.54,-0.4,-0.88,-0.5,-1c-0.15,-0.18,-0.33,-0.33,-0.56,-0.44c-0.22,-0.1,-0.52,-0.17,-0.89,-0.2l0,-0.33l5.05,0l0,0.33c-0.57,0.05,-0.94,0.15,-1.11,0.29c-0.17,0.14,-0.25,0.31,-0.25,0.53c0,0.3,0.14,0.77,0.42,1.42l3.15,7.25l2.92,-7.16c0.28,-0.7,0.42,-1.19,0.42,-1.47c0,-0.17,-0.08,-0.34,-0.26,-0.5c-0.17,-0.16,-0.47,-0.27,-0.89,-0.34c-0.03,0,-0.08,-0.01,-0.15,-0.02l0,-0.33l3.81,0m0.64,-0.21l0,-0.38c0.92,0.45,1.69,0.99,2.31,1.61c0.87,0.88,1.54,1.93,2.01,3.12c0.47,1.19,0.71,2.44,0.71,3.73c0,1.88,-0.46,3.6,-1.39,5.16c-0.92,1.55,-2.14,2.66,-3.64,3.33l0,-0.33c0.74,-0.42,1.36,-0.98,1.84,-1.7c0.48,-0.71,0.84,-1.62,1.07,-2.73c0.23,-1.1,0.35,-2.25,0.35,-3.45c0,-1.29,-0.1,-2.48,-0.3,-3.55c-0.15,-0.84,-0.34,-1.51,-0.57,-2.01c-0.22,-0.5,-0.53,-0.99,-0.9,-1.46c-0.37,-0.46,-0.87,-0.91,-1.49,-1.34" fill="#000000" stroke="none" fill-opacity="1"/>
<path d="m60.52,287.37c0.35,-0.83,0.79,-1.47,1.33,-1.93c0.53,-0.45,1.2,-0.68,2.01,-0.68c0.99,0,1.75,0.32,2.28,0.96c0.4,0.48,0.6,0.99,0.6,1.54c0,0.9,-0.56,1.83,-1.69,2.79c0.76,0.29,1.33,0.72,1.72,1.27c0.38,0.55,0.58,1.2,0.58,1.95c0,1.07,-0.34,1.99,-1.02,2.78c-0.88,1.02,-2.17,1.53,-3.86,1.53c-0.83,0,-1.4,-0.1,-1.7,-0.31c-0.3,-0.2,-0.45,-0.42,-0.45,-0.66c0,-0.17,0.07,-0.33,0.21,-0.46c0.14,-0.13,0.31,-0.2,0.51,-0.2c0.15,0,0.3,0.02,0.46,0.07c0.1,0.03,0.33,0.14,0.7,0.33c0.36,0.19,0.61,0.3,0.75,0.34c0.22,0.06,0.46,0.1,0.72,0.1c0.62,0,1.16,-0.24,1.62,-0.72c0.45,-0.48,0.68,-1.05,0.68,-1.7c0,-0.48,-0.1,-0.94,-0.31,-1.4c-0.15,-0.34,-0.33,-0.59,-0.52,-0.77c-0.26,-0.24,-0.62,-0.46,-1.07,-0.66c-0.45,-0.19,-0.92,-0.29,-1.39,-0.29l-0.29,0l0,-0.27c0.48,-0.06,0.96,-0.23,1.44,-0.52c0.48,-0.28,0.83,-0.63,1.05,-1.03c0.21,-0.4,0.32,-0.84,0.32,-1.32c0,-0.62,-0.19,-1.13,-0.58,-1.52c-0.39,-0.38,-0.88,-0.57,-1.46,-0.57c-0.94,0,-1.73,0.5,-2.36,1.51l-0.3,-0.14" fill="#000000" stroke="none" fill-opacity="1"/>
<path d="m186.58,292.83l0,1.29l-1.66,0l0,3.26l-1.5,0l0,-3.26l-5.24,0l0,-1.16l5.74,-8.19l1,0l0,8.07l1.66,0m-3.16,0l0,-6.14l-4.34,6.14l4.34,0" fill="#000000" stroke="none" fill-opacity="1"/>
<path d="m277.76,285.02l-0.71,1.55l-3.72,0l-0.81,1.66c1.61,0.23,2.89,0.83,3.83,1.79c0.8,0.82,1.21,1.8,1.21,2.92c0,0.65,-0.13,1.25,-0.39,1.8c-0.26,0.55,-0.59,1.02,-0.99,1.41c-0.4,0.38,-0.84,0.7,-1.34,0.94c-0.7,0.33,-1.41,0.5,-2.15,0.5c-0.74,0,-1.28,-0.12,-1.62,-0.37c-0.33,-0.25,-0.5,-0.53,-0.5,-0.83c0,-0.17,0.07,-0.32,0.21,-0.45c0.14,-0.13,0.31,-0.19,0.52,-0.19c0.15,0,0.29,0.02,0.41,0.07c0.11,0.04,0.32,0.17,0.6,0.37c0.45,0.31,0.91,0.47,1.38,0.47c0.71,0,1.33,-0.26,1.87,-0.8c0.53,-0.53,0.8,-1.19,0.8,-1.96c0,-0.74,-0.24,-1.44,-0.72,-2.09c-0.48,-0.64,-1.14,-1.14,-1.99,-1.5c-0.66,-0.27,-1.56,-0.43,-2.71,-0.47l2.37,-4.81l4.43,0" fill="#000000" stroke="none" fill-opacity="1"/>
<path d="m353,284.76l0,0.33c-0.8,0.07,-1.45,0.23,-1.96,0.47c-0.5,0.24,-1.01,0.6,-1.5,1.1c-0.49,0.49,-0.9,1.04,-1.23,1.64c-0.32,0.6,-0.59,1.32,-0.81,2.15c0.87,-0.6,1.75,-0.9,2.63,-0.9c0.84,0,1.57,0.34,2.2,1.02c0.62,0.68,0.93,1.55,0.93,2.62c0,1.03,-0.31,1.97,-0.94,2.83c-0.75,1.03,-1.75,1.55,-2.99,1.55c-0.84,0,-1.56,-0.28,-2.15,-0.84c-1.15,-1.08,-1.73,-2.5,-1.73,-4.23c0,-1.1,0.22,-2.16,0.66,-3.15c0.44,-0.99,1.07,-1.88,1.9,-2.65c0.82,-0.77,1.61,-1.29,2.36,-1.56c0.75,-0.26,1.45,-0.4,2.1,-0.4l0.52,0m-5.67,6.39c-0.1,0.82,-0.16,1.48,-0.16,1.99c0,0.58,0.1,1.21,0.32,1.9c0.21,0.68,0.53,1.22,0.96,1.62c0.31,0.28,0.68,0.42,1.13,0.42c0.52,0,1,-0.24,1.41,-0.74c0.41,-0.49,0.62,-1.21,0.62,-2.13c0,-1.04,-0.2,-1.94,-0.62,-2.7c-0.41,-0.76,-1,-1.14,-1.76,-1.14c-0.23,0,-0.47,0.04,-0.74,0.14c-0.26,0.09,-0.65,0.3,-1.17,0.63" fill="#000000" stroke="none" fill-opacity="1"/>
<path d="m409.89,285.02l6.63,0l0,0.34l-4.12,12.29l-1.02,0l3.69,-11.14l-3.4,0c-0.68,0,-1.17,0.08,-1.47,0.24c-0.51,0.28,-0.92,0.71,-1.23,1.29l-0.26,-0.1l1.18,-2.93" fill="#000000" stroke="none" fill-opacity="1"/>
<path d="m466.51,291.16c-0.98,-0.8,-1.61,-1.44,-1.89,-1.93c-0.28,-0.48,-0.42,-0.99,-0.42,-1.51c0,-0.8,0.31,-1.49,0.93,-2.07c0.62,-0.58,1.44,-0.87,2.47,-0.87c0.99,0,1.8,0.27,2.41,0.81c0.6,0.54,0.91,1.15,0.91,1.85c0,0.46,-0.16,0.93,-0.49,1.41c-0.32,0.48,-1.01,1.04,-2.05,1.69c1.07,0.82,1.78,1.47,2.12,1.95c0.46,0.62,0.69,1.27,0.69,1.96c0,0.87,-0.33,1.61,-0.99,2.23c-0.66,0.61,-1.53,0.92,-2.61,0.92c-1.17,0,-2.09,-0.36,-2.74,-1.1c-0.52,-0.59,-0.78,-1.23,-0.78,-1.93c0,-0.54,0.18,-1.09,0.55,-1.62c0.36,-0.53,1,-1.13,1.9,-1.78m1.43,-0.97c0.73,-0.65,1.19,-1.17,1.38,-1.55c0.19,-0.38,0.29,-0.81,0.29,-1.29c0,-0.63,-0.17,-1.13,-0.53,-1.5c-0.35,-0.36,-0.84,-0.54,-1.47,-0.54c-0.62,0,-1.12,0.17,-1.51,0.53c-0.38,0.35,-0.58,0.77,-0.58,1.26c0,0.31,0.08,0.63,0.24,0.94c0.16,0.31,0.39,0.61,0.68,0.9l1.49,1.24m-1,1.32c-0.5,0.42,-0.87,0.89,-1.12,1.39c-0.24,0.5,-0.36,1.04,-0.36,1.62c0,0.78,0.21,1.41,0.64,1.88c0.42,0.47,0.97,0.7,1.63,0.7c0.65,0,1.18,-0.18,1.57,-0.55c0.39,-0.37,0.59,-0.82,0.59,-1.35c0,-0.43,-0.11,-0.83,-0.34,-1.17c-0.43,-0.64,-1.3,-1.48,-2.62,-2.52" fill="#000000" stroke="none" fill-opacity="1"/>
<path d="m512.35,297.66l0,-0.33c0.79,-0.01,1.52,-0.19,2.2,-0.55c0.68,-0.35,1.34,-0.97,1.97,-1.86c0.63,-0.88,1.07,-1.86,1.32,-2.93c-0.95,0.61,-1.82,0.92,-2.59,0.92c-0.87,0,-1.61,-0.33,-2.23,-1c-0.62,-0.67,-0.93,-1.56,-0.93,-2.67c0,-1.08,0.31,-2.04,0.93,-2.89c0.74,-1.02,1.72,-1.54,2.93,-1.54c1.01,0,1.88,0.42,2.61,1.26c0.88,1.04,1.33,2.32,1.33,3.85c0,1.37,-0.33,2.65,-1.01,3.84c-0.67,1.19,-1.61,2.17,-2.82,2.96c-0.98,0.64,-2.04,0.96,-3.2,0.96l-0.52,0m5.66,-6.36c0.1,-0.79,0.16,-1.42,0.16,-1.89c0,-0.59,-0.1,-1.22,-0.3,-1.91c-0.2,-0.68,-0.48,-1.2,-0.85,-1.57c-0.36,-0.36,-0.78,-0.54,-1.25,-0.54c-0.54,0,-1.01,0.24,-1.42,0.73c-0.4,0.48,-0.61,1.21,-0.61,2.17c0,1.28,0.27,2.28,0.81,3.01c0.39,0.52,0.88,0.78,1.46,0.78c0.28,0,0.61,-0.06,0.99,-0.2c0.38,-0.13,0.72,-0.32,1.01,-0.56" fill="#000000" stroke="none" fill-opacity="1"/>
<path d="m550.41,286.23l3.01,-1.47l0.3,0l0,10.45c0,0.69,0.02,1.12,0.08,1.29c0.05,0.17,0.17,0.3,0.36,0.39c0.18,0.09,0.55,0.14,1.11,0.15l0,0.33l-4.65,0l0,-0.33c0.58,-0.01,0.96,-0.06,1.13,-0.15c0.17,-0.08,0.28,-0.2,0.35,-0.35c0.06,-0.14,0.1,-0.59,0.1,-1.33l0,-6.68c0,-0.9,-0.03,-1.47,-0.09,-1.73c-0.04,-0.19,-0.12,-0.33,-0.23,-0.42c-0.11,-0.09,-0.24,-0.13,-0.4,-0.13c-0.22,0,-0.53,0.09,-0.94,0.28l-0.13,-0.28m7.83,5.04c0,-1.41,0.21,-2.62,0.63,-3.64c0.42,-1.01,0.99,-1.77,1.69,-2.27c0.54,-0.39,1.11,-0.59,1.69,-0.59c0.94,0,1.8,0.48,2.55,1.45c0.94,1.19,1.41,2.82,1.41,4.87c0,1.43,-0.2,2.65,-0.62,3.66c-0.41,1,-0.94,1.73,-1.58,2.18c-0.64,0.45,-1.26,0.68,-1.85,0.68c-1.18,0,-2.16,-0.69,-2.94,-2.09c-0.66,-1.17,-0.99,-2.59,-0.99,-4.24m1.78,0.22c0,1.7,0.21,3.09,0.63,4.17c0.34,0.9,0.86,1.36,1.55,1.36c0.32,0,0.66,-0.14,1.02,-0.44c0.35,-0.29,0.62,-0.78,0.8,-1.48c0.28,-1.04,0.42,-2.52,0.42,-4.42c0,-1.41,-0.14,-2.59,-0.43,-3.53c-0.21,-0.7,-0.5,-1.19,-0.84,-1.48c-0.24,-0.2,-0.55,-0.3,-0.9,-0.3c-0.41,0,-0.78,0.18,-1.1,0.55c-0.43,0.5,-0.73,1.29,-0.89,2.38c-0.15,1.08,-0.23,2.15,-0.23,3.2" fill="#000000" stroke="none" fill-opacity="1"/>
</g>
<g fill="none" stroke-linecap="butt" stroke-width="0.66">
<path d="M64.25,7.55l495.11,0"/>
<path d="M64.25,7.55l0,4M182.55,7.55l0,4M274.32,7.55l0,4M349.29,7.55l0,4M412.69,7.55l0,4M467.6,7.55l0,4M516.04,7.55l0,4"/>
<path d="M64.25,7.55l0,8M182.55,7.55l0,8M274.32,7.55l0,8M349.29,7.55l0,8M412.69,7.55l0,8M467.6,7.55l0,8M516.04,7.55l0,8M559.37,7.55l0,8"/>
</g>
</g>
</g>
</svg>
