<?xml version="1.0" standalone="no"?>
<!DOCTYPE svg PUBLIC "-//W3C//DTD SVG 1.1//EN"
  "http://www.w3.org/Graphics/SVG/1.1/DTD/svg11.dtd">
<svg width="566.92px" height="302.36px" version="1.1"
    xmlns="http://www.w3.org/2000/svg"
    xmlns:xlink="http://www.w3.org/1999/xlink">
<desc>Veusz output document</desc>
<defs>
<clipPath id="c0">
<path d="m0,0l566.92,0l0,302.36l-566.92,0l0,-302.36"/>
</clipPath>
<clipPath id="c1">
<path d="m64.25,7.55l495.11,0l0,230.55l-495.11,0l0,-230.55"/>
</clipPath>
</defs>
<g stroke-linejoin="bevel" stroke-linecap="square" stroke="#000000" fill-rule="evenodd">
<g clip-path="url(#c0)">
<g fill="#ffffff" stroke-width="0.66">
<path d="m64.25,7.55l495.11,0l0,230.55l-495.11,0l0,-230.55"/>
</g>
<g fill="#000000" stroke-dasharray="5.33,2.66" stroke-linecap="butt" stroke-width="1.33">
<g transform="translate(64.25,154.27)">
<path d="M0,0l495.11,0"/>
</g>
</g>
</g>
<g clip-path="url(#c1)">
<g fill="none" stroke="#4daf4a" stroke-width="0.66">
<polyline fill="none" points="63.58,164.39 71.15,164.39 81.76,164.39 81.76,156 92.38,156 101.85,156 101.85,148.34 111.32,148.34 119.87,148.34 119.87,153.15 128.42,153.15 136.21,153.15 136.21,152.86 144,152.86 151.16,152.86 151.16,130.36 158.32,130.36 164.94,130.36 164.94,139.01 171.56,139.01 177.71,139.01 177.71,122.16 183.87,122.16 189.62,122.16 189.62,95.66 195.37,95.66 200.77,95.66 200.77,127.1 206.17,127.1 211.26,127.1 211.26,171.38 216.35,171.38 221.16,171.38 221.16,174.63 225.97,174.63 230.53,174.63 230.53,171.39 235.09,171.39 239.43,171.39 239.43,180.27 243.76,180.27 247.89,180.27 247.89,180.87 252.02,180.87 255.97,180.87 255.97,187.09 259.92,187.09 263.69,187.09 263.69,178.99 267.47,178.99 271.09,178.99 271.09,183.7 274.71,183.7 278.19,183.7 278.19,181.49 281.67,181.49 285.02,181.49 285.02,180.74 288.36,180.74 291.59,180.74 291.59,172.75 294.81,172.75 297.92,172.75 297.92,166.09 301.03,166.09 304.03,166.09 304.03,169.31 307.04,169.31 309.94,169.31 309.94,159.58 312.85,159.58 315.66,159.58 315.66,149.38 318.47,149.38 321.19,149.38 321.19,162.56 323.92,162.56 326.56,162.56 326.56,172.13 329.2,172.13 331.77,172.13 331.77,133.77 334.33,133.77 336.83,133.77 336.83,129.08 339.32,129.08 341.74,129.08 341.74,137.55 344.17,137.55 346.53,137.55 346.53,134.6 348.89,134.6 351.18,134.6 351.18,135.7 353.48,135.7 355.72,135.7 355.72,124.69 357.96,124.69 360.14,124.69 360.14,150.38 362.33,150.38 364.46,150.38 364.46,119.43 366.59,119.43 368.67,119.43 368.67,136.8 370.75,136.8 372.78,136.8 372.78,135.4 374.81,135.4 376.8,135.4 376.8,82.22 378.79,82.22 380.73,82.22 380.73,95.54 382.67,95.54 384.57,95.54 384.57,148.55 386.47,148.55 388.33,148.55 388.33,97.75 390.19,97.75 392.01,97.75 392.01,88.31 393.84,88.31 395.68,88.31 395.68,101.73 397.53,101.73 399.4,101.73 399.4,127.1 401.27,127.1 403.38,127.1 403.38,88.92 405.49,88.92 407.51,88.92 407.51,85.47 409.54,85.47 411.64,85.47 411.64,65.59 413.73,65.59 416.07,65.59 416.07,45.44 418.4,45.44 420.8,45.44 420.8,114.96 423.2,114.96 426.11,114.96 426.11,79.75 429.02,79.75 431.8,79.75 431.8,76.74 434.59,76.74 437.38,76.74 437.38,73.42 440.18,73.42 442.93,73.42 442.93,88.94 445.69,88.94 448.72,88.94 448.72,86.98 451.76,86.98 455.01,86.98 455.01,62.18 458.27,62.18 461.38,62.18 461.38,97.46 464.49,97.46 468.06,97.46 468.06,90.41 471.62,90.41 475.03,90.41 475.03,117.62 478.44,117.62 482.62,117.62 482.62,111.24 486.81,111.24 491.59,111.24 491.59,81.83 496.38,81.83 501.72,81.83 501.72,180.76 507.06,180.76 512.8,180.76 512.8,147.88 518.54,147.88 525.63,147.88 525.63,161.46 532.72,161.46 540.82,161.46 540.82,238.77"/>
</g>
<g fill="none" stroke="#4daf4a" stroke-linecap="butt" stroke-width="0.66">
<path d="M71.15,168.63l0,-8.49M92.38,159.95l0,-7.9M111.32,152.24l0,-7.79M128.42,157.03l0,-7.74M144,156.83l0,-7.93M158.32,134.52l0,-8.32M171.56,143.25l0,-8.47M183.87,126.62l0,-8.9M195.37,100.4l0,-9.47M206.17,131.86l0,-9.52M216.35,176.1l0,-9.44M225.97,179.53l0,-9.79M235.09,176.5l0,-10.21M243.76,185.52l0,-10.5M252.02,186.33l0,-10.91M259.92,192.72l0,-11.25M267.47,184.91l0,-11.85M274.71,189.94l0,-12.47M281.67,188.24l0,-13.5M288.36,187.82l0,-14.16M294.81,180.28l0,-15.04M301.03,174.28l0,-16.38M307.04,178.06l0,-17.5M312.85,168.84l0,-18.53M318.47,159.14l0,-19.53M323.92,172.65l0,-20.17M329.2,182.67l0,-21.09M334.33,145.32l0,-23.1M339.32,141.19l0,-24.23M344.17,150.06l0,-25.02M348.89,147.68l0,-26.16M353.48,149.34l0,-27.28M357.96,139.07l0,-28.75M362.33,164.9l0,-29.04M366.59,134.97l0,-31.08M370.75,152.66l0,-31.71M374.81,151.93l0,-33.05M378.79,100.3l0,-36.15M382.67,114.07l0,-37.04M386.47,166.75l0,-36.39M390.19,117.51l0,-39.53M393.84,108.91l0,-41.21M397.53,122.31l0,-41.15M401.27,147.89l0,-41.56M405.49,110.85l0,-43.86M409.54,107.7l0,-44.46M413.73,88.56l0,-45.95M418.4,69.64l0,-48.39M423.2,135.7l0,-41.48M429.02,99.92l0,-40.33M434.59,100l0,-46.52M440.18,96.51l0,-46.17M445.69,112.64l0,-47.38M451.76,113.15l0,-52.33M458.27,90.34l0,-56.33M464.49,124.69l0,-54.45M471.62,118.84l0,-56.87M478.44,144.29l0,-53.35M486.81,137.63l0,-52.79M496.38,109.48l0,-55.29M507.06,204.69l0,-47.86M518.54,174.86l0,-53.94M532.72,187.8l0,-52.69"/>
</g>
<g fill="none" stroke="#377eb8" stroke-width="0.66">
<polyline fill="none" points="77.79,159.14 88.03,159.14 88.03,159.02 98.28,159.02 107.45,159.02 107.45,150.63 116.63,150.63 124.93,150.63 124.93,151.36 133.24,151.36 140.83,151.36 140.83,144.57 148.42,144.57 155.41,144.57 155.41,141.66 162.4,141.66 168.87,141.66 168.87,135.07 175.34,135.07 181.37,135.07 181.37,116.87 187.4,116.87 193.04,116.87 193.04,103.52 198.68,103.52 203.99,103.52 203.99,140.46 209.29,140.46 214.29,140.46 214.29,174.34 219.29,174.34 224.02,174.34 224.02,184 228.76,184 233.25,184 233.25,183.13 237.74,183.13 242.01,183.13 242.01,181.9 246.28,181.9 250.36,181.9 250.36,193.2 254.43,193.2 258.32,193.2 258.32,181.3 262.22,181.3 265.95,181.3 265.95,186.36 269.68,186.36 273.25,186.36 273.25,175.94 276.83,175.94 280.27,175.94 280.27,184.25 283.71,184.25 287.01,184.25 287.01,167.77 290.32,167.77 293.51,167.77 293.51,162.91 296.7,162.91 299.78,162.91 299.78,172.37 302.85,172.37 305.83,172.37 305.83,166.45 308.8,166.45 311.68,166.45 311.68,178.16 314.55,178.16 317.34,178.16 317.34,155.24 320.12,155.24 322.82,155.24 322.82,156.67 325.52,156.67 328.14,156.67 328.14,156.08 330.76,156.08 333.3,156.08 333.3,125.29 335.84,125.29 338.32,125.29 338.32,152.47 340.79,152.47 343.19,152.47 343.19,138.39 345.6,138.39 347.94,138.39 347.94,156.03 350.28,156.03 352.56,156.03 352.56,126.84 354.84,126.84 357.06,126.84 357.06,137.99 359.28,137.99 361.45,137.99 361.45,108.5 363.62,108.5 365.73,108.5 365.73,113.84 367.85,113.84 369.91,113.84 369.91,93.78 371.98,93.78 374,93.78 374,107.41 376.01,107.41 377.99,107.41 377.99,103.98 379.96,103.98 381.89,103.98 381.89,105.59 383.82,105.59 385.71,105.59 385.71,83.07 387.6,83.07 389.45,83.07 389.45,110.79 391.29,110.79 393.1,110.79 393.1,74.49 394.92,74.49 396.69,74.49 396.69,96.54 398.46,96.54 400.2,96.54 400.2,107.71 401.94,107.71 403.65,107.71 403.65,62.03 405.35,62.03 407.16,62.03 407.16,75.53 408.96,75.53 410.8,75.53 410.8,76.86 412.63,76.86 414.4,76.86 414.4,80.61 416.18,80.61 418.52,80.61 418.52,90.29 420.86,90.29 423.18,90.29 423.18,37.73 425.5,37.73 428.14,37.73 428.14,52.14 430.78,52.14 433.45,52.14 433.45,75.69 436.12,75.69 438.84,75.69 438.84,84.19 441.56,84.19 444.28,84.19 444.28,87.34 447.01,87.34 450.09,87.34 450.09,72.16 453.17,72.16 456.33,72.16 456.33,106.47 459.49,106.47 462.81,106.47 462.81,93.56 466.13,93.56 469.53,93.56 469.53,104.82 472.93,104.82 476.61,104.82 476.61,139.23 480.3,139.23 484.98,139.23 484.98,101.57 489.67,101.57 494.54,101.57 494.54,129.62 499.41,129.62 504.97,129.62 504.97,168.35 510.54,168.35 516.69,168.35 516.69,180.83 522.85,180.83 530.24,180.83 530.24,192.71 537.63,192.71 544.63,192.71 544.63,238.77"/>
</g>
<g fill="none" stroke="#377eb8" stroke-linecap="butt" stroke-width="0.66">
<path d="M77.79,163.11l0,-7.94M98.28,162.78l0,-7.52M116.63,154.37l0,-7.48M133.24,155.14l0,-7.56M148.42,148.49l0,-7.84M162.4,145.7l0,-8.08M175.34,139.25l0,-8.36M187.4,121.27l0,-8.81M198.68,108.15l0,-9.26M209.29,145.09l0,-9.25M219.29,178.98l0,-9.27M228.76,188.77l0,-9.53M237.74,188.09l0,-9.91M246.28,187.06l0,-10.32M254.43,198.5l0,-10.59M262.22,186.88l0,-11.17M269.68,192.15l0,-11.57M276.83,182.18l0,-12.48M283.71,190.87l0,-13.25M290.32,174.84l0,-14.13M296.7,170.42l0,-15.01M302.85,180.4l0,-16.05M308.8,175.06l0,-17.22M314.55,187.01l0,-17.68M320.12,164.68l0,-18.87M325.52,166.56l0,-19.78M330.76,166.51l0,-20.85M335.84,136.57l0,-22.56M340.79,163.88l0,-22.81M345.6,150.44l0,-24.1M350.28,168.34l0,-24.62M354.84,140.06l0,-26.43M359.28,151.56l0,-27.14M363.62,123.02l0,-29.05M367.85,128.84l0,-30.01M371.98,109.68l0,-31.79M376.01,123.7l0,-32.59M379.96,120.94l0,-33.92M383.82,123.14l0,-35.1M387.6,101.64l0,-37.15M391.29,129.55l0,-37.51M394.92,94.57l0,-40.16M398.46,116.9l0,-40.71M401.94,128.54l0,-41.64M405.35,84.44l0,-44.83M408.96,97.47l0,-43.87M412.63,100.72l0,-47.73M416.18,103.33l0,-45.43M420.86,111.93l0,-43.26M425.5,61.79l0,-48.12M430.78,75.27l0,-46.24M436.12,98.69l0,-46M441.56,106.68l0,-44.97M447.01,111.02l0,-47.35M453.17,97.17l0,-50.01M459.49,132.24l0,-51.54M466.13,118.68l0,-50.23M472.93,132.72l0,-55.79M480.3,162.71l0,-46.95M489.67,126.58l0,-50.02M499.41,154.53l0,-49.8M510.54,192.33l0,-47.97M522.85,204.84l0,-48.02M537.63,217.67l0,-49.92"/>
</g>
<g fill="none" stroke="#e41a1c" stroke-width="0.66">
<polyline fill="none" points="65.71,167.8 67.15,167.8 67.15,169.69 68.59,169.69 70.01,169.69 70.01,171.35 71.43,171.35 72.83,171.35 72.83,168.03 74.22,168.03 75.6,168.03 75.6,169.82 76.97,169.82 78.33,169.82 78.33,155.98 79.68,155.98 81.02,155.98 81.02,164.33 82.35,164.33 83.66,164.33 83.66,165.67 84.98,165.67 86.27,165.67 86.27,157.04 87.56,157.04 88.84,157.04 88.84,168.21 90.11,168.21 91.37,168.21 91.37,169.68 92.63,169.68 93.87,169.68 93.87,158.58 95.11,158.58 96.33,158.58 96.33,154.79 97.55,154.79 98.76,154.79 98.76,158.91 99.96,158.91 101.15,158.91 101.15,158.13 102.34,158.13 103.51,158.13 103.51,156.47 104.69,156.47 105.84,156.47 105.84,155.62 107,155.62 108.14,155.62 108.14,154.32 109.29,154.32 110.42,154.32 110.42,147.7 111.54,147.7 112.66,147.7 112.66,157.2 113.77,157.2 114.87,157.2 114.87,151.45 115.97,151.45 117.06,151.45 117.06,155.77 118.14,155.77 119.22,155.77 119.22,151.39 120.29,151.39 121.35,151.39 121.35,151.75 122.41,151.75 123.46,151.75 123.46,154.99 124.51,154.99 125.54,154.99 125.54,164.8 126.58,164.8 127.6,164.8 127.6,157.44 128.62,157.44 129.63,157.44 129.63,159.57 130.65,159.57 131.65,159.57 131.65,147.96 132.64,147.96 133.63,147.96 133.63,144.78 134.62,144.78 135.6,144.78 135.6,148.47 136.58,148.47 137.54,148.47 137.54,143.22 138.51,143.22 139.47,143.22 139.47,142.13 140.42,142.13 141.37,142.13 141.37,149.13 142.32,149.13 143.25,149.13 143.25,146.78 144.19,146.78 145.12,146.78 145.12,153.55 146.04,153.55 146.96,153.55 146.96,147.28 147.87,147.28 148.78,147.28 148.78,148.13 149.69,148.13 150.59,148.13 150.59,146.34 151.48,146.34 152.37,146.34 152.37,150.73 153.26,150.73 154.14,150.73 154.14,141.06 155.02,141.06 155.89,141.06 155.89,151.72 156.76,151.72 157.63,151.72 157.63,146.38 158.49,146.38 159.34,146.38 159.34,159.76 160.2,159.76 161.04,159.76 161.04,142.09 161.89,142.09 162.73,142.09 162.73,137.12 163.57,137.12 164.4,137.12 164.4,147.23 165.23,147.23 166.05,147.23 166.05,139.3 166.87,139.3 167.69,139.3 167.69,128.23 168.5,128.23 169.31,128.23 169.31,140.3 170.12,140.3 170.92,140.3 170.92,145.69 171.72,145.69 172.51,145.69 172.51,137.36 173.3,137.36 174.09,137.36 174.09,148.39 174.87,148.39 175.65,148.39 175.65,140.3 176.43,140.3 177.2,140.3 177.2,132.57 177.97,132.57 178.74,132.57 178.74,127.42 179.5,127.42 180.26,127.42 180.26,141.91 181.02,141.91 181.77,141.91 181.77,134.4 182.53,134.4 183.27,134.4 183.27,134.41 184.02,134.41 184.76,134.41 184.76,129.87 185.5,129.87 186.23,129.87 186.23,128.35 186.96,128.35 187.69,128.35 187.69,133.63 188.42,133.63 189.14,133.63 189.14,126.73 189.86,126.73 190.57,126.73 190.57,111.2 191.29,111.2 192,111.2 192,113.92 192.71,113.92 193.41,113.92 193.41,109.5 194.12,109.5 194.82,109.5 194.82,93.1 195.51,93.1 196.21,93.1 196.21,75.54 196.9,75.54 197.59,75.54 197.59,81.96 198.27,81.96 198.96,81.96 198.96,80.22 199.64,80.22 200.32,80.22 200.32,99.28 200.99,99.28 201.66,99.28 201.66,105.06 202.34,105.06 203,105.06 203,80.86 203.67,80.86 204.33,80.86 204.33,123.21 204.99,123.21 205.65,123.21 205.65,119.9 206.31,119.9 206.96,119.9 206.96,119.2 207.61,119.2 208.26,119.2 208.26,141.92 208.9,141.92 209.55,141.92 209.55,133.89 210.19,133.89 210.83,133.89 210.83,125.29 211.46,125.29 212.1,125.29 212.1,143.09 212.73,143.09 213.36,143.09 213.36,167.5 213.99,167.5 214.61,167.5 214.61,168.82 215.23,168.82 215.85,168.82 215.85,162.99 216.47,162.99 217.09,162.99 217.09,161.19 217.7,161.19 218.32,161.19 218.32,162.69 218.93,162.69 219.53,162.69 219.53,176.51 220.14,176.51 220.74,176.51 220.74,187.29 221.35,187.29 221.94,187.29 221.94,170.22 222.54,170.22 223.14,170.22 223.14,166.2 223.73,166.2 224.32,166.2 224.32,179.46 224.91,179.46 225.5,179.46 225.5,172.15 226.09,172.15 226.67,172.15 226.67,162.02 227.25,162.02 227.83,162.02 227.83,164.23 228.41,164.23 228.98,164.23 228.98,161.73 229.56,161.73 230.13,161.73 230.13,183.3 230.7,183.3 231.27,183.3 231.27,187.88 231.84,187.88 232.4,187.88 232.4,183.17 232.97,183.17 233.53,183.17 233.53,182.02 234.09,182.02 234.64,182.02 234.64,184.83 235.2,184.83 235.75,184.83 235.75,158.51 236.31,158.51 236.86,158.51 236.86,164.96 237.41,164.96 237.95,164.96 237.95,188.68 238.5,188.68 239.04,188.68 239.04,186.44 239.59,186.44 240.13,186.44 240.13,166.52 240.67,166.52 241.2,166.52 241.2,168.61 241.74,168.61 242.27,168.61 242.27,183.05 242.81,183.05 243.34,183.05 243.34,190.18 243.87,190.18 244.39,190.18 244.39,182.83 244.92,182.83 245.44,182.83 245.44,191.08 245.97,191.08 246.49,191.08 246.49,184.28 247.01,184.28 247.53,184.28 247.53,191.88 248.04,191.88 248.56,191.88 248.56,170.89 249.07,170.89 249.58,170.89 249.58,189.73 250.1,189.73 250.61,189.73 250.61,176.59 251.11,176.59 251.62,176.59 251.62,173.91 252.13,173.91 252.63,173.91 252.63,200.19 253.13,200.19 253.63,200.19 253.63,172.19 254.13,172.19 254.63,172.19 254.63,180.21 255.12,180.21 255.62,180.21 255.62,187.36 256.11,187.36 256.61,187.36 256.61,166.73 257.1,166.73 257.59,166.73 257.59,202.97 258.07,202.97 258.56,202.97 258.56,166.67 259.05,166.67 259.53,166.67 259.53,180.06 260.01,180.06 260.49,180.06 260.49,189 260.98,189 261.45,189 261.45,174.43 261.93,174.43 262.41,174.43 262.41,156.83 262.88,156.83 263.36,156.83 263.36,195.03 263.83,195.03 264.3,195.03 264.3,186.16 264.77,186.16 265.26,186.16 265.26,197.81 265.76,197.81 266.24,197.81 266.24,202.24 266.73,202.24 267.22,202.24 267.22,171.5 267.72,171.5 268.23,171.5 268.23,185.64 268.75,185.64 269.34,185.64 269.34,179.26 269.94,179.26 270.55,179.26 270.55,141.43 271.16,141.43 271.82,141.43 271.82,175.37 272.47,175.37 273.15,175.37 273.15,182.55 273.82,182.55 274.52,182.55 274.52,189.12 275.22,189.12"/>
</g>
<g fill="none" stroke="#e41a1c" stroke-linecap="butt" stroke-width="0.66">
<path d="M65.71,171.4l0,-7.19M68.59,173.33l0,-7.28M71.43,175.04l0,-7.38M74.22,171.8l0,-7.53M76.97,173.65l0,-7.65M79.68,159.93l0,-7.89M82.35,168.29l0,-7.92M84.98,169.67l0,-8.01M87.56,161.14l0,-8.2M90.11,172.32l0,-8.2M92.63,173.82l0,-8.29M95.11,162.83l0,-8.49M97.55,159.1l0,-8.62M99.96,163.25l0,-8.68M102.34,162.52l0,-8.78M104.69,160.93l0,-8.91M107,160.13l0,-9.03M109.29,158.9l0,-9.15M111.54,152.37l0,-9.33M113.77,161.87l0,-9.34M115.97,156.2l0,-9.5M118.14,160.55l0,-9.56M120.29,156.25l0,-9.72M122.41,156.66l0,-9.83M124.51,159.94l0,-9.9M126.58,169.75l0,-9.89M128.62,162.48l0,-10.09M130.65,164.66l0,-10.18M132.64,153.17l0,-10.43M134.62,150.07l0,-10.58M136.58,153.8l0,-10.65M138.51,148.64l0,-10.83M140.42,147.61l0,-10.97M142.32,154.63l0,-10.99M144.19,152.35l0,-11.13M146.04,159.14l0,-11.16M147.87,152.96l0,-11.36M149.69,153.86l0,-11.46M151.48,152.14l0,-11.6M153.26,156.56l0,-11.66M155.02,147.02l0,-11.92M156.76,157.68l0,-11.91M158.49,152.44l0,-12.11M160.2,165.8l0,-12.06M161.89,148.32l0,-12.44M163.57,143.44l0,-12.64M165.23,153.55l0,-12.63M166.87,145.73l0,-12.86M168.5,134.8l0,-13.13M170.12,146.85l0,-13.08M171.72,152.27l0,-13.14M173.3,144.07l0,-13.41M174.87,155.09l0,-13.39M176.43,147.13l0,-13.65M177.97,139.53l0,-13.91M179.5,134.49l0,-14.14M181.02,148.94l0,-14.07M182.53,141.57l0,-14.34M184.02,141.66l0,-14.49M185.5,137.23l0,-14.72M186.96,135.8l0,-14.9M188.42,141.12l0,-14.97M189.86,134.35l0,-15.24M191.29,119.03l0,-15.65M192.71,121.81l0,-15.78M194.12,117.52l0,-16.03M195.51,101.34l0,-16.48M196.9,84.02l0,-16.94M198.27,90.47l0,-17.02M199.64,88.84l0,-17.24M200.99,107.84l0,-17.12M202.34,113.69l0,-17.24M203.67,89.8l0,-17.89M204.99,131.9l0,-17.36M206.31,128.73l0,-17.65M207.61,128.15l0,-17.9M208.9,150.78l0,-17.71M210.19,142.95l0,-18.12M211.46,134.56l0,-18.52M212.73,152.29l0,-18.41M213.99,176.58l0,-18.14M215.23,178l0,-18.36M216.47,172.36l0,-18.74M217.7,170.71l0,-19.04M218.93,172.34l0,-19.28M220.14,186.14l0,-19.26M221.35,196.95l0,-19.32M222.54,180.23l0,-20.01M223.73,176.4l0,-20.4M224.91,189.65l0,-20.37M226.09,182.57l0,-20.84M227.25,172.72l0,-21.39M228.41,175.05l0,-21.65M229.56,172.74l0,-22.02M230.7,194.21l0,-21.8M231.84,198.89l0,-22.01M232.97,194.4l0,-22.47M234.09,193.43l0,-22.83M235.2,196.38l0,-23.09M236.31,170.58l0,-24.13M237.41,177.1l0,-24.29M238.5,200.67l0,-23.97M239.59,198.64l0,-24.38M240.67,179.2l0,-25.34M241.74,181.45l0,-25.69M242.81,195.88l0,-25.65M243.87,203.09l0,-25.81M244.92,196.03l0,-26.38M245.97,204.32l0,-26.49M247.01,197.82l0,-27.08M248.04,205.51l0,-27.25M249.07,185.06l0,-28.34M250.1,203.81l0,-28.16M251.11,191.1l0,-29.03M252.13,188.69l0,-29.56M253.13,214.75l0,-29.12M254.13,187.45l0,-30.51M255.12,195.54l0,-30.65M256.11,202.78l0,-30.84M257.1,182.74l0,-32.02M258.07,218.57l0,-31.2M259.05,183.18l0,-33.02M260.01,196.58l0,-33.03M260.98,205.58l0,-33.15M261.93,191.51l0,-34.15M262.88,174.47l0,-35.28M263.83,212.21l0,-34.34M264.77,203.8l0,-35.27M265.76,215.1l0,-34.56M266.73,220.2l0,-35.91M267.72,190.01l0,-37.02M268.75,203.76l0,-36.23M269.94,197.33l0,-36.14M271.16,160.32l0,-37.77M272.47,192.69l0,-34.65M273.82,200.76l0,-36.41M275.22,206.62l0,-35"/>
</g>
</g>
<g clip-path="url(#c0)">
<g fill="none" stroke-linecap="butt" stroke-width="0.66">
<path d="M64.25,238.11l0,-230.55"/>
<path d="M64.25,238.11l4,0M64.25,229.72l4,0M64.25,221.34l4,0M64.25,212.95l4,0M64.25,204.57l4,0M64.25,196.19l4,0M64.25,187.8l4,0M64.25,179.42l4,0M64.25,171.04l4,0M64.25,162.65l4,0M64.25,154.27l4,0M64.25,145.88l4,0M64.25,137.5l4,0M64.25,129.12l4,0M64.25,120.73l4,0M64.25,112.35l4,0M64.25,103.97l4,0M64.25,95.58l4,0M64.25,87.2l4,0M64.25,78.82l4,0M64.25,70.43l4,0M64.25,62.05l4,0M64.25,53.66l4,0M64.25,45.28l4,0M64.25,36.9l4,0M64.25,28.51l4,0M64.25,20.13l4,0M64.25,11.75l4,0"/>
<path d="M64.25,238.11l8,0M64.25,196.19l8,0M64.25,154.27l8,0M64.25,112.35l8,0M64.25,70.43l8,0M64.25,28.51l8,0"/>
</g>
<g fill="none" stroke-width="0.1">
<g transform="matrix(0 -1 1 0 22.32 171.12)">
<path d="m0.31,0l0,-0.33l0.46,0c0.52,0,0.89,-0.16,1.11,-0.5c0.13,-0.2,0.2,-0.65,0.2,-1.35l0,-7.99c0,-0.77,-0.08,-1.25,-0.25,-1.45c-0.23,-0.26,-0.59,-0.4,-1.05,-0.4l-0.46,0l0,-0.33l5.04,0c1.85,0,3.25,0.21,4.22,0.63c0.96,0.42,1.74,1.12,2.32,2.1c0.58,0.98,0.88,2.11,0.88,3.39c0,1.72,-0.52,3.16,-1.57,4.31c-1.17,1.29,-2.96,1.93,-5.36,1.93l-5.53,0m3.53,-0.89c0.77,0.17,1.42,0.25,1.94,0.25c1.41,0,2.58,-0.49,3.51,-1.48c0.93,-0.99,1.39,-2.33,1.39,-4.03c0,-1.71,-0.46,-3.05,-1.39,-4.04c-0.93,-0.98,-2.12,-1.47,-3.58,-1.47c-0.54,0,-1.17,0.08,-1.87,0.26l0,10.52m14.97,-0.31c-0.85,0.66,-1.39,1.04,-1.61,1.15c-0.32,0.15,-0.67,0.22,-1.05,0.22c-0.57,0,-1.05,-0.19,-1.42,-0.59c-0.37,-0.39,-0.56,-0.91,-0.56,-1.56c0,-0.4,0.09,-0.76,0.27,-1.05c0.24,-0.41,0.68,-0.8,1.3,-1.16c0.61,-0.36,1.64,-0.8,3.08,-1.33l0,-0.32c0,-0.83,-0.13,-1.4,-0.39,-1.71c-0.26,-0.31,-0.64,-0.46,-1.15,-0.46c-0.38,0,-0.68,0.1,-0.91,0.31c-0.23,0.2,-0.34,0.44,-0.34,0.71l0.01,0.52c0,0.28,-0.07,0.49,-0.21,0.64c-0.14,0.15,-0.33,0.22,-0.56,0.22c-0.22,0,-0.4,-0.07,-0.55,-0.23c-0.14,-0.15,-0.21,-0.37,-0.21,-0.64c0,-0.52,0.26,-1,0.8,-1.44c0.53,-0.43,1.28,-0.65,2.25,-0.65c0.74,0,1.35,0.12,1.82,0.37c0.35,0.18,0.62,0.48,0.79,0.88c0.1,0.26,0.16,0.79,0.16,1.6l0,2.83c0,0.79,0.01,1.28,0.04,1.46c0.03,0.17,0.08,0.29,0.15,0.36c0.07,0.06,0.15,0.09,0.24,0.09c0.09,0,0.18,-0.02,0.25,-0.06c0.12,-0.07,0.37,-0.3,0.73,-0.66l0,0.51c-0.68,0.91,-1.33,1.36,-1.95,1.36c-0.29,0,-0.53,-0.1,-0.71,-0.31c-0.17,-0.2,-0.26,-0.56,-0.27,-1.05m0,-0.59l0,-3.18c-0.91,0.36,-1.51,0.62,-1.78,0.77c-0.48,0.26,-0.82,0.54,-1.03,0.84c-0.2,0.29,-0.31,0.61,-0.31,0.95c0,0.43,0.13,0.8,0.39,1.09c0.26,0.28,0.56,0.43,0.9,0.43c0.46,0,1.07,-0.3,1.82,-0.91m5.98,-9.31l0,2.74l1.95,0l0,0.63l-1.95,0l0,5.42c0,0.54,0.07,0.9,0.23,1.09c0.15,0.18,0.35,0.28,0.59,0.28c0.2,0,0.39,-0.06,0.58,-0.18c0.18,-0.12,0.33,-0.3,0.43,-0.55l0.35,0c-0.21,0.59,-0.51,1.04,-0.9,1.34c-0.38,0.3,-0.79,0.45,-1.2,0.45c-0.28,0,-0.55,-0.07,-0.82,-0.23c-0.26,-0.15,-0.46,-0.37,-0.59,-0.66c-0.12,-0.28,-0.19,-0.73,-0.19,-1.33l0,-5.62l-1.32,0l0,-0.3c0.33,-0.13,0.67,-0.36,1.02,-0.68c0.35,-0.31,0.66,-0.69,0.93,-1.13c0.14,-0.23,0.33,-0.65,0.58,-1.26l0.28,0m7.5,9.9c-0.85,0.66,-1.39,1.04,-1.61,1.15c-0.32,0.15,-0.67,0.22,-1.05,0.22c-0.57,0,-1.05,-0.19,-1.42,-0.59c-0.37,-0.39,-0.56,-0.91,-0.56,-1.56c0,-0.4,0.09,-0.76,0.27,-1.05c0.24,-0.41,0.68,-0.8,1.3,-1.16c0.61,-0.36,1.64,-0.8,3.08,-1.33l0,-0.32c0,-0.83,-0.13,-1.4,-0.39,-1.71c-0.26,-0.31,-0.64,-0.46,-1.15,-0.46c-0.38,0,-0.68,0.1,-0.91,0.31c-0.23,0.2,-0.34,0.44,-0.34,0.71l0.01,0.52c0,0.28,-0.07,0.49,-0.21,0.64c-0.14,0.15,-0.33,0.22,-0.56,0.22c-0.22,0,-0.4,-0.07,-0.55,-0.23c-0.14,-0.15,-0.21,-0.37,-0.21,-0.64c0,-0.52,0.26,-1,0.8,-1.44c0.53,-0.43,1.28,-0.65,2.25,-0.65c0.74,0,1.35,0.12,1.82,0.37c0.35,0.18,0.62,0.48,0.79,0.88c0.1,0.26,0.16,0.79,0.16,1.6l0,2.83c0,0.79,0.01,1.28,0.04,1.46c0.03,0.17,0.08,0.29,0.15,0.36c0.07,0.06,0.15,0.09,0.24,0.09c0.09,0,0.18,-0.02,0.25,-0.06c0.12,-0.07,0.37,-0.3,0.73,-0.66l0,0.51c-0.68,0.91,-1.33,1.36,-1.95,1.36c-0.29,0,-0.53,-0.1,-0.71,-0.31c-0.17,-0.2,-0.26,-0.56,-0.27,-1.05m0,-0.59l0,-3.18c-0.91,0.36,-1.51,0.62,-1.78,0.77c-0.48,0.26,-0.82,0.54,-1.03,0.84c-0.2,0.29,-0.31,0.61,-0.31,0.95c0,0.43,0.13,0.8,0.39,1.09c0.26,0.28,0.56,0.43,0.9,0.43c0.46,0,1.07,-0.3,1.82,-0.91m12.89,-11.18l-4.48,13.23l-0.73,0l4.48,-13.23l0.73,0m7.69,6.15c0.6,-0.6,0.96,-0.95,1.07,-1.05c0.27,-0.23,0.56,-0.41,0.88,-0.53c0.31,-0.12,0.63,-0.19,0.94,-0.19c0.52,0,0.97,0.15,1.35,0.45c0.37,0.3,0.63,0.74,0.75,1.32c0.62,-0.73,1.15,-1.2,1.58,-1.43c0.43,-0.22,0.87,-0.34,1.33,-0.34c0.44,0,0.83,0.11,1.18,0.34c0.34,0.22,0.61,0.6,0.81,1.11c0.13,0.35,0.2,0.9,0.2,1.66l0,3.59c0,0.52,0.03,0.88,0.11,1.07c0.06,0.13,0.17,0.24,0.33,0.34c0.16,0.09,0.43,0.14,0.8,0.14l0,0.32l-4.12,0l0,-0.32l0.17,0c0.35,0,0.63,-0.07,0.84,-0.21c0.14,-0.09,0.24,-0.25,0.3,-0.46c0.02,-0.1,0.03,-0.39,0.03,-0.88l0,-3.59c0,-0.68,-0.08,-1.16,-0.24,-1.44c-0.23,-0.38,-0.61,-0.58,-1.14,-0.58c-0.32,0,-0.64,0.08,-0.97,0.24c-0.32,0.16,-0.71,0.46,-1.18,0.89l-0.01,0.1l0.01,0.39l0,3.99c0,0.57,0.03,0.92,0.09,1.06c0.06,0.14,0.18,0.25,0.36,0.35c0.17,0.09,0.47,0.14,0.9,0.14l0,0.32l-4.22,0l0,-0.32c0.46,0,0.78,-0.05,0.95,-0.16c0.17,-0.1,0.29,-0.27,0.36,-0.49c0.03,-0.1,0.04,-0.4,0.04,-0.9l0,-3.59c0,-0.68,-0.1,-1.17,-0.3,-1.47c-0.26,-0.38,-0.64,-0.58,-1.12,-0.58c-0.32,0,-0.65,0.08,-0.97,0.26c-0.5,0.26,-0.89,0.56,-1.16,0.9l0,4.48c0,0.54,0.03,0.9,0.11,1.06c0.07,0.16,0.18,0.28,0.33,0.36c0.14,0.08,0.45,0.12,0.9,0.12l0,0.32l-4.13,0l0,-0.32c0.38,0,0.65,-0.04,0.8,-0.12c0.15,-0.08,0.26,-0.21,0.34,-0.39c0.07,-0.17,0.11,-0.52,0.11,-1.04l0,-3.19c0,-0.91,-0.02,-1.51,-0.08,-1.78c-0.04,-0.2,-0.1,-0.33,-0.2,-0.41c-0.09,-0.07,-0.21,-0.11,-0.37,-0.11c-0.17,0,-0.37,0.04,-0.61,0.13l-0.13,-0.32l2.52,-1.02l0.39,0l0,1.78m16.15,-1.78c1.26,0,2.28,0.48,3.04,1.44c0.65,0.82,0.97,1.76,0.97,2.83c0,0.74,-0.17,1.5,-0.53,2.27c-0.35,0.76,-0.85,1.34,-1.48,1.73c-0.63,0.38,-1.33,0.58,-2.1,0.58c-1.26,0,-2.26,-0.5,-3,-1.5c-0.62,-0.84,-0.94,-1.79,-0.94,-2.84c0,-0.76,0.19,-1.52,0.57,-2.28c0.38,-0.75,0.88,-1.31,1.5,-1.68c0.62,-0.36,1.27,-0.54,1.97,-0.54m-0.28,0.59c-0.32,0,-0.64,0.09,-0.97,0.28c-0.32,0.19,-0.58,0.52,-0.78,1c-0.2,0.48,-0.3,1.09,-0.3,1.85c0,1.21,0.24,2.26,0.72,3.15c0.48,0.88,1.12,1.32,1.91,1.32c0.59,0,1.07,-0.24,1.46,-0.73c0.38,-0.48,0.57,-1.32,0.57,-2.51c0,-1.48,-0.31,-2.65,-0.95,-3.5c-0.43,-0.58,-0.98,-0.87,-1.65,-0.87m11.45,7.07c-0.4,0.42,-0.8,0.73,-1.19,0.91c-0.38,0.18,-0.8,0.27,-1.26,0.27c-0.91,0,-1.71,-0.38,-2.39,-1.14c-0.68,-0.76,-1.02,-1.74,-1.02,-2.94c0,-1.19,0.37,-2.29,1.13,-3.29c0.75,-0.99,1.72,-1.49,2.91,-1.49c0.73,0,1.34,0.23,1.82,0.7l0,-1.54c0,-0.95,-0.02,-1.54,-0.06,-1.76c-0.04,-0.21,-0.11,-0.36,-0.21,-0.44c-0.09,-0.07,-0.21,-0.11,-0.36,-0.11c-0.15,0,-0.36,0.04,-0.63,0.14l-0.11,-0.31l2.49,-1.02l0.41,0l0,9.66c0,0.98,0.02,1.57,0.06,1.79c0.04,0.21,0.11,0.36,0.21,0.45c0.1,0.08,0.21,0.12,0.35,0.12c0.16,0,0.38,-0.05,0.65,-0.15l0.1,0.31l-2.48,1.03l-0.42,0l0,-1.19m0,-0.63l0,-4.3c-0.03,-0.41,-0.14,-0.79,-0.32,-1.13c-0.18,-0.34,-0.42,-0.59,-0.72,-0.77c-0.3,-0.17,-0.59,-0.26,-0.88,-0.26c-0.53,0,-1.01,0.24,-1.43,0.72c-0.55,0.63,-0.83,1.55,-0.83,2.77c0,1.22,0.26,2.17,0.8,2.82c0.53,0.65,1.13,0.98,1.78,0.98c0.55,0,1.08,-0.27,1.6,-0.83m4.84,-3.63c0,1.24,0.29,2.21,0.9,2.92c0.6,0.7,1.32,1.05,2.14,1.05c0.54,0,1.02,-0.15,1.42,-0.45c0.4,-0.3,0.74,-0.81,1.01,-1.54l0.28,0.18c-0.12,0.83,-0.49,1.59,-1.11,2.27c-0.61,0.68,-1.38,1.02,-2.31,1.02c-1,0,-1.86,-0.39,-2.57,-1.17c-0.71,-0.78,-1.07,-1.83,-1.07,-3.15c0,-1.43,0.36,-2.54,1.1,-3.34c0.73,-0.8,1.65,-1.2,2.76,-1.2c0.93,0,1.7,0.3,2.31,0.92c0.6,0.61,0.9,1.44,0.9,2.47l-5.77,0m0,-0.52l3.87,0c-0.03,-0.53,-0.09,-0.91,-0.19,-1.13c-0.15,-0.34,-0.37,-0.6,-0.68,-0.8c-0.3,-0.19,-0.61,-0.29,-0.94,-0.29c-0.5,0,-0.95,0.19,-1.35,0.58c-0.39,0.39,-0.63,0.93,-0.69,1.63m9.76,-7.24l0,11.09c0,0.52,0.03,0.87,0.11,1.04c0.07,0.17,0.19,0.29,0.35,0.38c0.15,0.08,0.45,0.13,0.88,0.13l0,0.32l-4.09,0l0,-0.32c0.38,0,0.64,-0.03,0.78,-0.11c0.14,-0.07,0.24,-0.21,0.32,-0.39c0.07,-0.18,0.11,-0.53,0.11,-1.05l0,-7.59c0,-0.94,-0.02,-1.52,-0.06,-1.73c-0.04,-0.21,-0.11,-0.36,-0.2,-0.44c-0.09,-0.07,-0.21,-0.11,-0.36,-0.11c-0.15,0,-0.35,0.04,-0.6,0.14l-0.15,-0.31l2.49,-1.02l0.41,0" fill="#000000" stroke="none" fill-opacity="1"/>
</g>
<path d="m36.71,238.41c0,-1.41,0.21,-2.62,0.63,-3.64c0.42,-1.01,0.99,-1.77,1.69,-2.27c0.54,-0.39,1.11,-0.59,1.69,-0.59c0.94,0,1.8,0.48,2.55,1.45c0.94,1.19,1.41,2.82,1.41,4.87c0,1.43,-0.2,2.65,-0.62,3.66c-0.41,1,-0.94,1.73,-1.58,2.18c-0.64,0.45,-1.26,0.68,-1.85,0.68c-1.18,0,-2.16,-0.69,-2.94,-2.09c-0.66,-1.17,-0.99,-2.59,-0.99,-4.24m1.78,0.22c0,1.7,0.21,3.09,0.63,4.17c0.34,0.9,0.86,1.36,1.55,1.36c0.32,0,0.66,-0.14,1.02,-0.44c0.35,-0.29,0.62,-0.78,0.8,-1.48c0.28,-1.04,0.42,-2.52,0.42,-4.42c0,-1.41,-0.14,-2.59,-0.43,-3.53c-0.21,-0.7,-0.5,-1.19,-0.84,-1.48c-0.24,-0.2,-0.55,-0.3,-0.9,-0.3c-0.41,0,-0.78,0.18,-1.1,0.55c-0.43,0.5,-0.73,1.29,-0.89,2.38c-0.15,1.08,-0.23,2.15,-0.23,3.2m9.22,4.11c0.28,0,0.52,0.09,0.72,0.29c0.19,0.19,0.29,0.43,0.29,0.71c0,0.28,-0.09,0.51,-0.29,0.71c-0.19,0.19,-0.43,0.29,-0.71,0.29c-0.28,0,-0.51,-0.09,-0.71,-0.29c-0.19,-0.19,-0.29,-0.43,-0.29,-0.71c0,-0.28,0.09,-0.52,0.29,-0.72c0.19,-0.19,0.43,-0.29,0.71,-0.29m5.92,-4.46c-0.98,-0.8,-1.61,-1.44,-1.89,-1.93c-0.28,-0.48,-0.42,-0.99,-0.42,-1.51c0,-0.8,0.31,-1.49,0.93,-2.07c0.62,-0.58,1.44,-0.87,2.47,-0.87c0.99,0,1.8,0.27,2.41,0.81c0.6,0.54,0.91,1.15,0.91,1.85c0,0.46,-0.16,0.93,-0.49,1.41c-0.32,0.48,-1.01,1.04,-2.05,1.69c1.07,0.82,1.78,1.47,2.12,1.95c0.46,0.62,0.69,1.27,0.69,1.96c0,0.87,-0.33,1.61,-0.99,2.23c-0.66,0.61,-1.53,0.92,-2.61,0.92c-1.17,0,-2.09,-0.36,-2.74,-1.1c-0.52,-0.59,-0.78,-1.23,-0.78,-1.93c0,-0.54,0.18,-1.09,0.55,-1.62c0.36,-0.53,1,-1.13,1.9,-1.78m1.43,-0.97c0.73,-0.65,1.19,-1.17,1.38,-1.55c0.19,-0.38,0.29,-0.81,0.29,-1.29c0,-0.63,-0.17,-1.13,-0.53,-1.5c-0.35,-0.36,-0.84,-0.54,-1.47,-0.54c-0.62,0,-1.12,0.17,-1.51,0.53c-0.38,0.35,-0.58,0.77,-0.58,1.26c0,0.31,0.08,0.63,0.24,0.94c0.16,0.31,0.39,0.61,0.68,0.9l1.49,1.24m-1,1.32c-0.5,0.42,-0.87,0.89,-1.12,1.39c-0.24,0.5,-0.36,1.04,-0.36,1.62c0,0.78,0.21,1.41,0.64,1.88c0.42,0.47,0.97,0.7,1.63,0.7c0.65,0,1.18,-0.18,1.57,-0.55c0.39,-0.37,0.59,-0.82,0.59,-1.35c0,-0.43,-0.11,-0.83,-0.34,-1.17c-0.43,-0.64,-1.3,-1.48,-2.62,-2.52" fill="#000000" stroke="none" fill-opacity="1"/>
<path d="m36.71,196.5c0,-1.41,0.21,-2.62,0.63,-3.64c0.42,-1.01,0.99,-1.77,1.69,-2.27c0.54,-0.39,1.11,-0.59,1.69,-0.59c0.94,0,1.8,0.48,2.55,1.45c0.94,1.19,1.41,2.82,1.41,4.87c0,1.43,-0.2,2.65,-0.62,3.66c-0.41,1,-0.94,1.73,-1.58,2.18c-0.64,0.45,-1.26,0.68,-1.85,0.68c-1.18,0,-2.16,-0.69,-2.94,-2.09c-0.66,-1.17,-0.99,-2.59,-0.99,-4.24m1.78,0.22c0,1.7,0.21,3.09,0.63,4.17c0.34,0.9,0.86,1.36,1.55,1.36c0.32,0,0.66,-0.14,1.02,-0.44c0.35,-0.29,0.62,-0.78,0.8,-1.48c0.28,-1.04,0.42,-2.52,0.42,-4.42c0,-1.41,-0.14,-2.59,-0.43,-3.53c-0.21,-0.7,-0.5,-1.19,-0.84,-1.48c-0.24,-0.2,-0.55,-0.3,-0.9,-0.3c-0.41,0,-0.78,0.18,-1.1,0.55c-0.43,0.5,-0.73,1.29,-0.89,2.38c-0.15,1.08,-0.23,2.15,-0.23,3.2m9.22,4.11c0.28,0,0.52,0.09,0.72,0.29c0.19,0.19,0.29,0.43,0.29,0.71c0,0.28,-0.09,0.51,-0.29,0.71c-0.19,0.19,-0.43,0.29,-0.71,0.29c-0.28,0,-0.51,-0.09,-0.71,-0.29c-0.19,-0.19,-0.29,-0.43,-0.29,-0.71c0,-0.28,0.09,-0.52,0.29,-0.72c0.19,-0.19,0.43,-0.29,0.71,-0.29m3.32,2.02l0,-0.33c0.79,-0.01,1.52,-0.19,2.2,-0.55c0.68,-0.35,1.34,-0.97,1.97,-1.86c0.63,-0.88,1.07,-1.86,1.32,-2.93c-0.95,0.61,-1.82,0.92,-2.59,0.92c-0.87,0,-1.61,-0.33,-2.23,-1c-0.62,-0.67,-0.93,-1.56,-0.93,-2.67c0,-1.08,0.31,-2.04,0.93,-2.89c0.74,-1.02,1.72,-1.54,2.93,-1.54c1.01,0,1.88,0.42,2.61,1.26c0.88,1.04,1.33,2.32,1.33,3.85c0,1.37,-0.33,2.65,-1.01,3.84c-0.67,1.19,-1.61,2.17,-2.82,2.96c-0.98,0.64,-2.04,0.96,-3.2,0.96l-0.52,0m5.66,-6.36c0.1,-0.79,0.16,-1.42,0.16,-1.89c0,-0.59,-0.1,-1.22,-0.3,-1.91c-0.2,-0.68,-0.48,-1.2,-0.85,-1.57c-0.36,-0.36,-0.78,-0.54,-1.25,-0.54c-0.54,0,-1.01,0.24,-1.42,0.73c-0.4,0.48,-0.61,1.21,-0.61,2.17c0,1.28,0.27,2.28,0.81,3.01c0.39,0.52,0.88,0.78,1.46,0.78c0.28,0,0.61,-0.06,0.99,-0.2c0.38,-0.13,0.72,-0.32,1.01,-0.56" fill="#000000" stroke="none" fill-opacity="1"/>
<path d="m52.25,149.53l3.01,-1.47l0.3,0l0,10.45c0,0.69,0.02,1.12,0.08,1.29c0.05,0.17,0.17,0.3,0.36,0.39c0.18,0.09,0.55,0.14,1.11,0.15l0,0.33l-4.65,0l0,-0.33c0.58,-0.01,0.96,-0.06,1.13,-0.15c0.17,-0.08,0.28,-0.2,0.35,-0.35c0.06,-0.14,0.1,-0.59,0.1,-1.33l0,-6.68c0,-0.9,-0.03,-1.47,-0.09,-1.73c-0.04,-0.19,-0.12,-0.33,-0.23,-0.42c-0.11,-0.09,-0.24,-0.13,-0.4,-0.13c-0.22,0,-0.53,0.09,-0.94,0.28l-0.13,-0.28" fill="#000000" stroke="none" fill-opacity="1"/>
<path d="m38.23,107.61l3.01,-1.47l0.3,0l0,10.45c0,0.69,0.02,1.12,0.08,1.29c0.05,0.17,0.17,0.3,0.36,0.39c0.18,0.09,0.55,0.14,1.11,0.15l0,0.33l-4.65,0l0,-0.33c0.58,-0.01,0.96,-0.06,1.13,-0.15c0.17,-0.08,0.28,-0.2,0.35,-0.35c0.06,-0.14,0.1,-0.59,0.1,-1.33l0,-6.68c0,-0.9,-0.03,-1.47,-0.09,-1.73c-0.04,-0.19,-0.12,-0.33,-0.23,-0.42c-0.11,-0.09,-0.24,-0.13,-0.4,-0.13c-0.22,0,-0.53,0.09,-0.94,0.28l-0.13,-0.28m9.49,9.39c0.28,0,0.52,0.09,0.72,0.29c0.19,0.19,0.29,0.43,0.29,0.71c0,0.28,-0.09,0.51,-0.29,0.71c-0.19,0.19,-0.43,0.29,-0.71,0.29c-0.28,0,-0.51,-0.09,-0.71,-0.29c-0.19,-0.19,-0.29,-0.43,-0.29,-0.71c0,-0.28,0.09,-0.52,0.29,-0.72c0.19,-0.19,0.43,-0.29,0.71,-0.29m4.52,-9.39l3.01,-1.47l0.3,0l0,10.45c0,0.69,0.02,1.12,0.08,1.29c0.05,0.17,0.17,0.3,0.36,0.39c0.18,0.09,0.55,0.14,1.11,0.15l0,0.33l-4.65,0l0,-0.33c0.58,-0.01,0.96,-0.06,1.13,-0.15c0.17,-0.08,0.28,-0.2,0.35,-0.35c0.06,-0.14,0.1,-0.59,0.1,-1.33l0,-6.68c0,-0.9,-0.03,-1.47,-0.09,-1.73c-0.04,-0.19,-0.12,-0.33,-0.23,-0.42c-0.11,-0.09,-0.24,-0.13,-0.4,-0.13c-0.22,0,-0.53,0.09,-0.94,0.28l-0.13,-0.28" fill="#000000" stroke="none" fill-opacity="1"/>
<path d="m38.23,65.69l3.01,-1.47l0.3,0l0,10.45c0,0.69,0.02,1.12,0.08,1.29c0.05,0.17,0.17,0.3,0.36,0.39c0.18,0.09,0.55,0.14,1.11,0.15l0,0.33l-4.65,0l0,-0.33c0.58,-0.01,0.96,-0.06,1.13,-0.15c0.17,-0.08,0.28,-0.2,0.35,-0.35c0.06,-0.14,0.1,-0.59,0.1,-1.33l0,-6.68c0,-0.9,-0.03,-1.47,-0.09,-1.73c-0.04,-0.19,-0.12,-0.33,-0.23,-0.42c-0.11,-0.09,-0.24,-0.13,-0.4,-0.13c-0.22,0,-0.53,0.09,-0.94,0.28l-0.13,-0.28m9.49,9.39c0.28,0,0.52,0.09,0.72,0.29c0.19,0.19,0.29,0.43,0.29,0.71c0,0.28,-0.09,0.51,-0.29,0.71c-0.19,0.19,-0.43,0.29,-0.71,0.29c-0.28,0,-0.51,-0.09,-0.71,-0.29c-0.19,-0.19,-0.29,-0.43,-0.29,-0.71c0,-0.28,0.09,-0.52,0.29,-0.72c0.19,-0.19,0.43,-0.29,0.71,-0.29m10.91,-0.61l-0.86,2.38l-7.3,0l0,-0.33c2.14,-1.96,3.66,-3.56,4.53,-4.8c0.87,-1.24,1.31,-2.37,1.31,-3.4c0,-0.78,-0.24,-1.43,-0.72,-1.93c-0.48,-0.5,-1.05,-0.75,-1.72,-0.75c-0.6,0,-1.15,0.17,-1.63,0.53c-0.48,0.35,-0.84,0.87,-1.07,1.56l-0.33,0c0.15,-1.12,0.54,-1.99,1.17,-2.59c0.63,-0.6,1.41,-0.9,2.36,-0.9c1,0,1.84,0.32,2.51,0.96c0.67,0.64,1,1.4,1,2.28c0,0.62,-0.14,1.25,-0.43,1.88c-0.45,0.98,-1.18,2.03,-2.19,3.13c-1.51,1.65,-2.46,2.65,-2.83,2.99l3.23,0c0.65,0,1.11,-0.02,1.38,-0.07c0.26,-0.04,0.5,-0.14,0.71,-0.29c0.21,-0.14,0.39,-0.36,0.55,-0.63l0.33,0" fill="#000000" stroke="none" fill-opacity="1"/>
<path d="m38.23,23.77l3.01,-1.47l0.3,0l0,10.45c0,0.69,0.02,1.12,0.08,1.29c0.05,0.17,0.17,0.3,0.36,0.39c0.18,0.09,0.55,0.14,1.11,0.15l0,0.33l-4.65,0l0,-0.33c0.58,-0.01,0.96,-0.06,1.13,-0.15c0.17,-0.08,0.28,-0.2,0.35,-0.35c0.06,-0.14,0.1,-0.59,0.1,-1.33l0,-6.68c0,-0.9,-0.03,-1.47,-0.09,-1.73c-0.04,-0.19,-0.12,-0.33,-0.23,-0.42c-0.11,-0.09,-0.24,-0.13,-0.4,-0.13c-0.22,0,-0.53,0.09,-0.94,0.28l-0.13,-0.28m9.49,9.39c0.28,0,0.52,0.09,0.72,0.29c0.19,0.19,0.29,0.43,0.29,0.71c0,0.28,-0.09,0.51,-0.29,0.71c-0.19,0.19,-0.43,0.29,-0.71,0.29c-0.28,0,-0.51,-0.09,-0.71,-0.29c-0.19,-0.19,-0.29,-0.43,-0.29,-0.71c0,-0.28,0.09,-0.52,0.29,-0.72c0.19,-0.19,0.43,-0.29,0.71,-0.29m3.28,-8.25c0.35,-0.83,0.79,-1.47,1.33,-1.93c0.53,-0.45,1.2,-0.68,2.01,-0.68c0.99,0,1.75,0.32,2.28,0.96c0.4,0.48,0.6,0.99,0.6,1.54c0,0.9,-0.56,1.83,-1.69,2.79c0.76,0.29,1.33,0.72,1.72,1.27c0.38,0.55,0.58,1.2,0.58,1.95c0,1.07,-0.34,1.99,-1.02,2.78c-0.88,1.02,-2.17,1.53,-3.86,1.53c-0.83,0,-1.4,-0.1,-1.7,-0.31c-0.3,-0.2,-0.45,-0.42,-0.45,-0.66c0,-0.17,0.07,-0.33,0.21,-0.46c0.14,-0.13,0.31,-0.2,0.51,-0.2c0.15,0,0.3,0.02,0.46,0.07c0.1,0.03,0.33,0.14,0.7,0.33c0.36,0.19,0.61,0.3,0.75,0.34c0.22,0.06,0.46,0.1,0.72,0.1c0.62,0,1.16,-0.24,1.62,-0.72c0.45,-0.48,0.68,-1.05,0.68,-1.7c0,-0.48,-0.1,-0.94,-0.31,-1.4c-0.15,-0.34,-0.33,-0.59,-0.52,-0.77c-0.26,-0.24,-0.62,-0.46,-1.07,-0.66c-0.45,-0.19,-0.92,-0.29,-1.39,-0.29l-0.29,0l0,-0.27c0.48,-0.06,0.96,-0.23,1.44,-0.52c0.48,-0.28,0.83,-0.63,1.05,-1.03c0.21,-0.4,0.32,-0.84,0.32,-1.32c0,-0.62,-0.19,-1.13,-0.58,-1.52c-0.39,-0.38,-0.88,-0.57,-1.46,-0.57c-0.94,0,-1.73,0.5,-2.36,1.51l-0.3,-0.14" fill="#000000" stroke="none" fill-opacity="1"/>
</g>
<g fill="none" stroke-linecap="butt" stroke-width="0.66">
<path d="M559.37,238.11l0,-230.55"/>
<path d="M559.37,238.11l-4,0M559.37,229.72l-4,0M559.37,221.34l-4,0M559.37,212.95l-4,0M559.37,204.57l-4,0M559.37,196.19l-4,0M559.37,187.8l-4,0M559.37,179.42l-4,0M559.37,171.04l-4,0M559.37,162.65l-4,0M559.37,154.27l-4,0M559.37,145.88l-4,0M559.37,137.5l-4,0M559.37,129.12l-4,0M559.37,120.73l-4,0M559.37,112.35l-4,0M559.37,103.97l-4,0M559.37,95.58l-4,0M559.37,87.2l-4,0M559.37,78.82l-4,0M559.37,70.43l-4,0M559.37,62.05l-4,0M559.37,53.66l-4,0M559.37,45.28l-4,0M559.37,36.9l-4,0M559.37,28.51l-4,0M559.37,20.13l-4,0M559.37,11.75l-4,0"/>
<path d="M559.37,238.11l-8,0M559.37,196.19l-8,0M559.37,154.27l-8,0M559.37,112.35l-8,0M559.37,70.43l-8,0M559.37,28.51l-8,0"/>
<path d="M64.25,238.11l495.11,0"/>
<path d="M64.25,238.11l0,-4M114.87,238.11l0,-4M154.14,238.11l0,-4M186.23,238.11l0,-4M213.36,238.11l0,-4M236.86,238.11l0,-4M257.59,238.11l0,-4M398.11,238.11l0,-4M469.47,238.11l0,-4M520.1,238.11l0,-4M559.37,238.11l0,-4"/>
<path d="M276.13,238.11l0,-8M154.14,238.11l0,-8M398.11,238.11l0,-8M559.37,238.11l0,-8"/>
</g>
<g fill="none" stroke-width="0.1">
<path d="m264.57,274.24l0,4.89l2.72,0c0.7,0,1.17,-0.1,1.41,-0.31c0.31,-0.28,0.49,-0.77,0.52,-1.47l0.33,0l0,4.3l-0.33,0c-0.08,-0.6,-0.17,-0.98,-0.25,-1.15c-0.1,-0.21,-0.28,-0.38,-0.53,-0.5c-0.24,-0.12,-0.63,-0.18,-1.15,-0.18l-2.72,0l0,4.08c0,0.54,0.02,0.88,0.07,0.99c0.04,0.11,0.13,0.21,0.25,0.28c0.12,0.07,0.35,0.1,0.69,0.1l2.1,0c0.7,0,1.2,-0.04,1.52,-0.14c0.31,-0.09,0.62,-0.28,0.91,-0.57c0.37,-0.37,0.76,-0.94,1.15,-1.7l0.36,0l-1.06,3.1l-9.54,0l0,-0.33l0.43,0c0.29,0,0.56,-0.07,0.83,-0.21c0.19,-0.09,0.32,-0.24,0.39,-0.43c0.07,-0.19,0.1,-0.59,0.1,-1.19l0,-8.04c0,-0.78,-0.07,-1.26,-0.23,-1.45c-0.21,-0.24,-0.58,-0.36,-1.09,-0.36l-0.43,0l0,-0.33l9.54,0l0.13,2.71l-0.35,0c-0.12,-0.65,-0.26,-1.09,-0.42,-1.34c-0.15,-0.24,-0.38,-0.42,-0.68,-0.55c-0.24,-0.09,-0.67,-0.13,-1.28,-0.13l-3.39,0m10.53,4.86c0.98,-1.18,1.91,-1.77,2.8,-1.77c0.45,0,0.84,0.11,1.17,0.34c0.32,0.22,0.59,0.6,0.78,1.12c0.13,0.36,0.2,0.92,0.2,1.68l0,3.57c0,0.52,0.04,0.88,0.12,1.07c0.06,0.15,0.17,0.27,0.32,0.35c0.14,0.08,0.42,0.12,0.82,0.12l0,0.32l-4.13,0l0,-0.32l0.17,0c0.38,0,0.66,-0.05,0.81,-0.17c0.15,-0.11,0.26,-0.29,0.32,-0.52c0.02,-0.09,0.03,-0.37,0.03,-0.85l0,-3.42c0,-0.76,-0.09,-1.31,-0.29,-1.65c-0.19,-0.34,-0.53,-0.51,-0.99,-0.51c-0.72,0,-1.44,0.39,-2.16,1.18l0,4.41c0,0.56,0.03,0.91,0.1,1.05c0.08,0.17,0.2,0.3,0.35,0.38c0.14,0.08,0.45,0.12,0.9,0.12l0,0.32l-4.13,0l0,-0.32l0.18,0c0.42,0,0.71,-0.1,0.86,-0.32c0.14,-0.21,0.22,-0.62,0.22,-1.23l0,-3.1c0,-1,-0.02,-1.61,-0.06,-1.83c-0.04,-0.21,-0.11,-0.36,-0.21,-0.44c-0.09,-0.07,-0.22,-0.11,-0.37,-0.11c-0.17,0,-0.37,0.04,-0.61,0.13l-0.13,-0.32l2.52,-1.02l0.39,0l0,1.77m8.31,1.62c0,1.24,0.29,2.21,0.9,2.92c0.6,0.7,1.32,1.05,2.14,1.05c0.54,0,1.02,-0.15,1.42,-0.45c0.4,-0.3,0.74,-0.81,1.01,-1.54l0.28,0.18c-0.12,0.83,-0.49,1.59,-1.11,2.27c-0.61,0.68,-1.38,1.02,-2.31,1.02c-1,0,-1.86,-0.39,-2.57,-1.17c-0.71,-0.78,-1.07,-1.83,-1.07,-3.15c0,-1.43,0.36,-2.54,1.1,-3.34c0.73,-0.8,1.65,-1.2,2.76,-1.2c0.93,0,1.7,0.3,2.31,0.92c0.6,0.61,0.9,1.44,0.9,2.47l-5.77,0m0,-0.52l3.87,0c-0.03,-0.53,-0.09,-0.91,-0.19,-1.13c-0.15,-0.34,-0.37,-0.6,-0.68,-0.8c-0.3,-0.19,-0.61,-0.29,-0.94,-0.29c-0.5,0,-0.95,0.19,-1.35,0.58c-0.39,0.39,-0.63,0.93,-0.69,1.63m9.33,-2.86l0,1.88c0.7,-1.25,1.41,-1.88,2.15,-1.88c0.33,0,0.61,0.1,0.83,0.3c0.21,0.2,0.32,0.43,0.32,0.7c0,0.23,-0.07,0.43,-0.23,0.6c-0.15,0.16,-0.34,0.24,-0.56,0.24c-0.21,0,-0.45,-0.1,-0.71,-0.31c-0.26,-0.21,-0.46,-0.31,-0.58,-0.31c-0.1,0,-0.22,0.06,-0.35,0.18c-0.27,0.24,-0.55,0.66,-0.84,1.23l0,4c0,0.46,0.05,0.81,0.17,1.05c0.07,0.16,0.21,0.3,0.42,0.41c0.2,0.1,0.49,0.16,0.86,0.16l0,0.32l-4.28,0l0,-0.32c0.42,0,0.74,-0.06,0.94,-0.2c0.15,-0.09,0.25,-0.25,0.31,-0.46c0.03,-0.1,0.04,-0.39,0.04,-0.88l0,-3.24c0,-0.97,-0.01,-1.55,-0.05,-1.73c-0.03,-0.18,-0.11,-0.32,-0.21,-0.4c-0.1,-0.08,-0.23,-0.12,-0.39,-0.12c-0.18,0,-0.4,0.04,-0.63,0.13l-0.09,-0.32l2.52,-1.02l0.38,0m6.01,5.56c-0.51,-0.24,-0.9,-0.59,-1.17,-1.04c-0.27,-0.44,-0.41,-0.94,-0.41,-1.48c0,-0.82,0.31,-1.54,0.93,-2.13c0.62,-0.59,1.42,-0.89,2.39,-0.89c0.79,0,1.48,0.19,2.07,0.58l1.77,0c0.26,0,0.41,0,0.45,0.02c0.04,0.01,0.07,0.04,0.09,0.07c0.03,0.05,0.05,0.15,0.05,0.29c0,0.15,-0.01,0.26,-0.04,0.32c-0.01,0.03,-0.05,0.05,-0.09,0.07c-0.04,0.01,-0.19,0.02,-0.46,0.02l-1.08,0c0.34,0.43,0.51,0.99,0.51,1.68c0,0.77,-0.29,1.44,-0.89,1.99c-0.59,0.55,-1.39,0.83,-2.4,0.83c-0.41,0,-0.83,-0.06,-1.26,-0.18c-0.26,0.23,-0.44,0.43,-0.54,0.6c-0.09,0.17,-0.14,0.32,-0.14,0.44c0,0.1,0.05,0.2,0.15,0.3c0.1,0.09,0.29,0.16,0.58,0.21c0.17,0.02,0.59,0.04,1.27,0.06c1.25,0.03,2.06,0.07,2.43,0.12c0.56,0.07,1.01,0.28,1.35,0.63c0.33,0.34,0.5,0.76,0.5,1.26c0,0.68,-0.32,1.33,-0.96,1.93c-0.94,0.88,-2.18,1.33,-3.71,1.33c-1.17,0,-2.16,-0.26,-2.97,-0.79c-0.45,-0.3,-0.68,-0.62,-0.68,-0.94c0,-0.14,0.03,-0.29,0.1,-0.43c0.1,-0.22,0.31,-0.53,0.63,-0.94c0.04,-0.05,0.35,-0.38,0.93,-0.98c-0.31,-0.18,-0.54,-0.35,-0.67,-0.5c-0.13,-0.14,-0.19,-0.31,-0.19,-0.5c0,-0.21,0.08,-0.46,0.26,-0.74c0.17,-0.28,0.57,-0.69,1.2,-1.21m1.58,-5.12c-0.45,0,-0.82,0.17,-1.13,0.53c-0.3,0.35,-0.45,0.91,-0.45,1.65c0,0.96,0.2,1.7,0.62,2.23c0.31,0.4,0.71,0.6,1.2,0.6c0.46,0,0.84,-0.17,1.14,-0.52c0.29,-0.34,0.44,-0.89,0.44,-1.63c0,-0.96,-0.21,-1.72,-0.63,-2.27c-0.31,-0.4,-0.7,-0.6,-1.19,-0.6m-1.68,8.17c-0.28,0.31,-0.5,0.59,-0.64,0.86c-0.14,0.26,-0.21,0.51,-0.21,0.73c0,0.29,0.17,0.54,0.52,0.76c0.6,0.37,1.48,0.56,2.63,0.56c1.09,0,1.9,-0.19,2.42,-0.57c0.52,-0.38,0.78,-0.79,0.78,-1.23c0,-0.31,-0.15,-0.54,-0.46,-0.67c-0.31,-0.13,-0.94,-0.21,-1.88,-0.23c-1.36,-0.03,-2.42,-0.1,-3.15,-0.21m6.72,-8.36l3.89,0l0,0.33l-0.19,0c-0.27,0,-0.47,0.05,-0.61,0.17c-0.13,0.11,-0.2,0.26,-0.2,0.44c0,0.23,0.1,0.56,0.3,0.98l2.03,4.21l1.87,-4.62c0.1,-0.24,0.15,-0.49,0.15,-0.73c0,-0.1,-0.02,-0.19,-0.06,-0.24c-0.04,-0.06,-0.12,-0.12,-0.22,-0.15c-0.1,-0.03,-0.28,-0.05,-0.54,-0.05l0,-0.33l2.72,0l0,0.33c-0.22,0.02,-0.39,0.07,-0.52,0.14c-0.12,0.07,-0.25,0.21,-0.4,0.41c-0.05,0.08,-0.15,0.31,-0.31,0.7l-3.4,8.34c-0.32,0.8,-0.75,1.42,-1.29,1.83c-0.53,0.41,-1.04,0.62,-1.53,0.62c-0.35,0,-0.65,-0.1,-0.88,-0.31c-0.23,-0.2,-0.34,-0.44,-0.34,-0.71c0,-0.25,0.08,-0.46,0.25,-0.61c0.16,-0.15,0.39,-0.23,0.68,-0.23c0.2,0,0.47,0.06,0.82,0.2c0.24,0.09,0.39,0.13,0.45,0.13c0.18,0,0.38,-0.09,0.59,-0.28c0.21,-0.18,0.43,-0.55,0.65,-1.09l0.59,-1.45l-3,-6.3c-0.09,-0.18,-0.23,-0.42,-0.43,-0.7c-0.15,-0.21,-0.27,-0.35,-0.37,-0.42c-0.14,-0.09,-0.36,-0.18,-0.67,-0.25l0,-0.33m19.72,12.02l0,0.33c-0.91,-0.46,-1.68,-1,-2.3,-1.62c-0.87,-0.88,-1.55,-1.92,-2.02,-3.12c-0.47,-1.19,-0.71,-2.44,-0.71,-3.73c0,-1.88,0.46,-3.6,1.39,-5.16c0.93,-1.55,2.14,-2.66,3.64,-3.33l0,0.38c-0.74,0.41,-1.36,0.98,-1.84,1.69c-0.48,0.71,-0.84,1.62,-1.07,2.73c-0.23,1.1,-0.35,2.25,-0.35,3.45c0,1.3,0.1,2.48,0.3,3.55c0.15,0.84,0.35,1.51,0.57,2.02c0.22,0.5,0.52,0.99,0.9,1.46c0.38,0.46,0.87,0.91,1.49,1.34m3.47,-16.64l0,8.32l2.12,-1.94c0.45,-0.41,0.71,-0.67,0.78,-0.78c0.04,-0.07,0.07,-0.14,0.07,-0.21c0,-0.12,-0.05,-0.22,-0.15,-0.31c-0.1,-0.08,-0.26,-0.13,-0.49,-0.15l0,-0.29l3.63,0l0,0.29c-0.49,0.01,-0.91,0.08,-1.24,0.22c-0.33,0.14,-0.69,0.38,-1.09,0.74l-2.14,1.98l2.14,2.71c0.59,0.74,0.99,1.22,1.2,1.42c0.29,0.28,0.54,0.47,0.76,0.55c0.15,0.06,0.41,0.09,0.79,0.09l0,0.32l-4.06,0l0,-0.32c0.23,0,0.38,-0.04,0.47,-0.1c0.08,-0.06,0.12,-0.15,0.12,-0.26c0,-0.14,-0.12,-0.36,-0.36,-0.67l-2.56,-3.27l0,2.77c0,0.54,0.03,0.89,0.11,1.06c0.07,0.17,0.18,0.29,0.32,0.36c0.14,0.07,0.44,0.11,0.91,0.11l0,0.32l-4.25,0l0,-0.32c0.42,0,0.74,-0.05,0.95,-0.15c0.12,-0.06,0.22,-0.17,0.29,-0.31c0.09,-0.2,0.13,-0.54,0.13,-1.04l0,-7.61c0,-0.96,-0.02,-1.55,-0.06,-1.77c-0.04,-0.21,-0.11,-0.36,-0.21,-0.44c-0.09,-0.08,-0.22,-0.12,-0.38,-0.12c-0.12,0,-0.31,0.05,-0.57,0.15l-0.15,-0.31l2.48,-1.02l0.42,0m8.28,7.77c0,1.24,0.29,2.21,0.9,2.92c0.6,0.7,1.32,1.05,2.14,1.05c0.54,0,1.02,-0.15,1.42,-0.45c0.4,-0.3,0.74,-0.81,1.01,-1.54l0.28,0.18c-0.12,0.83,-0.49,1.59,-1.11,2.27c-0.61,0.68,-1.38,1.02,-2.31,1.02c-1,0,-1.86,-0.39,-2.57,-1.17c-0.71,-0.78,-1.07,-1.83,-1.07,-3.15c0,-1.43,0.36,-2.54,1.1,-3.34c0.73,-0.8,1.65,-1.2,2.76,-1.2c0.93,0,1.7,0.3,2.31,0.92c0.6,0.61,0.9,1.44,0.9,2.47l-5.77,0m0,-0.52l3.87,0c-0.03,-0.53,-0.09,-0.91,-0.19,-1.13c-0.15,-0.34,-0.37,-0.6,-0.68,-0.8c-0.3,-0.19,-0.61,-0.29,-0.94,-0.29c-0.5,0,-0.95,0.19,-1.35,0.58c-0.39,0.39,-0.63,0.93,-0.69,1.63m19.58,-6.63l0,0.33c-0.43,0.07,-0.77,0.21,-0.99,0.42c-0.32,0.29,-0.6,0.75,-0.85,1.36l-4.31,10.53l-0.33,0l-4.63,-10.67c-0.23,-0.54,-0.4,-0.88,-0.5,-1c-0.15,-0.18,-0.33,-0.33,-0.56,-0.44c-0.22,-0.1,-0.52,-0.17,-0.89,-0.2l0,-0.33l5.05,0l0,0.33c-0.57,0.05,-0.94,0.15,-1.11,0.29c-0.17,0.14,-0.25,0.31,-0.25,0.53c0,0.3,0.14,0.77,0.42,1.42l3.15,7.25l2.92,-7.16c0.28,-0.7,0.42,-1.19,0.42,-1.47c0,-0.17,-0.08,-0.34,-0.26,-0.5c-0.17,-0.16,-0.47,-0.27,-0.89,-0.34c-0.03,0,-0.08,-0.01,-0.15,-0.02l0,-0.33l3.81,0m0.64,-0.21l0,-0.38c0.92,0.45,1.69,0.99,2.31,1.61c0.87,0.88,1.54,1.93,2.01,3.12c0.47,1.19,0.71,2.44,0.71,3.73c0,1.88,-0.46,3.6,-1.39,5.16c-0.92,1.55,-2.14,2.66,-3.64,3.33l0,-0.33c0.74,-0.42,1.36,-0.98,1.84,-1.7c0.48,-0.71,0.84,-1.62,1.07,-2.73c0.23,-1.1,0.35,-2.25,0.35,-3.45c0,-1.29,-0.1,-2.48,-0.3,-3.55c-0.15,-0.84,-0.34,-1.51,-0.57,-2.01c-0.22,-0.5,-0.53,-0.99,-0.9,-1.46c-0.37,-0.46,-0.87,-0.91,-1.49,-1.34" fill="#000000" stroke="none" fill-opacity="1"/>
<path d="m268.97,248.44l3.01,-1.47l0.3,0l0,10.45c0,0.69,0.02,1.12,0.08,1.29c0.05,0.17,0.17,0.3,0.36,0.39c0.18,0.09,0.55,0.14,1.11,0.15l0,0.33l-4.65,0l0,-0.33c0.58,-0.01,0.96,-0.06,1.13,-0.15c0.17,-0.08,0.28,-0.2,0.35,-0.35c0.06,-0.14,0.1,-0.59,0.1,-1.33l0,-6.68c0,-0.9,-0.03,-1.47,-0.09,-1.73c-0.04,-0.19,-0.12,-0.33,-0.23,-0.42c-0.11,-0.09,-0.24,-0.13,-0.4,-0.13c-0.22,0,-0.53,0.09,-0.94,0.28l-0.13,-0.28m7.83,5.04c0,-1.41,0.21,-2.62,0.63,-3.64c0.42,-1.01,0.99,-1.77,1.69,-2.27c0.54,-0.39,1.11,-0.59,1.69,-0.59c0.94,0,1.8,0.48,2.55,1.45c0.94,1.19,1.41,2.82,1.41,4.87c0,1.43,-0.2,2.65,-0.62,3.66c-0.41,1,-0.94,1.73,-1.58,2.18c-0.64,0.45,-1.26,0.68,-1.85,0.68c-1.18,0,-2.16,-0.69,-2.94,-2.09c-0.66,-1.17,-0.99,-2.59,-0.99,-4.24m1.78,0.22c0,1.7,0.21,3.09,0.63,4.17c0.34,0.9,0.86,1.36,1.55,1.36c0.32,0,0.66,-0.14,1.02,-0.44c0.35,-0.29,0.62,-0.78,0.8,-1.48c0.28,-1.04,0.42,-2.52,0.42,-4.42c0,-1.41,-0.14,-2.59,-0.43,-3.53c-0.21,-0.7,-0.5,-1.19,-0.84,-1.48c-0.24,-0.2,-0.55,-0.3,-0.9,-0.3c-0.41,0,-0.78,0.18,-1.1,0.55c-0.43,0.5,-0.73,1.29,-0.89,2.38c-0.15,1.08,-0.23,2.15,-0.23,3.2" fill="#000000" stroke="none" fill-opacity="1"/>
<path d="m157.59,247.22l-0.71,1.55l-3.72,0l-0.81,1.66c1.61,0.23,2.89,0.83,3.83,1.79c0.8,0.82,1.21,1.8,1.21,2.92c0,0.65,-0.13,1.25,-0.39,1.8c-0.26,0.55,-0.59,1.02,-0.99,1.41c-0.4,0.38,-0.84,0.7,-1.34,0.94c-0.7,0.33,-1.41,0.5,-2.15,0.5c-0.74,0,-1.28,-0.12,-1.62,-0.37c-0.33,-0.25,-0.5,-0.53,-0.5,-0.83c0,-0.17,0.07,-0.32,0.21,-0.45c0.14,-0.13,0.31,-0.19,0.52,-0.19c0.15,0,0.29,0.02,0.41,0.07c0.11,0.04,0.32,0.17,0.6,0.37c0.45,0.31,0.91,0.47,1.38,0.47c0.71,0,1.33,-0.26,1.87,-0.8c0.53,-0.53,0.8,-1.19,0.8,-1.96c0,-0.74,-0.24,-1.44,-0.72,-2.09c-0.48,-0.64,-1.14,-1.14,-1.99,-1.5c-0.66,-0.27,-1.56,-0.43,-2.71,-0.47l2.37,-4.81l4.43,0" fill="#000000" stroke="none" fill-opacity="1"/>
<path d="m397.33,257.22l-0.86,2.38l-7.3,0l0,-0.33c2.14,-1.96,3.66,-3.56,4.53,-4.8c0.87,-1.24,1.31,-2.37,1.31,-3.4c0,-0.78,-0.24,-1.43,-0.72,-1.93c-0.48,-0.5,-1.05,-0.75,-1.72,-0.75c-0.6,0,-1.15,0.17,-1.63,0.53c-0.48,0.35,-0.84,0.87,-1.07,1.56l-0.33,0c0.15,-1.12,0.54,-1.99,1.17,-2.59c0.63,-0.6,1.41,-0.9,2.36,-0.9c1,0,1.84,0.32,2.51,0.96c0.67,0.64,1,1.4,1,2.28c0,0.62,-0.14,1.25,-0.43,1.88c-0.45,0.98,-1.18,2.03,-2.19,3.13c-1.51,1.65,-2.46,2.65,-2.83,2.99l3.23,0c0.65,0,1.11,-0.02,1.38,-0.07c0.26,-0.04,0.5,-0.14,0.71,-0.29c0.21,-0.14,0.39,-0.36,0.55,-0.63l0.33,0m1.45,-3.73c0,-1.41,0.21,-2.62,0.63,-3.64c0.42,-1.01,0.99,-1.77,1.69,-2.27c0.54,-0.39,1.11,-0.59,1.69,-0.59c0.94,0,1.8,0.48,2.55,1.45c0.94,1.19,1.41,2.82,1.41,4.87c0,1.43,-0.2,2.65,-0.62,3.66c-0.41,1,-0.94,1.73,-1.58,2.18c-0.64,0.45,-1.26,0.68,-1.85,0.68c-1.18,0,-2.16,-0.69,-2.94,-2.09c-0.66,-1.17,-0.99,-2.59,-0.99,-4.24m1.78,0.22c0,1.7,0.21,3.09,0.63,4.17c0.34,0.9,0.86,1.36,1.55,1.36c0.32,0,0.66,-0.14,1.02,-0.44c0.35,-0.29,0.62,-0.78,0.8,-1.48c0.28,-1.04,0.42,-2.52,0.42,-4.42c0,-1.41,-0.14,-2.59,-0.43,-3.53c-0.21,-0.7,-0.5,-1.19,-0.84,-1.48c-0.24,-0.2,-0.55,-0.3,-0.9,-0.3c-0.41,0,-0.78,0.18,-1.1,0.55c-0.43,0.5,-0.73,1.29,-0.89,2.38c-0.15,1.08,-0.23,2.15,-0.23,3.2" fill="#000000" stroke="none" fill-opacity="1"/>
<path d="m556.34,247.22l-0.71,1.55l-3.72,0l-0.81,1.66c1.61,0.23,2.89,0.83,3.83,1.79c0.8,0.82,1.21,1.8,1.21,2.92c0,0.65,-0.13,1.25,-0.39,1.8c-0.26,0.55,-0.59,1.02,-0.99,1.41c-0.4,0.38,-0.84,0.7,-1.34,0.94c-0.7,0.33,-1.41,0.5,-2.15,0.5c-0.74,0,-1.28,-0.12,-1.62,-0.37c-0.33,-0.25,-0.5,-0.53,-0.5,-0.83c0,-0.17,0.07,-0.32,0.21,-0.45c0.14,-0.13,0.31,-0.19,0.52,-0.19c0.15,0,0.29,0.02,0.41,0.07c0.11,0.04,0.32,0.17,0.6,0.37c0.45,0.31,0.91,0.47,1.38,0.47c0.71,0,1.33,-0.26,1.87,-0.8c0.53,-0.53,0.8,-1.19,0.8,-1.96c0,-0.74,-0.24,-1.44,-0.72,-2.09c-0.48,-0.64,-1.14,-1.14,-1.99,-1.5c-0.66,-0.27,-1.56,-0.43,-2.71,-0.47l2.37,-4.81l4.43,0m1.9,6.26c0,-1.41,0.21,-2.62,0.63,-3.64c0.42,-1.01,0.99,-1.77,1.69,-2.27c0.54,-0.39,1.11,-0.59,1.69,-0.59c0.94,0,1.8,0.48,2.55,1.45c0.94,1.19,1.41,2.82,1.41,4.87c0,1.43,-0.2,2.65,-0.62,3.66c-0.41,1,-0.94,1.73,-1.58,2.18c-0.64,0.45,-1.26,0.68,-1.85,0.68c-1.18,0,-2.16,-0.69,-2.94,-2.09c-0.66,-1.17,-0.99,-2.59,-0.99,-4.24m1.78,0.22c0,1.7,0.21,3.09,0.63,4.17c0.34,0.9,0.86,1.36,1.55,1.36c0.32,0,0.66,-0.14,1.02,-0.44c0.35,-0.29,0.62,-0.78,0.8,-1.48c0.28,-1.04,0.42,-2.52,0.42,-4.42c0,-1.41,-0.14,-2.59,-0.43,-3.53c-0.21,-0.7,-0.5,-1.19,-0.84,-1.48c-0.24,-0.2,-0.55,-0.3,-0.9,-0.3c-0.41,0,-0.78,0.18,-1.1,0.55c-0.43,0.5,-0.73,1.29,-0.89,2.38c-0.15,1.08,-0.23,2.15,-0.23,3.2" fill="#000000" stroke="none" fill-opacity="1"/>
</g>
<g fill="none" stroke-linecap="butt" stroke-width="0.66">
<path d="M64.25,7.55l495.11,0"/>
<path d="M64.25,7.55l0,4M114.87,7.55l0,4M154.14,7.55l0,4M186.23,7.55l0,4M213.36,7.55l0,4M236.86,7.55l0,4M257.59,7.55l0,4M398.11,7.55l0,4M469.47,7.55l0,4M520.1,7.55l0,4M559.37,7.55l0,4"/>
<path d="M276.13,7.55l0,8M154.14,7.55l0,8M398.11,7.55l0,8M559.37,7.55l0,8"/>
</g>
</g>
</g>
</svg>
