<?xml version="1.0" standalone="no"?>
<!DOCTYPE svg PUBLIC "-//W3C//DTD SVG 1.1//EN"
  "http://www.w3.org/Graphics/SVG/1.1/DTD/svg11.dtd">
<svg width="566.92px" height="340.15px" version="1.1"
    xmlns="http://www.w3.org/2000/svg"
    xmlns:xlink="http://www.w3.org/1999/xlink">
<desc>Veusz output document</desc>
<defs>
<clipPath id="c0">
<path d="m0,0l566.92,0l0,340.15l-566.92,0l0,-340.15"/>
</clipPath>
<clipPath id="c1">
<path d="m64.25,7.55l495.11,0l0,268.34l-495.11,0l0,-268.34"/>
</clipPath>
</defs>
<g stroke-linejoin="bevel" stroke-linecap="square" stroke="#000000" fill-rule="evenodd">
<g clip-path="url(#c0)">
<g fill="#ffffff" stroke-width="0.66">
<path d="m64.25,7.55l495.11,0l0,268.34l-495.11,0l0,-268.34"/>
</g>
<g fill="#000000" stroke-dasharray="5.33,2.66" stroke-linecap="butt" stroke-width="1.33">
<g transform="translate(64.25,175.27)">
<path d="M0,0l1156.97,0"/>
</g>
</g>
</g>
<g clip-path="url(#c1)">
<g fill="none" stroke="#ff0000" stroke-width="1.33">
<polyline fill="none" points="73.73,185.6 77.05,185.6 77.05,205.88 80.38,205.88 83.65,205.88 83.65,184.51 86.91,184.51 90.13,184.51 90.13,175.04 93.35,175.04 96.52,175.04 96.52,168.02 99.69,168.02 102.81,168.02 102.81,177.08 105.93,177.08 109,177.08 109,161.32 112.07,161.32 115.1,161.32 115.1,162.29 118.13,162.29 121.12,162.29 121.12,172.72 124.1,172.72 127.04,172.72 127.04,170.4 129.98,170.4 132.88,170.4 132.88,167.99 135.78,167.99 138.64,167.99 138.64,165.69 141.5,165.69 144.32,165.69 144.32,160.63 147.14,160.63 149.93,160.63 149.93,159.53 152.71,159.53 155.45,159.53 155.45,162.28 158.2,162.28 160.91,162.28 160.91,144.62 163.62,144.62 166.29,144.62 166.29,174.66 168.97,174.66 171.74,174.66 171.74,146.08 174.51,146.08 177.37,146.08 177.37,164.72 180.23,164.72 183.06,164.72 183.06,158.05 185.88,158.05 188.67,158.05 188.67,153.59 191.45,153.59 194.2,153.59 194.2,159.1 196.95,159.1 199.66,159.1 199.66,162.24 202.37,162.24 205.05,162.24 205.05,150.44 207.73,150.44 210.37,150.44 210.37,149.71 213.01,149.71 215.62,149.71 215.62,165.38 218.23,165.38 220.8,165.38 220.8,138.29 223.38,138.29 225.92,138.29 225.92,136.93 228.47,136.93 230.98,136.93 230.98,124.26 233.49,124.26 235.98,124.26 235.98,146.61 238.46,146.61 240.91,146.61 240.91,124.56 243.37,124.56 245.79,124.56 245.79,136.65 248.22,136.65 250.61,136.65 250.61,138.55 253.01,138.55 255.38,138.55 255.38,167.72 257.74,167.72 260.09,167.72 260.09,153.26 262.43,153.26 264.74,153.26 264.74,131.45 267.06,131.45 269.35,131.45 269.35,142.64 271.64,142.64 274,142.64 274,142.24 276.37,142.24 278.81,142.24 278.81,154.57 281.25,154.57 283.66,154.57 283.66,136.81 286.07,136.81 288.46,136.81 288.46,107.4 290.84,107.4 293.2,107.4 293.2,138.89 295.56,138.89 297.88,138.89 297.88,143.29 300.21,143.29 302.52,143.29 302.52,122.58 304.82,122.58 307.1,122.58 307.1,99.63 309.38,99.63 311.63,99.63 311.63,124.22 313.89,124.22 316.12,124.22 316.12,130.28 318.34,130.28 320.55,130.28 320.55,122.33 322.75,122.33 324.94,122.33 324.94,93.48 327.12,93.48 329.28,93.48 329.28,109.65 331.43,109.65 333.57,109.65 333.57,117.57 335.71,117.57 337.82,117.57 337.82,94.71 339.94,94.71 342.03,94.71 342.03,124.92 344.12,124.92 346.19,124.92 346.19,104.38 348.27,104.38 350.32,104.38 350.32,165.44 352.37,165.44 354.4,165.44 354.4,114.04 356.43,114.04 358.44,114.04 358.44,101.17 360.45,101.17 362.44,101.17 362.44,132.99 364.43,132.99 366.49,132.99 366.49,114.83 368.54,114.83 370.66,114.83 370.66,115.43 372.77,115.43 374.87,115.43 374.87,82.46 376.96,82.46 379.03,82.46 379.03,41.24 381.1,41.24 383.15,41.24 383.15,89.14 385.21,89.14 387.24,89.14 387.24,42.58 389.27,42.58 391.28,42.58 391.28,119.55 393.29,119.55 395.28,119.55 395.28,82.9 397.27,82.9 399.25,82.9 399.25,105.26 401.22,105.26 403.17,105.26 403.17,119.54 405.13,119.54 407.06,119.54 407.06,86.15 409,86.15 410.92,86.15 410.92,136.53 412.83,136.53 414.73,136.53 414.73,142.43 416.63,142.43 418.52,142.43 418.52,140.3 420.4,140.3 422.26,140.3 422.26,128.07 424.13,128.07 425.98,128.07 425.98,178.7 427.83,178.7 429.66,178.7 429.66,219.3 431.49,219.3 433.31,219.3 433.31,170.4 435.12,170.4 436.92,170.4 436.92,176.92 438.72,176.92 440.51,176.92 440.51,201.07 442.29,201.07 444.13,201.07 444.13,169.01 445.97,169.01 447.85,169.01 447.85,169.85 449.74,169.85 451.61,169.85 451.61,201.89 453.48,201.89 455.34,201.89 455.34,229.7 457.19,229.7 459.03,229.7 459.03,187.48 460.86,187.48 462.68,187.48 462.68,184.32 464.5,184.32 466.31,184.32 466.31,128.14 468.11,128.14 469.9,128.14 469.9,204.4 471.69,204.4 473.47,204.4 473.47,179.65 475.24,179.65 477,179.65 477,169.34 478.76,169.34 480.5,169.34 480.5,173.68 482.24,173.68 483.97,173.68 483.97,223.2 485.7,223.2 487.42,223.2 487.42,141.51 489.13,141.51 490.83,141.51 490.83,178.25 492.53,178.25 494.22,178.25 494.22,216.47 495.9,216.47 497.58,216.47 497.58,188.96 499.25,188.96 500.91,188.96 500.91,182.29 502.57,182.29 504.21,182.29 504.21,168.11 505.86,168.11 507.49,168.11 507.49,185.4 509.13,185.4 510.75,185.4 510.75,127.57 512.37,127.57 514.03,127.57 514.03,186.44 515.69,186.44 517.4,186.44 517.4,206.44 519.11,206.44 520.8,206.44 520.8,190.17 522.5,190.17 524.18,190.17 524.18,153.73 525.86,153.73 527.52,153.73 527.52,155.52 529.19,155.52 530.84,155.52 530.84,224.39 532.5,224.39 534.14,224.39 534.14,229.96 535.77,229.96 537.4,229.96 537.4,161.47 539.03,161.47 540.7,161.47 540.7,197.01 542.36,197.01 544.02,197.01 544.02,186.4 545.67,186.4 547.31,186.4 547.31,134.89 548.95,134.89 550.63,134.89 550.63,187.46 552.31,187.46 553.93,187.46 553.93,213.29 555.54,213.29"/>
</g>
<g fill="none" stroke="#ff0000" stroke-linecap="butt" stroke-width="0.66">
<path d="M73.73,195.62l0,-20.03M80.38,215.9l0,-20.04M86.91,194.87l0,-20.72M93.35,185.65l0,-21.22M99.69,178.84l0,-21.64M105.93,187.98l0,-21.8M112.07,172.5l0,-22.34M118.13,173.61l0,-22.63M124.1,184.11l0,-22.77M129.98,181.94l0,-23.08M135.78,179.68l0,-23.38M141.5,177.53l0,-23.67M147.14,172.64l0,-24.02M152.71,171.69l0,-24.31M158.2,174.55l0,-24.55M163.62,157.21l0,-25.17M168.97,187.13l0,-24.93M174.51,158.35l0,-24.54M180.23,176.98l0,-24.53M185.88,170.53l0,-24.94M191.45,166.26l0,-25.32M196.95,171.87l0,-25.54M202.37,175.14l0,-25.79M207.73,163.6l0,-26.31M213.01,163.03l0,-26.64M218.23,178.72l0,-26.67M223.38,152.05l0,-27.51M228.47,150.86l0,-27.86M233.49,138.48l0,-28.43M238.46,160.79l0,-28.34M243.37,139.12l0,-29.11M248.22,151.25l0,-29.19M253.01,153.29l0,-29.47M257.74,182.31l0,-29.19M262.43,168.17l0,-29.82M267.06,146.75l0,-30.59M271.64,157.99l0,-30.69M276.37,157.11l0,-29.73M281.25,169.51l0,-29.86M286.07,152.12l0,-30.63M290.84,123.22l0,-31.64M295.56,154.57l0,-31.36M300.21,159.11l0,-31.64M304.82,138.8l0,-32.43M309.38,116.28l0,-33.29M313.89,140.79l0,-33.13M318.34,146.99l0,-33.41M322.75,139.34l0,-34.02M327.12,111.03l0,-35.1M331.43,127.23l0,-35.15M335.71,135.27l0,-35.4M339.94,112.92l0,-36.41M344.12,142.98l0,-36.13M348.27,122.92l0,-37.08M352.37,183.43l0,-35.98M356.43,132.88l0,-37.68M360.45,120.32l0,-38.3M364.43,151.74l0,-37.5M368.54,132.9l0,-36.13M372.77,133.5l0,-36.14M376.96,101.42l0,-37.91M381.1,61.42l0,-40.34M385.21,109.27l0,-40.25M389.27,63.73l0,-42.29M393.29,140.02l0,-40.94M397.27,104.22l0,-42.64M401.22,126.63l0,-42.75M405.13,141.09l0,-43.1M409,108.54l0,-44.76M412.83,158.52l0,-43.97M416.63,164.7l0,-44.53M420.4,162.99l0,-45.37M424.13,151.35l0,-46.56M427.83,201.59l0,-45.76M431.49,241.93l0,-45.25M435.12,194.32l0,-47.84M438.72,201.16l0,-48.47M442.29,225.29l0,-48.42M445.97,193.33l0,-48.63M449.74,194.62l0,-49.54M453.48,226.58l0,-49.37M457.19,254.32l0,-49.25M460.86,213.44l0,-51.91M464.5,210.83l0,-53.02M468.11,156.23l0,-56.17M471.69,231.48l0,-54.16M475.24,207.79l0,-56.28M478.76,198.31l0,-57.95M482.24,203.16l0,-58.94M485.7,252.14l0,-57.87M489.13,172.76l0,-62.5M492.53,209.31l0,-62.11M495.9,247.23l0,-61.53M499.25,220.99l0,-64.06M502.57,215.11l0,-65.63M505.86,202l0,-67.76M509.13,219.49l0,-68.17M512.37,163.75l0,-72.36M515.69,220.62l0,-68.35M519.11,240.84l0,-68.79M522.5,225.71l0,-71.07M525.86,190.91l0,-74.36M529.19,193.41l0,-75.76M532.5,261.19l0,-73.6M535.77,267.5l0,-75.08M539.03,202l0,-81.06M542.36,236.18l0,-78.33M545.67,228.33l0,-83.85M548.95,177.95l0,-86.1M552.31,230.06l0,-85.21M555.54,257.63l0,-88.67"/>
</g>
<g fill="none" stroke="#008000" stroke-dasharray="8,4" stroke-width="2">
<polyline fill="none" points="73.73,175.21 80.38,175.2 86.91,175.19 93.35,175.19 99.69,175.17 105.93,175.12 112.07,175.02 118.13,174.85 124.1,174.64 129.98,174.43 135.78,174.22 141.5,174.02 147.14,173.82 152.71,173.61 158.2,173.38 163.62,173.15 168.97,172.9 174.51,172.63 180.23,172.32 185.88,171.99 191.45,171.64 196.95,171.27 202.37,170.87 207.73,170.45 213.01,170 218.23,169.52 223.38,169.02 228.47,168.49 233.49,167.92 238.46,167.32 243.37,166.69 248.22,166.01 253.01,165.29 257.74,164.53 262.43,163.72 267.06,162.87 271.64,161.98 276.37,161 281.25,159.93 286.07,158.8 290.84,157.64 295.56,156.41 300.21,155.1 304.82,153.69 309.38,152.19 313.89,150.59 318.34,148.89 322.75,147.1 327.12,145.21 331.43,143.2 335.71,141.09 339.94,138.87 344.12,136.53 348.27,134.14 352.37,131.87 356.43,129.93 360.45,128.41 364.43,127.36 368.54,126.47 372.77,123.71 376.96,116.7 381.1,106.17 385.21,94.66 389.27,83.89 393.29,75.15 397.27,69.26 401.22,68.41 405.13,78.6 409,104.34 412.83,136.72 416.63,160.14 420.4,170.72 424.13,174.13 427.83,175.03 431.49,175.23 435.12,175.27 438.72,175.27 442.29,175.27 445.97,175.27 449.74,175.27 453.48,175.27 457.19,175.27 460.86,175.27 464.5,175.27 468.11,175.27 471.69,175.27 475.24,175.27 478.76,175.27 482.24,175.27 485.7,175.27 489.13,175.27 492.53,175.27 495.9,175.27 499.25,175.27 502.57,175.27 505.86,175.27 509.13,175.27 512.37,175.27 515.69,175.27 519.11,175.27 522.5,175.27 525.86,175.27 529.19,175.27 532.5,175.27 535.77,175.27 539.03,175.27 542.36,175.27 545.67,175.27 548.95,175.27 552.31,175.27 555.54,175.27"/>
</g>
<g fill="none" stroke="#0000ff" stroke-width="2">
<polyline fill="none" points="73.73,170.88 80.38,170.58 86.91,170.27 93.35,169.95 99.69,169.61 105.93,169.25 112.07,168.87 118.13,168.48 124.1,168.07 129.98,167.63 135.78,167.19 141.5,166.72 147.14,166.23 152.71,165.72 158.2,165.19 163.62,164.63 168.97,164.04 174.51,163.42 180.23,162.73 185.88,162.01 191.45,161.25 196.95,160.47 202.37,159.65 207.73,158.8 213.01,157.93 218.23,157.01 223.38,156.06 228.47,155.08 233.49,154.06 238.46,152.99 243.37,151.87 248.22,150.7 253.01,149.49 257.74,148.24 262.43,146.94 267.06,145.61 271.64,144.23 276.37,142.74 281.25,141.13 286.07,139.46 290.84,137.76 295.56,136.01 300.21,134.17 304.82,132.24 309.38,130.26 313.89,128.19 318.34,126.03 322.75,123.79 327.12,121.5 331.43,119.12 335.71,116.66 339.94,114.16 344.12,111.65 348.27,109.23 352.37,107.13 356.43,105.44 360.45,104.26 364.43,104 368.54,104.65 372.77,103.57 376.96,98.03 381.1,89.88 385.21,82.36 389.27,76.21 393.29,71.36 397.27,68.41 401.22,70.3 405.13,83.5 409,111 412.83,142.12 416.63,162.84 420.4,171.65 424.13,174.38 427.83,175.09 431.49,175.24 435.12,175.27 438.72,175.27 442.29,175.27 445.97,175.27 449.74,175.27 453.48,175.27 457.19,175.27 460.86,175.27 464.5,175.27 468.11,175.27 471.69,175.27 475.24,175.27 478.76,175.27 482.24,175.27 485.7,175.27 489.13,175.27 492.53,175.27 495.9,175.27 499.25,175.27 502.57,175.27 505.86,175.27 509.13,175.27 512.37,175.27 515.69,175.27 519.11,175.27 522.5,175.27 525.86,175.27 529.19,175.27 532.5,175.27 535.77,175.27 539.03,175.27 542.36,175.27 545.67,175.27 548.95,175.27 552.31,175.27 555.54,175.27"/>
</g>
</g>
<g clip-path="url(#c0)">
<g fill="none" stroke-linecap="butt" stroke-width="0.66">
<path d="M64.25,275.9l0,-268.34"/>
<path d="M64.25,269.19l4,0M64.25,255.77l4,0M64.25,242.36l4,0M64.25,228.94l4,0M64.25,215.52l4,0M64.25,202.11l4,0M64.25,188.69l4,0M64.25,175.27l4,0M64.25,161.85l4,0M64.25,148.44l4,0M64.25,135.02l4,0M64.25,121.6l4,0M64.25,108.18l4,0M64.25,94.77l4,0M64.25,81.35l4,0M64.25,67.93l4,0M64.25,54.51l4,0M64.25,41.1l4,0M64.25,27.68l4,0M64.25,14.26l4,0"/>
<path d="M64.25,242.36l8,0M64.25,175.27l8,0M64.25,108.18l8,0M64.25,41.1l8,0"/>
</g>
<g fill="none" stroke-width="0.1">
<g transform="matrix(0 -1 1 0 22.32 190.02)">
<path d="m0.31,0l0,-0.33l0.46,0c0.52,0,0.89,-0.16,1.11,-0.5c0.13,-0.2,0.2,-0.65,0.2,-1.35l0,-7.99c0,-0.77,-0.08,-1.25,-0.25,-1.45c-0.23,-0.26,-0.59,-0.4,-1.05,-0.4l-0.46,0l0,-0.33l5.04,0c1.85,0,3.25,0.21,4.22,0.63c0.96,0.42,1.74,1.12,2.32,2.1c0.58,0.98,0.88,2.11,0.88,3.39c0,1.72,-0.52,3.16,-1.57,4.31c-1.17,1.29,-2.96,1.93,-5.36,1.93l-5.53,0m3.53,-0.89c0.77,0.17,1.42,0.25,1.94,0.25c1.41,0,2.58,-0.49,3.51,-1.48c0.93,-0.99,1.39,-2.33,1.39,-4.03c0,-1.71,-0.46,-3.05,-1.39,-4.04c-0.93,-0.98,-2.12,-1.47,-3.58,-1.47c-0.54,0,-1.17,0.08,-1.87,0.26l0,10.52m14.97,-0.31c-0.85,0.66,-1.39,1.04,-1.61,1.15c-0.32,0.15,-0.67,0.22,-1.05,0.22c-0.57,0,-1.05,-0.19,-1.42,-0.59c-0.37,-0.39,-0.56,-0.91,-0.56,-1.56c0,-0.4,0.09,-0.76,0.27,-1.05c0.24,-0.41,0.68,-0.8,1.3,-1.16c0.61,-0.36,1.64,-0.8,3.08,-1.33l0,-0.32c0,-0.83,-0.13,-1.4,-0.39,-1.71c-0.26,-0.31,-0.64,-0.46,-1.15,-0.46c-0.38,0,-0.68,0.1,-0.91,0.31c-0.23,0.2,-0.34,0.44,-0.34,0.71l0.01,0.52c0,0.28,-0.07,0.49,-0.21,0.64c-0.14,0.15,-0.33,0.22,-0.56,0.22c-0.22,0,-0.4,-0.07,-0.55,-0.23c-0.14,-0.15,-0.21,-0.37,-0.21,-0.64c0,-0.52,0.26,-1,0.8,-1.44c0.53,-0.43,1.28,-0.65,2.25,-0.65c0.74,0,1.35,0.12,1.82,0.37c0.35,0.18,0.62,0.48,0.79,0.88c0.1,0.26,0.16,0.79,0.16,1.6l0,2.83c0,0.79,0.01,1.28,0.04,1.46c0.03,0.17,0.08,0.29,0.15,0.36c0.07,0.06,0.15,0.09,0.24,0.09c0.09,0,0.18,-0.02,0.25,-0.06c0.12,-0.07,0.37,-0.3,0.73,-0.66l0,0.51c-0.68,0.91,-1.33,1.36,-1.95,1.36c-0.29,0,-0.53,-0.1,-0.71,-0.31c-0.17,-0.2,-0.26,-0.56,-0.27,-1.05m0,-0.59l0,-3.18c-0.91,0.36,-1.51,0.62,-1.78,0.77c-0.48,0.26,-0.82,0.54,-1.03,0.84c-0.2,0.29,-0.31,0.61,-0.31,0.95c0,0.43,0.13,0.8,0.39,1.09c0.26,0.28,0.56,0.43,0.9,0.43c0.46,0,1.07,-0.3,1.82,-0.91m5.98,-9.31l0,2.74l1.95,0l0,0.63l-1.95,0l0,5.42c0,0.54,0.07,0.9,0.23,1.09c0.15,0.18,0.35,0.28,0.59,0.28c0.2,0,0.39,-0.06,0.58,-0.18c0.18,-0.12,0.33,-0.3,0.43,-0.55l0.35,0c-0.21,0.59,-0.51,1.04,-0.9,1.34c-0.38,0.3,-0.79,0.45,-1.2,0.45c-0.28,0,-0.55,-0.07,-0.82,-0.23c-0.26,-0.15,-0.46,-0.37,-0.59,-0.66c-0.12,-0.28,-0.19,-0.73,-0.19,-1.33l0,-5.62l-1.32,0l0,-0.3c0.33,-0.13,0.67,-0.36,1.02,-0.68c0.35,-0.31,0.66,-0.69,0.93,-1.13c0.14,-0.23,0.33,-0.65,0.58,-1.26l0.28,0m7.5,9.9c-0.85,0.66,-1.39,1.04,-1.61,1.15c-0.32,0.15,-0.67,0.22,-1.05,0.22c-0.57,0,-1.05,-0.19,-1.42,-0.59c-0.37,-0.39,-0.56,-0.91,-0.56,-1.56c0,-0.4,0.09,-0.76,0.27,-1.05c0.24,-0.41,0.68,-0.8,1.3,-1.16c0.61,-0.36,1.64,-0.8,3.08,-1.33l0,-0.32c0,-0.83,-0.13,-1.4,-0.39,-1.71c-0.26,-0.31,-0.64,-0.46,-1.15,-0.46c-0.38,0,-0.68,0.1,-0.91,0.31c-0.23,0.2,-0.34,0.44,-0.34,0.71l0.01,0.52c0,0.28,-0.07,0.49,-0.21,0.64c-0.14,0.15,-0.33,0.22,-0.56,0.22c-0.22,0,-0.4,-0.07,-0.55,-0.23c-0.14,-0.15,-0.21,-0.37,-0.21,-0.64c0,-0.52,0.26,-1,0.8,-1.44c0.53,-0.43,1.28,-0.65,2.25,-0.65c0.74,0,1.35,0.12,1.82,0.37c0.35,0.18,0.62,0.48,0.79,0.88c0.1,0.26,0.16,0.79,0.16,1.6l0,2.83c0,0.79,0.01,1.28,0.04,1.46c0.03,0.17,0.08,0.29,0.15,0.36c0.07,0.06,0.15,0.09,0.24,0.09c0.09,0,0.18,-0.02,0.25,-0.06c0.12,-0.07,0.37,-0.3,0.73,-0.66l0,0.51c-0.68,0.91,-1.33,1.36,-1.95,1.36c-0.29,0,-0.53,-0.1,-0.71,-0.31c-0.17,-0.2,-0.26,-0.56,-0.27,-1.05m0,-0.59l0,-3.18c-0.91,0.36,-1.51,0.62,-1.78,0.77c-0.48,0.26,-0.82,0.54,-1.03,0.84c-0.2,0.29,-0.31,0.61,-0.31,0.95c0,0.43,0.13,0.8,0.39,1.09c0.26,0.28,0.56,0.43,0.9,0.43c0.46,0,1.07,-0.3,1.82,-0.91m12.89,-11.18l-4.48,13.23l-0.73,0l4.48,-13.23l0.73,0m7.69,6.15c0.6,-0.6,0.96,-0.95,1.07,-1.05c0.27,-0.23,0.56,-0.41,0.88,-0.53c0.31,-0.12,0.63,-0.19,0.94,-0.19c0.52,0,0.97,0.15,1.35,0.45c0.37,0.3,0.63,0.74,0.75,1.32c0.62,-0.73,1.15,-1.2,1.58,-1.43c0.43,-0.22,0.87,-0.34,1.33,-0.34c0.44,0,0.83,0.11,1.18,0.34c0.34,0.22,0.61,0.6,0.81,1.11c0.13,0.35,0.2,0.9,0.2,1.66l0,3.59c0,0.52,0.03,0.88,0.11,1.07c0.06,0.13,0.17,0.24,0.33,0.34c0.16,0.09,0.43,0.14,0.8,0.14l0,0.32l-4.12,0l0,-0.32l0.17,0c0.35,0,0.63,-0.07,0.84,-0.21c0.14,-0.09,0.24,-0.25,0.3,-0.46c0.02,-0.1,0.03,-0.39,0.03,-0.88l0,-3.59c0,-0.68,-0.08,-1.16,-0.24,-1.44c-0.23,-0.38,-0.61,-0.58,-1.14,-0.58c-0.32,0,-0.64,0.08,-0.97,0.24c-0.32,0.16,-0.71,0.46,-1.18,0.89l-0.01,0.1l0.01,0.39l0,3.99c0,0.57,0.03,0.92,0.09,1.06c0.06,0.14,0.18,0.25,0.36,0.35c0.17,0.09,0.47,0.14,0.9,0.14l0,0.32l-4.22,0l0,-0.32c0.46,0,0.78,-0.05,0.95,-0.16c0.17,-0.1,0.29,-0.27,0.36,-0.49c0.03,-0.1,0.04,-0.4,0.04,-0.9l0,-3.59c0,-0.68,-0.1,-1.17,-0.3,-1.47c-0.26,-0.38,-0.64,-0.58,-1.12,-0.58c-0.32,0,-0.65,0.08,-0.97,0.26c-0.5,0.26,-0.89,0.56,-1.16,0.9l0,4.48c0,0.54,0.03,0.9,0.11,1.06c0.07,0.16,0.18,0.28,0.33,0.36c0.14,0.08,0.45,0.12,0.9,0.12l0,0.32l-4.13,0l0,-0.32c0.38,0,0.65,-0.04,0.8,-0.12c0.15,-0.08,0.26,-0.21,0.34,-0.39c0.07,-0.17,0.11,-0.52,0.11,-1.04l0,-3.19c0,-0.91,-0.02,-1.51,-0.08,-1.78c-0.04,-0.2,-0.1,-0.33,-0.2,-0.41c-0.09,-0.07,-0.21,-0.11,-0.37,-0.11c-0.17,0,-0.37,0.04,-0.61,0.13l-0.13,-0.32l2.52,-1.02l0.39,0l0,1.78m16.15,-1.78c1.26,0,2.28,0.48,3.04,1.44c0.65,0.82,0.97,1.76,0.97,2.83c0,0.74,-0.17,1.5,-0.53,2.27c-0.35,0.76,-0.85,1.34,-1.48,1.73c-0.63,0.38,-1.33,0.58,-2.1,0.58c-1.26,0,-2.26,-0.5,-3,-1.5c-0.62,-0.84,-0.94,-1.79,-0.94,-2.84c0,-0.76,0.19,-1.52,0.57,-2.28c0.38,-0.75,0.88,-1.31,1.5,-1.68c0.62,-0.36,1.27,-0.54,1.97,-0.54m-0.28,0.59c-0.32,0,-0.64,0.09,-0.97,0.28c-0.32,0.19,-0.58,0.52,-0.78,1c-0.2,0.48,-0.3,1.09,-0.3,1.85c0,1.21,0.24,2.26,0.72,3.15c0.48,0.88,1.12,1.32,1.91,1.32c0.59,0,1.07,-0.24,1.46,-0.73c0.38,-0.48,0.57,-1.32,0.57,-2.51c0,-1.48,-0.31,-2.65,-0.95,-3.5c-0.43,-0.58,-0.98,-0.87,-1.65,-0.87m11.45,7.07c-0.4,0.42,-0.8,0.73,-1.19,0.91c-0.38,0.18,-0.8,0.27,-1.26,0.27c-0.91,0,-1.71,-0.38,-2.39,-1.14c-0.68,-0.76,-1.02,-1.74,-1.02,-2.94c0,-1.19,0.37,-2.29,1.13,-3.29c0.75,-0.99,1.72,-1.49,2.91,-1.49c0.73,0,1.34,0.23,1.82,0.7l0,-1.54c0,-0.95,-0.02,-1.54,-0.06,-1.76c-0.04,-0.21,-0.11,-0.36,-0.21,-0.44c-0.09,-0.07,-0.21,-0.11,-0.36,-0.11c-0.15,0,-0.36,0.04,-0.63,0.14l-0.11,-0.31l2.49,-1.02l0.41,0l0,9.66c0,0.98,0.02,1.57,0.06,1.79c0.04,0.21,0.11,0.36,0.21,0.45c0.1,0.08,0.21,0.12,0.35,0.12c0.16,0,0.38,-0.05,0.65,-0.15l0.1,0.31l-2.48,1.03l-0.42,0l0,-1.19m0,-0.63l0,-4.3c-0.03,-0.41,-0.14,-0.79,-0.32,-1.13c-0.18,-0.34,-0.42,-0.59,-0.72,-0.77c-0.3,-0.17,-0.59,-0.26,-0.88,-0.26c-0.53,0,-1.01,0.24,-1.43,0.72c-0.55,0.63,-0.83,1.55,-0.83,2.77c0,1.22,0.26,2.17,0.8,2.82c0.53,0.65,1.13,0.98,1.78,0.98c0.55,0,1.08,-0.27,1.6,-0.83m4.84,-3.63c0,1.24,0.29,2.21,0.9,2.92c0.6,0.7,1.32,1.05,2.14,1.05c0.54,0,1.02,-0.15,1.42,-0.45c0.4,-0.3,0.74,-0.81,1.01,-1.54l0.28,0.18c-0.12,0.83,-0.49,1.59,-1.11,2.27c-0.61,0.68,-1.38,1.02,-2.31,1.02c-1,0,-1.86,-0.39,-2.57,-1.17c-0.71,-0.78,-1.07,-1.83,-1.07,-3.15c0,-1.43,0.36,-2.54,1.1,-3.34c0.73,-0.8,1.65,-1.2,2.76,-1.2c0.93,0,1.7,0.3,2.31,0.92c0.6,0.61,0.9,1.44,0.9,2.47l-5.77,0m0,-0.52l3.87,0c-0.03,-0.53,-0.09,-0.91,-0.19,-1.13c-0.15,-0.34,-0.37,-0.6,-0.68,-0.8c-0.3,-0.19,-0.61,-0.29,-0.94,-0.29c-0.5,0,-0.95,0.19,-1.35,0.58c-0.39,0.39,-0.63,0.93,-0.69,1.63m9.76,-7.24l0,11.09c0,0.52,0.03,0.87,0.11,1.04c0.07,0.17,0.19,0.29,0.35,0.38c0.15,0.08,0.45,0.13,0.88,0.13l0,0.32l-4.09,0l0,-0.32c0.38,0,0.64,-0.03,0.78,-0.11c0.14,-0.07,0.24,-0.21,0.32,-0.39c0.07,-0.18,0.11,-0.53,0.11,-1.05l0,-7.59c0,-0.94,-0.02,-1.52,-0.06,-1.73c-0.04,-0.21,-0.11,-0.36,-0.2,-0.44c-0.09,-0.07,-0.21,-0.11,-0.36,-0.11c-0.15,0,-0.35,0.04,-0.6,0.14l-0.15,-0.31l2.49,-1.02l0.41,0" fill="#000000" stroke="none" fill-opacity="1"/>
</g>
<path d="m36.71,242.67c0,-1.41,0.21,-2.62,0.63,-3.64c0.42,-1.01,0.99,-1.77,1.69,-2.27c0.54,-0.39,1.11,-0.59,1.69,-0.59c0.94,0,1.8,0.48,2.55,1.45c0.94,1.19,1.41,2.82,1.41,4.87c0,1.43,-0.2,2.65,-0.62,3.66c-0.41,1,-0.94,1.73,-1.58,2.18c-0.64,0.45,-1.26,0.68,-1.85,0.68c-1.18,0,-2.16,-0.69,-2.94,-2.09c-0.66,-1.17,-0.99,-2.59,-0.99,-4.24m1.78,0.22c0,1.7,0.21,3.09,0.63,4.17c0.34,0.9,0.86,1.36,1.55,1.36c0.32,0,0.66,-0.14,1.02,-0.44c0.35,-0.29,0.62,-0.78,0.8,-1.48c0.28,-1.04,0.42,-2.52,0.42,-4.42c0,-1.41,-0.14,-2.59,-0.43,-3.53c-0.21,-0.7,-0.5,-1.19,-0.84,-1.48c-0.24,-0.2,-0.55,-0.3,-0.9,-0.3c-0.41,0,-0.78,0.18,-1.1,0.55c-0.43,0.5,-0.73,1.29,-0.89,2.38c-0.15,1.08,-0.23,2.15,-0.23,3.2m9.22,4.11c0.28,0,0.52,0.09,0.72,0.29c0.19,0.19,0.29,0.43,0.29,0.71c0,0.28,-0.09,0.51,-0.29,0.71c-0.19,0.19,-0.43,0.29,-0.71,0.29c-0.28,0,-0.51,-0.09,-0.71,-0.29c-0.19,-0.19,-0.29,-0.43,-0.29,-0.71c0,-0.28,0.09,-0.52,0.29,-0.72c0.19,-0.19,0.43,-0.29,0.71,-0.29m3.32,2.02l0,-0.33c0.79,-0.01,1.52,-0.19,2.2,-0.55c0.68,-0.35,1.34,-0.97,1.97,-1.86c0.63,-0.88,1.07,-1.86,1.32,-2.93c-0.95,0.61,-1.82,0.92,-2.59,0.92c-0.87,0,-1.61,-0.33,-2.23,-1c-0.62,-0.67,-0.93,-1.56,-0.93,-2.67c0,-1.08,0.31,-2.04,0.93,-2.89c0.74,-1.02,1.72,-1.54,2.93,-1.54c1.01,0,1.88,0.42,2.61,1.26c0.88,1.04,1.33,2.32,1.33,3.85c0,1.37,-0.33,2.65,-1.01,3.84c-0.67,1.19,-1.61,2.17,-2.82,2.96c-0.98,0.64,-2.04,0.96,-3.2,0.96l-0.52,0m5.66,-6.36c0.1,-0.79,0.16,-1.42,0.16,-1.89c0,-0.59,-0.1,-1.22,-0.3,-1.91c-0.2,-0.68,-0.48,-1.2,-0.85,-1.57c-0.36,-0.36,-0.78,-0.54,-1.25,-0.54c-0.54,0,-1.01,0.24,-1.42,0.73c-0.4,0.48,-0.61,1.21,-0.61,2.17c0,1.28,0.27,2.28,0.81,3.01c0.39,0.52,0.88,0.78,1.46,0.78c0.28,0,0.61,-0.06,0.99,-0.2c0.38,-0.13,0.72,-0.32,1.01,-0.56" fill="#000000" stroke="none" fill-opacity="1"/>
<path d="m52.25,170.53l3.01,-1.47l0.3,0l0,10.45c0,0.69,0.02,1.12,0.08,1.29c0.05,0.17,0.17,0.3,0.36,0.39c0.18,0.09,0.55,0.14,1.11,0.15l0,0.33l-4.65,0l0,-0.33c0.58,-0.01,0.96,-0.06,1.13,-0.15c0.17,-0.08,0.28,-0.2,0.35,-0.35c0.06,-0.14,0.1,-0.59,0.1,-1.33l0,-6.68c0,-0.9,-0.03,-1.47,-0.09,-1.73c-0.04,-0.19,-0.12,-0.33,-0.23,-0.42c-0.11,-0.09,-0.24,-0.13,-0.4,-0.13c-0.22,0,-0.53,0.09,-0.94,0.28l-0.13,-0.28" fill="#000000" stroke="none" fill-opacity="1"/>
<path d="m38.23,103.44l3.01,-1.47l0.3,0l0,10.45c0,0.69,0.02,1.12,0.08,1.29c0.05,0.17,0.17,0.3,0.36,0.39c0.18,0.09,0.55,0.14,1.11,0.15l0,0.33l-4.65,0l0,-0.33c0.58,-0.01,0.96,-0.06,1.13,-0.15c0.17,-0.08,0.28,-0.2,0.35,-0.35c0.06,-0.14,0.1,-0.59,0.1,-1.33l0,-6.68c0,-0.9,-0.03,-1.47,-0.09,-1.73c-0.04,-0.19,-0.12,-0.33,-0.23,-0.42c-0.11,-0.09,-0.24,-0.13,-0.4,-0.13c-0.22,0,-0.53,0.09,-0.94,0.28l-0.13,-0.28m9.49,9.39c0.28,0,0.52,0.09,0.72,0.29c0.19,0.19,0.29,0.43,0.29,0.71c0,0.28,-0.09,0.51,-0.29,0.71c-0.19,0.19,-0.43,0.29,-0.71,0.29c-0.28,0,-0.51,-0.09,-0.71,-0.29c-0.19,-0.19,-0.29,-0.43,-0.29,-0.71c0,-0.28,0.09,-0.52,0.29,-0.72c0.19,-0.19,0.43,-0.29,0.71,-0.29m4.52,-9.39l3.01,-1.47l0.3,0l0,10.45c0,0.69,0.02,1.12,0.08,1.29c0.05,0.17,0.17,0.3,0.36,0.39c0.18,0.09,0.55,0.14,1.11,0.15l0,0.33l-4.65,0l0,-0.33c0.58,-0.01,0.96,-0.06,1.13,-0.15c0.17,-0.08,0.28,-0.2,0.35,-0.35c0.06,-0.14,0.1,-0.59,0.1,-1.33l0,-6.68c0,-0.9,-0.03,-1.47,-0.09,-1.73c-0.04,-0.19,-0.12,-0.33,-0.23,-0.42c-0.11,-0.09,-0.24,-0.13,-0.4,-0.13c-0.22,0,-0.53,0.09,-0.94,0.28l-0.13,-0.28" fill="#000000" stroke="none" fill-opacity="1"/>
<path d="m38.23,36.36l3.01,-1.47l0.3,0l0,10.45c0,0.69,0.02,1.12,0.08,1.29c0.05,0.17,0.17,0.3,0.36,0.39c0.18,0.09,0.55,0.14,1.11,0.15l0,0.33l-4.65,0l0,-0.33c0.58,-0.01,0.96,-0.06,1.13,-0.15c0.17,-0.08,0.28,-0.2,0.35,-0.35c0.06,-0.14,0.1,-0.59,0.1,-1.33l0,-6.68c0,-0.9,-0.03,-1.47,-0.09,-1.73c-0.04,-0.19,-0.12,-0.33,-0.23,-0.42c-0.11,-0.09,-0.24,-0.13,-0.4,-0.13c-0.22,0,-0.53,0.09,-0.94,0.28l-0.13,-0.28m9.49,9.39c0.28,0,0.52,0.09,0.72,0.29c0.19,0.19,0.29,0.43,0.29,0.71c0,0.28,-0.09,0.51,-0.29,0.71c-0.19,0.19,-0.43,0.29,-0.71,0.29c-0.28,0,-0.51,-0.09,-0.71,-0.29c-0.19,-0.19,-0.29,-0.43,-0.29,-0.71c0,-0.28,0.09,-0.52,0.29,-0.72c0.19,-0.19,0.43,-0.29,0.71,-0.29m10.91,-0.61l-0.86,2.38l-7.3,0l0,-0.33c2.14,-1.96,3.66,-3.56,4.53,-4.8c0.87,-1.24,1.31,-2.37,1.31,-3.4c0,-0.78,-0.24,-1.43,-0.72,-1.93c-0.48,-0.5,-1.05,-0.75,-1.72,-0.75c-0.6,0,-1.15,0.17,-1.63,0.53c-0.48,0.35,-0.84,0.87,-1.07,1.56l-0.33,0c0.15,-1.12,0.54,-1.99,1.17,-2.59c0.63,-0.6,1.41,-0.9,2.36,-0.9c1,0,1.84,0.32,2.51,0.96c0.67,0.64,1,1.4,1,2.28c0,0.62,-0.14,1.25,-0.43,1.88c-0.45,0.98,-1.18,2.03,-2.19,3.13c-1.51,1.65,-2.46,2.65,-2.83,2.99l3.23,0c0.65,0,1.11,-0.02,1.38,-0.07c0.26,-0.04,0.5,-0.14,0.71,-0.29c0.21,-0.14,0.39,-0.36,0.55,-0.63l0.33,0" fill="#000000" stroke="none" fill-opacity="1"/>
</g>
<g fill="none" stroke-linecap="butt" stroke-width="0.66">
<path d="M559.37,275.9l0,-268.34"/>
<path d="M559.37,269.19l-4,0M559.37,255.77l-4,0M559.37,242.36l-4,0M559.37,228.94l-4,0M559.37,215.52l-4,0M559.37,202.11l-4,0M559.37,188.69l-4,0M559.37,175.27l-4,0M559.37,161.85l-4,0M559.37,148.44l-4,0M559.37,135.02l-4,0M559.37,121.6l-4,0M559.37,108.18l-4,0M559.37,94.77l-4,0M559.37,81.35l-4,0M559.37,67.93l-4,0M559.37,54.51l-4,0M559.37,41.1l-4,0M559.37,27.68l-4,0M559.37,14.26l-4,0"/>
<path d="M559.37,242.36l-8,0M559.37,175.27l-8,0M559.37,108.18l-8,0M559.37,41.1l-8,0"/>
<path d="M64.25,275.9l495.11,0"/>
<path d="M64.25,275.9l0,-4M182.55,275.9l0,-4M274.32,275.9l0,-4M349.29,275.9l0,-4M412.69,275.9l0,-4M467.6,275.9l0,-4M516.04,275.9l0,-4"/>
<path d="M64.25,275.9l0,-8M182.55,275.9l0,-8M274.32,275.9l0,-8M349.29,275.9l0,-8M412.69,275.9l0,-8M467.6,275.9l0,-8M516.04,275.9l0,-8M559.37,275.9l0,-8"/>
</g>
<g fill="none" stroke-width="0.1">
<path d="m264.57,312.03l0,4.89l2.72,0c0.7,0,1.17,-0.1,1.41,-0.31c0.31,-0.28,0.49,-0.77,0.52,-1.47l0.33,0l0,4.3l-0.33,0c-0.08,-0.6,-0.17,-0.98,-0.25,-1.15c-0.1,-0.21,-0.28,-0.38,-0.53,-0.5c-0.24,-0.12,-0.63,-0.18,-1.15,-0.18l-2.72,0l0,4.08c0,0.54,0.02,0.88,0.07,0.99c0.04,0.11,0.13,0.21,0.25,0.28c0.12,0.07,0.35,0.1,0.69,0.1l2.1,0c0.7,0,1.2,-0.04,1.52,-0.14c0.31,-0.09,0.62,-0.28,0.91,-0.57c0.37,-0.37,0.76,-0.94,1.15,-1.7l0.36,0l-1.06,3.1l-9.54,0l0,-0.33l0.43,0c0.29,0,0.56,-0.07,0.83,-0.21c0.19,-0.09,0.32,-0.24,0.39,-0.43c0.07,-0.19,0.1,-0.59,0.1,-1.19l0,-8.04c0,-0.78,-0.07,-1.26,-0.23,-1.45c-0.21,-0.24,-0.58,-0.36,-1.09,-0.36l-0.43,0l0,-0.33l9.54,0l0.13,2.71l-0.35,0c-0.12,-0.65,-0.26,-1.09,-0.42,-1.34c-0.15,-0.24,-0.38,-0.42,-0.68,-0.55c-0.24,-0.09,-0.67,-0.13,-1.28,-0.13l-3.39,0m10.53,4.86c0.98,-1.18,1.91,-1.77,2.8,-1.77c0.45,0,0.84,0.11,1.17,0.34c0.32,0.22,0.59,0.6,0.78,1.12c0.13,0.36,0.2,0.92,0.2,1.68l0,3.57c0,0.52,0.04,0.88,0.12,1.07c0.06,0.15,0.17,0.27,0.32,0.35c0.14,0.08,0.42,0.12,0.82,0.12l0,0.32l-4.13,0l0,-0.32l0.17,0c0.38,0,0.66,-0.05,0.81,-0.17c0.15,-0.11,0.26,-0.29,0.32,-0.52c0.02,-0.09,0.03,-0.37,0.03,-0.85l0,-3.42c0,-0.76,-0.09,-1.31,-0.29,-1.65c-0.19,-0.34,-0.53,-0.51,-0.99,-0.51c-0.72,0,-1.44,0.39,-2.16,1.18l0,4.41c0,0.56,0.03,0.91,0.1,1.05c0.08,0.17,0.2,0.3,0.35,0.38c0.14,0.08,0.45,0.12,0.9,0.12l0,0.32l-4.13,0l0,-0.32l0.18,0c0.42,0,0.71,-0.1,0.86,-0.32c0.14,-0.21,0.22,-0.62,0.22,-1.23l0,-3.1c0,-1,-0.02,-1.61,-0.06,-1.83c-0.04,-0.21,-0.11,-0.36,-0.21,-0.44c-0.09,-0.07,-0.22,-0.11,-0.37,-0.11c-0.17,0,-0.37,0.04,-0.61,0.13l-0.13,-0.32l2.52,-1.02l0.39,0l0,1.77m8.31,1.62c0,1.24,0.29,2.21,0.9,2.92c0.6,0.7,1.32,1.05,2.14,1.05c0.54,0,1.02,-0.15,1.42,-0.45c0.4,-0.3,0.74,-0.81,1.01,-1.54l0.28,0.18c-0.12,0.83,-0.49,1.59,-1.11,2.27c-0.61,0.68,-1.38,1.02,-2.31,1.02c-1,0,-1.86,-0.39,-2.57,-1.17c-0.71,-0.78,-1.07,-1.83,-1.07,-3.15c0,-1.43,0.36,-2.54,1.1,-3.34c0.73,-0.8,1.65,-1.2,2.76,-1.2c0.93,0,1.7,0.3,2.31,0.92c0.6,0.61,0.9,1.44,0.9,2.47l-5.77,0m0,-0.52l3.87,0c-0.03,-0.53,-0.09,-0.91,-0.19,-1.13c-0.15,-0.34,-0.37,-0.6,-0.68,-0.8c-0.3,-0.19,-0.61,-0.29,-0.94,-0.29c-0.5,0,-0.95,0.19,-1.35,0.58c-0.39,0.39,-0.63,0.93,-0.69,1.63m9.33,-2.86l0,1.88c0.7,-1.25,1.41,-1.88,2.15,-1.88c0.33,0,0.61,0.1,0.83,0.3c0.21,0.2,0.32,0.43,0.32,0.7c0,0.23,-0.07,0.43,-0.23,0.6c-0.15,0.16,-0.34,0.24,-0.56,0.24c-0.21,0,-0.45,-0.1,-0.71,-0.31c-0.26,-0.21,-0.46,-0.31,-0.58,-0.31c-0.1,0,-0.22,0.06,-0.35,0.18c-0.27,0.24,-0.55,0.66,-0.84,1.23l0,4c0,0.46,0.05,0.81,0.17,1.05c0.07,0.16,0.21,0.3,0.42,0.41c0.2,0.1,0.49,0.16,0.86,0.16l0,0.32l-4.28,0l0,-0.32c0.42,0,0.74,-0.06,0.94,-0.2c0.15,-0.09,0.25,-0.25,0.31,-0.46c0.03,-0.1,0.04,-0.39,0.04,-0.88l0,-3.24c0,-0.97,-0.01,-1.55,-0.05,-1.73c-0.03,-0.18,-0.11,-0.32,-0.21,-0.4c-0.1,-0.08,-0.23,-0.12,-0.39,-0.12c-0.18,0,-0.4,0.04,-0.63,0.13l-0.09,-0.32l2.52,-1.02l0.38,0m6.01,5.56c-0.51,-0.24,-0.9,-0.59,-1.17,-1.04c-0.27,-0.44,-0.41,-0.94,-0.41,-1.48c0,-0.82,0.31,-1.54,0.93,-2.13c0.62,-0.59,1.42,-0.89,2.39,-0.89c0.79,0,1.48,0.19,2.07,0.58l1.77,0c0.26,0,0.41,0,0.45,0.02c0.04,0.01,0.07,0.04,0.09,0.07c0.03,0.05,0.05,0.15,0.05,0.29c0,0.15,-0.01,0.26,-0.04,0.32c-0.01,0.03,-0.05,0.05,-0.09,0.07c-0.04,0.01,-0.19,0.02,-0.46,0.02l-1.08,0c0.34,0.43,0.51,0.99,0.51,1.68c0,0.77,-0.29,1.44,-0.89,1.99c-0.59,0.55,-1.39,0.83,-2.4,0.83c-0.41,0,-0.83,-0.06,-1.26,-0.18c-0.26,0.23,-0.44,0.43,-0.54,0.6c-0.09,0.17,-0.14,0.32,-0.14,0.44c0,0.1,0.05,0.2,0.15,0.3c0.1,0.09,0.29,0.16,0.58,0.21c0.17,0.02,0.59,0.04,1.27,0.06c1.25,0.03,2.06,0.07,2.43,0.12c0.56,0.07,1.01,0.28,1.35,0.63c0.33,0.34,0.5,0.76,0.5,1.26c0,0.68,-0.32,1.33,-0.96,1.93c-0.94,0.88,-2.18,1.33,-3.71,1.33c-1.17,0,-2.16,-0.26,-2.97,-0.79c-0.45,-0.3,-0.68,-0.62,-0.68,-0.94c0,-0.14,0.03,-0.29,0.1,-0.43c0.1,-0.22,0.31,-0.53,0.63,-0.94c0.04,-0.05,0.35,-0.38,0.93,-0.98c-0.31,-0.18,-0.54,-0.35,-0.67,-0.5c-0.13,-0.14,-0.19,-0.31,-0.19,-0.5c0,-0.21,0.08,-0.46,0.26,-0.74c0.17,-0.28,0.57,-0.69,1.2,-1.21m1.58,-5.12c-0.45,0,-0.82,0.17,-1.13,0.53c-0.3,0.35,-0.45,0.91,-0.45,1.65c0,0.96,0.2,1.7,0.62,2.23c0.31,0.4,0.71,0.6,1.2,0.6c0.46,0,0.84,-0.17,1.14,-0.52c0.29,-0.34,0.44,-0.89,0.44,-1.63c0,-0.96,-0.21,-1.72,-0.63,-2.27c-0.31,-0.4,-0.7,-0.6,-1.19,-0.6m-1.68,8.17c-0.28,0.31,-0.5,0.59,-0.64,0.86c-0.14,0.26,-0.21,0.51,-0.21,0.73c0,0.29,0.17,0.54,0.52,0.76c0.6,0.37,1.48,0.56,2.63,0.56c1.09,0,1.9,-0.19,2.42,-0.57c0.52,-0.38,0.78,-0.79,0.78,-1.23c0,-0.31,-0.15,-0.54,-0.46,-0.67c-0.31,-0.13,-0.94,-0.21,-1.88,-0.23c-1.36,-0.03,-2.42,-0.1,-3.15,-0.21m6.72,-8.36l3.89,0l0,0.33l-0.19,0c-0.27,0,-0.47,0.05,-0.61,0.17c-0.13,0.11,-0.2,0.26,-0.2,0.44c0,0.23,0.1,0.56,0.3,0.98l2.03,4.21l1.87,-4.62c0.1,-0.24,0.15,-0.49,0.15,-0.73c0,-0.1,-0.02,-0.19,-0.06,-0.24c-0.04,-0.06,-0.12,-0.12,-0.22,-0.15c-0.1,-0.03,-0.28,-0.05,-0.54,-0.05l0,-0.33l2.72,0l0,0.33c-0.22,0.02,-0.39,0.07,-0.52,0.14c-0.12,0.07,-0.25,0.21,-0.4,0.41c-0.05,0.08,-0.15,0.31,-0.31,0.7l-3.4,8.34c-0.32,0.8,-0.75,1.42,-1.29,1.83c-0.53,0.41,-1.04,0.62,-1.53,0.62c-0.35,0,-0.65,-0.1,-0.88,-0.31c-0.23,-0.2,-0.34,-0.44,-0.34,-0.71c0,-0.25,0.08,-0.46,0.25,-0.61c0.16,-0.15,0.39,-0.23,0.68,-0.23c0.2,0,0.47,0.06,0.82,0.2c0.24,0.09,0.39,0.13,0.45,0.13c0.18,0,0.38,-0.09,0.59,-0.28c0.21,-0.18,0.43,-0.55,0.65,-1.09l0.59,-1.45l-3,-6.3c-0.09,-0.18,-0.23,-0.42,-0.43,-0.7c-0.15,-0.21,-0.27,-0.35,-0.37,-0.42c-0.14,-0.09,-0.36,-0.18,-0.67,-0.25l0,-0.33m19.72,12.02l0,0.33c-0.91,-0.46,-1.68,-1,-2.3,-1.62c-0.87,-0.88,-1.55,-1.92,-2.02,-3.12c-0.47,-1.19,-0.71,-2.44,-0.71,-3.73c0,-1.88,0.46,-3.6,1.39,-5.16c0.93,-1.55,2.14,-2.66,3.64,-3.33l0,0.38c-0.74,0.41,-1.36,0.98,-1.84,1.69c-0.48,0.71,-0.84,1.62,-1.07,2.73c-0.23,1.1,-0.35,2.25,-0.35,3.45c0,1.3,0.1,2.48,0.3,3.55c0.15,0.84,0.35,1.51,0.57,2.02c0.22,0.5,0.52,0.99,0.9,1.46c0.38,0.46,0.87,0.91,1.49,1.34m3.47,-16.64l0,8.32l2.12,-1.94c0.45,-0.41,0.71,-0.67,0.78,-0.78c0.04,-0.07,0.07,-0.14,0.07,-0.21c0,-0.12,-0.05,-0.22,-0.15,-0.31c-0.1,-0.08,-0.26,-0.13,-0.49,-0.15l0,-0.29l3.63,0l0,0.29c-0.49,0.01,-0.91,0.08,-1.24,0.22c-0.33,0.14,-0.69,0.38,-1.09,0.74l-2.14,1.98l2.14,2.71c0.59,0.74,0.99,1.22,1.2,1.42c0.29,0.28,0.54,0.47,0.76,0.55c0.15,0.06,0.41,0.09,0.79,0.09l0,0.32l-4.06,0l0,-0.32c0.23,0,0.38,-0.04,0.47,-0.1c0.08,-0.06,0.12,-0.15,0.12,-0.26c0,-0.14,-0.12,-0.36,-0.36,-0.67l-2.56,-3.27l0,2.77c0,0.54,0.03,0.89,0.11,1.06c0.07,0.17,0.18,0.29,0.32,0.36c0.14,0.07,0.44,0.11,0.91,0.11l0,0.32l-4.25,0l0,-0.32c0.42,0,0.74,-0.05,0.95,-0.15c0.12,-0.06,0.22,-0.17,0.29,-0.31c0.09,-0.2,0.13,-0.54,0.13,-1.04l0,-7.61c0,-0.96,-0.02,-1.55,-0.06,-1.77c-0.04,-0.21,-0.11,-0.36,-0.21,-0.44c-0.09,-0.08,-0.22,-0.12,-0.38,-0.12c-0.12,0,-0.31,0.05,-0.57,0.15l-0.15,-0.31l2.48,-1.02l0.42,0m8.28,7.77c0,1.24,0.29,2.21,0.9,2.92c0.6,0.7,1.32,1.05,2.14,1.05c0.54,0,1.02,-0.15,1.42,-0.45c0.4,-0.3,0.74,-0.81,1.01,-1.54l0.28,0.18c-0.12,0.83,-0.49,1.59,-1.11,2.27c-0.61,0.68,-1.38,1.02,-2.31,1.02c-1,0,-1.86,-0.39,-2.57,-1.17c-0.71,-0.78,-1.07,-1.83,-1.07,-3.15c0,-1.43,0.36,-2.54,1.1,-3.34c0.73,-0.8,1.65,-1.2,2.76,-1.2c0.93,0,1.7,0.3,2.31,0.92c0.6,0.61,0.9,1.44,0.9,2.47l-5.77,0m0,-0.52l3.87,0c-0.03,-0.53,-0.09,-0.91,-0.19,-1.13c-0.15,-0.34,-0.37,-0.6,-0.68,-0.8c-0.3,-0.19,-0.61,-0.29,-0.94,-0.29c-0.5,0,-0.95,0.19,-1.35,0.58c-0.39,0.39,-0.63,0.93,-0.69,1.63m19.58,-6.63l0,0.33c-0.43,0.07,-0.77,0.21,-0.99,0.42c-0.32,0.29,-0.6,0.75,-0.85,1.36l-4.31,10.53l-0.33,0l-4.63,-10.67c-0.23,-0.54,-0.4,-0.88,-0.5,-1c-0.15,-0.18,-0.33,-0.33,-0.56,-0.44c-0.22,-0.1,-0.52,-0.17,-0.89,-0.2l0,-0.33l5.05,0l0,0.33c-0.57,0.05,-0.94,0.15,-1.11,0.29c-0.17,0.14,-0.25,0.31,-0.25,0.53c0,0.3,0.14,0.77,0.42,1.42l3.15,7.25l2.92,-7.16c0.28,-0.7,0.42,-1.19,0.42,-1.47c0,-0.17,-0.08,-0.34,-0.26,-0.5c-0.17,-0.16,-0.47,-0.27,-0.89,-0.34c-0.03,0,-0.08,-0.01,-0.15,-0.02l0,-0.33l3.81,0m0.64,-0.21l0,-0.38c0.92,0.45,1.69,0.99,2.31,1.61c0.87,0.88,1.54,1.93,2.01,3.12c0.47,1.19,0.71,2.44,0.71,3.73c0,1.88,-0.46,3.6,-1.39,5.16c-0.92,1.55,-2.14,2.66,-3.64,3.33l0,-0.33c0.74,-0.42,1.36,-0.98,1.84,-1.7c0.48,-0.71,0.84,-1.62,1.07,-2.73c0.23,-1.1,0.35,-2.25,0.35,-3.45c0,-1.29,-0.1,-2.48,-0.3,-3.55c-0.15,-0.84,-0.34,-1.51,-0.57,-2.01c-0.22,-0.5,-0.53,-0.99,-0.9,-1.46c-0.37,-0.46,-0.87,-0.91,-1.49,-1.34" fill="#000000" stroke="none" fill-opacity="1"/>
<path d="m60.52,287.37c0.35,-0.83,0.79,-1.47,1.33,-1.93c0.53,-0.45,1.2,-0.68,2.01,-0.68c0.99,0,1.75,0.32,2.28,0.96c0.4,0.48,0.6,0.99,0.6,1.54c0,0.9,-0.56,1.83,-1.69,2.79c0.76,0.29,1.33,0.72,1.72,1.27c0.38,0.55,0.58,1.2,0.58,1.95c0,1.07,-0.34,1.99,-1.02,2.78c-0.88,1.02,-2.17,1.53,-3.86,1.53c-0.83,0,-1.4,-0.1,-1.7,-0.31c-0.3,-0.2,-0.45,-0.42,-0.45,-0.66c0,-0.17,0.07,-0.33,0.21,-0.46c0.14,-0.13,0.31,-0.2,0.51,-0.2c0.15,0,0.3,0.02,0.46,0.07c0.1,0.03,0.33,0.14,0.7,0.33c0.36,0.19,0.61,0.3,0.75,0.34c0.22,0.06,0.46,0.1,0.72,0.1c0.62,0,1.16,-0.24,1.62,-0.72c0.45,-0.48,0.68,-1.05,0.68,-1.7c0,-0.48,-0.1,-0.94,-0.31,-1.4c-0.15,-0.34,-0.33,-0.59,-0.52,-0.77c-0.26,-0.24,-0.62,-0.46,-1.07,-0.66c-0.45,-0.19,-0.92,-0.29,-1.39,-0.29l-0.29,0l0,-0.27c0.48,-0.06,0.96,-0.23,1.44,-0.52c0.48,-0.28,0.83,-0.63,1.05,-1.03c0.21,-0.4,0.32,-0.84,0.32,-1.32c0,-0.62,-0.19,-1.13,-0.58,-1.52c-0.39,-0.38,-0.88,-0.57,-1.46,-0.57c-0.94,0,-1.73,0.5,-2.36,1.51l-0.3,-0.14" fill="#000000" stroke="none" fill-opacity="1"/>
<path d="m186.58,292.83l0,1.29l-1.66,0l0,3.26l-1.5,0l0,-3.26l-5.24,0l0,-1.16l5.74,-8.19l1,0l0,8.07l1.66,0m-3.16,0l0,-6.14l-4.34,6.14l4.34,0" fill="#000000" stroke="none" fill-opacity="1"/>
<path d="m277.76,285.02l-0.71,1.55l-3.72,0l-0.81,1.66c1.61,0.23,2.89,0.83,3.83,1.79c0.8,0.82,1.21,1.8,1.21,2.92c0,0.65,-0.13,1.25,-0.39,1.8c-0.26,0.55,-0.59,1.02,-0.99,1.41c-0.4,0.38,-0.84,0.7,-1.34,0.94c-0.7,0.33,-1.41,0.5,-2.15,0.5c-0.74,0,-1.28,-0.12,-1.62,-0.37c-0.33,-0.25,-0.5,-0.53,-0.5,-0.83c0,-0.17,0.07,-0.32,0.21,-0.45c0.14,-0.13,0.31,-0.19,0.52,-0.19c0.15,0,0.29,0.02,0.41,0.07c0.11,0.04,0.32,0.17,0.6,0.37c0.45,0.31,0.91,0.47,1.38,0.47c0.71,0,1.33,-0.26,1.87,-0.8c0.53,-0.53,0.8,-1.19,0.8,-1.96c0,-0.74,-0.24,-1.44,-0.72,-2.09c-0.48,-0.64,-1.14,-1.14,-1.99,-1.5c-0.66,-0.27,-1.56,-0.43,-2.71,-0.47l2.37,-4.81l4.43,0" fill="#000000" stroke="none" fill-opacity="1"/>
<path d="m353,284.76l0,0.33c-0.8,0.07,-1.45,0.23,-1.96,0.47c-0.5,0.24,-1.01,0.6,-1.5,1.1c-0.49,0.49,-0.9,1.04,-1.23,1.64c-0.32,0.6,-0.59,1.32,-0.81,2.15c0.87,-0.6,1.75,-0.9,2.63,-0.9c0.84,0,1.57,0.34,2.2,1.02c0.62,0.68,0.93,1.55,0.93,2.62c0,1.03,-0.31,1.97,-0.94,2.83c-0.75,1.03,-1.75,1.55,-2.99,1.55c-0.84,0,-1.56,-0.28,-2.15,-0.84c-1.15,-1.08,-1.73,-2.5,-1.73,-4.23c0,-1.1,0.22,-2.16,0.66,-3.15c0.44,-0.99,1.07,-1.88,1.9,-2.65c0.82,-0.77,1.61,-1.29,2.36,-1.56c0.75,-0.26,1.45,-0.4,2.1,-0.4l0.52,0m-5.67,6.39c-0.1,0.82,-0.16,1.48,-0.16,1.99c0,0.58,0.1,1.21,0.32,1.9c0.21,0.68,0.53,1.22,0.96,1.62c0.31,0.28,0.68,0.42,1.13,0.42c0.52,0,1,-0.24,1.41,-0.74c0.41,-0.49,0.62,-1.21,0.62,-2.13c0,-1.04,-0.2,-1.94,-0.62,-2.7c-0.41,-0.76,-1,-1.14,-1.76,-1.14c-0.23,0,-0.47,0.04,-0.74,0.14c-0.26,0.09,-0.65,0.3,-1.17,0.63" fill="#000000" stroke="none" fill-opacity="1"/>
<path d="m409.89,285.02l6.63,0l0,0.34l-4.12,12.29l-1.02,0l3.69,-11.14l-3.4,0c-0.68,0,-1.17,0.08,-1.47,0.24c-0.51,0.28,-0.92,0.71,-1.23,1.29l-0.26,-0.1l1.18,-2.93" fill="#000000" stroke="none" fill-opacity="1"/>
<path d="m466.51,291.16c-0.98,-0.8,-1.61,-1.44,-1.89,-1.93c-0.28,-0.48,-0.42,-0.99,-0.42,-1.51c0,-0.8,0.31,-1.49,0.93,-2.07c0.62,-0.58,1.44,-0.87,2.47,-0.87c0.99,0,1.8,0.27,2.41,0.81c0.6,0.54,0.91,1.15,0.91,1.85c0,0.46,-0.16,0.93,-0.49,1.41c-0.32,0.48,-1.01,1.04,-2.05,1.69c1.07,0.82,1.78,1.47,2.12,1.95c0.46,0.62,0.69,1.27,0.69,1.96c0,0.87,-0.33,1.61,-0.99,2.23c-0.66,0.61,-1.53,0.92,-2.61,0.92c-1.17,0,-2.09,-0.36,-2.74,-1.1c-0.52,-0.59,-0.78,-1.23,-0.78,-1.93c0,-0.54,0.18,-1.09,0.55,-1.62c0.36,-0.53,1,-1.13,1.9,-1.78m1.43,-0.97c0.73,-0.65,1.19,-1.17,1.38,-1.55c0.19,-0.38,0.29,-0.81,0.29,-1.29c0,-0.63,-0.17,-1.13,-0.53,-1.5c-0.35,-0.36,-0.84,-0.54,-1.47,-0.54c-0.62,0,-1.12,0.17,-1.51,0.53c-0.38,0.35,-0.58,0.77,-0.58,1.26c0,0.31,0.08,0.63,0.24,0.94c0.16,0.31,0.39,0.61,0.68,0.9l1.49,1.24m-1,1.32c-0.5,0.42,-0.87,0.89,-1.12,1.39c-0.24,0.5,-0.36,1.04,-0.36,1.62c0,0.78,0.21,1.41,0.64,1.88c0.42,0.47,0.97,0.7,1.63,0.7c0.65,0,1.18,-0.18,1.57,-0.55c0.39,-0.37,0.59,-0.82,0.59,-1.35c0,-0.43,-0.11,-0.83,-0.34,-1.17c-0.43,-0.64,-1.3,-1.48,-2.62,-2.52" fill="#000000" stroke="none" fill-opacity="1"/>
<path d="m512.35,297.66l0,-0.33c0.79,-0.01,1.52,-0.19,2.2,-0.55c0.68,-0.35,1.34,-0.97,1.97,-1.86c0.63,-0.88,1.07,-1.86,1.32,-2.93c-0.95,0.61,-1.82,0.92,-2.59,0.92c-0.87,0,-1.61,-0.33,-2.23,-1c-0.62,-0.67,-0.93,-1.56,-0.93,-2.67c0,-1.08,0.31,-2.04,0.93,-2.89c0.74,-1.02,1.72,-1.54,2.93,-1.54c1.01,0,1.88,0.42,2.61,1.26c0.88,1.04,1.33,2.32,1.33,3.85c0,1.37,-0.33,2.65,-1.01,3.84c-0.67,1.19,-1.61,2.17,-2.82,2.96c-0.98,0.64,-2.04,0.96,-3.2,0.96l-0.52,0m5.66,-6.36c0.1,-0.79,0.16,-1.42,0.16,-1.89c0,-0.59,-0.1,-1.22,-0.3,-1.91c-0.2,-0.68,-0.48,-1.2,-0.85,-1.57c-0.36,-0.36,-0.78,-0.54,-1.25,-0.54c-0.54,0,-1.01,0.24,-1.42,0.73c-0.4,0.48,-0.61,1.21,-0.61,2.17c0,1.28,0.27,2.28,0.81,3.01c0.39,0.52,0.88,0.78,1.46,0.78c0.28,0,0.61,-0.06,0.99,-0.2c0.38,-0.13,0.72,-0.32,1.01,-0.56" fill="#000000" stroke="none" fill-opacity="1"/>
<path d="m550.41,286.23l3.01,-1.47l0.3,0l0,10.45c0,0.69,0.02,1.12,0.08,1.29c0.05,0.17,0.17,0.3,0.36,0.39c0.18,0.09,0.55,0.14,1.11,0.15l0,0.33l-4.65,0l0,-0.33c0.58,-0.01,0.96,-0.06,1.13,-0.15c0.17,-0.08,0.28,-0.2,0.35,-0.35c0.06,-0.14,0.1,-0.59,0.1,-1.33l0,-6.68c0,-0.9,-0.03,-1.47,-0.09,-1.73c-0.04,-0.19,-0.12,-0.33,-0.23,-0.42c-0.11,-0.09,-0.24,-0.13,-0.4,-0.13c-0.22,0,-0.53,0.09,-0.94,0.28l-0.13,-0.28m7.83,5.04c0,-1.41,0.21,-2.62,0.63,-3.64c0.42,-1.01,0.99,-1.77,1.69,-2.27c0.54,-0.39,1.11,-0.59,1.69,-0.59c0.94,0,1.8,0.48,2.55,1.45c0.94,1.19,1.41,2.82,1.41,4.87c0,1.43,-0.2,2.65,-0.62,3.66c-0.41,1,-0.94,1.73,-1.58,2.18c-0.64,0.45,-1.26,0.68,-1.85,0.68c-1.18,0,-2.16,-0.69,-2.94,-2.09c-0.66,-1.17,-0.99,-2.59,-0.99,-4.24m1.78,0.22c0,1.7,0.21,3.09,0.63,4.17c0.34,0.9,0.86,1.36,1.55,1.36c0.32,0,0.66,-0.14,1.02,-0.44c0.35,-0.29,0.62,-0.78,0.8,-1.48c0.28,-1.04,0.42,-2.52,0.42,-4.42c0,-1.41,-0.14,-2.59,-0.43,-3.53c-0.21,-0.7,-0.5,-1.19,-0.84,-1.48c-0.24,-0.2,-0.55,-0.3,-0.9,-0.3c-0.41,0,-0.78,0.18,-1.1,0.55c-0.43,0.5,-0.73,1.29,-0.89,2.38c-0.15,1.08,-0.23,2.15,-0.23,3.2" fill="#000000" stroke="none" fill-opacity="1"/>
</g>
<g fill="none" stroke-linecap="butt" stroke-width="0.66">
<path d="M64.25,7.55l495.11,0"/>
<path d="M64.25,7.55l0,4M182.55,7.55l0,4M274.32,7.55l0,4M349.29,7.55l0,4M412.69,7.55l0,4M467.6,7.55l0,4M516.04,7.55l0,4"/>
<path d="M64.25,7.55l0,8M182.55,7.55l0,8M274.32,7.55l0,8M349.29,7.55l0,8M412.69,7.55l0,8M467.6,7.55l0,8M516.04,7.55l0,8M559.37,7.55l0,8"/>
</g>
</g>
</g>
</svg>
