<?xml version="1.0" standalone="no"?>
<!DOCTYPE svg PUBLIC "-//W3C//DTD SVG 1.1//EN"
  "http://www.w3.org/Graphics/SVG/1.1/DTD/svg11.dtd">
<svg width="566.92px" height="340.15px" version="1.1"
    xmlns="http://www.w3.org/2000/svg"
    xmlns:xlink="http://www.w3.org/1999/xlink">
<desc>Veusz output document</desc>
<defs>
<clipPath id="c0">
<path d="m0,0l566.92,0l0,340.15l-566.92,0l0,-340.15"/>
</clipPath>
<clipPath id="c1">
<path d="m64.25,7.55l495.11,0l0,268.34l-495.11,0l0,-268.34"/>
</clipPath>
</defs>
<g stroke-linejoin="bevel" stroke-linecap="square" stroke="#000000" fill-rule="evenodd">
<g clip-path="url(#c0)">
<g fill="#ffffff" stroke-width="0.66">
<path d="m64.25,7.55l495.11,0l0,268.34l-495.11,0l0,-268.34"/>
</g>
<g fill="#000000" stroke-dasharray="5.33,2.66" stroke-linecap="butt" stroke-width="1.33">
<g transform="translate(64.25,175.27)">
<path d="M0,0l1156.97,0"/>
</g>
</g>
</g>
<g clip-path="url(#c1)">
<g fill="none" stroke="#ff0000" stroke-width="1.33">
<polyline fill="none" points="73.73,170.11 77.05,170.11 77.05,191.03 80.38,191.03 83.65,191.03 83.65,169.35 86.91,169.35 90.13,169.35 90.13,159.85 93.35,159.85 96.52,159.85 96.52,152.84 99.69,152.84 102.81,152.84 102.81,162.28 105.93,162.28 109,162.28 109,146.35 112.07,146.35 115.1,146.35 115.1,147.51 118.13,147.51 121.12,147.51 121.12,158.33 124.1,158.33 127.04,158.33 127.04,156.12 129.98,156.12 132.88,156.12 132.88,153.82 135.78,153.82 138.64,153.82 138.64,151.64 141.5,151.64 144.32,151.64 144.32,146.64 147.14,146.64 149.93,146.64 149.93,145.67 152.71,145.67 155.45,145.67 155.45,148.63 158.2,148.63 160.91,148.63 160.91,130.78 163.62,130.78 166.29,130.78 166.29,161.56 168.97,161.56 171.74,161.56 171.74,132.58 174.51,132.58 177.37,132.58 177.37,151.74 180.23,151.74 183.06,151.74 183.06,145.11 185.88,145.11 188.67,145.11 188.67,140.72 191.45,140.72 194.2,140.72 194.2,146.49 196.95,146.49 199.66,146.49 199.66,149.84 202.37,149.84 205.05,149.84 205.05,137.98 207.73,137.98 210.37,137.98 210.37,137.39 213.01,137.39 215.62,137.39 215.62,153.48 218.23,153.48 220.8,153.48 220.8,126.07 223.38,126.07 225.92,126.07 225.92,124.84 228.47,124.84 230.98,124.84 230.98,112.12 233.49,112.12 235.98,112.12 235.98,135 238.46,135 240.91,135 240.91,112.73 243.37,112.73 245.79,112.73 245.79,125.15 248.22,125.15 250.61,125.15 250.61,127.21 253.01,127.21 255.38,127.21 255.38,156.97 257.74,156.97 260.09,156.97 260.09,142.42 262.43,142.42 264.74,142.42 264.74,120.41 267.06,120.41 269.35,120.41 269.35,131.91 271.64,131.91 274,131.91 274,131.63 276.37,131.63 278.81,131.63 278.81,144.29 281.25,144.29 283.66,144.29 283.66,126.4 286.07,126.4 288.46,126.4 288.46,96.71 290.84,96.71 293.2,96.71 293.2,128.79 295.56,128.79 297.88,128.79 297.88,133.39 300.21,133.39 302.52,133.39 302.52,112.53 304.82,112.53 307.1,112.53 307.1,89.4 309.38,89.4 311.63,89.4 311.63,114.46 313.89,114.46 316.12,114.46 316.12,120.73 318.34,120.73 320.55,120.73 320.55,112.81 322.75,112.81 324.94,112.81 324.94,83.71 327.12,83.71 329.28,83.71 329.28,100.23 331.43,100.23 333.57,100.23 333.57,108.38 335.71,108.38 337.82,108.38 337.82,85.37 339.94,85.37 342.03,85.37 342.03,116.07 344.12,116.07 346.19,116.07 346.19,95.43 348.27,95.43 350.32,95.43 350.32,157.41 352.37,157.41 354.4,157.41 354.4,105.83 356.43,105.83 358.44,105.83 358.44,93.98 360.45,93.98 362.44,93.98 362.44,128.94 364.43,128.94 366.49,128.94 366.49,115.6 368.54,115.6 370.66,115.6 370.66,119.16 372.77,119.16 374.87,119.16 374.87,83.61 376.96,83.61 379.03,83.61 379.03,37.18 381.1,37.18 383.15,37.18 383.15,82.48 385.21,82.48 387.24,82.48 387.24,34.58 389.27,34.58 391.28,34.58 391.28,112.17 393.29,112.17 395.28,112.17 395.28,75.21 397.27,75.21 399.25,75.21 399.25,97.9 401.22,97.9 403.17,97.9 403.17,112.44 405.13,112.44 407.06,112.44 407.06,78.85 409,78.85 410.92,78.85 410.92,129.83 412.83,129.83 414.73,129.83 414.73,135.89 416.63,135.89 418.52,135.89 418.52,133.85 420.4,133.85 422.26,133.85 422.26,121.62 424.13,121.62 425.98,121.62 425.98,172.81 427.83,172.81 429.66,172.81 429.66,213.86 431.49,213.86 433.31,213.86 433.31,164.63 435.12,164.63 436.92,164.63 436.92,171.31 438.72,171.31 440.51,171.31 440.51,195.76 442.29,195.76 444.13,195.76 444.13,163.53 445.97,163.53 447.85,163.53 447.85,164.48 449.74,164.48 451.61,164.48 451.61,196.88 453.48,196.88 455.34,196.88 455.34,225 457.19,225 459.03,225 459.03,182.56 460.86,182.56 462.68,182.56 462.68,179.48 464.5,179.48 466.31,179.48 466.31,122.99 468.11,122.99 469.9,122.99 469.9,199.89 471.69,199.89 473.47,199.89 473.47,175.06 475.24,175.06 477,175.06 477,164.78 478.76,164.78 480.5,164.78 480.5,169.25 482.24,169.25 483.97,169.25 483.97,219.18 485.7,219.18 487.42,219.18 487.42,137.06 489.13,137.06 490.83,137.06 490.83,174.13 492.53,174.13 494.22,174.13 494.22,212.67 495.9,212.67 497.58,212.67 497.58,185.09 499.25,185.09 500.91,185.09 500.91,178.46 502.57,178.46 504.21,178.46 504.21,164.3 505.86,164.3 507.49,164.3 507.49,181.78 509.13,181.78 510.75,181.78 510.75,123.72 512.37,123.72 514.03,123.72 514.03,183 515.69,183 517.4,183 517.4,203.19 519.11,203.19 520.8,203.19 520.8,186.93 522.5,186.93 524.18,186.93 524.18,150.41 525.86,150.41 527.52,150.41 527.52,152.3 529.19,152.3 530.84,152.3 530.84,221.57 532.5,221.57 534.14,221.57 534.14,227.25 535.77,227.25 537.4,227.25 537.4,158.55 539.03,158.55 540.7,158.55 540.7,194.33 542.36,194.33 544.02,194.33 544.02,183.77 545.67,183.77 547.31,183.77 547.31,132.15 548.95,132.15 550.63,132.15 550.63,185.01 552.31,185.01 553.93,185.01 553.93,211.02 555.54,211.02"/>
</g>
<g fill="none" stroke="#ff0000" stroke-linecap="butt" stroke-width="0.66">
<path d="M73.73,180.37l0,-20.5M80.38,201.29l0,-20.5M86.91,179.95l0,-21.19M93.35,170.7l0,-21.7M99.69,163.91l0,-22.13M105.93,173.42l0,-22.28M112.07,157.76l0,-22.83M118.13,159.07l0,-23.12M124.1,169.96l0,-23.25M129.98,167.91l0,-23.57M135.78,165.76l0,-23.87M141.5,163.72l0,-24.16M147.14,158.89l0,-24.51M152.71,158.07l0,-24.8M158.2,161.15l0,-25.04M163.62,143.61l0,-25.67M168.97,174.27l0,-25.42M174.51,145.08l0,-25.01M180.23,164.24l0,-24.99M185.88,157.82l0,-25.41M191.45,153.62l0,-25.79M196.95,159.49l0,-26.01M202.37,162.97l0,-26.26M207.73,151.38l0,-26.78M213.01,150.95l0,-27.11M218.23,167.05l0,-27.14M223.38,140.07l0,-27.99M228.47,139.01l0,-28.34M233.49,126.58l0,-28.91M238.46,149.41l0,-28.81M243.37,127.53l0,-29.58M248.22,139.99l0,-29.66M253.01,142.18l0,-29.94M257.74,171.8l0,-29.65M262.43,157.57l0,-30.29M267.06,135.94l0,-31.07M271.64,147.49l0,-31.16M276.37,146.72l0,-30.18M281.25,159.45l0,-30.31M286.07,141.94l0,-31.08M290.84,112.76l0,-32.1M295.56,144.69l0,-31.81M300.21,149.43l0,-32.08M304.82,128.97l0,-32.89M309.38,106.27l0,-33.74M313.89,131.26l0,-33.58M318.34,137.66l0,-33.85M322.75,130.04l0,-34.47M327.12,101.5l0,-35.56M331.43,118.03l0,-35.6M335.71,126.3l0,-35.85M339.94,103.8l0,-36.86M344.12,134.36l0,-36.57M348.27,114.19l0,-37.52M352.37,175.62l0,-36.4M356.43,124.89l0,-38.1M360.45,113.32l0,-38.67M364.43,147.8l0,-37.71M368.54,133.65l0,-36.1M372.77,137.14l0,-35.96M376.96,102.54l0,-37.85M381.1,57.46l0,-40.55M385.21,102.78l0,-40.6M389.27,55.94l0,-42.71M393.29,132.85l0,-41.36M397.27,96.75l0,-43.07M401.22,119.49l0,-43.18M405.13,134.21l0,-43.52M409,101.45l0,-45.19M412.83,152.03l0,-44.39M416.63,158.37l0,-44.95M420.4,156.75l0,-45.79M424.13,145.11l0,-46.98M427.83,195.89l0,-46.16M431.49,236.68l0,-45.65M435.12,188.76l0,-48.25M438.72,195.75l0,-48.88M442.29,220.17l0,-48.82M445.97,188.05l0,-49.03M449.74,189.45l0,-49.93M453.48,221.76l0,-49.75M457.19,249.81l0,-49.62M460.86,208.71l0,-52.3M464.5,206.18l0,-53.41M468.11,151.28l0,-56.58M471.69,227.16l0,-54.54M475.24,203.4l0,-56.67M478.76,193.95l0,-58.34M482.24,198.92l0,-59.33M485.7,248.3l0,-58.24M489.13,168.51l0,-62.9M492.53,205.38l0,-62.49M495.9,243.62l0,-61.9M499.25,217.31l0,-64.44M502.57,211.47l0,-66.01M505.86,198.37l0,-68.14M509.13,216.05l0,-68.54M512.37,160.1l0,-72.74M515.69,217.36l0,-68.71M519.11,237.77l0,-69.14M522.5,222.64l0,-71.42M525.86,187.77l0,-74.71M529.19,190.36l0,-76.12M532.5,258.54l0,-73.93M535.77,264.95l0,-75.41M539.03,199.26l0,-81.41M542.36,233.66l0,-78.65M545.67,225.86l0,-84.19M548.95,175.37l0,-86.43M552.31,227.77l0,-85.52M555.54,255.52l0,-88.99"/>
</g>
<g fill="none" stroke="#008000" stroke-dasharray="8,4" stroke-width="2">
<polyline fill="none" points="73.73,175.2 80.38,175.19 86.91,175.17 93.35,175.12 99.69,174.95 105.93,174.53 112.07,173.94 118.13,173.52 124.1,173.38 129.98,173.32 135.78,173.23 141.5,173.1 147.14,172.94 152.71,172.76 158.2,172.56 163.62,172.35 168.97,172.12 174.51,171.87 180.23,171.59 185.88,171.29 191.45,170.99 196.95,170.68 202.37,170.35 207.73,170.01 213.01,169.65 218.23,169.27 223.38,168.89 228.47,168.48 233.49,168.06 238.46,167.62 243.37,167.16 248.22,166.69 253.01,166.2 257.74,165.71 262.43,165.21 267.06,164.69 271.64,164.15 276.37,163.57 281.25,162.94 286.07,162.28 290.84,161.61 295.56,160.94 300.21,160.26 304.82,159.56 309.38,158.82 313.89,158.03 318.34,157.2 322.75,156.34 327.12,155.45 331.43,154.59 335.71,153.82 339.94,153.14 344.12,152.48 348.27,151.7 352.37,150.76 356.43,149.71 360.45,148.68 364.43,147.98 368.54,147.66 372.77,146.57 376.96,143.38 381.1,138.76 385.21,133.86 389.27,128.33 393.29,121.22 397.27,111.92 401.22,101 405.13,91.39 409,88.36 412.83,97.8 416.63,120.94 420.4,147.54 424.13,165.05 427.83,172.34 431.49,174.56 435.12,175.13 438.72,175.25 442.29,175.27 445.97,175.27 449.74,175.27 453.48,175.27 457.19,175.27 460.86,175.27 464.5,175.27 468.11,175.27 471.69,175.27 475.24,175.27 478.76,175.27 482.24,175.27 485.7,175.27 489.13,175.27 492.53,175.27 495.9,175.27 499.25,175.27 502.57,175.27 505.86,175.27 509.13,175.27 512.37,175.27 515.69,175.27 519.11,175.27 522.5,175.27 525.86,175.27 529.19,175.27 532.5,175.27 535.77,175.27 539.03,175.27 542.36,175.27 545.67,175.27 548.95,175.27 552.31,175.27 555.54,175.27"/>
</g>
<g fill="none" stroke="#0000ff" stroke-width="2">
<polyline fill="none" points="73.73,165.11 80.38,164.23 86.91,163.21 93.35,162.05 99.69,160.85 105.93,159.77 112.07,158.86 118.13,158.03 124.1,157.22 129.98,156.4 135.78,155.55 141.5,154.68 147.14,153.79 152.71,152.89 158.2,151.96 163.62,151.01 168.97,150.04 174.51,149 180.23,147.89 185.88,146.74 191.45,145.58 196.95,144.39 202.37,143.18 207.73,141.94 213.01,140.68 218.23,139.39 223.38,138.08 228.47,136.76 233.49,135.44 238.46,134.09 243.37,132.72 248.22,131.34 253.01,129.95 257.74,128.55 262.43,127.14 267.06,125.72 271.64,124.3 276.37,122.81 281.25,121.25 286.07,119.7 290.84,118.16 295.56,116.64 300.21,115.13 304.82,113.63 309.38,112.14 313.89,110.65 318.34,109.19 322.75,107.75 327.12,106.36 331.43,105.06 335.71,103.91 339.94,102.94 344.12,102.09 348.27,101.24 352.37,100.42 356.43,99.74 360.45,99.6 364.43,100.82 368.54,103.6 372.77,104.96 376.96,102.08 381.1,97.44 385.21,94.25 389.27,92.32 393.29,90.69 397.27,89.18 401.22,88.36 405.13,89.45 409,95.54 412.83,111.23 416.63,135.35 420.4,157.27 424.13,169.29 427.83,173.67 431.49,174.9 435.12,175.2 438.72,175.26 442.29,175.27 445.97,175.27 449.74,175.27 453.48,175.27 457.19,175.27 460.86,175.27 464.5,175.27 468.11,175.27 471.69,175.27 475.24,175.27 478.76,175.27 482.24,175.27 485.7,175.27 489.13,175.27 492.53,175.27 495.9,175.27 499.25,175.27 502.57,175.27 505.86,175.27 509.13,175.27 512.37,175.27 515.69,175.27 519.11,175.27 522.5,175.27 525.86,175.27 529.19,175.27 532.5,175.27 535.77,175.27 539.03,175.27 542.36,175.27 545.67,175.27 548.95,175.27 552.31,175.27 555.54,175.27"/>
</g>
</g>
<g clip-path="url(#c0)">
<g fill="none" stroke-linecap="butt" stroke-width="0.66">
<path d="M64.25,275.9l0,-268.34"/>
<path d="M64.25,269.19l4,0M64.25,255.77l4,0M64.25,242.36l4,0M64.25,228.94l4,0M64.25,215.52l4,0M64.25,202.11l4,0M64.25,188.69l4,0M64.25,175.27l4,0M64.25,161.85l4,0M64.25,148.44l4,0M64.25,135.02l4,0M64.25,121.6l4,0M64.25,108.18l4,0M64.25,94.77l4,0M64.25,81.35l4,0M64.25,67.93l4,0M64.25,54.51l4,0M64.25,41.1l4,0M64.25,27.68l4,0M64.25,14.26l4,0"/>
<path d="M64.25,242.36l8,0M64.25,175.27l8,0M64.25,108.18l8,0M64.25,41.1l8,0"/>
</g>
<g fill="none" stroke-width="0.1">
<g transform="matrix(0 -1 1 0 22.32 190.02)">
<path d="m0.31,0l0,-0.33l0.46,0c0.52,0,0.89,-0.16,1.11,-0.5c0.13,-0.2,0.2,-0.65,0.2,-1.35l0,-7.99c0,-0.77,-0.08,-1.25,-0.25,-1.45c-0.23,-0.26,-0.59,-0.4,-1.05,-0.4l-0.46,0l0,-0.33l5.04,0c1.85,0,3.25,0.21,4.22,0.63c0.96,0.42,1.74,1.12,2.32,2.1c0.58,0.98,0.88,2.11,0.88,3.39c0,1.72,-0.52,3.16,-1.57,4.31c-1.17,1.29,-2.96,1.93,-5.36,1.93l-5.53,0m3.53,-0.89c0.77,0.17,1.42,0.25,1.94,0.25c1.41,0,2.58,-0.49,3.51,-1.48c0.93,-0.99,1.39,-2.33,1.39,-4.03c0,-1.71,-0.46,-3.05,-1.39,-4.04c-0.93,-0.98,-2.12,-1.47,-3.58,-1.47c-0.54,0,-1.17,0.08,-1.87,0.26l0,10.52m14.97,-0.31c-0.85,0.66,-1.39,1.04,-1.61,1.15c-0.32,0.15,-0.67,0.22,-1.05,0.22c-0.57,0,-1.05,-0.19,-1.42,-0.59c-0.37,-0.39,-0.56,-0.91,-0.56,-1.56c0,-0.4,0.09,-0.76,0.27,-1.05c0.24,-0.41,0.68,-0.8,1.3,-1.16c0.61,-0.36,1.64,-0.8,3.08,-1.33l0,-0.32c0,-0.83,-0.13,-1.4,-0.39,-1.71c-0.26,-0.31,-0.64,-0.46,-1.15,-0.46c-0.38,0,-0.68,0.1,-0.91,0.31c-0.23,0.2,-0.34,0.44,-0.34,0.71l0.01,0.52c0,0.28,-0.07,0.49,-0.21,0.64c-0.14,0.15,-0.33,0.22,-0.56,0.22c-0.22,0,-0.4,-0.07,-0.55,-0.23c-0.14,-0.15,-0.21,-0.37,-0.21,-0.64c0,-0.52,0.26,-1,0.8,-1.44c0.53,-0.43,1.28,-0.65,2.25,-0.65c0.74,0,1.35,0.12,1.82,0.37c0.35,0.18,0.62,0.48,0.79,0.88c0.1,0.26,0.16,0.79,0.16,1.6l0,2.83c0,0.79,0.01,1.28,0.04,1.46c0.03,0.17,0.08,0.29,0.15,0.36c0.07,0.06,0.15,0.09,0.24,0.09c0.09,0,0.18,-0.02,0.25,-0.06c0.12,-0.07,0.37,-0.3,0.73,-0.66l0,0.51c-0.68,0.91,-1.33,1.36,-1.95,1.36c-0.29,0,-0.53,-0.1,-0.71,-0.31c-0.17,-0.2,-0.26,-0.56,-0.27,-1.05m0,-0.59l0,-3.18c-0.91,0.36,-1.51,0.62,-1.78,0.77c-0.48,0.26,-0.82,0.54,-1.03,0.84c-0.2,0.29,-0.31,0.61,-0.31,0.95c0,0.43,0.13,0.8,0.39,1.09c0.26,0.28,0.56,0.43,0.9,0.43c0.46,0,1.07,-0.3,1.82,-0.91m5.98,-9.31l0,2.74l1.95,0l0,0.63l-1.95,0l0,5.42c0,0.54,0.07,0.9,0.23,1.09c0.15,0.18,0.35,0.28,0.59,0.28c0.2,0,0.39,-0.06,0.58,-0.18c0.18,-0.12,0.33,-0.3,0.43,-0.55l0.35,0c-0.21,0.59,-0.51,1.04,-0.9,1.34c-0.38,0.3,-0.79,0.45,-1.2,0.45c-0.28,0,-0.55,-0.07,-0.82,-0.23c-0.26,-0.15,-0.46,-0.37,-0.59,-0.66c-0.12,-0.28,-0.19,-0.73,-0.19,-1.33l0,-5.62l-1.32,0l0,-0.3c0.33,-0.13,0.67,-0.36,1.02,-0.68c0.35,-0.31,0.66,-0.69,0.93,-1.13c0.14,-0.23,0.33,-0.65,0.58,-1.26l0.28,0m7.5,9.9c-0.85,0.66,-1.39,1.04,-1.61,1.15c-0.32,0.15,-0.67,0.22,-1.05,0.22c-0.57,0,-1.05,-0.19,-1.42,-0.59c-0.37,-0.39,-0.56,-0.91,-0.56,-1.56c0,-0.4,0.09,-0.76,0.27,-1.05c0.24,-0.41,0.68,-0.8,1.3,-1.16c0.61,-0.36,1.64,-0.8,3.08,-1.33l0,-0.32c0,-0.83,-0.13,-1.4,-0.39,-1.71c-0.26,-0.31,-0.64,-0.46,-1.15,-0.46c-0.38,0,-0.68,0.1,-0.91,0.31c-0.23,0.2,-0.34,0.44,-0.34,0.71l0.01,0.52c0,0.28,-0.07,0.49,-0.21,0.64c-0.14,0.15,-0.33,0.22,-0.56,0.22c-0.22,0,-0.4,-0.07,-0.55,-0.23c-0.14,-0.15,-0.21,-0.37,-0.21,-0.64c0,-0.52,0.26,-1,0.8,-1.44c0.53,-0.43,1.28,-0.65,2.25,-0.65c0.74,0,1.35,0.12,1.82,0.37c0.35,0.18,0.62,0.48,0.79,0.88c0.1,0.26,0.16,0.79,0.16,1.6l0,2.83c0,0.79,0.01,1.28,0.04,1.46c0.03,0.17,0.08,0.29,0.15,0.36c0.07,0.06,0.15,0.09,0.24,0.09c0.09,0,0.18,-0.02,0.25,-0.06c0.12,-0.07,0.37,-0.3,0.73,-0.66l0,0.51c-0.68,0.91,-1.33,1.36,-1.95,1.36c-0.29,0,-0.53,-0.1,-0.71,-0.31c-0.17,-0.2,-0.26,-0.56,-0.27,-1.05m0,-0.59l0,-3.18c-0.91,0.36,-1.51,0.62,-1.78,0.77c-0.48,0.26,-0.82,0.54,-1.03,0.84c-0.2,0.29,-0.31,0.61,-0.31,0.95c0,0.43,0.13,0.8,0.39,1.09c0.26,0.28,0.56,0.43,0.9,0.43c0.46,0,1.07,-0.3,1.82,-0.91m12.89,-11.18l-4.48,13.23l-0.73,0l4.48,-13.23l0.73,0m7.69,6.15c0.6,-0.6,0.96,-0.95,1.07,-1.05c0.27,-0.23,0.56,-0.41,0.88,-0.53c0.31,-0.12,0.63,-0.19,0.94,-0.19c0.52,0,0.97,0.15,1.35,0.45c0.37,0.3,0.63,0.74,0.75,1.32c0.62,-0.73,1.15,-1.2,1.58,-1.43c0.43,-0.22,0.87,-0.34,1.33,-0.34c0.44,0,0.83,0.11,1.18,0.34c0.34,0.22,0.61,0.6,0.81,1.11c0.13,0.35,0.2,0.9,0.2,1.66l0,3.59c0,0.52,0.03,0.88,0.11,1.07c0.06,0.13,0.17,0.24,0.33,0.34c0.16,0.09,0.43,0.14,0.8,0.14l0,0.32l-4.12,0l0,-0.32l0.17,0c0.35,0,0.63,-0.07,0.84,-0.21c0.14,-0.09,0.24,-0.25,0.3,-0.46c0.02,-0.1,0.03,-0.39,0.03,-0.88l0,-3.59c0,-0.68,-0.08,-1.16,-0.24,-1.44c-0.23,-0.38,-0.61,-0.58,-1.14,-0.58c-0.32,0,-0.64,0.08,-0.97,0.24c-0.32,0.16,-0.71,0.46,-1.18,0.89l-0.01,0.1l0.01,0.39l0,3.99c0,0.57,0.03,0.92,0.09,1.06c0.06,0.14,0.18,0.25,0.36,0.35c0.17,0.09,0.47,0.14,0.9,0.14l0,0.32l-4.22,0l0,-0.32c0.46,0,0.78,-0.05,0.95,-0.16c0.17,-0.1,0.29,-0.27,0.36,-0.49c0.03,-0.1,0.04,-0.4,0.04,-0.9l0,-3.59c0,-0.68,-0.1,-1.17,-0.3,-1.47c-0.26,-0.38,-0.64,-0.58,-1.12,-0.58c-0.32,0,-0.65,0.08,-0.97,0.26c-0.5,0.26,-0.89,0.56,-1.16,0.9l0,4.48c0,0.54,0.03,0.9,0.11,1.06c0.07,0.16,0.18,0.28,0.33,0.36c0.14,0.08,0.45,0.12,0.9,0.12l0,0.32l-4.13,0l0,-0.32c0.38,0,0.65,-0.04,0.8,-0.12c0.15,-0.08,0.26,-0.21,0.34,-0.39c0.07,-0.17,0.11,-0.52,0.11,-1.04l0,-3.19c0,-0.91,-0.02,-1.51,-0.08,-1.78c-0.04,-0.2,-0.1,-0.33,-0.2,-0.41c-0.09,-0.07,-0.21,-0.11,-0.37,-0.11c-0.17,0,-0.37,0.04,-0.61,0.13l-0.13,-0.32l2.52,-1.02l0.39,0l0,1.78m16.15,-1.78c1.26,0,2.28,0.48,3.04,1.44c0.65,0.82,0.97,1.76,0.97,2.83c0,0.74,-0.17,1.5,-0.53,2.27c-0.35,0.76,-0.85,1.34,-1.48,1.73c-0.63,0.38,-1.33,0.58,-2.1,0.58c-1.26,0,-2.26,-0.5,-3,-1.5c-0.62,-0.84,-0.94,-1.79,-0.94,-2.84c0,-0.76,0.19,-1.52,0.57,-2.28c0.38,-0.75,0.88,-1.31,1.5,-1.68c0.62,-0.36,1.27,-0.54,1.97,-0.54m-0.28,0.59c-0.32,0,-0.64,0.09,-0.97,0.28c-0.32,0.19,-0.58,0.52,-0.78,1c-0.2,0.48,-0.3,1.09,-0.3,1.85c0,1.21,0.24,2.26,0.72,3.15c0.48,0.88,1.12,1.32,1.91,1.32c0.59,0,1.07,-0.24,1.46,-0.73c0.38,-0.48,0.57,-1.32,0.57,-2.51c0,-1.48,-0.31,-2.65,-0.95,-3.5c-0.43,-0.58,-0.98,-0.87,-1.65,-0.87m11.45,7.07c-0.4,0.42,-0.8,0.73,-1.19,0.91c-0.38,0.18,-0.8,0.27,-1.26,0.27c-0.91,0,-1.71,-0.38,-2.39,-1.14c-0.68,-0.76,-1.02,-1.74,-1.02,-2.94c0,-1.19,0.37,-2.29,1.13,-3.29c0.75,-0.99,1.72,-1.49,2.91,-1.49c0.73,0,1.34,0.23,1.82,0.7l0,-1.54c0,-0.95,-0.02,-1.54,-0.06,-1.76c-0.04,-0.21,-0.11,-0.36,-0.21,-0.44c-0.09,-0.07,-0.21,-0.11,-0.36,-0.11c-0.15,0,-0.36,0.04,-0.63,0.14l-0.11,-0.31l2.49,-1.02l0.41,0l0,9.66c0,0.98,0.02,1.57,0.06,1.79c0.04,0.21,0.11,0.36,0.21,0.45c0.1,0.08,0.21,0.12,0.35,0.12c0.16,0,0.38,-0.05,0.65,-0.15l0.1,0.31l-2.48,1.03l-0.42,0l0,-1.19m0,-0.63l0,-4.3c-0.03,-0.41,-0.14,-0.79,-0.32,-1.13c-0.18,-0.34,-0.42,-0.59,-0.72,-0.77c-0.3,-0.17,-0.59,-0.26,-0.88,-0.26c-0.53,0,-1.01,0.24,-1.43,0.72c-0.55,0.63,-0.83,1.55,-0.83,2.77c0,1.22,0.26,2.17,0.8,2.82c0.53,0.65,1.13,0.98,1.78,0.98c0.55,0,1.08,-0.27,1.6,-0.83m4.84,-3.63c0,1.24,0.29,2.21,0.9,2.92c0.6,0.7,1.32,1.05,2.14,1.05c0.54,0,1.02,-0.15,1.42,-0.45c0.4,-0.3,0.74,-0.81,1.01,-1.54l0.28,0.18c-0.12,0.83,-0.49,1.59,-1.11,2.27c-0.61,0.68,-1.38,1.02,-2.31,1.02c-1,0,-1.86,-0.39,-2.57,-1.17c-0.71,-0.78,-1.07,-1.83,-1.07,-3.15c0,-1.43,0.36,-2.54,1.1,-3.34c0.73,-0.8,1.65,-1.2,2.76,-1.2c0.93,0,1.7,0.3,2.31,0.92c0.6,0.61,0.9,1.44,0.9,2.47l-5.77,0m0,-0.52l3.87,0c-0.03,-0.53,-0.09,-0.91,-0.19,-1.13c-0.15,-0.34,-0.37,-0.6,-0.68,-0.8c-0.3,-0.19,-0.61,-0.29,-0.94,-0.29c-0.5,0,-0.95,0.19,-1.35,0.58c-0.39,0.39,-0.63,0.93,-0.69,1.63m9.76,-7.24l0,11.09c0,0.52,0.03,0.87,0.11,1.04c0.07,0.17,0.19,0.29,0.35,0.38c0.15,0.08,0.45,0.13,0.88,0.13l0,0.32l-4.09,0l0,-0.32c0.38,0,0.64,-0.03,0.78,-0.11c0.14,-0.07,0.24,-0.21,0.32,-0.39c0.07,-0.18,0.11,-0.53,0.11,-1.05l0,-7.59c0,-0.94,-0.02,-1.52,-0.06,-1.73c-0.04,-0.21,-0.11,-0.36,-0.2,-0.44c-0.09,-0.07,-0.21,-0.11,-0.36,-0.11c-0.15,0,-0.35,0.04,-0.6,0.14l-0.15,-0.31l2.49,-1.02l0.41,0" fill="#000000" stroke="none" fill-opacity="1"/>
</g>
<path d="m36.71,242.67c0,-1.41,0.21,-2.62,0.63,-3.64c0.42,-1.01,0.99,-1.77,1.69,-2.27c0.54,-0.39,1.11,-0.59,1.69,-0.59c0.94,0,1.8,0.48,2.55,1.45c0.94,1.19,1.41,2.82,1.41,4.87c0,1.43,-0.2,2.65,-0.62,3.66c-0.41,1,-0.94,1.73,-1.58,2.18c-0.64,0.45,-1.26,0.68,-1.85,0.68c-1.18,0,-2.16,-0.69,-2.94,-2.09c-0.66,-1.17,-0.99,-2.59,-0.99,-4.24m1.78,0.22c0,1.7,0.21,3.09,0.63,4.17c0.34,0.9,0.86,1.36,1.55,1.36c0.32,0,0.66,-0.14,1.02,-0.44c0.35,-0.29,0.62,-0.78,0.8,-1.48c0.28,-1.04,0.42,-2.52,0.42,-4.42c0,-1.41,-0.14,-2.59,-0.43,-3.53c-0.21,-0.7,-0.5,-1.19,-0.84,-1.48c-0.24,-0.2,-0.55,-0.3,-0.9,-0.3c-0.41,0,-0.78,0.18,-1.1,0.55c-0.43,0.5,-0.73,1.29,-0.89,2.38c-0.15,1.08,-0.23,2.15,-0.23,3.2m9.22,4.11c0.28,0,0.52,0.09,0.72,0.29c0.19,0.19,0.29,0.43,0.29,0.71c0,0.28,-0.09,0.51,-0.29,0.71c-0.19,0.19,-0.43,0.29,-0.71,0.29c-0.28,0,-0.51,-0.09,-0.71,-0.29c-0.19,-0.19,-0.29,-0.43,-0.29,-0.71c0,-0.28,0.09,-0.52,0.29,-0.72c0.19,-0.19,0.43,-0.29,0.71,-0.29m3.32,2.02l0,-0.33c0.79,-0.01,1.52,-0.19,2.2,-0.55c0.68,-0.35,1.34,-0.97,1.97,-1.86c0.63,-0.88,1.07,-1.86,1.32,-2.93c-0.95,0.61,-1.82,0.92,-2.59,0.92c-0.87,0,-1.61,-0.33,-2.23,-1c-0.62,-0.67,-0.93,-1.56,-0.93,-2.67c0,-1.08,0.31,-2.04,0.93,-2.89c0.74,-1.02,1.72,-1.54,2.93,-1.54c1.01,0,1.88,0.42,2.61,1.26c0.88,1.04,1.33,2.32,1.33,3.85c0,1.37,-0.33,2.65,-1.01,3.84c-0.67,1.19,-1.61,2.17,-2.82,2.96c-0.98,0.64,-2.04,0.96,-3.2,0.96l-0.52,0m5.66,-6.36c0.1,-0.79,0.16,-1.42,0.16,-1.89c0,-0.59,-0.1,-1.22,-0.3,-1.91c-0.2,-0.68,-0.48,-1.2,-0.85,-1.57c-0.36,-0.36,-0.78,-0.54,-1.25,-0.54c-0.54,0,-1.01,0.24,-1.42,0.73c-0.4,0.48,-0.61,1.21,-0.61,2.17c0,1.28,0.27,2.28,0.81,3.01c0.39,0.52,0.88,0.78,1.46,0.78c0.28,0,0.61,-0.06,0.99,-0.2c0.38,-0.13,0.72,-0.32,1.01,-0.56" fill="#000000" stroke="none" fill-opacity="1"/>
<path d="m52.25,170.53l3.01,-1.47l0.3,0l0,10.45c0,0.69,0.02,1.12,0.08,1.29c0.05,0.17,0.17,0.3,0.36,0.39c0.18,0.09,0.55,0.14,1.11,0.15l0,0.33l-4.65,0l0,-0.33c0.58,-0.01,0.96,-0.06,1.13,-0.15c0.17,-0.08,0.28,-0.2,0.35,-0.35c0.06,-0.14,0.1,-0.59,0.1,-1.33l0,-6.68c0,-0.9,-0.03,-1.47,-0.09,-1.73c-0.04,-0.19,-0.12,-0.33,-0.23,-0.42c-0.11,-0.09,-0.24,-0.13,-0.4,-0.13c-0.22,0,-0.53,0.09,-0.94,0.28l-0.13,-0.28" fill="#000000" stroke="none" fill-opacity="1"/>
<path d="m38.23,103.44l3.01,-1.47l0.3,0l0,10.45c0,0.69,0.02,1.12,0.08,1.29c0.05,0.17,0.17,0.3,0.36,0.39c0.18,0.09,0.55,0.14,1.11,0.15l0,0.33l-4.65,0l0,-0.33c0.58,-0.01,0.96,-0.06,1.13,-0.15c0.17,-0.08,0.28,-0.2,0.35,-0.35c0.06,-0.14,0.1,-0.59,0.1,-1.33l0,-6.68c0,-0.9,-0.03,-1.47,-0.09,-1.73c-0.04,-0.19,-0.12,-0.33,-0.23,-0.42c-0.11,-0.09,-0.24,-0.13,-0.4,-0.13c-0.22,0,-0.53,0.09,-0.94,0.28l-0.13,-0.28m9.49,9.39c0.28,0,0.52,0.09,0.72,0.29c0.19,0.19,0.29,0.43,0.29,0.71c0,0.28,-0.09,0.51,-0.29,0.71c-0.19,0.19,-0.43,0.29,-0.71,0.29c-0.28,0,-0.51,-0.09,-0.71,-0.29c-0.19,-0.19,-0.29,-0.43,-0.29,-0.71c0,-0.28,0.09,-0.52,0.29,-0.72c0.19,-0.19,0.43,-0.29,0.71,-0.29m4.52,-9.39l3.01,-1.47l0.3,0l0,10.45c0,0.69,0.02,1.12,0.08,1.29c0.05,0.17,0.17,0.3,0.36,0.39c0.18,0.09,0.55,0.14,1.11,0.15l0,0.33l-4.65,0l0,-0.33c0.58,-0.01,0.96,-0.06,1.13,-0.15c0.17,-0.08,0.28,-0.2,0.35,-0.35c0.06,-0.14,0.1,-0.59,0.1,-1.33l0,-6.68c0,-0.9,-0.03,-1.47,-0.09,-1.73c-0.04,-0.19,-0.12,-0.33,-0.23,-0.42c-0.11,-0.09,-0.24,-0.13,-0.4,-0.13c-0.22,0,-0.53,0.09,-0.94,0.28l-0.13,-0.28" fill="#000000" stroke="none" fill-opacity="1"/>
<path d="m38.23,36.36l3.01,-1.47l0.3,0l0,10.45c0,0.69,0.02,1.12,0.08,1.29c0.05,0.17,0.17,0.3,0.36,0.39c0.18,0.09,0.55,0.14,1.11,0.15l0,0.33l-4.65,0l0,-0.33c0.58,-0.01,0.96,-0.06,1.13,-0.15c0.17,-0.08,0.28,-0.2,0.35,-0.35c0.06,-0.14,0.1,-0.59,0.1,-1.33l0,-6.68c0,-0.9,-0.03,-1.47,-0.09,-1.73c-0.04,-0.19,-0.12,-0.33,-0.23,-0.42c-0.11,-0.09,-0.24,-0.13,-0.4,-0.13c-0.22,0,-0.53,0.09,-0.94,0.28l-0.13,-0.28m9.49,9.39c0.28,0,0.52,0.09,0.72,0.29c0.19,0.19,0.29,0.43,0.29,0.71c0,0.28,-0.09,0.51,-0.29,0.71c-0.19,0.19,-0.43,0.29,-0.71,0.29c-0.28,0,-0.51,-0.09,-0.71,-0.29c-0.19,-0.19,-0.29,-0.43,-0.29,-0.71c0,-0.28,0.09,-0.52,0.29,-0.72c0.19,-0.19,0.43,-0.29,0.71,-0.29m10.91,-0.61l-0.86,2.38l-7.3,0l0,-0.33c2.14,-1.96,3.66,-3.56,4.53,-4.8c0.87,-1.24,1.31,-2.37,1.31,-3.4c0,-0.78,-0.24,-1.43,-0.72,-1.93c-0.48,-0.5,-1.05,-0.75,-1.72,-0.75c-0.6,0,-1.15,0.17,-1.63,0.53c-0.48,0.35,-0.84,0.87,-1.07,1.56l-0.33,0c0.15,-1.12,0.54,-1.99,1.17,-2.59c0.63,-0.6,1.41,-0.9,2.36,-0.9c1,0,1.84,0.32,2.51,0.96c0.67,0.64,1,1.4,1,2.28c0,0.62,-0.14,1.25,-0.43,1.88c-0.45,0.98,-1.18,2.03,-2.19,3.13c-1.51,1.65,-2.46,2.65,-2.83,2.99l3.23,0c0.65,0,1.11,-0.02,1.38,-0.07c0.26,-0.04,0.5,-0.14,0.71,-0.29c0.21,-0.14,0.39,-0.36,0.55,-0.63l0.33,0" fill="#000000" stroke="none" fill-opacity="1"/>
</g>
<g fill="none" stroke-linecap="butt" stroke-width="0.66">
<path d="M559.37,275.9l0,-268.34"/>
<path d="M559.37,269.19l-4,0M559.37,255.77l-4,0M559.37,242.36l-4,0M559.37,228.94l-4,0M559.37,215.52l-4,0M559.37,202.11l-4,0M559.37,188.69l-4,0M559.37,175.27l-4,0M559.37,161.85l-4,0M559.37,148.44l-4,0M559.37,135.02l-4,0M559.37,121.6l-4,0M559.37,108.18l-4,0M559.37,94.77l-4,0M559.37,81.35l-4,0M559.37,67.93l-4,0M559.37,54.51l-4,0M559.37,41.1l-4,0M559.37,27.68l-4,0M559.37,14.26l-4,0"/>
<path d="M559.37,242.36l-8,0M559.37,175.27l-8,0M559.37,108.18l-8,0M559.37,41.1l-8,0"/>
<path d="M64.25,275.9l495.11,0"/>
<path d="M64.25,275.9l0,-4M182.55,275.9l0,-4M274.32,275.9l0,-4M349.29,275.9l0,-4M412.69,275.9l0,-4M467.6,275.9l0,-4M516.04,275.9l0,-4"/>
<path d="M64.25,275.9l0,-8M182.55,275.9l0,-8M274.32,275.9l0,-8M349.29,275.9l0,-8M412.69,275.9l0,-8M467.6,275.9l0,-8M516.04,275.9l0,-8M559.37,275.9l0,-8"/>
</g>
<g fill="none" stroke-width="0.1">
<path d="m264.57,312.03l0,4.89l2.72,0c0.7,0,1.17,-0.1,1.41,-0.31c0.31,-0.28,0.49,-0.77,0.52,-1.47l0.33,0l0,4.3l-0.33,0c-0.08,-0.6,-0.17,-0.98,-0.25,-1.15c-0.1,-0.21,-0.28,-0.38,-0.53,-0.5c-0.24,-0.12,-0.63,-0.18,-1.15,-0.18l-2.72,0l0,4.08c0,0.54,0.02,0.88,0.07,0.99c0.04,0.11,0.13,0.21,0.25,0.28c0.12,0.07,0.35,0.1,0.69,0.1l2.1,0c0.7,0,1.2,-0.04,1.52,-0.14c0.31,-0.09,0.62,-0.28,0.91,-0.57c0.37,-0.37,0.76,-0.94,1.15,-1.7l0.36,0l-1.06,3.1l-9.54,0l0,-0.33l0.43,0c0.29,0,0.56,-0.07,0.83,-0.21c0.19,-0.09,0.32,-0.24,0.39,-0.43c0.07,-0.19,0.1,-0.59,0.1,-1.19l0,-8.04c0,-0.78,-0.07,-1.26,-0.23,-1.45c-0.21,-0.24,-0.58,-0.36,-1.09,-0.36l-0.43,0l0,-0.33l9.54,0l0.13,2.71l-0.35,0c-0.12,-0.65,-0.26,-1.09,-0.42,-1.34c-0.15,-0.24,-0.38,-0.42,-0.68,-0.55c-0.24,-0.09,-0.67,-0.13,-1.28,-0.13l-3.39,0m10.53,4.86c0.98,-1.18,1.91,-1.77,2.8,-1.77c0.45,0,0.84,0.11,1.17,0.34c0.32,0.22,0.59,0.6,0.78,1.12c0.13,0.36,0.2,0.92,0.2,1.68l0,3.57c0,0.52,0.04,0.88,0.12,1.07c0.06,0.15,0.17,0.27,0.32,0.35c0.14,0.08,0.42,0.12,0.82,0.12l0,0.32l-4.13,0l0,-0.32l0.17,0c0.38,0,0.66,-0.05,0.81,-0.17c0.15,-0.11,0.26,-0.29,0.32,-0.52c0.02,-0.09,0.03,-0.37,0.03,-0.85l0,-3.42c0,-0.76,-0.09,-1.31,-0.29,-1.65c-0.19,-0.34,-0.53,-0.51,-0.99,-0.51c-0.72,0,-1.44,0.39,-2.16,1.18l0,4.41c0,0.56,0.03,0.91,0.1,1.05c0.08,0.17,0.2,0.3,0.35,0.38c0.14,0.08,0.45,0.12,0.9,0.12l0,0.32l-4.13,0l0,-0.32l0.18,0c0.42,0,0.71,-0.1,0.86,-0.32c0.14,-0.21,0.22,-0.62,0.22,-1.23l0,-3.1c0,-1,-0.02,-1.61,-0.06,-1.83c-0.04,-0.21,-0.11,-0.36,-0.21,-0.44c-0.09,-0.07,-0.22,-0.11,-0.37,-0.11c-0.17,0,-0.37,0.04,-0.61,0.13l-0.13,-0.32l2.52,-1.02l0.39,0l0,1.77m8.31,1.62c0,1.24,0.29,2.21,0.9,2.92c0.6,0.7,1.32,1.05,2.14,1.05c0.54,0,1.02,-0.15,1.42,-0.45c0.4,-0.3,0.74,-0.81,1.01,-1.54l0.28,0.18c-0.12,0.83,-0.49,1.59,-1.11,2.27c-0.61,0.68,-1.38,1.02,-2.31,1.02c-1,0,-1.86,-0.39,-2.57,-1.17c-0.71,-0.78,-1.07,-1.83,-1.07,-3.15c0,-1.43,0.36,-2.54,1.1,-3.34c0.73,-0.8,1.65,-1.2,2.76,-1.2c0.93,0,1.7,0.3,2.31,0.92c0.6,0.61,0.9,1.44,0.9,2.47l-5.77,0m0,-0.52l3.87,0c-0.03,-0.53,-0.09,-0.91,-0.19,-1.13c-0.15,-0.34,-0.37,-0.6,-0.68,-0.8c-0.3,-0.19,-0.61,-0.29,-0.94,-0.29c-0.5,0,-0.95,0.19,-1.35,0.58c-0.39,0.39,-0.63,0.93,-0.69,1.63m9.33,-2.86l0,1.88c0.7,-1.25,1.41,-1.88,2.15,-1.88c0.33,0,0.61,0.1,0.83,0.3c0.21,0.2,0.32,0.43,0.32,0.7c0,0.23,-0.07,0.43,-0.23,0.6c-0.15,0.16,-0.34,0.24,-0.56,0.24c-0.21,0,-0.45,-0.1,-0.71,-0.31c-0.26,-0.21,-0.46,-0.31,-0.58,-0.31c-0.1,0,-0.22,0.06,-0.35,0.18c-0.27,0.24,-0.55,0.66,-0.84,1.23l0,4c0,0.46,0.05,0.81,0.17,1.05c0.07,0.16,0.21,0.3,0.42,0.41c0.2,0.1,0.49,0.16,0.86,0.16l0,0.32l-4.28,0l0,-0.32c0.42,0,0.74,-0.06,0.94,-0.2c0.15,-0.09,0.25,-0.25,0.31,-0.46c0.03,-0.1,0.04,-0.39,0.04,-0.88l0,-3.24c0,-0.97,-0.01,-1.55,-0.05,-1.73c-0.03,-0.18,-0.11,-0.32,-0.21,-0.4c-0.1,-0.08,-0.23,-0.12,-0.39,-0.12c-0.18,0,-0.4,0.04,-0.63,0.13l-0.09,-0.32l2.52,-1.02l0.38,0m6.01,5.56c-0.51,-0.24,-0.9,-0.59,-1.17,-1.04c-0.27,-0.44,-0.41,-0.94,-0.41,-1.48c0,-0.82,0.31,-1.54,0.93,-2.13c0.62,-0.59,1.42,-0.89,2.39,-0.89c0.79,0,1.48,0.19,2.07,0.58l1.77,0c0.26,0,0.41,0,0.45,0.02c0.04,0.01,0.07,0.04,0.09,0.07c0.03,0.05,0.05,0.15,0.05,0.29c0,0.15,-0.01,0.26,-0.04,0.32c-0.01,0.03,-0.05,0.05,-0.09,0.07c-0.04,0.01,-0.19,0.02,-0.46,0.02l-1.08,0c0.34,0.43,0.51,0.99,0.51,1.68c0,0.77,-0.29,1.44,-0.89,1.99c-0.59,0.55,-1.39,0.83,-2.4,0.83c-0.41,0,-0.83,-0.06,-1.26,-0.18c-0.26,0.23,-0.44,0.43,-0.54,0.6c-0.09,0.17,-0.14,0.32,-0.14,0.44c0,0.1,0.05,0.2,0.15,0.3c0.1,0.09,0.29,0.16,0.58,0.21c0.17,0.02,0.59,0.04,1.27,0.06c1.25,0.03,2.06,0.07,2.43,0.12c0.56,0.07,1.01,0.28,1.35,0.63c0.33,0.34,0.5,0.76,0.5,1.26c0,0.68,-0.32,1.33,-0.96,1.93c-0.94,0.88,-2.18,1.33,-3.71,1.33c-1.17,0,-2.16,-0.26,-2.97,-0.79c-0.45,-0.3,-0.68,-0.62,-0.68,-0.94c0,-0.14,0.03,-0.29,0.1,-0.43c0.1,-0.22,0.31,-0.53,0.63,-0.94c0.04,-0.05,0.35,-0.38,0.93,-0.98c-0.31,-0.18,-0.54,-0.35,-0.67,-0.5c-0.13,-0.14,-0.19,-0.31,-0.19,-0.5c0,-0.21,0.08,-0.46,0.26,-0.74c0.17,-0.28,0.57,-0.69,1.2,-1.21m1.58,-5.12c-0.45,0,-0.82,0.17,-1.13,0.53c-0.3,0.35,-0.45,0.91,-0.45,1.65c0,0.96,0.2,1.7,0.62,2.23c0.31,0.4,0.71,0.6,1.2,0.6c0.46,0,0.84,-0.17,1.14,-0.52c0.29,-0.34,0.44,-0.89,0.44,-1.63c0,-0.96,-0.21,-1.72,-0.63,-2.27c-0.31,-0.4,-0.7,-0.6,-1.19,-0.6m-1.68,8.17c-0.28,0.31,-0.5,0.59,-0.64,0.86c-0.14,0.26,-0.21,0.51,-0.21,0.73c0,0.29,0.17,0.54,0.52,0.76c0.6,0.37,1.48,0.56,2.63,0.56c1.09,0,1.9,-0.19,2.42,-0.57c0.52,-0.38,0.78,-0.79,0.78,-1.23c0,-0.31,-0.15,-0.54,-0.46,-0.67c-0.31,-0.13,-0.94,-0.21,-1.88,-0.23c-1.36,-0.03,-2.42,-0.1,-3.15,-0.21m6.72,-8.36l3.89,0l0,0.33l-0.19,0c-0.27,0,-0.47,0.05,-0.61,0.17c-0.13,0.11,-0.2,0.26,-0.2,0.44c0,0.23,0.1,0.56,0.3,0.98l2.03,4.21l1.87,-4.62c0.1,-0.24,0.15,-0.49,0.15,-0.73c0,-0.1,-0.02,-0.19,-0.06,-0.24c-0.04,-0.06,-0.12,-0.12,-0.22,-0.15c-0.1,-0.03,-0.28,-0.05,-0.54,-0.05l0,-0.33l2.72,0l0,0.33c-0.22,0.02,-0.39,0.07,-0.52,0.14c-0.12,0.07,-0.25,0.21,-0.4,0.41c-0.05,0.08,-0.15,0.31,-0.31,0.7l-3.4,8.34c-0.32,0.8,-0.75,1.42,-1.29,1.83c-0.53,0.41,-1.04,0.62,-1.53,0.62c-0.35,0,-0.65,-0.1,-0.88,-0.31c-0.23,-0.2,-0.34,-0.44,-0.34,-0.71c0,-0.25,0.08,-0.46,0.25,-0.61c0.16,-0.15,0.39,-0.23,0.68,-0.23c0.2,0,0.47,0.06,0.82,0.2c0.24,0.09,0.39,0.13,0.45,0.13c0.18,0,0.38,-0.09,0.59,-0.28c0.21,-0.18,0.43,-0.55,0.65,-1.09l0.59,-1.45l-3,-6.3c-0.09,-0.18,-0.23,-0.42,-0.43,-0.7c-0.15,-0.21,-0.27,-0.35,-0.37,-0.42c-0.14,-0.09,-0.36,-0.18,-0.67,-0.25l0,-0.33m19.72,12.02l0,0.33c-0.91,-0.46,-1.68,-1,-2.3,-1.62c-0.87,-0.88,-1.55,-1.92,-2.02,-3.12c-0.47,-1.19,-0.71,-2.44,-0.71,-3.73c0,-1.88,0.46,-3.6,1.39,-5.16c0.93,-1.55,2.14,-2.66,3.64,-3.33l0,0.38c-0.74,0.41,-1.36,0.98,-1.84,1.69c-0.48,0.71,-0.84,1.62,-1.07,2.73c-0.23,1.1,-0.35,2.25,-0.35,3.45c0,1.3,0.1,2.48,0.3,3.55c0.15,0.84,0.35,1.51,0.57,2.02c0.22,0.5,0.52,0.99,0.9,1.46c0.38,0.46,0.87,0.91,1.49,1.34m3.47,-16.64l0,8.32l2.12,-1.94c0.45,-0.41,0.71,-0.67,0.78,-0.78c0.04,-0.07,0.07,-0.14,0.07,-0.21c0,-0.12,-0.05,-0.22,-0.15,-0.31c-0.1,-0.08,-0.26,-0.13,-0.49,-0.15l0,-0.29l3.63,0l0,0.29c-0.49,0.01,-0.91,0.08,-1.24,0.22c-0.33,0.14,-0.69,0.38,-1.09,0.74l-2.14,1.98l2.14,2.71c0.59,0.74,0.99,1.22,1.2,1.42c0.29,0.28,0.54,0.47,0.76,0.55c0.15,0.06,0.41,0.09,0.79,0.09l0,0.32l-4.06,0l0,-0.32c0.23,0,0.38,-0.04,0.47,-0.1c0.08,-0.06,0.12,-0.15,0.12,-0.26c0,-0.14,-0.12,-0.36,-0.36,-0.67l-2.56,-3.27l0,2.77c0,0.54,0.03,0.89,0.11,1.06c0.07,0.17,0.18,0.29,0.32,0.36c0.14,0.07,0.44,0.11,0.91,0.11l0,0.32l-4.25,0l0,-0.32c0.42,0,0.74,-0.05,0.95,-0.15c0.12,-0.06,0.22,-0.17,0.29,-0.31c0.09,-0.2,0.13,-0.54,0.13,-1.04l0,-7.61c0,-0.96,-0.02,-1.55,-0.06,-1.77c-0.04,-0.21,-0.11,-0.36,-0.21,-0.44c-0.09,-0.08,-0.22,-0.12,-0.38,-0.12c-0.12,0,-0.31,0.05,-0.57,0.15l-0.15,-0.31l2.48,-1.02l0.42,0m8.28,7.77c0,1.24,0.29,2.21,0.9,2.92c0.6,0.7,1.32,1.05,2.14,1.05c0.54,0,1.02,-0.15,1.42,-0.45c0.4,-0.3,0.74,-0.81,1.01,-1.54l0.28,0.18c-0.12,0.83,-0.49,1.59,-1.11,2.27c-0.61,0.68,-1.38,1.02,-2.31,1.02c-1,0,-1.86,-0.39,-2.57,-1.17c-0.71,-0.78,-1.07,-1.83,-1.07,-3.15c0,-1.43,0.36,-2.54,1.1,-3.34c0.73,-0.8,1.65,-1.2,2.76,-1.2c0.93,0,1.7,0.3,2.31,0.92c0.6,0.61,0.9,1.44,0.9,2.47l-5.77,0m0,-0.52l3.87,0c-0.03,-0.53,-0.09,-0.91,-0.19,-1.13c-0.15,-0.34,-0.37,-0.6,-0.68,-0.8c-0.3,-0.19,-0.61,-0.29,-0.94,-0.29c-0.5,0,-0.95,0.19,-1.35,0.58c-0.39,0.39,-0.63,0.93,-0.69,1.63m19.58,-6.63l0,0.33c-0.43,0.07,-0.77,0.21,-0.99,0.42c-0.32,0.29,-0.6,0.75,-0.85,1.36l-4.31,10.53l-0.33,0l-4.63,-10.67c-0.23,-0.54,-0.4,-0.88,-0.5,-1c-0.15,-0.18,-0.33,-0.33,-0.56,-0.44c-0.22,-0.1,-0.52,-0.17,-0.89,-0.2l0,-0.33l5.05,0l0,0.33c-0.57,0.05,-0.94,0.15,-1.11,0.29c-0.17,0.14,-0.25,0.31,-0.25,0.53c0,0.3,0.14,0.77,0.42,1.42l3.15,7.25l2.92,-7.16c0.28,-0.7,0.42,-1.19,0.42,-1.47c0,-0.17,-0.08,-0.34,-0.26,-0.5c-0.17,-0.16,-0.47,-0.27,-0.89,-0.34c-0.03,0,-0.08,-0.01,-0.15,-0.02l0,-0.33l3.81,0m0.64,-0.21l0,-0.38c0.92,0.45,1.69,0.99,2.31,1.61c0.87,0.88,1.54,1.93,2.01,3.12c0.47,1.19,0.71,2.44,0.71,3.73c0,1.88,-0.46,3.6,-1.39,5.16c-0.92,1.55,-2.14,2.66,-3.64,3.33l0,-0.33c0.74,-0.42,1.36,-0.98,1.84,-1.7c0.48,-0.71,0.84,-1.62,1.07,-2.73c0.23,-1.1,0.35,-2.25,0.35,-3.45c0,-1.29,-0.1,-2.48,-0.3,-3.55c-0.15,-0.84,-0.34,-1.51,-0.57,-2.01c-0.22,-0.5,-0.53,-0.99,-0.9,-1.46c-0.37,-0.46,-0.87,-0.91,-1.49,-1.34" fill="#000000" stroke="none" fill-opacity="1"/>
<path d="m60.52,287.37c0.35,-0.83,0.79,-1.47,1.33,-1.93c0.53,-0.45,1.2,-0.68,2.01,-0.68c0.99,0,1.75,0.32,2.28,0.96c0.4,0.48,0.6,0.99,0.6,1.54c0,0.9,-0.56,1.83,-1.69,2.79c0.76,0.29,1.33,0.72,1.72,1.27c0.38,0.55,0.58,1.2,0.58,1.95c0,1.07,-0.34,1.99,-1.02,2.78c-0.88,1.02,-2.17,1.53,-3.86,1.53c-0.83,0,-1.4,-0.1,-1.7,-0.31c-0.3,-0.2,-0.45,-0.42,-0.45,-0.66c0,-0.17,0.07,-0.33,0.21,-0.46c0.14,-0.13,0.31,-0.2,0.51,-0.2c0.15,0,0.3,0.02,0.46,0.07c0.1,0.03,0.33,0.14,0.7,0.33c0.36,0.19,0.61,0.3,0.75,0.34c0.22,0.06,0.46,0.1,0.72,0.1c0.62,0,1.16,-0.24,1.62,-0.72c0.45,-0.48,0.68,-1.05,0.68,-1.7c0,-0.48,-0.1,-0.94,-0.31,-1.4c-0.15,-0.34,-0.33,-0.59,-0.52,-0.77c-0.26,-0.24,-0.62,-0.46,-1.07,-0.66c-0.45,-0.19,-0.92,-0.29,-1.39,-0.29l-0.29,0l0,-0.27c0.48,-0.06,0.96,-0.23,1.44,-0.52c0.48,-0.28,0.83,-0.63,1.05,-1.03c0.21,-0.4,0.32,-0.84,0.32,-1.32c0,-0.62,-0.19,-1.13,-0.58,-1.52c-0.39,-0.38,-0.88,-0.57,-1.46,-0.57c-0.94,0,-1.73,0.5,-2.36,1.51l-0.3,-0.14" fill="#000000" stroke="none" fill-opacity="1"/>
<path d="m186.58,292.83l0,1.29l-1.66,0l0,3.26l-1.5,0l0,-3.26l-5.24,0l0,-1.16l5.74,-8.19l1,0l0,8.07l1.66,0m-3.16,0l0,-6.14l-4.34,6.14l4.34,0" fill="#000000" stroke="none" fill-opacity="1"/>
<path d="m277.76,285.02l-0.71,1.55l-3.72,0l-0.81,1.66c1.61,0.23,2.89,0.83,3.83,1.79c0.8,0.82,1.21,1.8,1.21,2.92c0,0.65,-0.13,1.25,-0.39,1.8c-0.26,0.55,-0.59,1.02,-0.99,1.41c-0.4,0.38,-0.84,0.7,-1.34,0.94c-0.7,0.33,-1.41,0.5,-2.15,0.5c-0.74,0,-1.28,-0.12,-1.62,-0.37c-0.33,-0.25,-0.5,-0.53,-0.5,-0.83c0,-0.17,0.07,-0.32,0.21,-0.45c0.14,-0.13,0.31,-0.19,0.52,-0.19c0.15,0,0.29,0.02,0.41,0.07c0.11,0.04,0.32,0.17,0.6,0.37c0.45,0.31,0.91,0.47,1.38,0.47c0.71,0,1.33,-0.26,1.87,-0.8c0.53,-0.53,0.8,-1.19,0.8,-1.96c0,-0.74,-0.24,-1.44,-0.72,-2.09c-0.48,-0.64,-1.14,-1.14,-1.99,-1.5c-0.66,-0.27,-1.56,-0.43,-2.71,-0.47l2.37,-4.81l4.43,0" fill="#000000" stroke="none" fill-opacity="1"/>
<path d="m353,284.76l0,0.33c-0.8,0.07,-1.45,0.23,-1.96,0.47c-0.5,0.24,-1.01,0.6,-1.5,1.1c-0.49,0.49,-0.9,1.04,-1.23,1.64c-0.32,0.6,-0.59,1.32,-0.81,2.15c0.87,-0.6,1.75,-0.9,2.63,-0.9c0.84,0,1.57,0.34,2.2,1.02c0.62,0.68,0.93,1.55,0.93,2.62c0,1.03,-0.31,1.97,-0.94,2.83c-0.75,1.03,-1.75,1.55,-2.99,1.55c-0.84,0,-1.56,-0.28,-2.15,-0.84c-1.15,-1.08,-1.73,-2.5,-1.73,-4.23c0,-1.1,0.22,-2.16,0.66,-3.15c0.44,-0.99,1.07,-1.88,1.9,-2.65c0.82,-0.77,1.61,-1.29,2.36,-1.56c0.75,-0.26,1.45,-0.4,2.1,-0.4l0.52,0m-5.67,6.39c-0.1,0.82,-0.16,1.48,-0.16,1.99c0,0.58,0.1,1.21,0.32,1.9c0.21,0.68,0.53,1.22,0.96,1.62c0.31,0.28,0.68,0.42,1.13,0.42c0.52,0,1,-0.24,1.41,-0.74c0.41,-0.49,0.62,-1.21,0.62,-2.13c0,-1.04,-0.2,-1.94,-0.62,-2.7c-0.41,-0.76,-1,-1.14,-1.76,-1.14c-0.23,0,-0.47,0.04,-0.74,0.14c-0.26,0.09,-0.65,0.3,-1.17,0.63" fill="#000000" stroke="none" fill-opacity="1"/>
<path d="m409.89,285.02l6.63,0l0,0.34l-4.12,12.29l-1.02,0l3.69,-11.14l-3.4,0c-0.68,0,-1.17,0.08,-1.47,0.24c-0.51,0.28,-0.92,0.71,-1.23,1.29l-0.26,-0.1l1.18,-2.93" fill="#000000" stroke="none" fill-opacity="1"/>
<path d="m466.51,291.16c-0.98,-0.8,-1.61,-1.44,-1.89,-1.93c-0.28,-0.48,-0.42,-0.99,-0.42,-1.51c0,-0.8,0.31,-1.49,0.93,-2.07c0.62,-0.58,1.44,-0.87,2.47,-0.87c0.99,0,1.8,0.27,2.41,0.81c0.6,0.54,0.91,1.15,0.91,1.85c0,0.46,-0.16,0.93,-0.49,1.41c-0.32,0.48,-1.01,1.04,-2.05,1.69c1.07,0.82,1.78,1.47,2.12,1.95c0.46,0.62,0.69,1.27,0.69,1.96c0,0.87,-0.33,1.61,-0.99,2.23c-0.66,0.61,-1.53,0.92,-2.61,0.92c-1.17,0,-2.09,-0.36,-2.74,-1.1c-0.52,-0.59,-0.78,-1.23,-0.78,-1.93c0,-0.54,0.18,-1.09,0.55,-1.62c0.36,-0.53,1,-1.13,1.9,-1.78m1.43,-0.97c0.73,-0.65,1.19,-1.17,1.38,-1.55c0.19,-0.38,0.29,-0.81,0.29,-1.29c0,-0.63,-0.17,-1.13,-0.53,-1.5c-0.35,-0.36,-0.84,-0.54,-1.47,-0.54c-0.62,0,-1.12,0.17,-1.51,0.53c-0.38,0.35,-0.58,0.77,-0.58,1.26c0,0.31,0.08,0.63,0.24,0.94c0.16,0.31,0.39,0.61,0.68,0.9l1.49,1.24m-1,1.32c-0.5,0.42,-0.87,0.89,-1.12,1.39c-0.24,0.5,-0.36,1.04,-0.36,1.62c0,0.78,0.21,1.41,0.64,1.88c0.42,0.47,0.97,0.7,1.63,0.7c0.65,0,1.18,-0.18,1.57,-0.55c0.39,-0.37,0.59,-0.82,0.59,-1.35c0,-0.43,-0.11,-0.83,-0.34,-1.17c-0.43,-0.64,-1.3,-1.48,-2.62,-2.52" fill="#000000" stroke="none" fill-opacity="1"/>
<path d="m512.35,297.66l0,-0.33c0.79,-0.01,1.52,-0.19,2.2,-0.55c0.68,-0.35,1.34,-0.97,1.97,-1.86c0.63,-0.88,1.07,-1.86,1.32,-2.93c-0.95,0.61,-1.82,0.92,-2.59,0.92c-0.87,0,-1.61,-0.33,-2.23,-1c-0.62,-0.67,-0.93,-1.56,-0.93,-2.67c0,-1.08,0.31,-2.04,0.93,-2.89c0.74,-1.02,1.72,-1.54,2.93,-1.54c1.01,0,1.88,0.42,2.61,1.26c0.88,1.04,1.33,2.32,1.33,3.85c0,1.37,-0.33,2.65,-1.01,3.84c-0.67,1.19,-1.61,2.17,-2.82,2.96c-0.98,0.64,-2.04,0.96,-3.2,0.96l-0.52,0m5.66,-6.36c0.1,-0.79,0.16,-1.42,0.16,-1.89c0,-0.59,-0.1,-1.22,-0.3,-1.91c-0.2,-0.68,-0.48,-1.2,-0.85,-1.57c-0.36,-0.36,-0.78,-0.54,-1.25,-0.54c-0.54,0,-1.01,0.24,-1.42,0.73c-0.4,0.48,-0.61,1.21,-0.61,2.17c0,1.28,0.27,2.28,0.81,3.01c0.39,0.52,0.88,0.78,1.46,0.78c0.28,0,0.61,-0.06,0.99,-0.2c0.38,-0.13,0.72,-0.32,1.01,-0.56" fill="#000000" stroke="none" fill-opacity="1"/>
<path d="m550.41,286.23l3.01,-1.47l0.3,0l0,10.45c0,0.69,0.02,1.12,0.08,1.29c0.05,0.17,0.17,0.3,0.36,0.39c0.18,0.09,0.55,0.14,1.11,0.15l0,0.33l-4.65,0l0,-0.33c0.58,-0.01,0.96,-0.06,1.13,-0.15c0.17,-0.08,0.28,-0.2,0.35,-0.35c0.06,-0.14,0.1,-0.59,0.1,-1.33l0,-6.68c0,-0.9,-0.03,-1.47,-0.09,-1.73c-0.04,-0.19,-0.12,-0.33,-0.23,-0.42c-0.11,-0.09,-0.24,-0.13,-0.4,-0.13c-0.22,0,-0.53,0.09,-0.94,0.28l-0.13,-0.28m7.83,5.04c0,-1.41,0.21,-2.62,0.63,-3.64c0.42,-1.01,0.99,-1.77,1.69,-2.27c0.54,-0.39,1.11,-0.59,1.69,-0.59c0.94,0,1.8,0.48,2.55,1.45c0.94,1.19,1.41,2.82,1.41,4.87c0,1.43,-0.2,2.65,-0.62,3.66c-0.41,1,-0.94,1.73,-1.58,2.18c-0.64,0.45,-1.26,0.68,-1.85,0.68c-1.18,0,-2.16,-0.69,-2.94,-2.09c-0.66,-1.17,-0.99,-2.59,-0.99,-4.24m1.78,0.22c0,1.7,0.21,3.09,0.63,4.17c0.34,0.9,0.86,1.36,1.55,1.36c0.32,0,0.66,-0.14,1.02,-0.44c0.35,-0.29,0.62,-0.78,0.8,-1.48c0.28,-1.04,0.42,-2.52,0.42,-4.42c0,-1.41,-0.14,-2.59,-0.43,-3.53c-0.21,-0.7,-0.5,-1.19,-0.84,-1.48c-0.24,-0.2,-0.55,-0.3,-0.9,-0.3c-0.41,0,-0.78,0.18,-1.1,0.55c-0.43,0.5,-0.73,1.29,-0.89,2.38c-0.15,1.08,-0.23,2.15,-0.23,3.2" fill="#000000" stroke="none" fill-opacity="1"/>
</g>
<g fill="none" stroke-linecap="butt" stroke-width="0.66">
<path d="M64.25,7.55l495.11,0"/>
<path d="M64.25,7.55l0,4M182.55,7.55l0,4M274.32,7.55l0,4M349.29,7.55l0,4M412.69,7.55l0,4M467.6,7.55l0,4M516.04,7.55l0,4"/>
<path d="M64.25,7.55l0,8M182.55,7.55l0,8M274.32,7.55l0,8M349.29,7.55l0,8M412.69,7.55l0,8M467.6,7.55l0,8M516.04,7.55l0,8M559.37,7.55l0,8"/>
</g>
</g>
</g>
</svg>
