<?xml version="1.0" encoding="utf-8"?>
<svg xmlns="http://www.w3.org/2000/svg" xmlns:xlink="http://www.w3.org/1999/xlink" width="600" height="400" viewBox="0 0 2400 1600">
<defs>
  <clipPath id="clip610">
    <rect x="0" y="0" width="2400" height="1600"/>
  </clipPath>
</defs>
<path clip-path="url(#clip610)" d="M0 1600 L2400 1600 L2400 8.88178e-14 L0 8.88178e-14  Z" fill="#ffffff" fill-rule="evenodd" fill-opacity="1"/>
<defs>
  <clipPath id="clip611">
    <rect x="480" y="0" width="1681" height="1600"/>
  </clipPath>
</defs>
<path clip-path="url(#clip610)" d="M250.028 1423.18 L2352.76 1423.18 L2352.76 47.2441 L250.028 47.2441  Z" fill="#ffffff" fill-rule="evenodd" fill-opacity="1"/>
<defs>
  <clipPath id="clip612">
    <rect x="250" y="47" width="2104" height="1377"/>
  </clipPath>
</defs>
<polyline clip-path="url(#clip612)" style="stroke:#000000; stroke-linecap:round; stroke-linejoin:round; stroke-width:2; stroke-opacity:0.1; fill:none" points="600.483,1423.18 600.483,47.2441 "/>
<polyline clip-path="url(#clip612)" style="stroke:#000000; stroke-linecap:round; stroke-linejoin:round; stroke-width:2; stroke-opacity:0.1; fill:none" points="1038.55,1423.18 1038.55,47.2441 "/>
<polyline clip-path="url(#clip612)" style="stroke:#000000; stroke-linecap:round; stroke-linejoin:round; stroke-width:2; stroke-opacity:0.1; fill:none" points="1476.62,1423.18 1476.62,47.2441 "/>
<polyline clip-path="url(#clip612)" style="stroke:#000000; stroke-linecap:round; stroke-linejoin:round; stroke-width:2; stroke-opacity:0.1; fill:none" points="1914.69,1423.18 1914.69,47.2441 "/>
<polyline clip-path="url(#clip612)" style="stroke:#000000; stroke-linecap:round; stroke-linejoin:round; stroke-width:2; stroke-opacity:0.1; fill:none" points="2352.76,1423.18 2352.76,47.2441 "/>
<polyline clip-path="url(#clip610)" style="stroke:#000000; stroke-linecap:round; stroke-linejoin:round; stroke-width:4; stroke-opacity:1; fill:none" points="250.028,1423.18 2352.76,1423.18 "/>
<polyline clip-path="url(#clip610)" style="stroke:#000000; stroke-linecap:round; stroke-linejoin:round; stroke-width:4; stroke-opacity:1; fill:none" points="600.483,1423.18 600.483,1404.28 "/>
<polyline clip-path="url(#clip610)" style="stroke:#000000; stroke-linecap:round; stroke-linejoin:round; stroke-width:4; stroke-opacity:1; fill:none" points="1038.55,1423.18 1038.55,1404.28 "/>
<polyline clip-path="url(#clip610)" style="stroke:#000000; stroke-linecap:round; stroke-linejoin:round; stroke-width:4; stroke-opacity:1; fill:none" points="1476.62,1423.18 1476.62,1404.28 "/>
<polyline clip-path="url(#clip610)" style="stroke:#000000; stroke-linecap:round; stroke-linejoin:round; stroke-width:4; stroke-opacity:1; fill:none" points="1914.69,1423.18 1914.69,1404.28 "/>
<polyline clip-path="url(#clip610)" style="stroke:#000000; stroke-linecap:round; stroke-linejoin:round; stroke-width:4; stroke-opacity:1; fill:none" points="2352.76,1423.18 2352.76,1404.28 "/>
<path clip-path="url(#clip610)" d="M568.133 1481.64 L575.772 1481.64 L575.772 1455.28 L567.462 1456.95 L567.462 1452.69 L575.726 1451.02 L580.402 1451.02 L580.402 1481.64 L588.041 1481.64 L588.041 1485.58 L568.133 1485.58 L568.133 1481.64 Z" fill="#000000" fill-rule="nonzero" fill-opacity="1" /><path clip-path="url(#clip610)" d="M597.485 1479.7 L602.369 1479.7 L602.369 1485.58 L597.485 1485.58 L597.485 1479.7 Z" fill="#000000" fill-rule="nonzero" fill-opacity="1" /><path clip-path="url(#clip610)" d="M612.601 1451.02 L630.957 1451.02 L630.957 1454.96 L616.883 1454.96 L616.883 1463.43 Q617.902 1463.08 618.92 1462.92 Q619.939 1462.73 620.957 1462.73 Q626.744 1462.73 630.124 1465.9 Q633.503 1469.08 633.503 1474.49 Q633.503 1480.07 630.031 1483.17 Q626.559 1486.25 620.24 1486.25 Q618.064 1486.25 615.795 1485.88 Q613.55 1485.51 611.142 1484.77 L611.142 1480.07 Q613.226 1481.2 615.448 1481.76 Q617.67 1482.32 620.147 1482.32 Q624.152 1482.32 626.49 1480.21 Q628.828 1478.1 628.828 1474.49 Q628.828 1470.88 626.49 1468.77 Q624.152 1466.67 620.147 1466.67 Q618.272 1466.67 616.397 1467.08 Q614.545 1467.5 612.601 1468.38 L612.601 1451.02 Z" fill="#000000" fill-rule="nonzero" fill-opacity="1" /><path clip-path="url(#clip610)" d="M1009.79 1481.64 L1026.11 1481.64 L1026.11 1485.58 L1004.16 1485.58 L1004.16 1481.64 Q1006.83 1478.89 1011.41 1474.26 Q1016.02 1469.61 1017.2 1468.27 Q1019.44 1465.74 1020.32 1464.01 Q1021.22 1462.25 1021.22 1460.56 Q1021.22 1457.8 1019.28 1456.07 Q1017.36 1454.33 1014.26 1454.33 Q1012.06 1454.33 1009.6 1455.09 Q1007.17 1455.86 1004.4 1457.41 L1004.4 1452.69 Q1007.22 1451.55 1009.67 1450.97 Q1012.13 1450.39 1014.16 1450.39 Q1019.53 1450.39 1022.73 1453.08 Q1025.92 1455.77 1025.92 1460.26 Q1025.92 1462.39 1025.11 1464.31 Q1024.33 1466.2 1022.22 1468.8 Q1021.64 1469.47 1018.54 1472.69 Q1015.44 1475.88 1009.79 1481.64 Z" fill="#000000" fill-rule="nonzero" fill-opacity="1" /><path clip-path="url(#clip610)" d="M1035.92 1479.7 L1040.81 1479.7 L1040.81 1485.58 L1035.92 1485.58 L1035.92 1479.7 Z" fill="#000000" fill-rule="nonzero" fill-opacity="1" /><path clip-path="url(#clip610)" d="M1060.99 1454.1 Q1057.38 1454.1 1055.55 1457.66 Q1053.75 1461.2 1053.75 1468.33 Q1053.75 1475.44 1055.55 1479.01 Q1057.38 1482.55 1060.99 1482.55 Q1064.63 1482.55 1066.43 1479.01 Q1068.26 1475.44 1068.26 1468.33 Q1068.26 1461.2 1066.43 1457.66 Q1064.63 1454.1 1060.99 1454.1 M1060.99 1450.39 Q1066.8 1450.39 1069.86 1455 Q1072.94 1459.58 1072.94 1468.33 Q1072.94 1477.06 1069.86 1481.67 Q1066.8 1486.25 1060.99 1486.25 Q1055.18 1486.25 1052.1 1481.67 Q1049.05 1477.06 1049.05 1468.33 Q1049.05 1459.58 1052.1 1455 Q1055.18 1450.39 1060.99 1450.39 Z" fill="#000000" fill-rule="nonzero" fill-opacity="1" /><path clip-path="url(#clip610)" d="M1448.36 1481.64 L1464.67 1481.64 L1464.67 1485.58 L1442.73 1485.58 L1442.73 1481.64 Q1445.39 1478.89 1449.98 1474.26 Q1454.58 1469.61 1455.76 1468.27 Q1458.01 1465.74 1458.89 1464.01 Q1459.79 1462.25 1459.79 1460.56 Q1459.79 1457.8 1457.85 1456.07 Q1455.93 1454.33 1452.82 1454.33 Q1450.62 1454.33 1448.17 1455.09 Q1445.74 1455.86 1442.96 1457.41 L1442.96 1452.69 Q1445.79 1451.55 1448.24 1450.97 Q1450.69 1450.39 1452.73 1450.39 Q1458.1 1450.39 1461.3 1453.08 Q1464.49 1455.77 1464.49 1460.26 Q1464.49 1462.39 1463.68 1464.31 Q1462.89 1466.2 1460.79 1468.8 Q1460.21 1469.47 1457.11 1472.69 Q1454 1475.88 1448.36 1481.64 Z" fill="#000000" fill-rule="nonzero" fill-opacity="1" /><path clip-path="url(#clip610)" d="M1474.49 1479.7 L1479.37 1479.7 L1479.37 1485.58 L1474.49 1485.58 L1474.49 1479.7 Z" fill="#000000" fill-rule="nonzero" fill-opacity="1" /><path clip-path="url(#clip610)" d="M1489.61 1451.02 L1507.96 1451.02 L1507.96 1454.96 L1493.89 1454.96 L1493.89 1463.43 Q1494.91 1463.08 1495.92 1462.92 Q1496.94 1462.73 1497.96 1462.73 Q1503.75 1462.73 1507.13 1465.9 Q1510.51 1469.08 1510.51 1474.49 Q1510.51 1480.07 1507.04 1483.17 Q1503.56 1486.25 1497.24 1486.25 Q1495.07 1486.25 1492.8 1485.88 Q1490.55 1485.51 1488.15 1484.77 L1488.15 1480.07 Q1490.23 1481.2 1492.45 1481.76 Q1494.67 1482.32 1497.15 1482.32 Q1501.16 1482.32 1503.49 1480.21 Q1505.83 1478.1 1505.83 1474.49 Q1505.83 1470.88 1503.49 1468.77 Q1501.16 1466.67 1497.15 1466.67 Q1495.28 1466.67 1493.4 1467.08 Q1491.55 1467.5 1489.61 1468.38 L1489.61 1451.02 Z" fill="#000000" fill-rule="nonzero" fill-opacity="1" /><path clip-path="url(#clip610)" d="M1896 1466.95 Q1899.35 1467.66 1901.23 1469.93 Q1903.13 1472.2 1903.13 1475.53 Q1903.13 1480.65 1899.61 1483.45 Q1896.09 1486.25 1889.61 1486.25 Q1887.43 1486.25 1885.12 1485.81 Q1882.82 1485.39 1880.37 1484.54 L1880.37 1480.02 Q1882.32 1481.16 1884.63 1481.74 Q1886.94 1482.32 1889.47 1482.32 Q1893.87 1482.32 1896.16 1480.58 Q1898.47 1478.84 1898.47 1475.53 Q1898.47 1472.48 1896.32 1470.77 Q1894.19 1469.03 1890.37 1469.03 L1886.34 1469.03 L1886.34 1465.19 L1890.56 1465.19 Q1894 1465.19 1895.83 1463.82 Q1897.66 1462.43 1897.66 1459.84 Q1897.66 1457.18 1895.76 1455.77 Q1893.89 1454.33 1890.37 1454.33 Q1888.45 1454.33 1886.25 1454.75 Q1884.05 1455.16 1881.41 1456.04 L1881.41 1451.88 Q1884.07 1451.14 1886.39 1450.77 Q1888.73 1450.39 1890.79 1450.39 Q1896.11 1450.39 1899.21 1452.83 Q1902.32 1455.23 1902.32 1459.35 Q1902.32 1462.22 1900.67 1464.21 Q1899.03 1466.18 1896 1466.95 Z" fill="#000000" fill-rule="nonzero" fill-opacity="1" /><path clip-path="url(#clip610)" d="M1911.99 1479.7 L1916.88 1479.7 L1916.88 1485.58 L1911.99 1485.58 L1911.99 1479.7 Z" fill="#000000" fill-rule="nonzero" fill-opacity="1" /><path clip-path="url(#clip610)" d="M1937.06 1454.1 Q1933.45 1454.1 1931.62 1457.66 Q1929.81 1461.2 1929.81 1468.33 Q1929.81 1475.44 1931.62 1479.01 Q1933.45 1482.55 1937.06 1482.55 Q1940.69 1482.55 1942.5 1479.01 Q1944.33 1475.44 1944.33 1468.33 Q1944.33 1461.2 1942.5 1457.66 Q1940.69 1454.1 1937.06 1454.1 M1937.06 1450.39 Q1942.87 1450.39 1945.93 1455 Q1949 1459.58 1949 1468.33 Q1949 1477.06 1945.93 1481.67 Q1942.87 1486.25 1937.06 1486.25 Q1931.25 1486.25 1928.17 1481.67 Q1925.12 1477.06 1925.12 1468.33 Q1925.12 1459.58 1928.17 1455 Q1931.25 1450.39 1937.06 1450.39 Z" fill="#000000" fill-rule="nonzero" fill-opacity="1" /><path clip-path="url(#clip610)" d="M2334.56 1466.95 Q2337.92 1467.66 2339.79 1469.93 Q2341.69 1472.2 2341.69 1475.53 Q2341.69 1480.65 2338.17 1483.45 Q2334.65 1486.25 2328.17 1486.25 Q2326 1486.25 2323.68 1485.81 Q2321.39 1485.39 2318.94 1484.54 L2318.94 1480.02 Q2320.88 1481.16 2323.2 1481.74 Q2325.51 1482.32 2328.03 1482.32 Q2332.43 1482.32 2334.72 1480.58 Q2337.04 1478.84 2337.04 1475.53 Q2337.04 1472.48 2334.89 1470.77 Q2332.76 1469.03 2328.94 1469.03 L2324.91 1469.03 L2324.91 1465.19 L2329.12 1465.19 Q2332.57 1465.19 2334.4 1463.82 Q2336.23 1462.43 2336.23 1459.84 Q2336.23 1457.18 2334.33 1455.77 Q2332.46 1454.33 2328.94 1454.33 Q2327.02 1454.33 2324.82 1454.75 Q2322.62 1455.16 2319.98 1456.04 L2319.98 1451.88 Q2322.64 1451.14 2324.96 1450.77 Q2327.29 1450.39 2329.35 1450.39 Q2334.68 1450.39 2337.78 1452.83 Q2340.88 1455.23 2340.88 1459.35 Q2340.88 1462.22 2339.24 1464.21 Q2337.59 1466.18 2334.56 1466.95 Z" fill="#000000" fill-rule="nonzero" fill-opacity="1" /><path clip-path="url(#clip610)" d="M2350.56 1479.7 L2355.44 1479.7 L2355.44 1485.58 L2350.56 1485.58 L2350.56 1479.7 Z" fill="#000000" fill-rule="nonzero" fill-opacity="1" /><path clip-path="url(#clip610)" d="M2365.67 1451.02 L2384.03 1451.02 L2384.03 1454.96 L2369.95 1454.96 L2369.95 1463.43 Q2370.97 1463.08 2371.99 1462.92 Q2373.01 1462.73 2374.03 1462.73 Q2379.82 1462.73 2383.2 1465.9 Q2386.58 1469.08 2386.58 1474.49 Q2386.58 1480.07 2383.1 1483.17 Q2379.63 1486.25 2373.31 1486.25 Q2371.14 1486.25 2368.87 1485.88 Q2366.62 1485.51 2364.21 1484.77 L2364.21 1480.07 Q2366.3 1481.2 2368.52 1481.76 Q2370.74 1482.32 2373.22 1482.32 Q2377.22 1482.32 2379.56 1480.21 Q2381.9 1478.1 2381.9 1474.49 Q2381.9 1470.88 2379.56 1468.77 Q2377.22 1466.67 2373.22 1466.67 Q2371.34 1466.67 2369.47 1467.08 Q2367.62 1467.5 2365.67 1468.38 L2365.67 1451.02 Z" fill="#000000" fill-rule="nonzero" fill-opacity="1" /><path clip-path="url(#clip610)" d="M948.589 1522.08 L948.589 1528.35 Q944.928 1526.6 941.682 1525.74 Q938.435 1524.88 935.412 1524.88 Q930.16 1524.88 927.295 1526.92 Q924.463 1528.96 924.463 1532.71 Q924.463 1535.87 926.341 1537.49 Q928.25 1539.08 933.534 1540.07 L937.417 1540.86 Q944.61 1542.23 948.016 1545.7 Q951.453 1549.14 951.453 1554.93 Q951.453 1561.84 946.806 1565.4 Q942.191 1568.97 933.247 1568.97 Q929.873 1568.97 926.054 1568.2 Q922.266 1567.44 918.192 1565.94 L918.192 1559.32 Q922.107 1561.52 925.863 1562.63 Q929.619 1563.75 933.247 1563.75 Q938.754 1563.75 941.746 1561.58 Q944.737 1559.42 944.737 1555.41 Q944.737 1551.91 942.573 1549.93 Q940.441 1547.96 935.539 1546.97 L931.624 1546.21 Q924.431 1544.78 921.216 1541.72 Q918.001 1538.67 918.001 1533.22 Q918.001 1526.92 922.426 1523.29 Q926.882 1519.66 934.68 1519.66 Q938.022 1519.66 941.491 1520.27 Q944.96 1520.87 948.589 1522.08 Z" fill="#000000" fill-rule="nonzero" fill-opacity="1" /><path clip-path="url(#clip610)" d="M975.038 1536.5 Q970.328 1536.5 967.59 1540.19 Q964.853 1543.85 964.853 1550.25 Q964.853 1556.65 967.558 1560.34 Q970.296 1564 975.038 1564 Q979.717 1564 982.454 1560.31 Q985.191 1556.62 985.191 1550.25 Q985.191 1543.92 982.454 1540.23 Q979.717 1536.5 975.038 1536.5 M975.038 1531.54 Q982.677 1531.54 987.038 1536.5 Q991.398 1541.47 991.398 1550.25 Q991.398 1559 987.038 1564 Q982.677 1568.97 975.038 1568.97 Q967.367 1568.97 963.007 1564 Q958.678 1559 958.678 1550.25 Q958.678 1541.47 963.007 1536.5 Q967.367 1531.54 975.038 1531.54 Z" fill="#000000" fill-rule="nonzero" fill-opacity="1" /><path clip-path="url(#clip610)" d="M1000.5 1553.98 L1000.5 1532.4 L1006.36 1532.4 L1006.36 1553.75 Q1006.36 1558.81 1008.33 1561.36 Q1010.3 1563.87 1014.25 1563.87 Q1018.99 1563.87 1021.73 1560.85 Q1024.5 1557.83 1024.5 1552.61 L1024.5 1532.4 L1030.36 1532.4 L1030.36 1568.04 L1024.5 1568.04 L1024.5 1562.57 Q1022.37 1565.82 1019.53 1567.41 Q1016.73 1568.97 1013.01 1568.97 Q1006.87 1568.97 1003.68 1565.15 Q1000.5 1561.33 1000.5 1553.98 M1015.24 1531.54 L1015.24 1531.54 Z" fill="#000000" fill-rule="nonzero" fill-opacity="1" /><path clip-path="url(#clip610)" d="M1063.08 1537.87 Q1062.09 1537.3 1060.91 1537.04 Q1059.77 1536.76 1058.37 1536.76 Q1053.4 1536.76 1050.73 1540 Q1048.08 1543.22 1048.08 1549.27 L1048.08 1568.04 L1042.2 1568.04 L1042.2 1532.4 L1048.08 1532.4 L1048.08 1537.93 Q1049.93 1534.69 1052.89 1533.13 Q1055.85 1531.54 1060.08 1531.54 Q1060.69 1531.54 1061.42 1531.63 Q1062.15 1531.7 1063.04 1531.85 L1063.08 1537.87 Z" fill="#000000" fill-rule="nonzero" fill-opacity="1" /><path clip-path="url(#clip610)" d="M1093.44 1533.76 L1093.44 1539.24 Q1090.96 1537.87 1088.44 1537.2 Q1085.96 1536.5 1083.41 1536.5 Q1077.72 1536.5 1074.57 1540.13 Q1071.41 1543.73 1071.41 1550.25 Q1071.41 1556.78 1074.57 1560.4 Q1077.72 1564 1083.41 1564 Q1085.96 1564 1088.44 1563.33 Q1090.96 1562.63 1093.44 1561.26 L1093.44 1566.68 Q1090.99 1567.82 1088.35 1568.39 Q1085.74 1568.97 1082.78 1568.97 Q1074.73 1568.97 1069.98 1563.91 Q1065.24 1558.85 1065.24 1550.25 Q1065.24 1541.53 1070.01 1536.53 Q1074.82 1531.54 1083.16 1531.54 Q1085.87 1531.54 1088.44 1532.11 Q1091.02 1532.65 1093.44 1533.76 Z" fill="#000000" fill-rule="nonzero" fill-opacity="1" /><path clip-path="url(#clip610)" d="M1134.12 1548.76 L1134.12 1551.62 L1107.19 1551.62 Q1107.57 1557.67 1110.82 1560.85 Q1114.1 1564 1119.92 1564 Q1123.3 1564 1126.45 1563.17 Q1129.63 1562.35 1132.75 1560.69 L1132.75 1566.23 Q1129.6 1567.57 1126.29 1568.27 Q1122.98 1568.97 1119.57 1568.97 Q1111.04 1568.97 1106.04 1564 Q1101.08 1559.04 1101.08 1550.57 Q1101.08 1541.82 1105.79 1536.69 Q1110.53 1531.54 1118.55 1531.54 Q1125.75 1531.54 1129.92 1536.18 Q1134.12 1540.8 1134.12 1548.76 M1128.26 1547.04 Q1128.2 1542.23 1125.56 1539.37 Q1122.95 1536.5 1118.62 1536.5 Q1113.72 1536.5 1110.76 1539.27 Q1107.83 1542.04 1107.38 1547.07 L1128.26 1547.04 Z" fill="#000000" fill-rule="nonzero" fill-opacity="1" /><path clip-path="url(#clip610)" d="M1194.08 1546.53 L1194.08 1568.04 L1188.23 1568.04 L1188.23 1546.72 Q1188.23 1541.66 1186.25 1539.14 Q1184.28 1536.63 1180.33 1536.63 Q1175.59 1536.63 1172.85 1539.65 Q1170.12 1542.68 1170.12 1547.9 L1170.12 1568.04 L1164.23 1568.04 L1164.23 1518.52 L1170.12 1518.52 L1170.12 1537.93 Q1172.22 1534.72 1175.05 1533.13 Q1177.91 1531.54 1181.64 1531.54 Q1187.78 1531.54 1190.93 1535.36 Q1194.08 1539.14 1194.08 1546.53 Z" fill="#000000" fill-rule="nonzero" fill-opacity="1" /><path clip-path="url(#clip610)" d="M1236.25 1548.76 L1236.25 1551.62 L1209.33 1551.62 Q1209.71 1557.67 1212.96 1560.85 Q1216.23 1564 1222.06 1564 Q1225.43 1564 1228.58 1563.17 Q1231.77 1562.35 1234.89 1560.69 L1234.89 1566.23 Q1231.74 1567.57 1228.43 1568.27 Q1225.11 1568.97 1221.71 1568.97 Q1213.18 1568.97 1208.18 1564 Q1203.22 1559.04 1203.22 1550.57 Q1203.22 1541.82 1207.93 1536.69 Q1212.67 1531.54 1220.69 1531.54 Q1227.88 1531.54 1232.05 1536.18 Q1236.25 1540.8 1236.25 1548.76 M1230.4 1547.04 Q1230.33 1542.23 1227.69 1539.37 Q1225.08 1536.5 1220.75 1536.5 Q1215.85 1536.5 1212.89 1539.27 Q1209.96 1542.04 1209.52 1547.07 L1230.4 1547.04 Z" fill="#000000" fill-rule="nonzero" fill-opacity="1" /><path clip-path="url(#clip610)" d="M1245.87 1532.4 L1251.72 1532.4 L1251.72 1568.04 L1245.87 1568.04 L1245.87 1532.4 M1245.87 1518.52 L1251.72 1518.52 L1251.72 1525.93 L1245.87 1525.93 L1245.87 1518.52 Z" fill="#000000" fill-rule="nonzero" fill-opacity="1" /><path clip-path="url(#clip610)" d="M1287.44 1549.81 Q1287.44 1543.44 1284.79 1539.94 Q1282.18 1536.44 1277.44 1536.44 Q1272.73 1536.44 1270.09 1539.94 Q1267.48 1543.44 1267.48 1549.81 Q1267.48 1556.14 1270.09 1559.64 Q1272.73 1563.14 1277.44 1563.14 Q1282.18 1563.14 1284.79 1559.64 Q1287.44 1556.14 1287.44 1549.81 M1293.29 1563.62 Q1293.29 1572.72 1289.25 1577.15 Q1285.21 1581.6 1276.87 1581.6 Q1273.78 1581.6 1271.04 1581.13 Q1268.31 1580.68 1265.73 1579.72 L1265.73 1574.03 Q1268.31 1575.43 1270.82 1576.1 Q1273.34 1576.76 1275.95 1576.76 Q1281.71 1576.76 1284.57 1573.74 Q1287.44 1570.75 1287.44 1564.67 L1287.44 1561.77 Q1285.62 1564.92 1282.79 1566.48 Q1279.96 1568.04 1276.01 1568.04 Q1269.45 1568.04 1265.44 1563.05 Q1261.43 1558.05 1261.43 1549.81 Q1261.43 1541.53 1265.44 1536.53 Q1269.45 1531.54 1276.01 1531.54 Q1279.96 1531.54 1282.79 1533.1 Q1285.62 1534.66 1287.44 1537.81 L1287.44 1532.4 L1293.29 1532.4 L1293.29 1563.62 Z" fill="#000000" fill-rule="nonzero" fill-opacity="1" /><path clip-path="url(#clip610)" d="M1334.99 1546.53 L1334.99 1568.04 L1329.13 1568.04 L1329.13 1546.72 Q1329.13 1541.66 1327.16 1539.14 Q1325.18 1536.63 1321.24 1536.63 Q1316.49 1536.63 1313.76 1539.65 Q1311.02 1542.68 1311.02 1547.9 L1311.02 1568.04 L1305.13 1568.04 L1305.13 1518.52 L1311.02 1518.52 L1311.02 1537.93 Q1313.12 1534.72 1315.95 1533.13 Q1318.82 1531.54 1322.54 1531.54 Q1328.68 1531.54 1331.84 1535.36 Q1334.99 1539.14 1334.99 1546.53 Z" fill="#000000" fill-rule="nonzero" fill-opacity="1" /><path clip-path="url(#clip610)" d="M1352.46 1522.27 L1352.46 1532.4 L1364.52 1532.4 L1364.52 1536.95 L1352.46 1536.95 L1352.46 1556.3 Q1352.46 1560.66 1353.64 1561.9 Q1354.85 1563.14 1358.51 1563.14 L1364.52 1563.14 L1364.52 1568.04 L1358.51 1568.04 Q1351.73 1568.04 1349.15 1565.53 Q1346.57 1562.98 1346.57 1556.3 L1346.57 1536.95 L1342.28 1536.95 L1342.28 1532.4 L1346.57 1532.4 L1346.57 1522.27 L1352.46 1522.27 Z" fill="#000000" fill-rule="nonzero" fill-opacity="1" /><path clip-path="url(#clip610)" d="M1422.58 1546.53 L1422.58 1568.04 L1416.72 1568.04 L1416.72 1546.72 Q1416.72 1541.66 1414.75 1539.14 Q1412.78 1536.63 1408.83 1536.63 Q1404.09 1536.63 1401.35 1539.65 Q1398.61 1542.68 1398.61 1547.9 L1398.61 1568.04 L1392.72 1568.04 L1392.72 1518.52 L1398.61 1518.52 L1398.61 1537.93 Q1400.71 1534.72 1403.55 1533.13 Q1406.41 1531.54 1410.13 1531.54 Q1416.28 1531.54 1419.43 1535.36 Q1422.58 1539.14 1422.58 1546.53 Z" fill="#000000" fill-rule="nonzero" fill-opacity="1" /><path clip-path="url(#clip610)" d="M1469.05 1518.58 Q1464.78 1525.9 1462.71 1533.06 Q1460.65 1540.23 1460.65 1547.58 Q1460.65 1554.93 1462.71 1562.16 Q1464.82 1569.35 1469.05 1576.64 L1463.96 1576.64 Q1459.18 1569.16 1456.79 1561.93 Q1454.44 1554.71 1454.44 1547.58 Q1454.44 1540.48 1456.79 1533.29 Q1459.15 1526.09 1463.96 1518.58 L1469.05 1518.58 Z" fill="#000000" fill-rule="nonzero" fill-opacity="1" /><path clip-path="url(#clip610)" d="M1513.07 1561.26 L1513.07 1548.5 L1502.56 1548.5 L1502.56 1543.22 L1519.43 1543.22 L1519.43 1563.62 Q1515.71 1566.26 1511.22 1567.63 Q1506.73 1568.97 1501.64 1568.97 Q1490.5 1568.97 1484.2 1562.47 Q1477.93 1555.95 1477.93 1544.33 Q1477.93 1532.68 1484.2 1526.19 Q1490.5 1519.66 1501.64 1519.66 Q1506.29 1519.66 1510.46 1520.81 Q1514.66 1521.96 1518.19 1524.18 L1518.19 1531.03 Q1514.63 1528 1510.62 1526.48 Q1506.61 1524.95 1502.18 1524.95 Q1493.46 1524.95 1489.07 1529.82 Q1484.71 1534.69 1484.71 1544.33 Q1484.71 1553.94 1489.07 1558.81 Q1493.46 1563.68 1502.18 1563.68 Q1505.59 1563.68 1508.26 1563.11 Q1510.94 1562.51 1513.07 1561.26 Z" fill="#000000" fill-rule="nonzero" fill-opacity="1" /><path clip-path="url(#clip610)" d="M1531.18 1520.52 L1540.76 1520.52 L1552.89 1552.86 L1565.08 1520.52 L1574.66 1520.52 L1574.66 1568.04 L1568.39 1568.04 L1568.39 1526.32 L1556.13 1558.91 L1549.67 1558.91 L1537.42 1526.32 L1537.42 1568.04 L1531.18 1568.04 L1531.18 1520.52 Z" fill="#000000" fill-rule="nonzero" fill-opacity="1" /><path clip-path="url(#clip610)" d="M1597.57 1520.52 L1602.98 1520.52 L1586.43 1574.09 L1581.02 1574.09 L1597.57 1520.52 Z" fill="#000000" fill-rule="nonzero" fill-opacity="1" /><path clip-path="url(#clip610)" d="M1634.78 1533.76 L1634.78 1539.24 Q1632.3 1537.87 1629.78 1537.2 Q1627.3 1536.5 1624.75 1536.5 Q1619.06 1536.5 1615.91 1540.13 Q1612.75 1543.73 1612.75 1550.25 Q1612.75 1556.78 1615.91 1560.4 Q1619.06 1564 1624.75 1564 Q1627.3 1564 1629.78 1563.33 Q1632.3 1562.63 1634.78 1561.26 L1634.78 1566.68 Q1632.33 1567.82 1629.69 1568.39 Q1627.08 1568.97 1624.12 1568.97 Q1616.06 1568.97 1611.32 1563.91 Q1606.58 1558.85 1606.58 1550.25 Q1606.58 1541.53 1611.35 1536.53 Q1616.16 1531.54 1624.5 1531.54 Q1627.2 1531.54 1629.78 1532.11 Q1632.36 1532.65 1634.78 1533.76 Z" fill="#000000" fill-rule="nonzero" fill-opacity="1" /><path clip-path="url(#clip610)" d="M1647.35 1543.15 L1660.85 1543.15 L1660.85 1546.78 L1641.81 1546.78 L1641.81 1543.28 Q1642.9 1542.29 1644.9 1540.51 Q1655.85 1530.8 1655.85 1527.81 Q1655.85 1525.71 1654.2 1524.44 Q1652.54 1523.13 1649.83 1523.13 Q1648.18 1523.13 1646.24 1523.71 Q1644.3 1524.25 1642.01 1525.36 L1642.01 1521.45 Q1644.46 1520.56 1646.56 1520.11 Q1648.69 1519.66 1650.5 1519.66 Q1655.12 1519.66 1657.89 1521.77 Q1660.66 1523.87 1660.66 1527.3 Q1660.66 1531.73 1650.12 1540.77 Q1648.34 1542.29 1647.35 1543.15 Z" fill="#000000" fill-rule="nonzero" fill-opacity="1" /><path clip-path="url(#clip610)" d="M1670.17 1518.58 L1675.27 1518.58 Q1680.04 1526.09 1682.4 1533.29 Q1684.78 1540.48 1684.78 1547.58 Q1684.78 1554.71 1682.4 1561.93 Q1680.04 1569.16 1675.27 1576.64 L1670.17 1576.64 Q1674.41 1569.35 1676.48 1562.16 Q1678.58 1554.93 1678.58 1547.58 Q1678.58 1540.23 1676.48 1533.06 Q1674.41 1525.9 1670.17 1518.58 Z" fill="#000000" fill-rule="nonzero" fill-opacity="1" /><polyline clip-path="url(#clip612)" style="stroke:#000000; stroke-linecap:round; stroke-linejoin:round; stroke-width:2; stroke-opacity:0.1; fill:none" points="250.028,1423.18 2352.76,1423.18 "/>
<polyline clip-path="url(#clip612)" style="stroke:#000000; stroke-linecap:round; stroke-linejoin:round; stroke-width:2; stroke-opacity:0.1; fill:none" points="250.028,1147.99 2352.76,1147.99 "/>
<polyline clip-path="url(#clip612)" style="stroke:#000000; stroke-linecap:round; stroke-linejoin:round; stroke-width:2; stroke-opacity:0.1; fill:none" points="250.028,872.806 2352.76,872.806 "/>
<polyline clip-path="url(#clip612)" style="stroke:#000000; stroke-linecap:round; stroke-linejoin:round; stroke-width:2; stroke-opacity:0.1; fill:none" points="250.028,597.618 2352.76,597.618 "/>
<polyline clip-path="url(#clip612)" style="stroke:#000000; stroke-linecap:round; stroke-linejoin:round; stroke-width:2; stroke-opacity:0.1; fill:none" points="250.028,322.431 2352.76,322.431 "/>
<polyline clip-path="url(#clip610)" style="stroke:#000000; stroke-linecap:round; stroke-linejoin:round; stroke-width:4; stroke-opacity:1; fill:none" points="250.028,1423.18 250.028,47.2441 "/>
<polyline clip-path="url(#clip610)" style="stroke:#000000; stroke-linecap:round; stroke-linejoin:round; stroke-width:4; stroke-opacity:1; fill:none" points="250.028,1423.18 268.926,1423.18 "/>
<polyline clip-path="url(#clip610)" style="stroke:#000000; stroke-linecap:round; stroke-linejoin:round; stroke-width:4; stroke-opacity:1; fill:none" points="250.028,1147.99 268.926,1147.99 "/>
<polyline clip-path="url(#clip610)" style="stroke:#000000; stroke-linecap:round; stroke-linejoin:round; stroke-width:4; stroke-opacity:1; fill:none" points="250.028,872.806 268.926,872.806 "/>
<polyline clip-path="url(#clip610)" style="stroke:#000000; stroke-linecap:round; stroke-linejoin:round; stroke-width:4; stroke-opacity:1; fill:none" points="250.028,597.618 268.926,597.618 "/>
<polyline clip-path="url(#clip610)" style="stroke:#000000; stroke-linecap:round; stroke-linejoin:round; stroke-width:4; stroke-opacity:1; fill:none" points="250.028,322.431 268.926,322.431 "/>
<path clip-path="url(#clip610)" d="M126.691 1408.98 Q123.08 1408.98 121.251 1412.54 Q119.445 1416.08 119.445 1423.21 Q119.445 1430.32 121.251 1433.89 Q123.08 1437.43 126.691 1437.43 Q130.325 1437.43 132.13 1433.89 Q133.959 1430.32 133.959 1423.21 Q133.959 1416.08 132.13 1412.54 Q130.325 1408.98 126.691 1408.98 M126.691 1405.27 Q132.501 1405.27 135.556 1409.88 Q138.635 1414.46 138.635 1423.21 Q138.635 1431.94 135.556 1436.55 Q132.501 1441.13 126.691 1441.13 Q120.88 1441.13 117.802 1436.55 Q114.746 1431.94 114.746 1423.21 Q114.746 1414.46 117.802 1409.88 Q120.88 1405.27 126.691 1405.27 Z" fill="#000000" fill-rule="nonzero" fill-opacity="1" /><path clip-path="url(#clip610)" d="M146.853 1434.58 L151.737 1434.58 L151.737 1440.46 L146.853 1440.46 L146.853 1434.58 Z" fill="#000000" fill-rule="nonzero" fill-opacity="1" /><path clip-path="url(#clip610)" d="M162.061 1439.74 L162.061 1435.48 Q163.82 1436.32 165.626 1436.76 Q167.431 1437.2 169.167 1437.2 Q173.797 1437.2 176.227 1434.09 Q178.681 1430.97 179.028 1424.63 Q177.686 1426.62 175.626 1427.68 Q173.565 1428.75 171.065 1428.75 Q165.88 1428.75 162.848 1425.62 Q159.839 1422.47 159.839 1417.03 Q159.839 1411.71 162.987 1408.49 Q166.135 1405.27 171.366 1405.27 Q177.362 1405.27 180.51 1409.88 Q183.681 1414.46 183.681 1423.21 Q183.681 1431.39 179.792 1436.27 Q175.926 1441.13 169.376 1441.13 Q167.616 1441.13 165.811 1440.78 Q164.005 1440.44 162.061 1439.74 M171.366 1425.09 Q174.514 1425.09 176.343 1422.94 Q178.195 1420.78 178.195 1417.03 Q178.195 1413.31 176.343 1411.15 Q174.514 1408.98 171.366 1408.98 Q168.218 1408.98 166.366 1411.15 Q164.538 1413.31 164.538 1417.03 Q164.538 1420.78 166.366 1422.94 Q168.218 1425.09 171.366 1425.09 Z" fill="#000000" fill-rule="nonzero" fill-opacity="1" /><path clip-path="url(#clip610)" d="M202.084 1408.98 Q198.473 1408.98 196.644 1412.54 Q194.838 1416.08 194.838 1423.21 Q194.838 1430.32 196.644 1433.89 Q198.473 1437.43 202.084 1437.43 Q205.718 1437.43 207.524 1433.89 Q209.352 1430.32 209.352 1423.21 Q209.352 1416.08 207.524 1412.54 Q205.718 1408.98 202.084 1408.98 M202.084 1405.27 Q207.894 1405.27 210.949 1409.88 Q214.028 1414.46 214.028 1423.21 Q214.028 1431.94 210.949 1436.55 Q207.894 1441.13 202.084 1441.13 Q196.274 1441.13 193.195 1436.55 Q190.139 1431.94 190.139 1423.21 Q190.139 1414.46 193.195 1409.88 Q196.274 1405.27 202.084 1405.27 Z" fill="#000000" fill-rule="nonzero" fill-opacity="1" /><path clip-path="url(#clip610)" d="M128.288 1133.79 Q124.677 1133.79 122.848 1137.36 Q121.043 1140.9 121.043 1148.03 Q121.043 1155.13 122.848 1158.7 Q124.677 1162.24 128.288 1162.24 Q131.922 1162.24 133.728 1158.7 Q135.556 1155.13 135.556 1148.03 Q135.556 1140.9 133.728 1137.36 Q131.922 1133.79 128.288 1133.79 M128.288 1130.09 Q134.098 1130.09 137.154 1134.69 Q140.232 1139.28 140.232 1148.03 Q140.232 1156.75 137.154 1161.36 Q134.098 1165.94 128.288 1165.94 Q122.478 1165.94 119.399 1161.36 Q116.343 1156.75 116.343 1148.03 Q116.343 1139.28 119.399 1134.69 Q122.478 1130.09 128.288 1130.09 Z" fill="#000000" fill-rule="nonzero" fill-opacity="1" /><path clip-path="url(#clip610)" d="M148.45 1159.39 L153.334 1159.39 L153.334 1165.27 L148.45 1165.27 L148.45 1159.39 Z" fill="#000000" fill-rule="nonzero" fill-opacity="1" /><path clip-path="url(#clip610)" d="M163.658 1164.56 L163.658 1160.3 Q165.417 1161.13 167.223 1161.57 Q169.028 1162.01 170.764 1162.01 Q175.394 1162.01 177.825 1158.91 Q180.278 1155.78 180.626 1149.44 Q179.283 1151.43 177.223 1152.49 Q175.163 1153.56 172.663 1153.56 Q167.477 1153.56 164.445 1150.43 Q161.436 1147.29 161.436 1141.85 Q161.436 1136.52 164.584 1133.31 Q167.732 1130.09 172.964 1130.09 Q178.959 1130.09 182.107 1134.69 Q185.278 1139.28 185.278 1148.03 Q185.278 1156.2 181.389 1161.08 Q177.524 1165.94 170.973 1165.94 Q169.214 1165.94 167.408 1165.6 Q165.602 1165.25 163.658 1164.56 M172.964 1149.9 Q176.112 1149.9 177.94 1147.75 Q179.792 1145.6 179.792 1141.85 Q179.792 1138.12 177.94 1135.97 Q176.112 1133.79 172.964 1133.79 Q169.815 1133.79 167.964 1135.97 Q166.135 1138.12 166.135 1141.85 Q166.135 1145.6 167.964 1147.75 Q169.815 1149.9 172.964 1149.9 Z" fill="#000000" fill-rule="nonzero" fill-opacity="1" /><path clip-path="url(#clip610)" d="M197.709 1161.34 L214.028 1161.34 L214.028 1165.27 L192.084 1165.27 L192.084 1161.34 Q194.746 1158.58 199.329 1153.95 Q203.936 1149.3 205.116 1147.96 Q207.362 1145.43 208.241 1143.7 Q209.144 1141.94 209.144 1140.25 Q209.144 1137.5 207.199 1135.76 Q205.278 1134.02 202.176 1134.02 Q199.977 1134.02 197.524 1134.79 Q195.093 1135.55 192.315 1137.1 L192.315 1132.38 Q195.139 1131.25 197.593 1130.67 Q200.047 1130.09 202.084 1130.09 Q207.454 1130.09 210.649 1132.77 Q213.843 1135.46 213.843 1139.95 Q213.843 1142.08 213.033 1144 Q212.246 1145.9 210.139 1148.49 Q209.561 1149.16 206.459 1152.38 Q203.357 1155.57 197.709 1161.34 Z" fill="#000000" fill-rule="nonzero" fill-opacity="1" /><path clip-path="url(#clip610)" d="M126.205 858.604 Q122.593 858.604 120.765 862.169 Q118.959 865.711 118.959 872.84 Q118.959 879.947 120.765 883.512 Q122.593 887.053 126.205 887.053 Q129.839 887.053 131.644 883.512 Q133.473 879.947 133.473 872.84 Q133.473 865.711 131.644 862.169 Q129.839 858.604 126.205 858.604 M126.205 854.901 Q132.015 854.901 135.07 859.507 Q138.149 864.09 138.149 872.84 Q138.149 881.567 135.07 886.174 Q132.015 890.757 126.205 890.757 Q120.394 890.757 117.316 886.174 Q114.26 881.567 114.26 872.84 Q114.26 864.09 117.316 859.507 Q120.394 854.901 126.205 854.901 Z" fill="#000000" fill-rule="nonzero" fill-opacity="1" /><path clip-path="url(#clip610)" d="M146.366 884.206 L151.251 884.206 L151.251 890.086 L146.366 890.086 L146.366 884.206 Z" fill="#000000" fill-rule="nonzero" fill-opacity="1" /><path clip-path="url(#clip610)" d="M161.575 889.368 L161.575 885.109 Q163.334 885.942 165.14 886.382 Q166.945 886.822 168.681 886.822 Q173.311 886.822 175.741 883.72 Q178.195 880.595 178.542 874.252 Q177.2 876.243 175.139 877.308 Q173.079 878.373 170.579 878.373 Q165.394 878.373 162.362 875.248 Q159.353 872.1 159.353 866.66 Q159.353 861.336 162.501 858.118 Q165.649 854.901 170.88 854.901 Q176.876 854.901 180.024 859.507 Q183.195 864.09 183.195 872.84 Q183.195 881.012 179.306 885.896 Q175.44 890.757 168.889 890.757 Q167.13 890.757 165.325 890.41 Q163.519 890.062 161.575 889.368 M170.88 874.715 Q174.028 874.715 175.857 872.562 Q177.709 870.41 177.709 866.66 Q177.709 862.933 175.857 860.78 Q174.028 858.604 170.88 858.604 Q167.732 858.604 165.88 860.78 Q164.052 862.933 164.052 866.66 Q164.052 870.41 165.88 872.562 Q167.732 874.715 170.88 874.715 Z" fill="#000000" fill-rule="nonzero" fill-opacity="1" /><path clip-path="url(#clip610)" d="M204.445 859.6 L192.639 878.049 L204.445 878.049 L204.445 859.6 M203.218 855.526 L209.098 855.526 L209.098 878.049 L214.028 878.049 L214.028 881.937 L209.098 881.937 L209.098 890.086 L204.445 890.086 L204.445 881.937 L188.843 881.937 L188.843 877.424 L203.218 855.526 Z" fill="#000000" fill-rule="nonzero" fill-opacity="1" /><path clip-path="url(#clip610)" d="M126.529 583.417 Q122.918 583.417 121.089 586.982 Q119.283 590.524 119.283 597.653 Q119.283 604.76 121.089 608.324 Q122.918 611.866 126.529 611.866 Q130.163 611.866 131.968 608.324 Q133.797 604.76 133.797 597.653 Q133.797 590.524 131.968 586.982 Q130.163 583.417 126.529 583.417 M126.529 579.713 Q132.339 579.713 135.394 584.32 Q138.473 588.903 138.473 597.653 Q138.473 606.38 135.394 610.986 Q132.339 615.57 126.529 615.57 Q120.718 615.57 117.64 610.986 Q114.584 606.38 114.584 597.653 Q114.584 588.903 117.64 584.32 Q120.718 579.713 126.529 579.713 Z" fill="#000000" fill-rule="nonzero" fill-opacity="1" /><path clip-path="url(#clip610)" d="M146.691 609.019 L151.575 609.019 L151.575 614.898 L146.691 614.898 L146.691 609.019 Z" fill="#000000" fill-rule="nonzero" fill-opacity="1" /><path clip-path="url(#clip610)" d="M161.899 614.181 L161.899 609.922 Q163.658 610.755 165.464 611.195 Q167.269 611.635 169.005 611.635 Q173.635 611.635 176.065 608.533 Q178.519 605.408 178.866 599.065 Q177.524 601.056 175.464 602.121 Q173.403 603.185 170.903 603.185 Q165.718 603.185 162.686 600.061 Q159.677 596.912 159.677 591.473 Q159.677 586.149 162.825 582.931 Q165.973 579.713 171.204 579.713 Q177.2 579.713 180.348 584.32 Q183.519 588.903 183.519 597.653 Q183.519 605.824 179.63 610.709 Q175.764 615.57 169.214 615.57 Q167.454 615.57 165.649 615.222 Q163.843 614.875 161.899 614.181 M171.204 599.528 Q174.352 599.528 176.181 597.375 Q178.033 595.223 178.033 591.473 Q178.033 587.746 176.181 585.593 Q174.352 583.417 171.204 583.417 Q168.056 583.417 166.204 585.593 Q164.376 587.746 164.376 591.473 Q164.376 595.223 166.204 597.375 Q168.056 599.528 171.204 599.528 Z" fill="#000000" fill-rule="nonzero" fill-opacity="1" /><path clip-path="url(#clip610)" d="M202.5 595.755 Q199.352 595.755 197.5 597.908 Q195.672 600.061 195.672 603.81 Q195.672 607.537 197.5 609.713 Q199.352 611.866 202.5 611.866 Q205.649 611.866 207.477 609.713 Q209.329 607.537 209.329 603.81 Q209.329 600.061 207.477 597.908 Q205.649 595.755 202.5 595.755 M211.783 581.102 L211.783 585.362 Q210.024 584.528 208.218 584.088 Q206.436 583.649 204.676 583.649 Q200.047 583.649 197.593 586.774 Q195.163 589.899 194.815 596.218 Q196.181 594.204 198.241 593.139 Q200.301 592.051 202.778 592.051 Q207.987 592.051 210.996 595.223 Q214.028 598.371 214.028 603.81 Q214.028 609.135 210.88 612.352 Q207.732 615.57 202.5 615.57 Q196.505 615.57 193.334 610.986 Q190.163 606.38 190.163 597.653 Q190.163 589.459 194.051 584.598 Q197.94 579.713 204.491 579.713 Q206.25 579.713 208.033 580.061 Q209.838 580.408 211.783 581.102 Z" fill="#000000" fill-rule="nonzero" fill-opacity="1" /><path clip-path="url(#clip610)" d="M126.783 308.23 Q123.172 308.23 121.343 311.795 Q119.538 315.336 119.538 322.466 Q119.538 329.572 121.343 333.137 Q123.172 336.679 126.783 336.679 Q130.417 336.679 132.223 333.137 Q134.052 329.572 134.052 322.466 Q134.052 315.336 132.223 311.795 Q130.417 308.23 126.783 308.23 M126.783 304.526 Q132.593 304.526 135.649 309.133 Q138.728 313.716 138.728 322.466 Q138.728 331.193 135.649 335.799 Q132.593 340.383 126.783 340.383 Q120.973 340.383 117.894 335.799 Q114.839 331.193 114.839 322.466 Q114.839 313.716 117.894 309.133 Q120.973 304.526 126.783 304.526 Z" fill="#000000" fill-rule="nonzero" fill-opacity="1" /><path clip-path="url(#clip610)" d="M146.945 333.832 L151.829 333.832 L151.829 339.711 L146.945 339.711 L146.945 333.832 Z" fill="#000000" fill-rule="nonzero" fill-opacity="1" /><path clip-path="url(#clip610)" d="M162.153 338.994 L162.153 334.734 Q163.913 335.568 165.718 336.008 Q167.524 336.447 169.26 336.447 Q173.889 336.447 176.32 333.346 Q178.774 330.221 179.121 323.878 Q177.778 325.869 175.718 326.934 Q173.658 327.998 171.158 327.998 Q165.973 327.998 162.94 324.873 Q159.931 321.725 159.931 316.285 Q159.931 310.961 163.079 307.744 Q166.227 304.526 171.459 304.526 Q177.454 304.526 180.602 309.133 Q183.774 313.716 183.774 322.466 Q183.774 330.637 179.885 335.521 Q176.019 340.383 169.468 340.383 Q167.709 340.383 165.903 340.035 Q164.098 339.688 162.153 338.994 M171.459 324.341 Q174.607 324.341 176.436 322.188 Q178.288 320.035 178.288 316.285 Q178.288 312.559 176.436 310.406 Q174.607 308.23 171.459 308.23 Q168.311 308.23 166.459 310.406 Q164.63 312.559 164.63 316.285 Q164.63 320.035 166.459 322.188 Q168.311 324.341 171.459 324.341 Z" fill="#000000" fill-rule="nonzero" fill-opacity="1" /><path clip-path="url(#clip610)" d="M202.176 323.299 Q198.843 323.299 196.922 325.082 Q195.024 326.864 195.024 329.989 Q195.024 333.114 196.922 334.896 Q198.843 336.679 202.176 336.679 Q205.51 336.679 207.431 334.896 Q209.352 333.091 209.352 329.989 Q209.352 326.864 207.431 325.082 Q205.533 323.299 202.176 323.299 M197.5 321.309 Q194.491 320.568 192.801 318.508 Q191.135 316.447 191.135 313.485 Q191.135 309.341 194.075 306.934 Q197.037 304.526 202.176 304.526 Q207.338 304.526 210.278 306.934 Q213.218 309.341 213.218 313.485 Q213.218 316.447 211.528 318.508 Q209.861 320.568 206.875 321.309 Q210.255 322.096 212.13 324.387 Q214.028 326.679 214.028 329.989 Q214.028 335.012 210.949 337.697 Q207.894 340.383 202.176 340.383 Q196.459 340.383 193.38 337.697 Q190.325 335.012 190.325 329.989 Q190.325 326.679 192.223 324.387 Q194.121 322.096 197.5 321.309 M195.787 313.924 Q195.787 316.61 197.454 318.114 Q199.144 319.619 202.176 319.619 Q205.186 319.619 206.875 318.114 Q208.588 316.61 208.588 313.924 Q208.588 311.239 206.875 309.735 Q205.186 308.23 202.176 308.23 Q199.144 308.23 197.454 309.735 Q195.787 311.239 195.787 313.924 Z" fill="#000000" fill-rule="nonzero" fill-opacity="1" /><path clip-path="url(#clip610)" d="M41.3104 998.943 L58.7206 998.943 L58.7206 988.631 Q58.7206 983.443 56.5881 980.96 Q54.4238 978.446 49.9996 978.446 Q45.5436 978.446 43.4429 980.96 Q41.3104 983.443 41.3104 988.631 L41.3104 998.943 M21.7677 998.943 L36.0905 998.943 L36.0905 989.426 Q36.0905 984.716 34.34 982.424 Q32.5576 980.101 28.9291 980.101 Q25.3325 980.101 23.5501 982.424 Q21.7677 984.716 21.7677 989.426 L21.7677 998.943 M16.4842 1005.37 L16.4842 988.949 Q16.4842 981.597 19.5397 977.618 Q22.5952 973.64 28.2289 973.64 Q32.5894 973.64 35.1675 975.677 Q37.7456 977.714 38.3822 981.66 Q39.4007 976.918 42.6472 974.308 Q45.8619 971.666 50.6998 971.666 Q57.0655 971.666 60.5348 975.995 Q64.0042 980.324 64.0042 988.312 L64.0042 1005.37 L16.4842 1005.37 Z" fill="#000000" fill-rule="nonzero" fill-opacity="1" /><path clip-path="url(#clip610)" d="M14.479 960.908 L14.479 955.052 L64.0042 955.052 L64.0042 960.908 L14.479 960.908 Z" fill="#000000" fill-rule="nonzero" fill-opacity="1" /><path clip-path="url(#clip610)" d="M46.0847 926.597 Q46.0847 933.695 47.7079 936.432 Q49.3312 939.169 53.2461 939.169 Q56.3653 939.169 58.2114 937.132 Q60.0256 935.063 60.0256 931.53 Q60.0256 926.661 56.5881 923.732 Q53.1188 920.772 47.3897 920.772 L46.0847 920.772 L46.0847 926.597 M43.6657 914.916 L64.0042 914.916 L64.0042 920.772 L58.5933 920.772 Q61.8398 922.778 63.3994 925.769 Q64.9272 928.761 64.9272 933.09 Q64.9272 938.564 61.8716 941.811 Q58.7843 945.026 53.6281 945.026 Q47.6125 945.026 44.5569 941.015 Q41.5014 936.973 41.5014 928.984 L41.5014 920.772 L40.9285 920.772 Q36.8862 920.772 34.6901 923.446 Q32.4621 926.088 32.4621 930.894 Q32.4621 933.949 33.1941 936.846 Q33.9262 939.742 35.3903 942.416 L29.9795 942.416 Q28.7381 939.201 28.1334 936.177 Q27.4968 933.154 27.4968 930.289 Q27.4968 922.555 31.5072 918.735 Q35.5176 914.916 43.6657 914.916 Z" fill="#000000" fill-rule="nonzero" fill-opacity="1" /><path clip-path="url(#clip610)" d="M29.7248 877.199 L35.1993 877.199 Q33.8307 879.682 33.1623 882.196 Q32.4621 884.679 32.4621 887.225 Q32.4621 892.922 36.0905 896.073 Q39.6872 899.224 46.212 899.224 Q52.7369 899.224 56.3653 896.073 Q59.9619 892.922 59.9619 887.225 Q59.9619 884.679 59.2935 882.196 Q58.5933 879.682 57.2247 877.199 L62.6355 877.199 Q63.7814 879.65 64.3543 882.292 Q64.9272 884.902 64.9272 887.862 Q64.9272 895.914 59.8664 900.657 Q54.8057 905.399 46.212 905.399 Q37.491 905.399 32.4939 900.625 Q27.4968 895.819 27.4968 887.48 Q27.4968 884.774 28.0697 882.196 Q28.6108 879.618 29.7248 877.199 Z" fill="#000000" fill-rule="nonzero" fill-opacity="1" /><path clip-path="url(#clip610)" d="M14.479 867.237 L14.479 861.348 L43.7294 861.348 L28.3562 843.875 L28.3562 836.395 L45.0344 855.301 L64.0042 835.599 L64.0042 843.238 L46.5939 861.348 L64.0042 861.348 L64.0042 867.237 L14.479 867.237 Z" fill="#000000" fill-rule="nonzero" fill-opacity="1" /><path clip-path="url(#clip610)" d="M42.4881 778.913 L64.0042 778.913 L64.0042 784.769 L42.679 784.769 Q37.6183 784.769 35.1038 786.742 Q32.5894 788.716 32.5894 792.662 Q32.5894 797.405 35.6131 800.142 Q38.6368 802.879 43.8567 802.879 L64.0042 802.879 L64.0042 808.768 L14.479 808.768 L14.479 802.879 L33.8944 802.879 Q30.6797 800.779 29.0883 797.946 Q27.4968 795.081 27.4968 791.358 Q27.4968 785.215 31.3163 782.064 Q35.1038 778.913 42.4881 778.913 Z" fill="#000000" fill-rule="nonzero" fill-opacity="1" /><path clip-path="url(#clip610)" d="M32.4621 753.418 Q32.4621 758.129 36.1542 760.866 Q39.8145 763.603 46.212 763.603 Q52.6095 763.603 56.3017 760.898 Q59.9619 758.16 59.9619 753.418 Q59.9619 748.739 56.2698 746.002 Q52.5777 743.265 46.212 743.265 Q39.8781 743.265 36.186 746.002 Q32.4621 748.739 32.4621 753.418 M27.4968 753.418 Q27.4968 745.779 32.4621 741.419 Q37.4273 737.058 46.212 737.058 Q54.9649 737.058 59.9619 741.419 Q64.9272 745.779 64.9272 753.418 Q64.9272 761.089 59.9619 765.449 Q54.9649 769.778 46.212 769.778 Q37.4273 769.778 32.4621 765.449 Q27.4968 761.089 27.4968 753.418 Z" fill="#000000" fill-rule="nonzero" fill-opacity="1" /><path clip-path="url(#clip610)" d="M14.479 727.35 L14.479 721.494 L64.0042 721.494 L64.0042 727.35 L14.479 727.35 Z" fill="#000000" fill-rule="nonzero" fill-opacity="1" /><path clip-path="url(#clip610)" d="M44.7161 678.748 L47.5806 678.748 L47.5806 705.675 Q53.6281 705.293 56.8109 702.047 Q59.9619 698.768 59.9619 692.944 Q59.9619 689.57 59.1344 686.419 Q58.3069 683.236 56.6518 680.117 L62.1899 680.117 Q63.5267 683.268 64.227 686.578 Q64.9272 689.888 64.9272 693.294 Q64.9272 701.824 59.9619 706.821 Q54.9967 711.786 46.5303 711.786 Q37.7774 711.786 32.6531 707.076 Q27.4968 702.333 27.4968 694.312 Q27.4968 687.119 32.1438 682.95 Q36.7589 678.748 44.7161 678.748 M42.9973 684.605 Q38.1912 684.668 35.3266 687.31 Q32.4621 689.92 32.4621 694.249 Q32.4621 699.15 35.2312 702.11 Q38.0002 705.039 43.0292 705.484 L42.9973 684.605 Z" fill="#000000" fill-rule="nonzero" fill-opacity="1" /><path clip-path="url(#clip610)" d="M29.4065 625.69 L34.9447 625.69 Q33.6716 628.173 33.035 630.846 Q32.3984 633.52 32.3984 636.384 Q32.3984 640.745 33.7352 642.941 Q35.072 645.105 37.7456 645.105 Q39.7826 645.105 40.9603 643.546 Q42.1061 641.986 43.1565 637.276 L43.6021 635.27 Q44.9389 629.032 47.3897 626.422 Q49.8086 623.78 54.1691 623.78 Q59.1344 623.78 62.0308 627.727 Q64.9272 631.642 64.9272 638.517 Q64.9272 641.381 64.3543 644.501 Q63.8132 647.588 62.6992 651.025 L56.6518 651.025 Q58.3387 647.779 59.198 644.628 Q60.0256 641.477 60.0256 638.39 Q60.0256 634.252 58.6251 632.024 Q57.1929 629.796 54.6147 629.796 Q52.2276 629.796 50.9545 631.419 Q49.6813 633.011 48.5037 638.453 L48.0262 640.49 Q46.8804 645.933 44.5251 648.352 Q42.138 650.771 38.0002 650.771 Q32.9713 650.771 30.2341 647.206 Q27.4968 643.641 27.4968 637.085 Q27.4968 633.838 27.9743 630.974 Q28.4517 628.109 29.4065 625.69 Z" fill="#000000" fill-rule="nonzero" fill-opacity="1" /><path clip-path="url(#clip610)" d="M58.657 608.789 L77.5631 608.789 L77.5631 614.677 L28.3562 614.677 L28.3562 608.789 L33.7671 608.789 Q30.5842 606.943 29.0564 604.142 Q27.4968 601.309 27.4968 597.394 Q27.4968 590.901 32.6531 586.859 Q37.8093 582.785 46.212 582.785 Q54.6147 582.785 59.771 586.859 Q64.9272 590.901 64.9272 597.394 Q64.9272 601.309 63.3994 604.142 Q61.8398 606.943 58.657 608.789 M46.212 588.864 Q39.7508 588.864 36.0905 591.538 Q32.3984 594.18 32.3984 598.827 Q32.3984 603.474 36.0905 606.147 Q39.7508 608.789 46.212 608.789 Q52.6732 608.789 56.3653 606.147 Q60.0256 603.474 60.0256 598.827 Q60.0256 594.18 56.3653 591.538 Q52.6732 588.864 46.212 588.864 Z" fill="#000000" fill-rule="nonzero" fill-opacity="1" /><path clip-path="url(#clip610)" d="M28.3562 573.077 L28.3562 567.221 L64.0042 567.221 L64.0042 573.077 L28.3562 573.077 M14.479 573.077 L14.479 567.221 L21.895 567.221 L21.895 573.077 L14.479 573.077 Z" fill="#000000" fill-rule="nonzero" fill-opacity="1" /><path clip-path="url(#clip610)" d="M42.4881 525.335 L64.0042 525.335 L64.0042 531.191 L42.679 531.191 Q37.6183 531.191 35.1038 533.164 Q32.5894 535.138 32.5894 539.085 Q32.5894 543.827 35.6131 546.564 Q38.6368 549.302 43.8567 549.302 L64.0042 549.302 L64.0042 555.19 L28.3562 555.19 L28.3562 549.302 L33.8944 549.302 Q30.6797 547.201 29.0883 544.368 Q27.4968 541.504 27.4968 537.78 Q27.4968 531.637 31.3163 528.486 Q35.1038 525.335 42.4881 525.335 Z" fill="#000000" fill-rule="nonzero" fill-opacity="1" /><path clip-path="url(#clip610)" d="M46.0847 476.732 Q46.0847 483.83 47.7079 486.567 Q49.3312 489.305 53.2461 489.305 Q56.3653 489.305 58.2114 487.268 Q60.0256 485.199 60.0256 481.666 Q60.0256 476.796 56.5881 473.868 Q53.1188 470.908 47.3897 470.908 L46.0847 470.908 L46.0847 476.732 M43.6657 465.051 L64.0042 465.051 L64.0042 470.908 L58.5933 470.908 Q61.8398 472.913 63.3994 475.905 Q64.9272 478.897 64.9272 483.225 Q64.9272 488.7 61.8716 491.946 Q58.7843 495.161 53.6281 495.161 Q47.6125 495.161 44.5569 491.151 Q41.5014 487.109 41.5014 479.12 L41.5014 470.908 L40.9285 470.908 Q36.8862 470.908 34.6901 473.581 Q32.4621 476.223 32.4621 481.029 Q32.4621 484.085 33.1941 486.981 Q33.9262 489.878 35.3903 492.551 L29.9795 492.551 Q28.7381 489.337 28.1334 486.313 Q27.4968 483.289 27.4968 480.425 Q27.4968 472.69 31.5072 468.871 Q35.5176 465.051 43.6657 465.051 Z" fill="#000000" fill-rule="nonzero" fill-opacity="1" /><path clip-path="url(#clip612)" d="M250.028 1423.18 L250.028 1423.18 L425.255 1423.18 L600.483 1423.18 L775.71 1423.18 L950.937 1423.18 L1126.16 1423.18 L1301.39 1423.18 L1476.62 1423.18 L1651.85 1423.18 L1827.07 1423.18 L2002.3 1423.18 L2177.53 1423.18 L2352.76 1423.18 L2352.76 1423.18 L2352.76 1423.18 L2352.76 1423.18 L2352.76 1285.59 L2352.76 1147.99 L2352.76 1010.4 L2352.76 872.806 L2352.76 735.212 L2352.76 597.618 L2352.76 460.025 L2352.76 322.431 L2352.76 184.838 L2352.76 47.2441 L2352.76 47.2441 L2352.76 47.2441 L2352.76 47.2441 L2177.53 47.2441 L2002.3 47.2441 L1827.07 47.2441 L1651.85 47.2441 L1476.62 47.2441 L1301.39 47.2441 L1126.16 47.2441 L950.937 47.2441 L775.71 47.2441 L600.483 47.2441 L425.255 47.2441 L250.028 47.2441 L250.028 47.2441 L250.028 47.2441 L250.028 47.2441 L250.028 184.838 L250.028 322.431 L250.028 460.025 L250.028 597.618 L250.028 735.212 L250.028 872.806 L250.028 1010.4 L250.028 1147.99 L250.028 1285.59 L250.028 1423.18 L250.028 1423.18 L250.028 1423.18  Z" fill="#008000" fill-rule="evenodd" fill-opacity="1"/>
<path clip-path="url(#clip612)" d="M250.028 1423.18 L250.028 1423.18 L425.255 1423.18 L600.483 1423.18 L775.71 1423.18 L950.937 1423.18 L1126.16 1423.18 L1301.39 1423.18 L1476.62 1423.18 L1651.85 1423.18 L1827.07 1423.18 L2002.3 1423.18 L2177.53 1423.18 L2352.76 1423.18 L2352.76 1423.18 L2352.76 1423.18 L2352.76 1423.18 L2352.76 1285.59 L2352.76 1147.99 L2352.76 1010.4 L2352.76 872.806 L2352.76 735.212 L2352.76 597.618 L2352.76 460.025 L2352.76 322.431 L2352.76 184.838 L2352.76 47.2441 L2352.76 47.2441 L2352.76 47.2441 L2352.76 47.2441 L2177.53 47.2441 L2002.3 47.2441 L1827.07 47.2441 L1651.85 47.2441 L1476.62 47.2441 L1301.39 47.2441 L1387.5 47.2441 L1476.62 160.347 L1487.62 184.838 L1476.62 244.4 L1452.07 322.431 L1476.62 332.126 L1521.67 322.431 L1651.85 294.605 L1700.86 322.431 L1651.85 449.735 L1648.8 460.025 L1476.62 562.832 L1448.99 597.618 L1476.62 662.478 L1536.75 735.212 L1476.62 820.122 L1301.39 858.436 L1266.12 872.806 L1126.16 886.181 L1077.26 872.806 L950.937 776.857 L775.71 771.665 L600.483 748.835 L540.846 735.212 L600.483 695.922 L728.783 597.618 L600.483 499.774 L441.163 597.618 L425.255 613.328 L412.247 597.618 L389.361 460.025 L250.028 346.921 L250.028 460.025 L250.028 460.025 L250.028 597.618 L250.028 735.212 L250.028 872.806 L250.028 1010.4 L250.028 1147.99 L250.028 1285.59 L250.028 1423.18 L250.028 1423.18 L250.028 1423.18 M1301.39 1057.75 L1356.92 1010.4 L1301.39 893.621 L1278.24 1010.4 L1301.39 1057.75 M600.483 423.251 L775.71 447.461 L950.937 412.138 L993.006 322.431 L950.937 276.005 L775.71 224.882 L600.483 262.198 L503.801 322.431 L600.483 423.251 M250.028 184.838 L250.028 151.044 L356.57 47.2441 L250.028 47.2441 L250.028 47.2441 L250.028 47.2441 L250.028 47.2441 L250.028 47.2441 L250.028 184.838  Z" fill="#fea400" fill-rule="evenodd" fill-opacity="1"/>
<path clip-path="url(#clip612)" d="M250.028 1423.18 L250.028 1423.18 L425.255 1423.18 L600.483 1423.18 L775.71 1423.18 L950.937 1423.18 L1126.16 1423.18 L1301.39 1423.18 L1476.62 1423.18 L1651.85 1423.18 L1827.07 1423.18 L2002.3 1423.18 L2177.53 1423.18 L2352.76 1423.18 L2352.76 1423.18 L2352.76 1423.18 L2352.76 1423.18 L2352.76 1285.59 L2352.76 1147.99 L2352.76 1010.4 L2352.76 872.806 L2352.76 872.806 L2352.76 784.421 L2177.53 739.211 L2002.3 797.17 L1956.43 872.806 L1827.07 882.529 L1674.74 1010.4 L1651.85 1113.9 L1476.62 1027.25 L1330.59 1147.99 L1301.39 1232.7 L1181.9 1147.99 L1214.93 1010.4 L1126.16 937.892 L950.937 921.622 L775.71 898.076 L720.374 872.806 L600.483 837.08 L425.255 789.468 L365.687 735.212 L250.028 635.615 L250.028 735.212 L250.028 735.212 L250.028 872.806 L250.028 1010.4 L250.028 1147.99 L250.028 1285.59 L250.028 1423.18 L250.028 1423.18 L250.028 1423.18 M1827.07 724.996 L1990.85 597.618 L1827.07 463.945 L1668.72 597.618 L1827.07 724.996 M2177.53 542.349 L2253.39 460.025 L2177.53 401.263 L2078.01 460.025 L2177.53 542.349 M775.71 348.547 L817.397 322.431 L775.71 302.056 L720.227 322.431 L775.71 348.547 M250.028 184.838 L250.028 66.5908 L269.886 47.2441 L250.028 47.2441 L250.028 47.2441 L250.028 47.2441 L250.028 47.2441 L250.028 47.2441 L250.028 184.838  Z" fill="#ff0000" fill-rule="evenodd" fill-opacity="1"/>
<polyline clip-path="url(#clip612)" style="stroke:#000000; stroke-linecap:round; stroke-linejoin:round; stroke-width:4; stroke-opacity:1; fill:none" points="250.028,1423.18 250.028,1423.18 425.255,1423.18 600.483,1423.18 775.71,1423.18 950.937,1423.18 1126.16,1423.18 1301.39,1423.18 1476.62,1423.18 1651.85,1423.18 1827.07,1423.18 2002.3,1423.18 2177.53,1423.18 2352.76,1423.18 2352.76,1285.59 2352.76,1147.99 2352.76,1010.4 2352.76,872.806 2352.76,735.212 2352.76,597.618 2352.76,460.025 2352.76,322.431 2352.76,184.838 2352.76,47.2441 2177.53,47.2441 2002.3,47.2441 1827.07,47.2441 1651.85,47.2441 1476.62,47.2441 1301.39,47.2441 1126.16,47.2441 950.937,47.2441 775.71,47.2441 600.483,47.2441 425.255,47.2441 250.028,47.2441 250.028,184.838 250.028,322.431 250.028,460.025 250.028,597.618 250.028,735.212 250.028,872.806 250.028,1010.4 250.028,1147.99 250.028,1285.59 250.028,1423.18 "/>
<polyline clip-path="url(#clip612)" style="stroke:#000000; stroke-linecap:round; stroke-linejoin:round; stroke-width:4; stroke-opacity:1; fill:none" points="250.028,1423.18 250.028,1423.18 425.255,1423.18 600.483,1423.18 775.71,1423.18 950.937,1423.18 1126.16,1423.18 1301.39,1423.18 1476.62,1423.18 1651.85,1423.18 1827.07,1423.18 2002.3,1423.18 2177.53,1423.18 2352.76,1423.18 2352.76,1285.59 2352.76,1147.99 2352.76,1010.4 2352.76,872.806 2352.76,735.212 2352.76,597.618 2352.76,460.025 2352.76,322.431 2352.76,184.838 2352.76,47.2441 2177.53,47.2441 2002.3,47.2441 1827.07,47.2441 1651.85,47.2441 1476.62,47.2441 1301.39,47.2441 1387.5,47.2441 1476.62,160.347 1487.62,184.838 1476.62,244.4 1452.07,322.431 1476.62,332.126 1521.67,322.431 1651.85,294.605 1700.86,322.431 1651.85,449.735 1648.8,460.025 1476.62,562.832 1448.99,597.618 1476.62,662.478 1536.75,735.212 1476.62,820.122 1301.39,858.436 1266.12,872.806 1126.16,886.181 1077.26,872.806 950.937,776.857 775.71,771.665 600.483,748.835 540.846,735.212 600.483,695.922 728.783,597.618 600.483,499.774 441.163,597.618 425.255,613.328 412.247,597.618 389.361,460.025 250.028,346.921 250.028,460.025 250.028,597.618 250.028,735.212 250.028,872.806 250.028,1010.4 250.028,1147.99 250.028,1285.59 250.028,1423.18 "/>
<polyline clip-path="url(#clip612)" style="stroke:#000000; stroke-linecap:round; stroke-linejoin:round; stroke-width:4; stroke-opacity:1; fill:none" points="1301.39,1057.75 1356.92,1010.4 1301.39,893.621 1278.24,1010.4 1301.39,1057.75 "/>
<polyline clip-path="url(#clip612)" style="stroke:#000000; stroke-linecap:round; stroke-linejoin:round; stroke-width:4; stroke-opacity:1; fill:none" points="600.483,423.251 775.71,447.461 950.937,412.138 993.006,322.431 950.937,276.005 775.71,224.882 600.483,262.198 503.801,322.431 600.483,423.251 "/>
<polyline clip-path="url(#clip612)" style="stroke:#000000; stroke-linecap:round; stroke-linejoin:round; stroke-width:4; stroke-opacity:1; fill:none" points="250.028,184.838 250.028,151.044 356.57,47.2441 250.028,47.2441 250.028,184.838 "/>
<polyline clip-path="url(#clip612)" style="stroke:#000000; stroke-linecap:round; stroke-linejoin:round; stroke-width:4; stroke-opacity:1; fill:none" points="250.028,1423.18 250.028,1423.18 425.255,1423.18 600.483,1423.18 775.71,1423.18 950.937,1423.18 1126.16,1423.18 1301.39,1423.18 1476.62,1423.18 1651.85,1423.18 1827.07,1423.18 2002.3,1423.18 2177.53,1423.18 2352.76,1423.18 2352.76,1285.59 2352.76,1147.99 2352.76,1010.4 2352.76,872.806 2352.76,784.421 2177.53,739.211 2002.3,797.17 1956.43,872.806 1827.07,882.529 1674.74,1010.4 1651.85,1113.9 1476.62,1027.25 1330.59,1147.99 1301.39,1232.7 1181.9,1147.99 1214.93,1010.4 1126.16,937.892 950.937,921.622 775.71,898.076 720.374,872.806 600.483,837.08 425.255,789.468 365.687,735.212 250.028,635.615 250.028,735.212 250.028,872.806 250.028,1010.4 250.028,1147.99 250.028,1285.59 250.028,1423.18 "/>
<polyline clip-path="url(#clip612)" style="stroke:#000000; stroke-linecap:round; stroke-linejoin:round; stroke-width:4; stroke-opacity:1; fill:none" points="1827.07,724.996 1990.85,597.618 1827.07,463.945 1668.72,597.618 1827.07,724.996 "/>
<polyline clip-path="url(#clip612)" style="stroke:#000000; stroke-linecap:round; stroke-linejoin:round; stroke-width:4; stroke-opacity:1; fill:none" points="2177.53,542.349 2253.39,460.025 2177.53,401.263 2078.01,460.025 2177.53,542.349 "/>
<polyline clip-path="url(#clip612)" style="stroke:#000000; stroke-linecap:round; stroke-linejoin:round; stroke-width:4; stroke-opacity:1; fill:none" points="775.71,348.547 817.397,322.431 775.71,302.056 720.227,322.431 775.71,348.547 "/>
<polyline clip-path="url(#clip612)" style="stroke:#000000; stroke-linecap:round; stroke-linejoin:round; stroke-width:4; stroke-opacity:1; fill:none" points="250.028,184.838 250.028,66.5908 269.886,47.2441 250.028,47.2441 250.028,184.838 "/>
<path clip-path="url(#clip612)" d="M1172.68 706.742 L1157.64 750.006 L1111.82 750.966 L1148.36 778.678 L1135.05 822.518 L1172.68 796.342 L1210.31 822.518 L1197 778.678 L1233.55 750.966 L1187.72 750.006 L1172.68 706.742 Z" fill="#00ffff" fill-rule="evenodd" fill-opacity="1" stroke="#000000" stroke-opacity="1" stroke-width="3.2"/>
</svg>
