<?xml version="1.0" encoding="utf-8"?>
<svg xmlns="http://www.w3.org/2000/svg" xmlns:xlink="http://www.w3.org/1999/xlink" width="600" height="400" viewBox="0 0 2400 1600">
<defs>
  <clipPath id="clip370">
    <rect x="0" y="0" width="2400" height="1600"/>
  </clipPath>
</defs>
<path clip-path="url(#clip370)" d="M0 1600 L2400 1600 L2400 8.88178e-14 L0 8.88178e-14  Z" fill="#ffffff" fill-rule="evenodd" fill-opacity="1"/>
<defs>
  <clipPath id="clip371">
    <rect x="480" y="0" width="1681" height="1600"/>
  </clipPath>
</defs>
<path clip-path="url(#clip370)" d="M249.542 1423.18 L2352.76 1423.18 L2352.76 47.2441 L249.542 47.2441  Z" fill="#ffffff" fill-rule="evenodd" fill-opacity="1"/>
<defs>
  <clipPath id="clip372">
    <rect x="249" y="47" width="2104" height="1377"/>
  </clipPath>
</defs>
<polyline clip-path="url(#clip372)" style="stroke:#000000; stroke-linecap:round; stroke-linejoin:round; stroke-width:2; stroke-opacity:0.1; fill:none" points="600.078,1423.18 600.078,47.2441 "/>
<polyline clip-path="url(#clip372)" style="stroke:#000000; stroke-linecap:round; stroke-linejoin:round; stroke-width:2; stroke-opacity:0.1; fill:none" points="1038.25,1423.18 1038.25,47.2441 "/>
<polyline clip-path="url(#clip372)" style="stroke:#000000; stroke-linecap:round; stroke-linejoin:round; stroke-width:2; stroke-opacity:0.1; fill:none" points="1476.42,1423.18 1476.42,47.2441 "/>
<polyline clip-path="url(#clip372)" style="stroke:#000000; stroke-linecap:round; stroke-linejoin:round; stroke-width:2; stroke-opacity:0.1; fill:none" points="1914.59,1423.18 1914.59,47.2441 "/>
<polyline clip-path="url(#clip372)" style="stroke:#000000; stroke-linecap:round; stroke-linejoin:round; stroke-width:2; stroke-opacity:0.1; fill:none" points="2352.76,1423.18 2352.76,47.2441 "/>
<polyline clip-path="url(#clip370)" style="stroke:#000000; stroke-linecap:round; stroke-linejoin:round; stroke-width:4; stroke-opacity:1; fill:none" points="249.542,1423.18 2352.76,1423.18 "/>
<polyline clip-path="url(#clip370)" style="stroke:#000000; stroke-linecap:round; stroke-linejoin:round; stroke-width:4; stroke-opacity:1; fill:none" points="600.078,1423.18 600.078,1404.28 "/>
<polyline clip-path="url(#clip370)" style="stroke:#000000; stroke-linecap:round; stroke-linejoin:round; stroke-width:4; stroke-opacity:1; fill:none" points="1038.25,1423.18 1038.25,1404.28 "/>
<polyline clip-path="url(#clip370)" style="stroke:#000000; stroke-linecap:round; stroke-linejoin:round; stroke-width:4; stroke-opacity:1; fill:none" points="1476.42,1423.18 1476.42,1404.28 "/>
<polyline clip-path="url(#clip370)" style="stroke:#000000; stroke-linecap:round; stroke-linejoin:round; stroke-width:4; stroke-opacity:1; fill:none" points="1914.59,1423.18 1914.59,1404.28 "/>
<polyline clip-path="url(#clip370)" style="stroke:#000000; stroke-linecap:round; stroke-linejoin:round; stroke-width:4; stroke-opacity:1; fill:none" points="2352.76,1423.18 2352.76,1404.28 "/>
<path clip-path="url(#clip370)" d="M567.728 1481.64 L575.367 1481.64 L575.367 1455.28 L567.057 1456.95 L567.057 1452.69 L575.321 1451.02 L579.997 1451.02 L579.997 1481.64 L587.636 1481.64 L587.636 1485.58 L567.728 1485.58 L567.728 1481.64 Z" fill="#000000" fill-rule="nonzero" fill-opacity="1" /><path clip-path="url(#clip370)" d="M597.08 1479.7 L601.964 1479.7 L601.964 1485.58 L597.08 1485.58 L597.08 1479.7 Z" fill="#000000" fill-rule="nonzero" fill-opacity="1" /><path clip-path="url(#clip370)" d="M612.196 1451.02 L630.552 1451.02 L630.552 1454.96 L616.478 1454.96 L616.478 1463.43 Q617.497 1463.08 618.515 1462.92 Q619.534 1462.73 620.552 1462.73 Q626.339 1462.73 629.719 1465.9 Q633.098 1469.08 633.098 1474.49 Q633.098 1480.07 629.626 1483.17 Q626.154 1486.25 619.835 1486.25 Q617.659 1486.25 615.39 1485.88 Q613.145 1485.51 610.737 1484.77 L610.737 1480.07 Q612.821 1481.2 615.043 1481.76 Q617.265 1482.32 619.742 1482.32 Q623.747 1482.32 626.084 1480.21 Q628.422 1478.1 628.422 1474.49 Q628.422 1470.88 626.084 1468.77 Q623.747 1466.67 619.742 1466.67 Q617.867 1466.67 615.992 1467.08 Q614.14 1467.5 612.196 1468.38 L612.196 1451.02 Z" fill="#000000" fill-rule="nonzero" fill-opacity="1" /><path clip-path="url(#clip370)" d="M1009.49 1481.64 L1025.81 1481.64 L1025.81 1485.58 L1003.86 1485.58 L1003.86 1481.64 Q1006.52 1478.89 1011.11 1474.26 Q1015.71 1469.61 1016.89 1468.27 Q1019.14 1465.74 1020.02 1464.01 Q1020.92 1462.25 1020.92 1460.56 Q1020.92 1457.8 1018.98 1456.07 Q1017.06 1454.33 1013.95 1454.33 Q1011.75 1454.33 1009.3 1455.09 Q1006.87 1455.86 1004.09 1457.41 L1004.09 1452.69 Q1006.92 1451.55 1009.37 1450.97 Q1011.82 1450.39 1013.86 1450.39 Q1019.23 1450.39 1022.43 1453.08 Q1025.62 1455.77 1025.62 1460.26 Q1025.62 1462.39 1024.81 1464.31 Q1024.02 1466.2 1021.92 1468.8 Q1021.34 1469.47 1018.24 1472.69 Q1015.13 1475.88 1009.49 1481.64 Z" fill="#000000" fill-rule="nonzero" fill-opacity="1" /><path clip-path="url(#clip370)" d="M1035.62 1479.7 L1040.5 1479.7 L1040.5 1485.58 L1035.62 1485.58 L1035.62 1479.7 Z" fill="#000000" fill-rule="nonzero" fill-opacity="1" /><path clip-path="url(#clip370)" d="M1060.69 1454.1 Q1057.08 1454.1 1055.25 1457.66 Q1053.44 1461.2 1053.44 1468.33 Q1053.44 1475.44 1055.25 1479.01 Q1057.08 1482.55 1060.69 1482.55 Q1064.32 1482.55 1066.13 1479.01 Q1067.96 1475.44 1067.96 1468.33 Q1067.96 1461.2 1066.13 1457.66 Q1064.32 1454.1 1060.69 1454.1 M1060.69 1450.39 Q1066.5 1450.39 1069.55 1455 Q1072.63 1459.58 1072.63 1468.33 Q1072.63 1477.06 1069.55 1481.67 Q1066.5 1486.25 1060.69 1486.25 Q1054.88 1486.25 1051.8 1481.67 Q1048.74 1477.06 1048.74 1468.33 Q1048.74 1459.58 1051.8 1455 Q1054.88 1450.39 1060.69 1450.39 Z" fill="#000000" fill-rule="nonzero" fill-opacity="1" /><path clip-path="url(#clip370)" d="M1448.15 1481.64 L1464.47 1481.64 L1464.47 1485.58 L1442.53 1485.58 L1442.53 1481.64 Q1445.19 1478.89 1449.77 1474.26 Q1454.38 1469.61 1455.56 1468.27 Q1457.81 1465.74 1458.69 1464.01 Q1459.59 1462.25 1459.59 1460.56 Q1459.59 1457.8 1457.64 1456.07 Q1455.72 1454.33 1452.62 1454.33 Q1450.42 1454.33 1447.97 1455.09 Q1445.54 1455.86 1442.76 1457.41 L1442.76 1452.69 Q1445.58 1451.55 1448.04 1450.97 Q1450.49 1450.39 1452.53 1450.39 Q1457.9 1450.39 1461.09 1453.08 Q1464.29 1455.77 1464.29 1460.26 Q1464.29 1462.39 1463.48 1464.31 Q1462.69 1466.2 1460.58 1468.8 Q1460 1469.47 1456.9 1472.69 Q1453.8 1475.88 1448.15 1481.64 Z" fill="#000000" fill-rule="nonzero" fill-opacity="1" /><path clip-path="url(#clip370)" d="M1474.29 1479.7 L1479.17 1479.7 L1479.17 1485.58 L1474.29 1485.58 L1474.29 1479.7 Z" fill="#000000" fill-rule="nonzero" fill-opacity="1" /><path clip-path="url(#clip370)" d="M1489.4 1451.02 L1507.76 1451.02 L1507.76 1454.96 L1493.69 1454.96 L1493.69 1463.43 Q1494.7 1463.08 1495.72 1462.92 Q1496.74 1462.73 1497.76 1462.73 Q1503.55 1462.73 1506.93 1465.9 Q1510.31 1469.08 1510.31 1474.49 Q1510.31 1480.07 1506.83 1483.17 Q1503.36 1486.25 1497.04 1486.25 Q1494.87 1486.25 1492.6 1485.88 Q1490.35 1485.51 1487.94 1484.77 L1487.94 1480.07 Q1490.03 1481.2 1492.25 1481.76 Q1494.47 1482.32 1496.95 1482.32 Q1500.95 1482.32 1503.29 1480.21 Q1505.63 1478.1 1505.63 1474.49 Q1505.63 1470.88 1503.29 1468.77 Q1500.95 1466.67 1496.95 1466.67 Q1495.07 1466.67 1493.2 1467.08 Q1491.35 1467.5 1489.4 1468.38 L1489.4 1451.02 Z" fill="#000000" fill-rule="nonzero" fill-opacity="1" /><path clip-path="url(#clip370)" d="M1895.89 1466.95 Q1899.25 1467.66 1901.13 1469.93 Q1903.02 1472.2 1903.02 1475.53 Q1903.02 1480.65 1899.51 1483.45 Q1895.99 1486.25 1889.51 1486.25 Q1887.33 1486.25 1885.01 1485.81 Q1882.72 1485.39 1880.27 1484.54 L1880.27 1480.02 Q1882.21 1481.16 1884.53 1481.74 Q1886.84 1482.32 1889.37 1482.32 Q1893.76 1482.32 1896.06 1480.58 Q1898.37 1478.84 1898.37 1475.53 Q1898.37 1472.48 1896.22 1470.77 Q1894.09 1469.03 1890.27 1469.03 L1886.24 1469.03 L1886.24 1465.19 L1890.45 1465.19 Q1893.9 1465.19 1895.73 1463.82 Q1897.56 1462.43 1897.56 1459.84 Q1897.56 1457.18 1895.66 1455.77 Q1893.79 1454.33 1890.27 1454.33 Q1888.35 1454.33 1886.15 1454.75 Q1883.95 1455.16 1881.31 1456.04 L1881.31 1451.88 Q1883.97 1451.14 1886.29 1450.77 Q1888.63 1450.39 1890.69 1450.39 Q1896.01 1450.39 1899.11 1452.83 Q1902.21 1455.23 1902.21 1459.35 Q1902.21 1462.22 1900.57 1464.21 Q1898.93 1466.18 1895.89 1466.95 Z" fill="#000000" fill-rule="nonzero" fill-opacity="1" /><path clip-path="url(#clip370)" d="M1911.89 1479.7 L1916.77 1479.7 L1916.77 1485.58 L1911.89 1485.58 L1911.89 1479.7 Z" fill="#000000" fill-rule="nonzero" fill-opacity="1" /><path clip-path="url(#clip370)" d="M1936.96 1454.1 Q1933.35 1454.1 1931.52 1457.66 Q1929.71 1461.2 1929.71 1468.33 Q1929.71 1475.44 1931.52 1479.01 Q1933.35 1482.55 1936.96 1482.55 Q1940.59 1482.55 1942.4 1479.01 Q1944.23 1475.44 1944.23 1468.33 Q1944.23 1461.2 1942.4 1457.66 Q1940.59 1454.1 1936.96 1454.1 M1936.96 1450.39 Q1942.77 1450.39 1945.82 1455 Q1948.9 1459.58 1948.9 1468.33 Q1948.9 1477.06 1945.82 1481.67 Q1942.77 1486.25 1936.96 1486.25 Q1931.15 1486.25 1928.07 1481.67 Q1925.01 1477.06 1925.01 1468.33 Q1925.01 1459.58 1928.07 1455 Q1931.15 1450.39 1936.96 1450.39 Z" fill="#000000" fill-rule="nonzero" fill-opacity="1" /><path clip-path="url(#clip370)" d="M2334.56 1466.95 Q2337.92 1467.66 2339.79 1469.93 Q2341.69 1472.2 2341.69 1475.53 Q2341.69 1480.65 2338.17 1483.45 Q2334.65 1486.25 2328.17 1486.25 Q2326 1486.25 2323.68 1485.81 Q2321.39 1485.39 2318.94 1484.54 L2318.94 1480.02 Q2320.88 1481.16 2323.2 1481.74 Q2325.51 1482.32 2328.03 1482.32 Q2332.43 1482.32 2334.72 1480.58 Q2337.04 1478.84 2337.04 1475.53 Q2337.04 1472.48 2334.89 1470.77 Q2332.76 1469.03 2328.94 1469.03 L2324.91 1469.03 L2324.91 1465.19 L2329.12 1465.19 Q2332.57 1465.19 2334.4 1463.82 Q2336.23 1462.43 2336.23 1459.84 Q2336.23 1457.18 2334.33 1455.77 Q2332.46 1454.33 2328.94 1454.33 Q2327.02 1454.33 2324.82 1454.75 Q2322.62 1455.16 2319.98 1456.04 L2319.98 1451.88 Q2322.64 1451.14 2324.96 1450.77 Q2327.29 1450.39 2329.35 1450.39 Q2334.68 1450.39 2337.78 1452.83 Q2340.88 1455.23 2340.88 1459.35 Q2340.88 1462.22 2339.24 1464.21 Q2337.59 1466.18 2334.56 1466.95 Z" fill="#000000" fill-rule="nonzero" fill-opacity="1" /><path clip-path="url(#clip370)" d="M2350.56 1479.7 L2355.44 1479.7 L2355.44 1485.58 L2350.56 1485.58 L2350.56 1479.7 Z" fill="#000000" fill-rule="nonzero" fill-opacity="1" /><path clip-path="url(#clip370)" d="M2365.67 1451.02 L2384.03 1451.02 L2384.03 1454.96 L2369.95 1454.96 L2369.95 1463.43 Q2370.97 1463.08 2371.99 1462.92 Q2373.01 1462.73 2374.03 1462.73 Q2379.82 1462.73 2383.2 1465.9 Q2386.58 1469.08 2386.58 1474.49 Q2386.58 1480.07 2383.1 1483.17 Q2379.63 1486.25 2373.31 1486.25 Q2371.14 1486.25 2368.87 1485.88 Q2366.62 1485.51 2364.21 1484.77 L2364.21 1480.07 Q2366.3 1481.2 2368.52 1481.76 Q2370.74 1482.32 2373.22 1482.32 Q2377.22 1482.32 2379.56 1480.21 Q2381.9 1478.1 2381.9 1474.49 Q2381.9 1470.88 2379.56 1468.77 Q2377.22 1466.67 2373.22 1466.67 Q2371.34 1466.67 2369.47 1467.08 Q2367.62 1467.5 2365.67 1468.38 L2365.67 1451.02 Z" fill="#000000" fill-rule="nonzero" fill-opacity="1" /><path clip-path="url(#clip370)" d="M948.346 1522.08 L948.346 1528.35 Q944.685 1526.6 941.439 1525.74 Q938.192 1524.88 935.169 1524.88 Q929.917 1524.88 927.052 1526.92 Q924.22 1528.96 924.22 1532.71 Q924.22 1535.87 926.097 1537.49 Q928.007 1539.08 933.291 1540.07 L937.174 1540.86 Q944.367 1542.23 947.773 1545.7 Q951.21 1549.14 951.21 1554.93 Q951.21 1561.84 946.563 1565.4 Q941.948 1568.97 933.004 1568.97 Q929.63 1568.97 925.811 1568.2 Q922.023 1567.44 917.949 1565.94 L917.949 1559.32 Q921.864 1561.52 925.62 1562.63 Q929.376 1563.75 933.004 1563.75 Q938.511 1563.75 941.502 1561.58 Q944.494 1559.42 944.494 1555.41 Q944.494 1551.91 942.33 1549.93 Q940.197 1547.96 935.296 1546.97 L931.381 1546.21 Q924.188 1544.78 920.973 1541.72 Q917.758 1538.67 917.758 1533.22 Q917.758 1526.92 922.183 1523.29 Q926.639 1519.66 934.437 1519.66 Q937.779 1519.66 941.248 1520.27 Q944.717 1520.87 948.346 1522.08 Z" fill="#000000" fill-rule="nonzero" fill-opacity="1" /><path clip-path="url(#clip370)" d="M974.795 1536.5 Q970.084 1536.5 967.347 1540.19 Q964.61 1543.85 964.61 1550.25 Q964.61 1556.65 967.315 1560.34 Q970.053 1564 974.795 1564 Q979.474 1564 982.211 1560.31 Q984.948 1556.62 984.948 1550.25 Q984.948 1543.92 982.211 1540.23 Q979.474 1536.5 974.795 1536.5 M974.795 1531.54 Q982.434 1531.54 986.794 1536.5 Q991.155 1541.47 991.155 1550.25 Q991.155 1559 986.794 1564 Q982.434 1568.97 974.795 1568.97 Q967.124 1568.97 962.764 1564 Q958.435 1559 958.435 1550.25 Q958.435 1541.47 962.764 1536.5 Q967.124 1531.54 974.795 1531.54 Z" fill="#000000" fill-rule="nonzero" fill-opacity="1" /><path clip-path="url(#clip370)" d="M1000.26 1553.98 L1000.26 1532.4 L1006.11 1532.4 L1006.11 1553.75 Q1006.11 1558.81 1008.09 1561.36 Q1010.06 1563.87 1014.01 1563.87 Q1018.75 1563.87 1021.49 1560.85 Q1024.26 1557.83 1024.26 1552.61 L1024.26 1532.4 L1030.11 1532.4 L1030.11 1568.04 L1024.26 1568.04 L1024.26 1562.57 Q1022.12 1565.82 1019.29 1567.41 Q1016.49 1568.97 1012.77 1568.97 Q1006.62 1568.97 1003.44 1565.15 Q1000.26 1561.33 1000.26 1553.98 M1014.99 1531.54 L1014.99 1531.54 Z" fill="#000000" fill-rule="nonzero" fill-opacity="1" /><path clip-path="url(#clip370)" d="M1062.83 1537.87 Q1061.85 1537.3 1060.67 1537.04 Q1059.52 1536.76 1058.12 1536.76 Q1053.16 1536.76 1050.48 1540 Q1047.84 1543.22 1047.84 1549.27 L1047.84 1568.04 L1041.95 1568.04 L1041.95 1532.4 L1047.84 1532.4 L1047.84 1537.93 Q1049.69 1534.69 1052.65 1533.13 Q1055.61 1531.54 1059.84 1531.54 Q1060.45 1531.54 1061.18 1531.63 Q1061.91 1531.7 1062.8 1531.85 L1062.83 1537.87 Z" fill="#000000" fill-rule="nonzero" fill-opacity="1" /><path clip-path="url(#clip370)" d="M1093.2 1533.76 L1093.2 1539.24 Q1090.71 1537.87 1088.2 1537.2 Q1085.72 1536.5 1083.17 1536.5 Q1077.47 1536.5 1074.32 1540.13 Q1071.17 1543.73 1071.17 1550.25 Q1071.17 1556.78 1074.32 1560.4 Q1077.47 1564 1083.17 1564 Q1085.72 1564 1088.2 1563.33 Q1090.71 1562.63 1093.2 1561.26 L1093.2 1566.68 Q1090.75 1567.82 1088.1 1568.39 Q1085.49 1568.97 1082.53 1568.97 Q1074.48 1568.97 1069.74 1563.91 Q1065 1558.85 1065 1550.25 Q1065 1541.53 1069.77 1536.53 Q1074.58 1531.54 1082.92 1531.54 Q1085.62 1531.54 1088.2 1532.11 Q1090.78 1532.65 1093.2 1533.76 Z" fill="#000000" fill-rule="nonzero" fill-opacity="1" /><path clip-path="url(#clip370)" d="M1133.87 1548.76 L1133.87 1551.62 L1106.95 1551.62 Q1107.33 1557.67 1110.58 1560.85 Q1113.85 1564 1119.68 1564 Q1123.05 1564 1126.2 1563.17 Q1129.39 1562.35 1132.51 1560.69 L1132.51 1566.23 Q1129.35 1567.57 1126.04 1568.27 Q1122.73 1568.97 1119.33 1568.97 Q1110.8 1568.97 1105.8 1564 Q1100.84 1559.04 1100.84 1550.57 Q1100.84 1541.82 1105.55 1536.69 Q1110.29 1531.54 1118.31 1531.54 Q1125.5 1531.54 1129.67 1536.18 Q1133.87 1540.8 1133.87 1548.76 M1128.02 1547.04 Q1127.95 1542.23 1125.31 1539.37 Q1122.7 1536.5 1118.37 1536.5 Q1113.47 1536.5 1110.51 1539.27 Q1107.58 1542.04 1107.14 1547.07 L1128.02 1547.04 Z" fill="#000000" fill-rule="nonzero" fill-opacity="1" /><path clip-path="url(#clip370)" d="M1193.84 1546.53 L1193.84 1568.04 L1187.98 1568.04 L1187.98 1546.72 Q1187.98 1541.66 1186.01 1539.14 Q1184.04 1536.63 1180.09 1536.63 Q1175.35 1536.63 1172.61 1539.65 Q1169.87 1542.68 1169.87 1547.9 L1169.87 1568.04 L1163.98 1568.04 L1163.98 1518.52 L1169.87 1518.52 L1169.87 1537.93 Q1171.97 1534.72 1174.81 1533.13 Q1177.67 1531.54 1181.39 1531.54 Q1187.54 1531.54 1190.69 1535.36 Q1193.84 1539.14 1193.84 1546.53 Z" fill="#000000" fill-rule="nonzero" fill-opacity="1" /><path clip-path="url(#clip370)" d="M1236.01 1548.76 L1236.01 1551.62 L1209.08 1551.62 Q1209.47 1557.67 1212.71 1560.85 Q1215.99 1564 1221.82 1564 Q1225.19 1564 1228.34 1563.17 Q1231.52 1562.35 1234.64 1560.69 L1234.64 1566.23 Q1231.49 1567.57 1228.18 1568.27 Q1224.87 1568.97 1221.47 1568.97 Q1212.94 1568.97 1207.94 1564 Q1202.97 1559.04 1202.97 1550.57 Q1202.97 1541.82 1207.68 1536.69 Q1212.43 1531.54 1220.45 1531.54 Q1227.64 1531.54 1231.81 1536.18 Q1236.01 1540.8 1236.01 1548.76 M1230.16 1547.04 Q1230.09 1542.23 1227.45 1539.37 Q1224.84 1536.5 1220.51 1536.5 Q1215.61 1536.5 1212.65 1539.27 Q1209.72 1542.04 1209.28 1547.07 L1230.16 1547.04 Z" fill="#000000" fill-rule="nonzero" fill-opacity="1" /><path clip-path="url(#clip370)" d="M1245.62 1532.4 L1251.48 1532.4 L1251.48 1568.04 L1245.62 1568.04 L1245.62 1532.4 M1245.62 1518.52 L1251.48 1518.52 L1251.48 1525.93 L1245.62 1525.93 L1245.62 1518.52 Z" fill="#000000" fill-rule="nonzero" fill-opacity="1" /><path clip-path="url(#clip370)" d="M1287.19 1549.81 Q1287.19 1543.44 1284.55 1539.94 Q1281.94 1536.44 1277.2 1536.44 Q1272.49 1536.44 1269.85 1539.94 Q1267.24 1543.44 1267.24 1549.81 Q1267.24 1556.14 1269.85 1559.64 Q1272.49 1563.14 1277.2 1563.14 Q1281.94 1563.14 1284.55 1559.64 Q1287.19 1556.14 1287.19 1549.81 M1293.05 1563.62 Q1293.05 1572.72 1289.01 1577.15 Q1284.96 1581.6 1276.63 1581.6 Q1273.54 1581.6 1270.8 1581.13 Q1268.06 1580.68 1265.49 1579.72 L1265.49 1574.03 Q1268.06 1575.43 1270.58 1576.1 Q1273.09 1576.76 1275.7 1576.76 Q1281.46 1576.76 1284.33 1573.74 Q1287.19 1570.75 1287.19 1564.67 L1287.19 1561.77 Q1285.38 1564.92 1282.55 1566.48 Q1279.71 1568.04 1275.77 1568.04 Q1269.21 1568.04 1265.2 1563.05 Q1261.19 1558.05 1261.19 1549.81 Q1261.19 1541.53 1265.2 1536.53 Q1269.21 1531.54 1275.77 1531.54 Q1279.71 1531.54 1282.55 1533.1 Q1285.38 1534.66 1287.19 1537.81 L1287.19 1532.4 L1293.05 1532.4 L1293.05 1563.62 Z" fill="#000000" fill-rule="nonzero" fill-opacity="1" /><path clip-path="url(#clip370)" d="M1334.74 1546.53 L1334.74 1568.04 L1328.89 1568.04 L1328.89 1546.72 Q1328.89 1541.66 1326.91 1539.14 Q1324.94 1536.63 1320.99 1536.63 Q1316.25 1536.63 1313.51 1539.65 Q1310.78 1542.68 1310.78 1547.9 L1310.78 1568.04 L1304.89 1568.04 L1304.89 1518.52 L1310.78 1518.52 L1310.78 1537.93 Q1312.88 1534.72 1315.71 1533.13 Q1318.58 1531.54 1322.3 1531.54 Q1328.44 1531.54 1331.59 1535.36 Q1334.74 1539.14 1334.74 1546.53 Z" fill="#000000" fill-rule="nonzero" fill-opacity="1" /><path clip-path="url(#clip370)" d="M1352.22 1522.27 L1352.22 1532.4 L1364.28 1532.4 L1364.28 1536.95 L1352.22 1536.95 L1352.22 1556.3 Q1352.22 1560.66 1353.4 1561.9 Q1354.6 1563.14 1358.27 1563.14 L1364.28 1563.14 L1364.28 1568.04 L1358.27 1568.04 Q1351.49 1568.04 1348.91 1565.53 Q1346.33 1562.98 1346.33 1556.3 L1346.33 1536.95 L1342.03 1536.95 L1342.03 1532.4 L1346.33 1532.4 L1346.33 1522.27 L1352.22 1522.27 Z" fill="#000000" fill-rule="nonzero" fill-opacity="1" /><path clip-path="url(#clip370)" d="M1422.34 1546.53 L1422.34 1568.04 L1416.48 1568.04 L1416.48 1546.72 Q1416.48 1541.66 1414.51 1539.14 Q1412.53 1536.63 1408.59 1536.63 Q1403.84 1536.63 1401.11 1539.65 Q1398.37 1542.68 1398.37 1547.9 L1398.37 1568.04 L1392.48 1568.04 L1392.48 1518.52 L1398.37 1518.52 L1398.37 1537.93 Q1400.47 1534.72 1403.3 1533.13 Q1406.17 1531.54 1409.89 1531.54 Q1416.03 1531.54 1419.19 1535.36 Q1422.34 1539.14 1422.34 1546.53 Z" fill="#000000" fill-rule="nonzero" fill-opacity="1" /><path clip-path="url(#clip370)" d="M1468.81 1518.58 Q1464.54 1525.9 1462.47 1533.06 Q1460.4 1540.23 1460.4 1547.58 Q1460.4 1554.93 1462.47 1562.16 Q1464.57 1569.35 1468.81 1576.64 L1463.71 1576.64 Q1458.94 1569.16 1456.55 1561.93 Q1454.2 1554.71 1454.2 1547.58 Q1454.2 1540.48 1456.55 1533.29 Q1458.91 1526.09 1463.71 1518.58 L1468.81 1518.58 Z" fill="#000000" fill-rule="nonzero" fill-opacity="1" /><path clip-path="url(#clip370)" d="M1512.82 1561.26 L1512.82 1548.5 L1502.32 1548.5 L1502.32 1543.22 L1519.19 1543.22 L1519.19 1563.62 Q1515.47 1566.26 1510.98 1567.63 Q1506.49 1568.97 1501.4 1568.97 Q1490.26 1568.97 1483.96 1562.47 Q1477.69 1555.95 1477.69 1544.33 Q1477.69 1532.68 1483.96 1526.19 Q1490.26 1519.66 1501.4 1519.66 Q1506.05 1519.66 1510.21 1520.81 Q1514.42 1521.96 1517.95 1524.18 L1517.95 1531.03 Q1514.38 1528 1510.37 1526.48 Q1506.36 1524.95 1501.94 1524.95 Q1493.22 1524.95 1488.83 1529.82 Q1484.47 1534.69 1484.47 1544.33 Q1484.47 1553.94 1488.83 1558.81 Q1493.22 1563.68 1501.94 1563.68 Q1505.34 1563.68 1508.02 1563.11 Q1510.69 1562.51 1512.82 1561.26 Z" fill="#000000" fill-rule="nonzero" fill-opacity="1" /><path clip-path="url(#clip370)" d="M1530.94 1520.52 L1540.52 1520.52 L1552.64 1552.86 L1564.83 1520.52 L1574.41 1520.52 L1574.41 1568.04 L1568.14 1568.04 L1568.14 1526.32 L1555.89 1558.91 L1549.43 1558.91 L1537.17 1526.32 L1537.17 1568.04 L1530.94 1568.04 L1530.94 1520.52 Z" fill="#000000" fill-rule="nonzero" fill-opacity="1" /><path clip-path="url(#clip370)" d="M1597.33 1520.52 L1602.74 1520.52 L1586.19 1574.09 L1580.78 1574.09 L1597.33 1520.52 Z" fill="#000000" fill-rule="nonzero" fill-opacity="1" /><path clip-path="url(#clip370)" d="M1634.54 1533.76 L1634.54 1539.24 Q1632.05 1537.87 1629.54 1537.2 Q1627.06 1536.5 1624.51 1536.5 Q1618.81 1536.5 1615.66 1540.13 Q1612.51 1543.73 1612.51 1550.25 Q1612.51 1556.78 1615.66 1560.4 Q1618.81 1564 1624.51 1564 Q1627.06 1564 1629.54 1563.33 Q1632.05 1562.63 1634.54 1561.26 L1634.54 1566.68 Q1632.09 1567.82 1629.44 1568.39 Q1626.83 1568.97 1623.87 1568.97 Q1615.82 1568.97 1611.08 1563.91 Q1606.34 1558.85 1606.34 1550.25 Q1606.34 1541.53 1611.11 1536.53 Q1615.92 1531.54 1624.26 1531.54 Q1626.96 1531.54 1629.54 1532.11 Q1632.12 1532.65 1634.54 1533.76 Z" fill="#000000" fill-rule="nonzero" fill-opacity="1" /><path clip-path="url(#clip370)" d="M1647.11 1543.15 L1660.6 1543.15 L1660.6 1546.78 L1641.57 1546.78 L1641.57 1543.28 Q1642.65 1542.29 1644.66 1540.51 Q1655.61 1530.8 1655.61 1527.81 Q1655.61 1525.71 1653.95 1524.44 Q1652.3 1523.13 1649.59 1523.13 Q1647.94 1523.13 1646 1523.71 Q1644.05 1524.25 1641.76 1525.36 L1641.76 1521.45 Q1644.21 1520.56 1646.31 1520.11 Q1648.45 1519.66 1650.26 1519.66 Q1654.88 1519.66 1657.64 1521.77 Q1660.41 1523.87 1660.41 1527.3 Q1660.41 1531.73 1649.88 1540.77 Q1648.1 1542.29 1647.11 1543.15 Z" fill="#000000" fill-rule="nonzero" fill-opacity="1" /><path clip-path="url(#clip370)" d="M1669.93 1518.58 L1675.02 1518.58 Q1679.8 1526.09 1682.15 1533.29 Q1684.54 1540.48 1684.54 1547.58 Q1684.54 1554.71 1682.15 1561.93 Q1679.8 1569.16 1675.02 1576.64 L1669.93 1576.64 Q1674.16 1569.35 1676.23 1562.16 Q1678.33 1554.93 1678.33 1547.58 Q1678.33 1540.23 1676.23 1533.06 Q1674.16 1525.9 1669.93 1518.58 Z" fill="#000000" fill-rule="nonzero" fill-opacity="1" /><polyline clip-path="url(#clip372)" style="stroke:#000000; stroke-linecap:round; stroke-linejoin:round; stroke-width:2; stroke-opacity:0.1; fill:none" points="249.542,1223.04 2352.76,1223.04 "/>
<polyline clip-path="url(#clip372)" style="stroke:#000000; stroke-linecap:round; stroke-linejoin:round; stroke-width:2; stroke-opacity:0.1; fill:none" points="249.542,972.874 2352.76,972.874 "/>
<polyline clip-path="url(#clip372)" style="stroke:#000000; stroke-linecap:round; stroke-linejoin:round; stroke-width:2; stroke-opacity:0.1; fill:none" points="249.542,722.703 2352.76,722.703 "/>
<polyline clip-path="url(#clip372)" style="stroke:#000000; stroke-linecap:round; stroke-linejoin:round; stroke-width:2; stroke-opacity:0.1; fill:none" points="249.542,472.533 2352.76,472.533 "/>
<polyline clip-path="url(#clip372)" style="stroke:#000000; stroke-linecap:round; stroke-linejoin:round; stroke-width:2; stroke-opacity:0.1; fill:none" points="249.542,222.363 2352.76,222.363 "/>
<polyline clip-path="url(#clip370)" style="stroke:#000000; stroke-linecap:round; stroke-linejoin:round; stroke-width:4; stroke-opacity:1; fill:none" points="249.542,1423.18 249.542,47.2441 "/>
<polyline clip-path="url(#clip370)" style="stroke:#000000; stroke-linecap:round; stroke-linejoin:round; stroke-width:4; stroke-opacity:1; fill:none" points="249.542,1223.04 268.44,1223.04 "/>
<polyline clip-path="url(#clip370)" style="stroke:#000000; stroke-linecap:round; stroke-linejoin:round; stroke-width:4; stroke-opacity:1; fill:none" points="249.542,972.874 268.44,972.874 "/>
<polyline clip-path="url(#clip370)" style="stroke:#000000; stroke-linecap:round; stroke-linejoin:round; stroke-width:4; stroke-opacity:1; fill:none" points="249.542,722.703 268.44,722.703 "/>
<polyline clip-path="url(#clip370)" style="stroke:#000000; stroke-linecap:round; stroke-linejoin:round; stroke-width:4; stroke-opacity:1; fill:none" points="249.542,472.533 268.44,472.533 "/>
<polyline clip-path="url(#clip370)" style="stroke:#000000; stroke-linecap:round; stroke-linejoin:round; stroke-width:4; stroke-opacity:1; fill:none" points="249.542,222.363 268.44,222.363 "/>
<path clip-path="url(#clip370)" d="M127.2 1208.84 Q123.589 1208.84 121.76 1212.41 Q119.955 1215.95 119.955 1223.08 Q119.955 1230.18 121.76 1233.75 Q123.589 1237.29 127.2 1237.29 Q130.834 1237.29 132.64 1233.75 Q134.468 1230.18 134.468 1223.08 Q134.468 1215.95 132.64 1212.41 Q130.834 1208.84 127.2 1208.84 M127.2 1205.14 Q133.01 1205.14 136.066 1209.75 Q139.144 1214.33 139.144 1223.08 Q139.144 1231.81 136.066 1236.41 Q133.01 1241 127.2 1241 Q121.39 1241 118.311 1236.41 Q115.256 1231.81 115.256 1223.08 Q115.256 1214.33 118.311 1209.75 Q121.39 1205.14 127.2 1205.14 Z" fill="#000000" fill-rule="nonzero" fill-opacity="1" /><path clip-path="url(#clip370)" d="M147.362 1234.44 L152.246 1234.44 L152.246 1240.32 L147.362 1240.32 L147.362 1234.44 Z" fill="#000000" fill-rule="nonzero" fill-opacity="1" /><path clip-path="url(#clip370)" d="M172.431 1208.84 Q168.82 1208.84 166.991 1212.41 Q165.186 1215.95 165.186 1223.08 Q165.186 1230.18 166.991 1233.75 Q168.82 1237.29 172.431 1237.29 Q176.065 1237.29 177.871 1233.75 Q179.7 1230.18 179.7 1223.08 Q179.7 1215.95 177.871 1212.41 Q176.065 1208.84 172.431 1208.84 M172.431 1205.14 Q178.241 1205.14 181.297 1209.75 Q184.376 1214.33 184.376 1223.08 Q184.376 1231.81 181.297 1236.41 Q178.241 1241 172.431 1241 Q166.621 1241 163.542 1236.41 Q160.487 1231.81 160.487 1223.08 Q160.487 1214.33 163.542 1209.75 Q166.621 1205.14 172.431 1205.14 Z" fill="#000000" fill-rule="nonzero" fill-opacity="1" /><path clip-path="url(#clip370)" d="M192.639 1205.76 L210.996 1205.76 L210.996 1209.7 L196.922 1209.7 L196.922 1218.17 Q197.94 1217.82 198.959 1217.66 Q199.977 1217.48 200.996 1217.48 Q206.783 1217.48 210.162 1220.65 Q213.542 1223.82 213.542 1229.24 Q213.542 1234.81 210.07 1237.92 Q206.598 1241 200.278 1241 Q198.102 1241 195.834 1240.62 Q193.588 1240.25 191.181 1239.51 L191.181 1234.81 Q193.264 1235.95 195.487 1236.5 Q197.709 1237.06 200.186 1237.06 Q204.19 1237.06 206.528 1234.95 Q208.866 1232.85 208.866 1229.24 Q208.866 1225.62 206.528 1223.52 Q204.19 1221.41 200.186 1221.41 Q198.311 1221.41 196.436 1221.83 Q194.584 1222.25 192.639 1223.12 L192.639 1205.76 Z" fill="#000000" fill-rule="nonzero" fill-opacity="1" /><path clip-path="url(#clip370)" d="M126.205 958.672 Q122.593 958.672 120.765 962.237 Q118.959 965.779 118.959 972.908 Q118.959 980.015 120.765 983.58 Q122.593 987.121 126.205 987.121 Q129.839 987.121 131.644 983.58 Q133.473 980.015 133.473 972.908 Q133.473 965.779 131.644 962.237 Q129.839 958.672 126.205 958.672 M126.205 954.969 Q132.015 954.969 135.07 959.575 Q138.149 964.158 138.149 972.908 Q138.149 981.635 135.07 986.242 Q132.015 990.825 126.205 990.825 Q120.394 990.825 117.316 986.242 Q114.26 981.635 114.26 972.908 Q114.26 964.158 117.316 959.575 Q120.394 954.969 126.205 954.969 Z" fill="#000000" fill-rule="nonzero" fill-opacity="1" /><path clip-path="url(#clip370)" d="M146.366 984.274 L151.251 984.274 L151.251 990.154 L146.366 990.154 L146.366 984.274 Z" fill="#000000" fill-rule="nonzero" fill-opacity="1" /><path clip-path="url(#clip370)" d="M162.246 986.218 L169.885 986.218 L169.885 959.853 L161.575 961.519 L161.575 957.26 L169.839 955.594 L174.514 955.594 L174.514 986.218 L182.153 986.218 L182.153 990.154 L162.246 990.154 L162.246 986.218 Z" fill="#000000" fill-rule="nonzero" fill-opacity="1" /><path clip-path="url(#clip370)" d="M201.598 958.672 Q197.987 958.672 196.158 962.237 Q194.352 965.779 194.352 972.908 Q194.352 980.015 196.158 983.58 Q197.987 987.121 201.598 987.121 Q205.232 987.121 207.037 983.58 Q208.866 980.015 208.866 972.908 Q208.866 965.779 207.037 962.237 Q205.232 958.672 201.598 958.672 M201.598 954.969 Q207.408 954.969 210.463 959.575 Q213.542 964.158 213.542 972.908 Q213.542 981.635 210.463 986.242 Q207.408 990.825 201.598 990.825 Q195.787 990.825 192.709 986.242 Q189.653 981.635 189.653 972.908 Q189.653 964.158 192.709 959.575 Q195.787 954.969 201.598 954.969 Z" fill="#000000" fill-rule="nonzero" fill-opacity="1" /><path clip-path="url(#clip370)" d="M127.2 708.502 Q123.589 708.502 121.76 712.067 Q119.955 715.609 119.955 722.738 Q119.955 729.845 121.76 733.409 Q123.589 736.951 127.2 736.951 Q130.834 736.951 132.64 733.409 Q134.468 729.845 134.468 722.738 Q134.468 715.609 132.64 712.067 Q130.834 708.502 127.2 708.502 M127.2 704.798 Q133.01 704.798 136.066 709.405 Q139.144 713.988 139.144 722.738 Q139.144 731.465 136.066 736.071 Q133.01 740.655 127.2 740.655 Q121.39 740.655 118.311 736.071 Q115.256 731.465 115.256 722.738 Q115.256 713.988 118.311 709.405 Q121.39 704.798 127.2 704.798 Z" fill="#000000" fill-rule="nonzero" fill-opacity="1" /><path clip-path="url(#clip370)" d="M147.362 734.104 L152.246 734.104 L152.246 739.983 L147.362 739.983 L147.362 734.104 Z" fill="#000000" fill-rule="nonzero" fill-opacity="1" /><path clip-path="url(#clip370)" d="M163.241 736.048 L170.88 736.048 L170.88 709.683 L162.57 711.349 L162.57 707.09 L170.834 705.423 L175.51 705.423 L175.51 736.048 L183.149 736.048 L183.149 739.983 L163.241 739.983 L163.241 736.048 Z" fill="#000000" fill-rule="nonzero" fill-opacity="1" /><path clip-path="url(#clip370)" d="M192.639 705.423 L210.996 705.423 L210.996 709.359 L196.922 709.359 L196.922 717.831 Q197.94 717.484 198.959 717.322 Q199.977 717.136 200.996 717.136 Q206.783 717.136 210.162 720.308 Q213.542 723.479 213.542 728.896 Q213.542 734.474 210.07 737.576 Q206.598 740.655 200.278 740.655 Q198.102 740.655 195.834 740.284 Q193.588 739.914 191.181 739.173 L191.181 734.474 Q193.264 735.608 195.487 736.164 Q197.709 736.72 200.186 736.72 Q204.19 736.72 206.528 734.613 Q208.866 732.507 208.866 728.896 Q208.866 725.284 206.528 723.178 Q204.19 721.072 200.186 721.072 Q198.311 721.072 196.436 721.488 Q194.584 721.905 192.639 722.784 L192.639 705.423 Z" fill="#000000" fill-rule="nonzero" fill-opacity="1" /><path clip-path="url(#clip370)" d="M126.205 458.332 Q122.593 458.332 120.765 461.897 Q118.959 465.438 118.959 472.568 Q118.959 479.674 120.765 483.239 Q122.593 486.781 126.205 486.781 Q129.839 486.781 131.644 483.239 Q133.473 479.674 133.473 472.568 Q133.473 465.438 131.644 461.897 Q129.839 458.332 126.205 458.332 M126.205 454.628 Q132.015 454.628 135.07 459.235 Q138.149 463.818 138.149 472.568 Q138.149 481.295 135.07 485.901 Q132.015 490.485 126.205 490.485 Q120.394 490.485 117.316 485.901 Q114.26 481.295 114.26 472.568 Q114.26 463.818 117.316 459.235 Q120.394 454.628 126.205 454.628 Z" fill="#000000" fill-rule="nonzero" fill-opacity="1" /><path clip-path="url(#clip370)" d="M146.366 483.934 L151.251 483.934 L151.251 489.813 L146.366 489.813 L146.366 483.934 Z" fill="#000000" fill-rule="nonzero" fill-opacity="1" /><path clip-path="url(#clip370)" d="M165.464 485.878 L181.783 485.878 L181.783 489.813 L159.839 489.813 L159.839 485.878 Q162.501 483.124 167.084 478.494 Q171.69 473.841 172.871 472.499 Q175.116 469.975 175.996 468.239 Q176.899 466.48 176.899 464.79 Q176.899 462.036 174.954 460.3 Q173.033 458.563 169.931 458.563 Q167.732 458.563 165.278 459.327 Q162.848 460.091 160.07 461.642 L160.07 456.92 Q162.894 455.786 165.348 455.207 Q167.802 454.628 169.839 454.628 Q175.209 454.628 178.403 457.313 Q181.598 459.999 181.598 464.489 Q181.598 466.619 180.788 468.54 Q180.001 470.438 177.894 473.031 Q177.315 473.702 174.214 476.92 Q171.112 480.114 165.464 485.878 Z" fill="#000000" fill-rule="nonzero" fill-opacity="1" /><path clip-path="url(#clip370)" d="M201.598 458.332 Q197.987 458.332 196.158 461.897 Q194.352 465.438 194.352 472.568 Q194.352 479.674 196.158 483.239 Q197.987 486.781 201.598 486.781 Q205.232 486.781 207.037 483.239 Q208.866 479.674 208.866 472.568 Q208.866 465.438 207.037 461.897 Q205.232 458.332 201.598 458.332 M201.598 454.628 Q207.408 454.628 210.463 459.235 Q213.542 463.818 213.542 472.568 Q213.542 481.295 210.463 485.901 Q207.408 490.485 201.598 490.485 Q195.787 490.485 192.709 485.901 Q189.653 481.295 189.653 472.568 Q189.653 463.818 192.709 459.235 Q195.787 454.628 201.598 454.628 Z" fill="#000000" fill-rule="nonzero" fill-opacity="1" /><path clip-path="url(#clip370)" d="M127.2 208.162 Q123.589 208.162 121.76 211.727 Q119.955 215.268 119.955 222.398 Q119.955 229.504 121.76 233.069 Q123.589 236.611 127.2 236.611 Q130.834 236.611 132.64 233.069 Q134.468 229.504 134.468 222.398 Q134.468 215.268 132.64 211.727 Q130.834 208.162 127.2 208.162 M127.2 204.458 Q133.01 204.458 136.066 209.065 Q139.144 213.648 139.144 222.398 Q139.144 231.125 136.066 235.731 Q133.01 240.314 127.2 240.314 Q121.39 240.314 118.311 235.731 Q115.256 231.125 115.256 222.398 Q115.256 213.648 118.311 209.065 Q121.39 204.458 127.2 204.458 Z" fill="#000000" fill-rule="nonzero" fill-opacity="1" /><path clip-path="url(#clip370)" d="M147.362 233.764 L152.246 233.764 L152.246 239.643 L147.362 239.643 L147.362 233.764 Z" fill="#000000" fill-rule="nonzero" fill-opacity="1" /><path clip-path="url(#clip370)" d="M166.459 235.708 L182.778 235.708 L182.778 239.643 L160.834 239.643 L160.834 235.708 Q163.496 232.953 168.079 228.324 Q172.686 223.671 173.866 222.328 Q176.112 219.805 176.991 218.069 Q177.894 216.31 177.894 214.62 Q177.894 211.866 175.95 210.129 Q174.028 208.393 170.927 208.393 Q168.727 208.393 166.274 209.157 Q163.843 209.921 161.065 211.472 L161.065 206.75 Q163.89 205.616 166.343 205.037 Q168.797 204.458 170.834 204.458 Q176.204 204.458 179.399 207.143 Q182.593 209.829 182.593 214.319 Q182.593 216.449 181.783 218.37 Q180.996 220.268 178.889 222.861 Q178.311 223.532 175.209 226.75 Q172.107 229.944 166.459 235.708 Z" fill="#000000" fill-rule="nonzero" fill-opacity="1" /><path clip-path="url(#clip370)" d="M192.639 205.083 L210.996 205.083 L210.996 209.018 L196.922 209.018 L196.922 217.491 Q197.94 217.143 198.959 216.981 Q199.977 216.796 200.996 216.796 Q206.783 216.796 210.162 219.967 Q213.542 223.139 213.542 228.555 Q213.542 234.134 210.07 237.236 Q206.598 240.314 200.278 240.314 Q198.102 240.314 195.834 239.944 Q193.588 239.574 191.181 238.833 L191.181 234.134 Q193.264 235.268 195.487 235.824 Q197.709 236.379 200.186 236.379 Q204.19 236.379 206.528 234.273 Q208.866 232.166 208.866 228.555 Q208.866 224.944 206.528 222.838 Q204.19 220.731 200.186 220.731 Q198.311 220.731 196.436 221.148 Q194.584 221.565 192.639 222.444 L192.639 205.083 Z" fill="#000000" fill-rule="nonzero" fill-opacity="1" /><path clip-path="url(#clip370)" d="M16.4842 1061.57 L16.4842 1031.52 L21.895 1031.52 L21.895 1055.14 L35.9632 1055.14 L35.9632 1032.51 L41.3741 1032.51 L41.3741 1055.14 L58.5933 1055.14 L58.5933 1030.95 L64.0042 1030.95 L64.0042 1061.57 L16.4842 1061.57 Z" fill="#000000" fill-rule="nonzero" fill-opacity="1" /><path clip-path="url(#clip370)" d="M33.7671 997.177 L14.479 997.177 L14.479 991.32 L64.0042 991.32 L64.0042 997.177 L58.657 997.177 Q61.8398 999.023 63.3994 1001.86 Q64.9272 1004.66 64.9272 1008.6 Q64.9272 1015.06 59.771 1019.14 Q54.6147 1023.18 46.212 1023.18 Q37.8093 1023.18 32.6531 1019.14 Q27.4968 1015.06 27.4968 1008.6 Q27.4968 1004.66 29.0564 1001.86 Q30.5842 999.023 33.7671 997.177 M46.212 1017.13 Q52.6732 1017.13 56.3653 1014.49 Q60.0256 1011.82 60.0256 1007.17 Q60.0256 1002.52 56.3653 999.85 Q52.6732 997.177 46.212 997.177 Q39.7508 997.177 36.0905 999.85 Q32.3984 1002.52 32.3984 1007.17 Q32.3984 1011.82 36.0905 1014.49 Q39.7508 1017.13 46.212 1017.13 Z" fill="#000000" fill-rule="nonzero" fill-opacity="1" /><path clip-path="url(#clip370)" d="M33.7671 955.8 L14.479 955.8 L14.479 949.943 L64.0042 949.943 L64.0042 955.8 L58.657 955.8 Q61.8398 957.646 63.3994 960.478 Q64.9272 963.279 64.9272 967.226 Q64.9272 973.687 59.771 977.761 Q54.6147 981.804 46.212 981.804 Q37.8093 981.804 32.6531 977.761 Q27.4968 973.687 27.4968 967.226 Q27.4968 963.279 29.0564 960.478 Q30.5842 957.646 33.7671 955.8 M46.212 975.756 Q52.6732 975.756 56.3653 973.114 Q60.0256 970.441 60.0256 965.794 Q60.0256 961.147 56.3653 958.473 Q52.6732 955.8 46.212 955.8 Q39.7508 955.8 36.0905 958.473 Q32.3984 961.147 32.3984 965.794 Q32.3984 970.441 36.0905 973.114 Q39.7508 975.756 46.212 975.756 Z" fill="#000000" fill-rule="nonzero" fill-opacity="1" /><path clip-path="url(#clip370)" d="M28.3562 937.88 L28.3562 932.024 L64.0042 932.024 L64.0042 937.88 L28.3562 937.88 M14.479 937.88 L14.479 932.024 L21.895 932.024 L21.895 937.88 L14.479 937.88 Z" fill="#000000" fill-rule="nonzero" fill-opacity="1" /><path clip-path="url(#clip370)" d="M42.4881 890.137 L64.0042 890.137 L64.0042 895.994 L42.679 895.994 Q37.6183 895.994 35.1038 897.967 Q32.5894 899.941 32.5894 903.887 Q32.5894 908.63 35.6131 911.367 Q38.6368 914.104 43.8567 914.104 L64.0042 914.104 L64.0042 919.993 L28.3562 919.993 L28.3562 914.104 L33.8944 914.104 Q30.6797 912.004 29.0883 909.171 Q27.4968 906.306 27.4968 902.582 Q27.4968 896.439 31.3163 893.288 Q35.1038 890.137 42.4881 890.137 Z" fill="#000000" fill-rule="nonzero" fill-opacity="1" /><path clip-path="url(#clip370)" d="M45.7664 854.999 Q39.4007 854.999 35.8996 857.64 Q32.3984 860.25 32.3984 864.993 Q32.3984 869.703 35.8996 872.345 Q39.4007 874.955 45.7664 874.955 Q52.1003 874.955 55.6014 872.345 Q59.1026 869.703 59.1026 864.993 Q59.1026 860.25 55.6014 857.64 Q52.1003 854.999 45.7664 854.999 M59.58 849.142 Q68.683 849.142 73.1071 853.184 Q77.5631 857.227 77.5631 865.566 Q77.5631 868.653 77.0857 871.39 Q76.6401 874.128 75.6852 876.706 L69.9879 876.706 Q71.3884 874.128 72.0568 871.613 Q72.7252 869.099 72.7252 866.489 Q72.7252 860.728 69.7015 857.863 Q66.7096 854.999 60.6303 854.999 L57.7339 854.999 Q60.885 856.813 62.4446 859.646 Q64.0042 862.478 64.0042 866.425 Q64.0042 872.982 59.0071 876.992 Q54.01 881.003 45.7664 881.003 Q37.491 881.003 32.4939 876.992 Q27.4968 872.982 27.4968 866.425 Q27.4968 862.478 29.0564 859.646 Q30.616 856.813 33.7671 854.999 L28.3562 854.999 L28.3562 849.142 L59.58 849.142 Z" fill="#000000" fill-rule="nonzero" fill-opacity="1" /><path clip-path="url(#clip370)" d="M18.2347 831.286 L28.3562 831.286 L28.3562 819.223 L32.9077 819.223 L32.9077 831.286 L52.2594 831.286 Q56.6199 831.286 57.8613 830.109 Q59.1026 828.899 59.1026 825.239 L59.1026 819.223 L64.0042 819.223 L64.0042 825.239 Q64.0042 832.018 61.4897 834.597 Q58.9434 837.175 52.2594 837.175 L32.9077 837.175 L32.9077 841.472 L28.3562 841.472 L28.3562 837.175 L18.2347 837.175 L18.2347 831.286 Z" fill="#000000" fill-rule="nonzero" fill-opacity="1" /><path clip-path="url(#clip370)" d="M32.4621 797.707 Q32.4621 802.418 36.1542 805.155 Q39.8145 807.892 46.212 807.892 Q52.6095 807.892 56.3017 805.187 Q59.9619 802.45 59.9619 797.707 Q59.9619 793.028 56.2698 790.291 Q52.5777 787.554 46.212 787.554 Q39.8781 787.554 36.186 790.291 Q32.4621 793.028 32.4621 797.707 M27.4968 797.707 Q27.4968 790.068 32.4621 785.708 Q37.4273 781.347 46.212 781.347 Q54.9649 781.347 59.9619 785.708 Q64.9272 790.068 64.9272 797.707 Q64.9272 805.378 59.9619 809.738 Q54.9649 814.067 46.212 814.067 Q37.4273 814.067 32.4621 809.738 Q27.4968 805.378 27.4968 797.707 Z" fill="#000000" fill-rule="nonzero" fill-opacity="1" /><path clip-path="url(#clip370)" d="M42.4881 742.007 L64.0042 742.007 L64.0042 747.864 L42.679 747.864 Q37.6183 747.864 35.1038 749.837 Q32.5894 751.811 32.5894 755.757 Q32.5894 760.5 35.6131 763.237 Q38.6368 765.974 43.8567 765.974 L64.0042 765.974 L64.0042 771.863 L28.3562 771.863 L28.3562 765.974 L33.8944 765.974 Q30.6797 763.874 29.0883 761.041 Q27.4968 758.176 27.4968 754.452 Q27.4968 748.309 31.3163 745.158 Q35.1038 742.007 42.4881 742.007 Z" fill="#000000" fill-rule="nonzero" fill-opacity="1" /><path clip-path="url(#clip370)" d="M14.479 691.559 L19.3487 691.559 L19.3487 697.161 Q19.3487 700.312 20.6219 701.553 Q21.895 702.763 25.2052 702.763 L28.3562 702.763 L28.3562 693.119 L32.9077 693.119 L32.9077 702.763 L64.0042 702.763 L64.0042 708.651 L32.9077 708.651 L32.9077 714.253 L28.3562 714.253 L28.3562 708.651 L25.8736 708.651 Q19.9216 708.651 17.2162 705.882 Q14.479 703.113 14.479 697.097 L14.479 691.559 Z" fill="#000000" fill-rule="nonzero" fill-opacity="1" /><path clip-path="url(#clip370)" d="M33.8307 666.001 Q33.2578 666.988 33.0032 668.165 Q32.7167 669.311 32.7167 670.711 Q32.7167 675.677 35.9632 678.35 Q39.1779 680.992 45.2253 680.992 L64.0042 680.992 L64.0042 686.88 L28.3562 686.88 L28.3562 680.992 L33.8944 680.992 Q30.6479 679.146 29.0883 676.186 Q27.4968 673.226 27.4968 668.993 Q27.4968 668.388 27.5923 667.656 Q27.656 666.924 27.8151 666.033 L33.8307 666.001 Z" fill="#000000" fill-rule="nonzero" fill-opacity="1" /><path clip-path="url(#clip370)" d="M46.0847 643.657 Q46.0847 650.755 47.7079 653.492 Q49.3312 656.229 53.2461 656.229 Q56.3653 656.229 58.2114 654.192 Q60.0256 652.124 60.0256 648.591 Q60.0256 643.721 56.5881 640.793 Q53.1188 637.833 47.3897 637.833 L46.0847 637.833 L46.0847 643.657 M43.6657 631.976 L64.0042 631.976 L64.0042 637.833 L58.5933 637.833 Q61.8398 639.838 63.3994 642.83 Q64.9272 645.822 64.9272 650.15 Q64.9272 655.625 61.8716 658.871 Q58.7843 662.086 53.6281 662.086 Q47.6125 662.086 44.5569 658.076 Q41.5014 654.033 41.5014 646.044 L41.5014 637.833 L40.9285 637.833 Q36.8862 637.833 34.6901 640.506 Q32.4621 643.148 32.4621 647.954 Q32.4621 651.01 33.1941 653.906 Q33.9262 656.802 35.3903 659.476 L29.9795 659.476 Q28.7381 656.261 28.1334 653.238 Q27.4968 650.214 27.4968 647.349 Q27.4968 639.615 31.5072 635.796 Q35.5176 631.976 43.6657 631.976 Z" fill="#000000" fill-rule="nonzero" fill-opacity="1" /><path clip-path="url(#clip370)" d="M29.7248 594.259 L35.1993 594.259 Q33.8307 596.742 33.1623 599.256 Q32.4621 601.739 32.4621 604.285 Q32.4621 609.983 36.0905 613.134 Q39.6872 616.285 46.212 616.285 Q52.7369 616.285 56.3653 613.134 Q59.9619 609.983 59.9619 604.285 Q59.9619 601.739 59.2935 599.256 Q58.5933 596.742 57.2247 594.259 L62.6355 594.259 Q63.7814 596.71 64.3543 599.352 Q64.9272 601.962 64.9272 604.922 Q64.9272 612.974 59.8664 617.717 Q54.8057 622.459 46.212 622.459 Q37.491 622.459 32.4939 617.685 Q27.4968 612.879 27.4968 604.54 Q27.4968 601.835 28.0697 599.256 Q28.6108 596.678 29.7248 594.259 Z" fill="#000000" fill-rule="nonzero" fill-opacity="1" /><path clip-path="url(#clip370)" d="M18.2347 578.281 L28.3562 578.281 L28.3562 566.218 L32.9077 566.218 L32.9077 578.281 L52.2594 578.281 Q56.6199 578.281 57.8613 577.104 Q59.1026 575.894 59.1026 572.234 L59.1026 566.218 L64.0042 566.218 L64.0042 572.234 Q64.0042 579.013 61.4897 581.592 Q58.9434 584.17 52.2594 584.17 L32.9077 584.17 L32.9077 588.467 L28.3562 588.467 L28.3562 584.17 L18.2347 584.17 L18.2347 578.281 Z" fill="#000000" fill-rule="nonzero" fill-opacity="1" /><path clip-path="url(#clip370)" d="M28.3562 558.516 L28.3562 552.659 L64.0042 552.659 L64.0042 558.516 L28.3562 558.516 M14.479 558.516 L14.479 552.659 L21.895 552.659 L21.895 558.516 L14.479 558.516 Z" fill="#000000" fill-rule="nonzero" fill-opacity="1" /><path clip-path="url(#clip370)" d="M32.4621 526.592 Q32.4621 531.302 36.1542 534.04 Q39.8145 536.777 46.212 536.777 Q52.6095 536.777 56.3017 534.072 Q59.9619 531.334 59.9619 526.592 Q59.9619 521.913 56.2698 519.176 Q52.5777 516.439 46.212 516.439 Q39.8781 516.439 36.186 519.176 Q32.4621 521.913 32.4621 526.592 M27.4968 526.592 Q27.4968 518.953 32.4621 514.592 Q37.4273 510.232 46.212 510.232 Q54.9649 510.232 59.9619 514.592 Q64.9272 518.953 64.9272 526.592 Q64.9272 534.263 59.9619 538.623 Q54.9649 542.952 46.212 542.952 Q37.4273 542.952 32.4621 538.623 Q27.4968 534.263 27.4968 526.592 Z" fill="#000000" fill-rule="nonzero" fill-opacity="1" /><path clip-path="url(#clip370)" d="M42.4881 470.892 L64.0042 470.892 L64.0042 476.748 L42.679 476.748 Q37.6183 476.748 35.1038 478.722 Q32.5894 480.695 32.5894 484.642 Q32.5894 489.384 35.6131 492.122 Q38.6368 494.859 43.8567 494.859 L64.0042 494.859 L64.0042 500.747 L28.3562 500.747 L28.3562 494.859 L33.8944 494.859 Q30.6797 492.758 29.0883 489.925 Q27.4968 487.061 27.4968 483.337 Q27.4968 477.194 31.3163 474.043 Q35.1038 470.892 42.4881 470.892 Z" fill="#000000" fill-rule="nonzero" fill-opacity="1" /><path clip-path="url(#clip370)" d="M42.4881 408.858 L77.5631 408.858 L77.5631 414.715 L42.679 414.715 Q37.6183 414.715 35.1038 416.688 Q32.5894 418.661 32.5894 422.608 Q32.5894 427.35 35.6131 430.088 Q38.6368 432.825 43.8567 432.825 L64.0042 432.825 L64.0042 438.713 L28.3562 438.713 L28.3562 432.825 L33.8944 432.825 Q30.6797 430.724 29.0883 427.892 Q27.4968 425.027 27.4968 421.303 Q27.4968 415.16 31.2844 412.009 Q35.1038 408.858 42.4881 408.858 Z" fill="#000000" fill-rule="nonzero" fill-opacity="1" /><path clip-path="url(#clip372)" d="M249.542 1423.18 L249.542 1423.18 L424.81 1423.18 L600.078 1423.18 L775.346 1423.18 L950.613 1423.18 L1125.88 1423.18 L1301.15 1423.18 L1476.42 1423.18 L1651.68 1423.18 L1826.95 1423.18 L2002.22 1423.18 L2177.49 1423.18 L2352.76 1423.18 L2352.76 1423.18 L2352.76 1423.18 L2352.76 1423.18 L2352.76 1298.09 L2352.76 1173.01 L2352.76 1047.92 L2352.76 922.84 L2352.76 797.755 L2352.76 672.669 L2352.76 547.584 L2352.76 422.499 L2352.76 297.414 L2352.76 172.329 L2352.76 47.2441 L2352.76 47.2441 L2352.76 47.2441 L2352.76 47.2441 L2177.49 47.2441 L2002.22 47.2441 L1826.95 47.2441 L1651.68 47.2441 L1476.42 47.2441 L1301.15 47.2441 L1125.88 47.2441 L950.613 47.2441 L775.346 47.2441 L600.078 47.2441 L424.81 47.2441 L249.542 47.2441 L249.542 47.2441 L249.542 47.2441 L249.542 47.2441 L249.542 172.329 L249.542 297.414 L249.542 422.499 L249.542 547.584 L249.542 672.669 L249.542 797.755 L249.542 922.84 L249.542 1047.92 L249.542 1173.01 L249.542 1298.09 L249.542 1423.18 L249.542 1423.18 L249.542 1423.18  Z" fill="#008000" fill-rule="evenodd" fill-opacity="1"/>
<path clip-path="url(#clip372)" d="M249.542 1423.18 L249.542 1423.18 L249.542 1423.18 L358.683 1423.18 L249.542 1380.51 L249.542 1423.18 L249.542 1423.18 L249.542 1423.18 L249.542 1423.18 M950.613 1423.18 L1125.88 1423.18 L1301.15 1423.18 L1476.42 1423.18 L1651.68 1423.18 L1826.95 1423.18 L2002.22 1423.18 L2177.49 1423.18 L2352.76 1423.18 L2352.76 1423.18 L2352.76 1423.18 L2352.76 1423.18 L2352.76 1298.09 L2352.76 1173.01 L2352.76 1047.92 L2352.76 922.84 L2352.76 797.755 L2352.76 672.669 L2352.76 547.584 L2352.76 422.499 L2352.76 297.414 L2352.76 172.329 L2352.76 47.2441 L2352.76 47.2441 L2352.76 47.2441 L2352.76 47.2441 L2177.49 47.2441 L2002.22 47.2441 L1826.95 47.2441 L1651.68 47.2441 L1476.42 47.2441 L1515.63 47.2441 L1482.08 172.329 L1478.28 297.414 L1476.42 307.139 L1414.26 422.499 L1437.57 547.584 L1301.15 634.576 L1261.05 672.669 L1301.15 723.593 L1370.55 797.755 L1301.15 843.78 L1231.5 922.84 L1203.21 1047.92 L1125.88 1068.1 L985.101 1173.01 L1125.88 1242.77 L1211.48 1298.09 L1125.88 1414.04 L950.613 1420.59 L939.692 1423.18 L775.346 1423.18 L950.613 1423.18 M600.078 1377.44 L775.346 1378.27 L838.868 1298.09 L775.346 1260.63 L600.078 1240.88 L530.02 1298.09 L600.078 1377.44 M249.542 1298.09 L249.542 1275.62 L402.412 1173.01 L310.267 1047.92 L424.81 930.014 L448.435 922.84 L600.078 889.733 L620.081 922.84 L775.346 1009.69 L950.613 1028.52 L1057.91 922.84 L1116.57 797.755 L1051.78 672.669 L1087.53 547.584 L1124.75 422.499 L1125.88 414.025 L1243.73 297.414 L1295.33 172.329 L1228.19 47.2441 L1125.88 47.2441 L1125.88 47.2441 L950.613 47.2441 L775.346 47.2441 L600.078 47.2441 L424.81 47.2441 L249.542 47.2441 L249.542 47.2441 L249.542 47.2441 L249.542 47.2441 L249.542 172.329 L249.542 297.414 L249.542 422.499 L249.542 547.584 L249.542 672.669 L249.542 797.755 L249.542 922.84 L249.542 1047.92 L249.542 1173.01 L249.542 1298.09 M1301.15 1227.82 L1374.92 1173.01 L1301.15 1082.09 L1232.23 1173.01 L1301.15 1227.82  Z" fill="#fea400" fill-rule="evenodd" fill-opacity="1"/>
<path clip-path="url(#clip372)" d="M1301.15 1423.18 L1476.42 1423.18 L1651.68 1423.18 L1826.95 1423.18 L2002.22 1423.18 L2177.49 1423.18 L2352.76 1423.18 L2352.76 1423.18 L2352.76 1423.18 L2352.76 1423.18 L2352.76 1298.09 L2352.76 1173.01 L2352.76 1047.92 L2352.76 922.84 L2352.76 797.755 L2352.76 672.669 L2352.76 547.584 L2352.76 422.499 L2352.76 297.414 L2352.76 172.329 L2352.76 47.2441 L2352.76 47.2441 L2352.76 47.2441 L2352.76 47.2441 L2177.49 47.2441 L2002.22 47.2441 L2125.5 47.2441 L2052.93 172.329 L2002.22 241.462 L1965.97 172.329 L1826.95 89.8079 L1751.23 172.329 L1826.95 243.151 L1964.37 297.414 L1953.61 422.499 L1826.95 481.058 L1752.54 547.584 L1815.4 672.669 L1651.68 768.55 L1626.16 797.755 L1651.68 843.365 L1729.88 922.84 L1651.68 937.189 L1541.97 1047.92 L1476.42 1170.04 L1474.09 1173.01 L1476.42 1179.3 L1488.67 1173.01 L1651.68 1152.78 L1700.88 1173.01 L1651.68 1239.53 L1584.6 1298.09 L1476.42 1309.31 L1301.15 1313.22 L1254.51 1423.18 L1125.88 1423.18 L1301.15 1423.18 M249.542 1298.09 L249.542 1243.28 L354.235 1173.01 L249.542 1083.61 L249.542 1173.01 L249.542 1173.01 L249.542 1298.09 M1125.88 1181.99 L1139.58 1173.01 L1125.88 1159.5 L1107.75 1173.01 L1125.88 1181.99 M249.542 1047.92 L249.542 965.079 L303.858 922.84 L383.208 797.755 L405.596 672.669 L424.81 659.051 L547.747 672.669 L600.078 679.452 L618.511 672.669 L775.346 628.839 L950.613 570.825 L961.795 547.584 L1091.25 422.499 L1094.02 297.414 L1125.88 265.034 L1228.52 172.329 L1125.88 72.0934 L1113.74 47.2441 L950.613 47.2441 L950.613 47.2441 L775.346 47.2441 L600.078 47.2441 L424.81 47.2441 L249.542 47.2441 L316.338 47.2441 L249.542 65.7667 L249.542 172.329 L249.542 172.329 L249.542 297.414 L249.542 422.499 L249.542 547.584 L249.542 672.669 L249.542 797.755 L249.542 922.84 L249.542 1047.92 M950.613 919.43 L1096.69 797.755 L950.613 678.972 L776.332 797.755 L950.613 919.43 M1651.68 348.793 L1725.94 297.414 L1651.68 259.893 L1613.14 297.414 L1651.68 348.793  Z" fill="#ff0000" fill-rule="evenodd" fill-opacity="1"/>
<polyline clip-path="url(#clip372)" style="stroke:#000000; stroke-linecap:round; stroke-linejoin:round; stroke-width:4; stroke-opacity:1; fill:none" points="249.542,1423.18 249.542,1423.18 424.81,1423.18 600.078,1423.18 775.346,1423.18 950.613,1423.18 1125.88,1423.18 1301.15,1423.18 1476.42,1423.18 1651.68,1423.18 1826.95,1423.18 2002.22,1423.18 2177.49,1423.18 2352.76,1423.18 2352.76,1298.09 2352.76,1173.01 2352.76,1047.92 2352.76,922.84 2352.76,797.755 2352.76,672.669 2352.76,547.584 2352.76,422.499 2352.76,297.414 2352.76,172.329 2352.76,47.2441 2177.49,47.2441 2002.22,47.2441 1826.95,47.2441 1651.68,47.2441 1476.42,47.2441 1301.15,47.2441 1125.88,47.2441 950.613,47.2441 775.346,47.2441 600.078,47.2441 424.81,47.2441 249.542,47.2441 249.542,172.329 249.542,297.414 249.542,422.499 249.542,547.584 249.542,672.669 249.542,797.755 249.542,922.84 249.542,1047.92 249.542,1173.01 249.542,1298.09 249.542,1423.18 "/>
<polyline clip-path="url(#clip372)" style="stroke:#000000; stroke-linecap:round; stroke-linejoin:round; stroke-width:4; stroke-opacity:1; fill:none" points="249.542,1423.18 249.542,1423.18 358.683,1423.18 249.542,1380.51 249.542,1423.18 "/>
<polyline clip-path="url(#clip372)" style="stroke:#000000; stroke-linecap:round; stroke-linejoin:round; stroke-width:4; stroke-opacity:1; fill:none" points="950.613,1423.18 1125.88,1423.18 1301.15,1423.18 1476.42,1423.18 1651.68,1423.18 1826.95,1423.18 2002.22,1423.18 2177.49,1423.18 2352.76,1423.18 2352.76,1298.09 2352.76,1173.01 2352.76,1047.92 2352.76,922.84 2352.76,797.755 2352.76,672.669 2352.76,547.584 2352.76,422.499 2352.76,297.414 2352.76,172.329 2352.76,47.2441 2177.49,47.2441 2002.22,47.2441 1826.95,47.2441 1651.68,47.2441 1476.42,47.2441 1515.63,47.2441 1482.08,172.329 1478.28,297.414 1476.42,307.139 1414.26,422.499 1437.57,547.584 1301.15,634.576 1261.05,672.669 1301.15,723.593 1370.55,797.755 1301.15,843.78 1231.5,922.84 1203.21,1047.92 1125.88,1068.1 985.101,1173.01 1125.88,1242.77 1211.48,1298.09 1125.88,1414.04 950.613,1420.59 939.692,1423.18 775.346,1423.18 950.613,1423.18 "/>
<polyline clip-path="url(#clip372)" style="stroke:#000000; stroke-linecap:round; stroke-linejoin:round; stroke-width:4; stroke-opacity:1; fill:none" points="600.078,1377.44 775.346,1378.27 838.868,1298.09 775.346,1260.63 600.078,1240.88 530.02,1298.09 600.078,1377.44 "/>
<polyline clip-path="url(#clip372)" style="stroke:#000000; stroke-linecap:round; stroke-linejoin:round; stroke-width:4; stroke-opacity:1; fill:none" points="249.542,1298.09 249.542,1275.62 402.412,1173.01 310.267,1047.92 424.81,930.014 448.435,922.84 600.078,889.733 620.081,922.84 775.346,1009.69 950.613,1028.52 1057.91,922.84 1116.57,797.755 1051.78,672.669 1087.53,547.584 1124.75,422.499 1125.88,414.025 1243.73,297.414 1295.33,172.329 1228.19,47.2441 1125.88,47.2441 950.613,47.2441 775.346,47.2441 600.078,47.2441 424.81,47.2441 249.542,47.2441 249.542,172.329 249.542,297.414 249.542,422.499 249.542,547.584 249.542,672.669 249.542,797.755 249.542,922.84 249.542,1047.92 249.542,1173.01 249.542,1298.09 "/>
<polyline clip-path="url(#clip372)" style="stroke:#000000; stroke-linecap:round; stroke-linejoin:round; stroke-width:4; stroke-opacity:1; fill:none" points="1301.15,1227.82 1374.92,1173.01 1301.15,1082.09 1232.23,1173.01 1301.15,1227.82 "/>
<polyline clip-path="url(#clip372)" style="stroke:#000000; stroke-linecap:round; stroke-linejoin:round; stroke-width:4; stroke-opacity:1; fill:none" points="1301.15,1423.18 1476.42,1423.18 1651.68,1423.18 1826.95,1423.18 2002.22,1423.18 2177.49,1423.18 2352.76,1423.18 2352.76,1298.09 2352.76,1173.01 2352.76,1047.92 2352.76,922.84 2352.76,797.755 2352.76,672.669 2352.76,547.584 2352.76,422.499 2352.76,297.414 2352.76,172.329 2352.76,47.2441 2177.49,47.2441 2002.22,47.2441 2125.5,47.2441 2052.93,172.329 2002.22,241.462 1965.97,172.329 1826.95,89.8079 1751.23,172.329 1826.95,243.151 1964.37,297.414 1953.61,422.499 1826.95,481.058 1752.54,547.584 1815.4,672.669 1651.68,768.55 1626.16,797.755 1651.68,843.365 1729.88,922.84 1651.68,937.189 1541.97,1047.92 1476.42,1170.04 1474.09,1173.01 1476.42,1179.3 1488.67,1173.01 1651.68,1152.78 1700.88,1173.01 1651.68,1239.53 1584.6,1298.09 1476.42,1309.31 1301.15,1313.22 1254.51,1423.18 1125.88,1423.18 1301.15,1423.18 "/>
<polyline clip-path="url(#clip372)" style="stroke:#000000; stroke-linecap:round; stroke-linejoin:round; stroke-width:4; stroke-opacity:1; fill:none" points="249.542,1298.09 249.542,1243.28 354.235,1173.01 249.542,1083.61 249.542,1173.01 249.542,1298.09 "/>
<polyline clip-path="url(#clip372)" style="stroke:#000000; stroke-linecap:round; stroke-linejoin:round; stroke-width:4; stroke-opacity:1; fill:none" points="1125.88,1181.99 1139.58,1173.01 1125.88,1159.5 1107.75,1173.01 1125.88,1181.99 "/>
<polyline clip-path="url(#clip372)" style="stroke:#000000; stroke-linecap:round; stroke-linejoin:round; stroke-width:4; stroke-opacity:1; fill:none" points="249.542,1047.92 249.542,965.079 303.858,922.84 383.208,797.755 405.596,672.669 424.81,659.051 547.747,672.669 600.078,679.452 618.511,672.669 775.346,628.839 950.613,570.825 961.795,547.584 1091.25,422.499 1094.02,297.414 1125.88,265.034 1228.52,172.329 1125.88,72.0934 1113.74,47.2441 950.613,47.2441 775.346,47.2441 600.078,47.2441 424.81,47.2441 249.542,47.2441 316.338,47.2441 249.542,65.7667 249.542,172.329 249.542,297.414 249.542,422.499 249.542,547.584 249.542,672.669 249.542,797.755 249.542,922.84 249.542,1047.92 "/>
<polyline clip-path="url(#clip372)" style="stroke:#000000; stroke-linecap:round; stroke-linejoin:round; stroke-width:4; stroke-opacity:1; fill:none" points="950.613,919.43 1096.69,797.755 950.613,678.972 776.332,797.755 950.613,919.43 "/>
<polyline clip-path="url(#clip372)" style="stroke:#000000; stroke-linecap:round; stroke-linejoin:round; stroke-width:4; stroke-opacity:1; fill:none" points="1651.68,348.793 1725.94,297.414 1651.68,259.893 1613.14,297.414 1651.68,348.793 "/>
<path clip-path="url(#clip372)" d="M1172.41 1193.9 L1157.37 1237.16 L1111.54 1238.12 L1148.09 1265.83 L1134.78 1309.67 L1172.41 1283.5 L1210.04 1309.67 L1196.73 1265.83 L1233.27 1238.12 L1187.45 1237.16 L1172.41 1193.9 Z" fill="#00ffff" fill-rule="evenodd" fill-opacity="1" stroke="#000000" stroke-opacity="1" stroke-width="3.2"/>
</svg>
